<svg width="20" height="20" viewBox="0 0 20 20" fill="none" xmlns="http://www.w3.org/2000/svg">
<g clip-path="url(#clip0_622_1769)">
<mask id="mask0_622_1769" style="mask-type:luminance" maskUnits="userSpaceOnUse" x="0" y="0" width="20" height="20">
<path d="M20 0H0V20H20V0Z" fill="white"/>
</mask>
<g mask="url(#mask0_622_1769)">
<path d="M5.01142 9.30286C5.04377 9.49744 5.14409 9.67424 5.29455 9.80181C5.445 9.92938 5.63583 9.99944 5.83309 9.99952C5.87918 9.99972 5.92519 9.99584 5.97059 9.98786L8.47059 9.57119C8.62155 9.546 8.76267 9.47972 8.87845 9.37962C8.99423 9.27952 9.08021 9.14947 9.12696 9.00373C9.1737 8.85799 9.1794 8.70219 9.14344 8.55342C9.10748 8.40465 9.03124 8.26866 8.92309 8.16036L6.42309 5.66036C6.34572 5.58293 6.25385 5.52151 6.15274 5.47958C6.05163 5.43766 5.94325 5.41606 5.8338 5.41602C5.72434 5.41599 5.61595 5.43751 5.51481 5.47936C5.41367 5.52121 5.32176 5.58257 5.24434 5.65994C5.16691 5.73731 5.10548 5.82918 5.06356 5.93029C5.02164 6.0314 5.00004 6.13977 5 6.24923C4.99996 6.35869 5.02148 6.46708 5.06333 6.56822C5.10519 6.66936 5.16655 6.76127 5.24392 6.83869L6.31225 7.90786C6.33952 7.93477 6.35881 7.96871 6.36797 8.00591C6.37713 8.04312 6.37582 8.08213 6.36417 8.11863C6.35252 8.15513 6.33099 8.18769 6.30197 8.21271C6.27295 8.23773 6.23757 8.25422 6.19975 8.26036L5.69975 8.34369C5.59149 8.36129 5.48777 8.40009 5.39453 8.45787C5.3013 8.51564 5.22039 8.59125 5.15644 8.68036C5.09249 8.76947 5.04676 8.87033 5.02187 8.97715C4.99699 9.08398 4.99344 9.19466 5.01142 9.30286Z" fill="#FCA573"/>
<path d="M14.7557 5.66098C14.5994 5.50475 14.3875 5.41699 14.1665 5.41699C13.9456 5.41699 13.7336 5.50475 13.5774 5.66098L11.0774 8.16098C10.9672 8.27029 10.8898 8.40817 10.8538 8.55911C10.8178 8.71004 10.8246 8.86803 10.8736 9.01528C10.9225 9.16253 11.0116 9.29319 11.1308 9.39255C11.25 9.4919 11.3945 9.55601 11.5482 9.57765L14.4649 9.99431C14.6837 10.0257 14.906 9.96888 15.0829 9.83635C15.2598 9.70382 15.3768 9.50645 15.4082 9.28765C15.4396 9.06884 15.3828 8.84653 15.2502 8.66962C15.1177 8.49271 14.9203 8.3757 14.7015 8.34431L13.8465 8.22265C13.8081 8.2172 13.772 8.20115 13.7422 8.1763C13.7125 8.15145 13.6902 8.11878 13.678 8.08197C13.6658 8.04517 13.6641 8.00568 13.6731 7.96796C13.6821 7.93025 13.7015 7.89579 13.729 7.86848L14.7557 6.84181C14.8334 6.76439 14.8951 6.67238 14.9372 6.57106C14.9793 6.46974 15.0009 6.36111 15.0009 6.2514C15.0009 6.14168 14.9793 6.03305 14.9372 5.93173C14.8951 5.83041 14.8334 5.7384 14.7557 5.66098Z" fill="#FCA573"/>
<path d="M14.3333 12.0831H5.66666C5.59352 12.0831 5.52167 12.1023 5.45833 12.1389C5.39499 12.1755 5.34239 12.2281 5.30582 12.2914C5.26925 12.3547 5.25 12.4266 5.25 12.4997C5.25 12.5729 5.26925 12.6447 5.30582 12.7081C5.63783 13.2822 6.07223 13.7906 6.58749 14.2081C6.612 14.2283 6.63163 14.2538 6.6449 14.2826C6.65818 14.3115 6.66476 14.343 6.66416 14.3747V16.6664C6.66416 17.5505 7.01535 18.3983 7.64047 19.0234C8.26559 19.6485 9.11343 19.9997 9.99749 19.9997C10.8815 19.9997 11.7294 19.6485 12.3545 19.0234C12.9796 18.3983 13.3308 17.5505 13.3308 16.6664V14.3697C13.3301 14.3379 13.3368 14.3063 13.3502 14.2774C13.3636 14.2485 13.3835 14.2231 13.4083 14.2031C13.9231 13.7853 14.3572 13.2769 14.6892 12.7031C14.7257 12.6397 14.745 12.5679 14.745 12.4947C14.745 12.4216 14.7257 12.3497 14.6892 12.2864C14.6526 12.2231 14.6 12.1705 14.5367 12.1339C14.4733 12.0973 14.4015 12.0781 14.3283 12.0781L14.3333 12.0831ZM9.99999 18.3331C9.55796 18.3331 9.13404 18.1575 8.82148 17.8449C8.50892 17.5324 8.33332 17.1084 8.33332 16.6664V14.6247C8.33344 14.586 8.34424 14.5481 8.36453 14.5152C8.38482 14.4823 8.41382 14.4556 8.44832 14.4381C8.93818 14.2308 9.46884 14.1379 9.99999 14.1664C10.5279 14.1411 11.055 14.2295 11.5458 14.4256C11.5819 14.4424 11.6124 14.4691 11.6338 14.5026C11.6552 14.5361 11.6666 14.575 11.6667 14.6147V16.6664C11.6667 17.1084 11.4911 17.5324 11.1785 17.8449C10.8659 18.1575 10.442 18.3331 9.99999 18.3331Z" fill="#FCA573"/>
<path d="M9.99958 1.53657e-08C7.93625 -0.000114336 5.92339 0.638026 4.23702 1.82692C2.55064 3.01581 1.27331 4.69725 0.580165 6.64067C-0.112976 8.5841 -0.187988 10.6944 0.365415 12.6821C0.918818 14.6698 2.07354 16.4377 3.67125 17.7433C3.84272 17.8792 4.06077 17.9423 4.2783 17.9188C4.49584 17.8953 4.69542 17.7872 4.83393 17.6178C4.97245 17.4484 5.0388 17.2314 5.01865 17.0135C4.9985 16.7956 4.89347 16.5944 4.72625 16.4533C3.3939 15.3644 2.43131 13.8898 1.97064 12.2319C1.50997 10.574 1.57381 8.81412 2.1534 7.19395C2.73299 5.57379 3.7999 4.17277 5.20764 3.18326C6.61537 2.19375 8.29491 1.66428 10.0156 1.66755C11.7363 1.67082 13.4138 2.20667 14.8178 3.20152C16.2218 4.19638 17.2833 5.60145 17.8568 7.2238C18.4302 8.84616 18.4873 10.6062 18.0204 12.2624C17.5534 13.9185 16.5852 15.3895 15.2487 16.4733C15.16 16.541 15.0858 16.6258 15.0305 16.7226C14.9751 16.8195 14.9398 16.9265 14.9266 17.0373C14.9134 17.1481 14.9226 17.2604 14.9536 17.3676C14.9846 17.4747 15.0368 17.5746 15.1071 17.6612C15.1774 17.7478 15.2644 17.8194 15.3629 17.8718C15.4615 17.9242 15.5695 17.9562 15.6806 17.9661C15.7918 17.9759 15.9037 17.9633 16.0099 17.9291C16.1161 17.8948 16.2143 17.8396 16.2987 17.7667C17.9037 16.465 19.066 14.6981 19.6257 12.7089C20.1855 10.7197 20.1153 8.60597 19.4248 6.65832C18.7342 4.71067 17.4573 3.02478 15.7695 1.83247C14.0817 0.640155 12.066 -1.00198e-05 9.99958 1.53657e-08Z" fill="#FCA573"/>
</g>
</g>
<defs>
<clipPath id="clip0_622_1769">
<rect width="20" height="20" fill="white"/>
</clipPath>
</defs>
</svg>
