<svg width="20" height="20" viewBox="0 0 20 20" fill="none" xmlns="http://www.w3.org/2000/svg">
<g clip-path="url(#clip0_552_3599)">
<path d="M5.01142 9.30334C5.04377 9.49792 5.14409 9.67472 5.29455 9.80229C5.445 9.92986 5.63583 9.99992 5.83309 10C5.87918 10.0002 5.92519 9.99632 5.97059 9.98834L8.47059 9.57167C8.62155 9.54648 8.76267 9.4802 8.87845 9.3801C8.99423 9.28 9.08021 9.14995 9.12696 9.00421C9.1737 8.85847 9.1794 8.70267 9.14344 8.5539C9.10748 8.40513 9.03124 8.26914 8.92309 8.16084L6.42309 5.66084C6.34572 5.58341 6.25385 5.52199 6.15274 5.48006C6.05163 5.43814 5.94325 5.41654 5.8338 5.4165C5.72434 5.41647 5.61595 5.43799 5.51481 5.47984C5.41367 5.52169 5.32176 5.58305 5.24434 5.66042C5.16691 5.73779 5.10548 5.82966 5.06356 5.93077C5.02164 6.03188 5.00004 6.14025 5 6.24971C4.99996 6.35917 5.02148 6.46756 5.06333 6.5687C5.10519 6.66984 5.16655 6.76175 5.24392 6.83917L6.31225 7.90834C6.33952 7.93525 6.35881 7.96919 6.36797 8.00639C6.37713 8.0436 6.37582 8.08261 6.36417 8.11911C6.35252 8.15561 6.33099 8.18817 6.30197 8.21319C6.27295 8.23821 6.23757 8.2547 6.19975 8.26084L5.69975 8.34417C5.59149 8.36177 5.48777 8.40057 5.39453 8.45835C5.3013 8.51612 5.22039 8.59173 5.15644 8.68084C5.09249 8.76995 5.04676 8.87081 5.02187 8.97763C4.99699 9.08446 4.99344 9.19514 5.01142 9.30334Z" fill="#F9630F"/>
<path d="M14.7557 5.66086C14.5994 5.50463 14.3875 5.41687 14.1665 5.41687C13.9456 5.41687 13.7336 5.50463 13.5774 5.66086L11.0774 8.16086C10.9672 8.27017 10.8898 8.40805 10.8538 8.55899C10.8178 8.70992 10.8246 8.86791 10.8736 9.01516C10.9225 9.16241 11.0116 9.29307 11.1308 9.39243C11.25 9.49178 11.3945 9.55589 11.5482 9.57753L14.4649 9.99419C14.6837 10.0256 14.906 9.96876 15.0829 9.83623C15.2598 9.7037 15.3768 9.50633 15.4082 9.28753C15.4396 9.06872 15.3828 8.84641 15.2502 8.6695C15.1177 8.49259 14.9203 8.37558 14.7015 8.34419L13.8465 8.22253C13.8081 8.21708 13.772 8.20103 13.7422 8.17618C13.7125 8.15133 13.6902 8.11866 13.678 8.08185C13.6658 8.04505 13.6641 8.00556 13.6731 7.96784C13.6821 7.93013 13.7015 7.89567 13.729 7.86836L14.7557 6.84169C14.8334 6.76427 14.8951 6.67226 14.9372 6.57094C14.9793 6.46962 15.0009 6.36099 15.0009 6.25128C15.0009 6.14156 14.9793 6.03293 14.9372 5.93161C14.8951 5.83029 14.8334 5.73828 14.7557 5.66086Z" fill="#F9630F"/>
<path d="M14.3333 12.0834H5.66666C5.59352 12.0834 5.52167 12.1026 5.45833 12.1392C5.39499 12.1758 5.34239 12.2284 5.30582 12.2917C5.26925 12.355 5.25 12.4269 5.25 12.5C5.25 12.5732 5.26925 12.645 5.30582 12.7084C5.63783 13.2825 6.07223 13.7909 6.58749 14.2084C6.612 14.2286 6.63163 14.2541 6.6449 14.2829C6.65818 14.3118 6.66476 14.3433 6.66416 14.375V16.6667C6.66416 17.5508 7.01535 18.3986 7.64047 19.0237C8.26559 19.6488 9.11343 20 9.99749 20C10.8815 20 11.7294 19.6488 12.3545 19.0237C12.9796 18.3986 13.3308 17.5508 13.3308 16.6667V14.37C13.3301 14.3382 13.3368 14.3066 13.3502 14.2777C13.3636 14.2488 13.3835 14.2234 13.4083 14.2034C13.9231 13.7856 14.3572 13.2772 14.6892 12.7034C14.7257 12.64 14.745 12.5682 14.745 12.495C14.745 12.4219 14.7257 12.35 14.6892 12.2867C14.6526 12.2234 14.6 12.1708 14.5367 12.1342C14.4733 12.0976 14.4015 12.0784 14.3283 12.0784L14.3333 12.0834ZM9.99999 18.3334C9.55796 18.3334 9.13404 18.1578 8.82148 17.8452C8.50892 17.5327 8.33332 17.1087 8.33332 16.6667V14.625C8.33344 14.5863 8.34424 14.5484 8.36453 14.5155C8.38482 14.4826 8.41382 14.4559 8.44832 14.4384C8.93818 14.2311 9.46884 14.1382 9.99999 14.1667C10.5279 14.1414 11.055 14.2298 11.5458 14.4259C11.5819 14.4427 11.6124 14.4694 11.6338 14.5029C11.6552 14.5364 11.6666 14.5753 11.6667 14.615V16.6667C11.6667 17.1087 11.4911 17.5327 11.1785 17.8452C10.8659 18.1578 10.442 18.3334 9.99999 18.3334Z" fill="#F9630F"/>
<path d="M9.99958 1.53658e-08C7.93625 -0.000114336 5.92339 0.638026 4.23702 1.82692C2.55064 3.01581 1.27331 4.69725 0.580165 6.64067C-0.112976 8.5841 -0.187988 10.6944 0.365415 12.6821C0.918818 14.6698 2.07354 16.4377 3.67125 17.7433C3.84272 17.8792 4.06077 17.9423 4.2783 17.9188C4.49584 17.8953 4.69542 17.7872 4.83393 17.6178C4.97245 17.4484 5.0388 17.2314 5.01865 17.0135C4.9985 16.7956 4.89347 16.5944 4.72625 16.4533C3.3939 15.3644 2.43131 13.8898 1.97064 12.2319C1.50997 10.574 1.57381 8.81412 2.1534 7.19395C2.73299 5.57379 3.7999 4.17277 5.20764 3.18326C6.61537 2.19375 8.29491 1.66428 10.0156 1.66755C11.7363 1.67082 13.4138 2.20667 14.8178 3.20152C16.2218 4.19638 17.2833 5.60145 17.8568 7.2238C18.4302 8.84616 18.4873 10.6062 18.0204 12.2624C17.5534 13.9185 16.5852 15.3895 15.2487 16.4733C15.16 16.541 15.0858 16.6258 15.0305 16.7226C14.9751 16.8195 14.9398 16.9265 14.9266 17.0373C14.9134 17.1481 14.9226 17.2604 14.9536 17.3676C14.9846 17.4747 15.0368 17.5746 15.1071 17.6612C15.1774 17.7478 15.2644 17.8194 15.3629 17.8718C15.4615 17.9242 15.5695 17.9562 15.6806 17.9661C15.7918 17.9759 15.9037 17.9633 16.0099 17.9291C16.1161 17.8948 16.2143 17.8396 16.2987 17.7667C17.9037 16.465 19.066 14.6981 19.6257 12.7089C20.1855 10.7197 20.1153 8.60597 19.4248 6.65832C18.7342 4.71067 17.4573 3.02478 15.7695 1.83247C14.0817 0.640155 12.066 -1.00198e-05 9.99958 1.53658e-08Z" fill="#F9630F"/>
</g>
<defs>
<clipPath id="clip0_552_3599">
<rect width="20" height="20" fill="white"/>
</clipPath>
</defs>
</svg>
