<svg width="20" height="20" viewBox="0 0 20 20" fill="none" xmlns="http://www.w3.org/2000/svg">
<g clip-path="url(#clip0_552_3514)">
<path d="M15.4042 8.58335C15.211 8.47626 14.9832 8.45025 14.7708 8.51104C14.5585 8.57182 14.3789 8.71443 14.2717 8.90752C14.2114 8.98903 14.1328 9.05526 14.0423 9.10091C13.9518 9.14655 13.8518 9.17032 13.7504 9.17032C13.649 9.17032 13.5491 9.14655 13.4585 9.10091C13.368 9.05526 13.2894 8.98903 13.2292 8.90752C13.1221 8.71413 12.9426 8.5712 12.7301 8.51018C12.5176 8.44915 12.2896 8.47502 12.0962 8.5821C11.9029 8.68918 11.7599 8.8687 11.6989 9.08117C11.6379 9.29363 11.6637 9.52163 11.7708 9.71502C11.9711 10.0609 12.2601 10.347 12.6081 10.5437C12.9561 10.7403 13.3504 10.8403 13.75 10.8334C14.1498 10.8397 14.5441 10.7392 14.892 10.5421C15.24 10.3451 15.529 10.0587 15.7292 9.71252C15.8351 9.51955 15.8604 9.29248 15.7995 9.08091C15.7386 8.86934 15.5965 8.69047 15.4042 8.58335Z" fill="#1A45B4"/>
<path d="M6.25031 10.8333C6.64986 10.8395 7.0438 10.7388 7.39134 10.5415C7.73888 10.3443 8.02738 10.0578 8.22698 9.71164C8.33406 9.51825 8.35994 9.29025 8.29891 9.07778C8.23788 8.86532 8.09495 8.6858 7.90156 8.57872C7.70818 8.47164 7.48017 8.44577 7.26771 8.5068C7.05525 8.56782 6.87573 8.71075 6.76865 8.90414C6.70836 8.98565 6.6298 9.05188 6.53927 9.09752C6.44875 9.14317 6.34878 9.16694 6.2474 9.16694C6.14602 9.16694 6.04605 9.14317 5.95552 9.09752C5.865 9.05188 5.78643 8.98565 5.72615 8.90414C5.6743 8.80615 5.60341 8.71949 5.51765 8.64924C5.43189 8.57899 5.33297 8.52656 5.22669 8.49502C5.12042 8.46347 5.00891 8.45345 4.89871 8.46554C4.78851 8.47763 4.68183 8.51159 4.58492 8.56542C4.488 8.61926 4.40281 8.69189 4.33431 8.77906C4.26582 8.86623 4.21541 8.96619 4.18604 9.07309C4.15666 9.17999 4.14891 9.29168 4.16324 9.40161C4.17757 9.51154 4.21369 9.61751 4.26948 9.71331C4.46991 10.0596 4.75922 10.346 5.10748 10.5429C5.45574 10.7398 5.8503 10.8401 6.25031 10.8333Z" fill="#1A45B4"/>
<path d="M4.99984 7.47666C5.13984 7.47666 8.43567 7.44416 9.1415 4.62332C9.19344 4.40956 9.15874 4.18393 9.04498 3.99565C8.93121 3.80736 8.74762 3.6717 8.53423 3.61824C8.32084 3.56479 8.09497 3.59787 7.90588 3.71029C7.71679 3.8227 7.57982 4.00532 7.52484 4.21832C7.13567 5.77249 5.08317 5.80916 4.99984 5.80999C4.77882 5.80999 4.56686 5.89779 4.41058 6.05407C4.2543 6.21035 4.1665 6.42231 4.1665 6.64332C4.1665 6.86434 4.2543 7.0763 4.41058 7.23258C4.56686 7.38886 4.77882 7.47666 4.99984 7.47666Z" fill="#1A45B4"/>
<path d="M14.9996 7.47666C15.2206 7.47666 15.4326 7.38886 15.5889 7.23258C15.7451 7.0763 15.8329 6.86434 15.8329 6.64332C15.8329 6.42231 15.7451 6.21035 15.5889 6.05407C15.4326 5.89779 15.2206 5.80999 14.9996 5.80999C14.9121 5.80999 12.8604 5.77332 12.4713 4.21832C12.4163 4.00532 12.2793 3.8227 12.0902 3.71029C11.9011 3.59787 11.6753 3.56479 11.4619 3.61824C11.2485 3.6717 11.0649 3.80736 10.9511 3.99565C10.8374 4.18393 10.8027 4.40956 10.8546 4.62332C11.5638 7.44416 14.8596 7.47666 14.9996 7.47666Z" fill="#1A45B4"/>
<path d="M10 0C8.02219 0 6.08879 0.58649 4.4443 1.6853C2.79981 2.78412 1.51809 4.3459 0.761209 6.17317C0.00433286 8.00043 -0.193701 10.0111 0.192152 11.9509C0.578004 13.8907 1.53041 15.6725 2.92894 17.0711C4.32746 18.4696 6.10929 19.422 8.0491 19.8079C9.98891 20.1937 11.9996 19.9957 13.8268 19.2388C15.6541 18.4819 17.2159 17.2002 18.3147 15.5557C19.4135 13.9112 20 11.9778 20 10C19.9971 7.34872 18.9426 4.80684 17.0679 2.9321C15.1932 1.05736 12.6513 0.00286757 10 0ZM10 18.3333C8.35183 18.3333 6.74066 17.8446 5.37025 16.9289C3.99984 16.0132 2.93174 14.7117 2.30101 13.189C1.67028 11.6663 1.50525 9.99076 1.82679 8.37425C2.14834 6.75774 2.94201 5.27288 4.10745 4.10744C5.27289 2.94201 6.75774 2.14833 8.37425 1.82679C9.99076 1.50525 11.6663 1.67027 13.189 2.301C14.7118 2.93173 16.0132 3.99984 16.9289 5.37025C17.8446 6.74066 18.3333 8.35182 18.3333 10C18.3309 12.2094 17.4522 14.3276 15.8899 15.8899C14.3276 17.4522 12.2094 18.3309 10 18.3333Z" fill="#1A45B4"/>
<path d="M10.0001 12.4908C9.16551 12.4903 8.34549 12.7097 7.62264 13.127C6.8998 13.5442 6.29965 14.1445 5.88263 14.8675C5.85073 14.9231 5.83395 14.9861 5.83398 15.0502C5.83401 15.1143 5.85085 15.1773 5.8828 15.2328C5.91476 15.2884 5.96072 15.3346 6.01611 15.3669C6.07149 15.3991 6.13437 15.4163 6.19847 15.4167C8.70225 14.8617 11.2972 14.8617 13.801 15.4167C13.8651 15.4166 13.9281 15.3997 13.9836 15.3676C14.0392 15.3355 14.0853 15.2893 14.1174 15.2338C14.1494 15.1783 14.1664 15.1152 14.1664 15.0511C14.1665 14.987 14.1496 14.9239 14.1176 14.8683C13.7007 14.1452 13.1006 13.5447 12.3778 13.1273C11.6549 12.71 10.8348 12.4904 10.0001 12.4908Z" fill="#1A45B4"/>
</g>
<defs>
<clipPath id="clip0_552_3514">
<rect width="20" height="20" fill="white"/>
</clipPath>
</defs>
</svg>
