<svg width="20" height="20" viewBox="0 0 20 20" fill="none" xmlns="http://www.w3.org/2000/svg">
<g clip-path="url(#clip0_622_1778)">
<mask id="mask0_622_1778" style="mask-type:luminance" maskUnits="userSpaceOnUse" x="0" y="0" width="20" height="20">
<path d="M20 0H0V20H20V0Z" fill="white"/>
</mask>
<g mask="url(#mask0_622_1778)">
<path d="M15.4047 8.58311C15.2115 8.47602 14.9837 8.45001 14.7713 8.5108C14.559 8.57158 14.3794 8.71419 14.2722 8.90728C14.2119 8.98879 14.1333 9.05502 14.0428 9.10067C13.9523 9.14631 13.8523 9.17008 13.7509 9.17008C13.6495 9.17008 13.5496 9.14631 13.459 9.10067C13.3685 9.05502 13.2899 8.98879 13.2297 8.90728C13.1226 8.71389 12.9431 8.57096 12.7306 8.50994C12.5181 8.44891 12.2901 8.47478 12.0967 8.58186C11.9034 8.68894 11.7604 8.86846 11.6994 9.08093C11.6384 9.29339 11.6642 9.52139 11.7713 9.71478C11.9716 10.0607 12.2606 10.3468 12.6086 10.5435C12.9566 10.7401 13.3509 10.8401 13.7505 10.8332C14.1503 10.8395 14.5446 10.739 14.8925 10.5419C15.2405 10.3449 15.5295 10.0585 15.7297 9.71228C15.8356 9.51931 15.8609 9.29224 15.8 9.08067C15.7391 8.8691 15.597 8.69023 15.4047 8.58311Z" fill="#85A5F8"/>
<path d="M6.25031 10.8337C6.64986 10.8399 7.0438 10.7392 7.39134 10.5419C7.73888 10.3447 8.02738 10.0582 8.22698 9.71201C8.33406 9.51862 8.35994 9.29062 8.29891 9.07815C8.23788 8.86569 8.09495 8.68617 7.90156 8.57909C7.70818 8.47201 7.48017 8.44614 7.26771 8.50717C7.05525 8.56819 6.87573 8.71112 6.76865 8.90451C6.70836 8.98602 6.6298 9.05225 6.53927 9.09789C6.44875 9.14354 6.34878 9.16731 6.2474 9.16731C6.14602 9.16731 6.04605 9.14354 5.95552 9.09789C5.865 9.05225 5.78643 8.98602 5.72615 8.90451C5.6743 8.80652 5.60341 8.71986 5.51765 8.64961C5.43189 8.57936 5.33297 8.52693 5.22669 8.49539C5.12042 8.46384 5.00891 8.45382 4.89871 8.46591C4.78851 8.478 4.68183 8.51196 4.58492 8.56579C4.488 8.61963 4.40281 8.69226 4.33431 8.77943C4.26582 8.8666 4.21541 8.96656 4.18604 9.07346C4.15666 9.18036 4.14891 9.29205 4.16324 9.40198C4.17757 9.51191 4.21369 9.61788 4.26948 9.71368C4.46991 10.06 4.75922 10.3464 5.10748 10.5433C5.45574 10.7402 5.8503 10.8405 6.25031 10.8337Z" fill="#85A5F8"/>
<path d="M4.99936 7.47715C5.13936 7.47715 8.43519 7.44465 9.14102 4.62381C9.19296 4.41005 9.15826 4.18442 9.0445 3.99614C8.93073 3.80785 8.74714 3.67219 8.53375 3.61873C8.32036 3.56528 8.09449 3.59836 7.9054 3.71078C7.71631 3.82319 7.57934 4.00581 7.52436 4.21881C7.13519 5.77298 5.08269 5.80965 4.99936 5.81048C4.77834 5.81048 4.56638 5.89828 4.4101 6.05456C4.25382 6.21084 4.16602 6.4228 4.16602 6.64381C4.16602 6.86483 4.25382 7.07679 4.4101 7.23307C4.56638 7.38935 4.77834 7.47715 4.99936 7.47715Z" fill="#85A5F8"/>
<path d="M14.9996 7.47715C15.2206 7.47715 15.4326 7.38935 15.5889 7.23307C15.7451 7.07679 15.8329 6.86483 15.8329 6.64381C15.8329 6.4228 15.7451 6.21084 15.5889 6.05456C15.4326 5.89828 15.2206 5.81048 14.9996 5.81048C14.9121 5.81048 12.8604 5.77381 12.4713 4.21881C12.4163 4.00581 12.2793 3.82319 12.0902 3.71078C11.9011 3.59836 11.6753 3.56528 11.4619 3.61873C11.2485 3.67219 11.0649 3.80785 10.9511 3.99614C10.8374 4.18442 10.8027 4.41005 10.8546 4.62381C11.5638 7.44465 14.8596 7.47715 14.9996 7.47715Z" fill="#85A5F8"/>
<path d="M10 0C8.02219 0 6.08879 0.58649 4.4443 1.6853C2.79981 2.78412 1.51809 4.3459 0.761209 6.17317C0.00433302 8.00043 -0.193701 10.0111 0.192152 11.9509C0.578004 13.8907 1.53041 15.6725 2.92894 17.0711C4.32746 18.4696 6.10929 19.422 8.0491 19.8079C9.98891 20.1937 11.9996 19.9957 13.8268 19.2388C15.6541 18.4819 17.2159 17.2002 18.3147 15.5557C19.4135 13.9112 20 11.9778 20 10C19.9971 7.34872 18.9426 4.80684 17.0679 2.9321C15.1932 1.05736 12.6513 0.00286757 10 0ZM10 18.3333C8.35183 18.3333 6.74066 17.8446 5.37025 16.9289C3.99984 16.0132 2.93174 14.7117 2.30101 13.189C1.67028 11.6663 1.50525 9.99076 1.82679 8.37425C2.14834 6.75774 2.94201 5.27288 4.10745 4.10744C5.27289 2.94201 6.75774 2.14833 8.37425 1.82679C9.99076 1.50525 11.6663 1.67027 13.189 2.301C14.7118 2.93173 16.0132 3.99984 16.9289 5.37025C17.8446 6.74066 18.3333 8.35182 18.3333 10C18.3309 12.2094 17.4522 14.3276 15.8899 15.8899C14.3276 17.4522 12.2094 18.3309 10 18.3333Z" fill="#85A5F8"/>
<path d="M10.0001 12.4912C9.16551 12.4907 8.34549 12.7101 7.62264 13.1274C6.8998 13.5446 6.29965 14.1449 5.88263 14.8679C5.85073 14.9235 5.83395 14.9865 5.83398 15.0506C5.83401 15.1147 5.85085 15.1777 5.8828 15.2332C5.91476 15.2888 5.96072 15.335 6.01611 15.3673C6.07149 15.3995 6.13437 15.4167 6.19847 15.4171C8.70225 14.8621 11.2972 14.8621 13.801 15.4171C13.8651 15.417 13.9281 15.4001 13.9836 15.368C14.0392 15.3359 14.0853 15.2897 14.1174 15.2342C14.1494 15.1787 14.1664 15.1156 14.1664 15.0515C14.1665 14.9874 14.1496 14.9243 14.1176 14.8687C13.7007 14.1456 13.1006 13.5451 12.3778 13.1277C11.6549 12.7104 10.8348 12.4908 10.0001 12.4912Z" fill="#85A5F8"/>
</g>
</g>
<defs>
<clipPath id="clip0_622_1778">
<rect width="20" height="20" fill="white"/>
</clipPath>
</defs>
</svg>
