<svg width="56" height="20" viewBox="0 0 56 20" fill="none" xmlns="http://www.w3.org/2000/svg">
<path d="M31.9786 3.51715C32.0007 3.58848 32.0062 3.86785 31.9952 4.35527C31.9952 4.83081 31.9786 5.41928 31.9455 6.12069C31.9234 6.81022 31.8902 7.55324 31.8461 8.34975C31.8019 9.13438 31.7522 9.87741 31.6969 10.5788C31.6528 11.2683 31.603 11.8568 31.5478 12.3442C31.5036 12.8198 31.4595 13.0932 31.4153 13.1645C31.3048 13.3547 31.1391 13.4677 30.9182 13.5033C30.6973 13.5271 30.5316 13.5271 30.4212 13.5033C30.388 13.4915 30.3549 13.3607 30.3217 13.111C30.2886 12.8614 30.2555 12.5285 30.2223 12.1124C30.2002 11.6963 30.1781 11.2208 30.1561 10.6858C30.134 10.1508 30.1174 9.60397 30.1063 9.04522C30.0953 8.47458 30.0843 7.91583 30.0732 7.36897C30.0622 6.81022 30.0566 6.30496 30.0566 5.8532C30.0566 5.40145 30.0622 5.02102 30.0732 4.71192C30.0843 4.40283 30.1008 4.20667 30.1229 4.12345C30.1671 3.95701 30.2776 3.80841 30.4543 3.67764C30.631 3.54687 30.8243 3.45176 31.0342 3.39232C31.2441 3.32099 31.4374 3.29721 31.6141 3.32099C31.8019 3.33288 31.9234 3.39826 31.9786 3.51715ZM31.6969 14.7516C31.7411 14.8348 31.7577 14.9537 31.7466 15.1083C31.7466 15.2509 31.7301 15.4055 31.6969 15.5719C31.6748 15.7265 31.6362 15.881 31.581 16.0356C31.5368 16.1782 31.4871 16.2971 31.4318 16.3922C31.3877 16.4635 31.3269 16.523 31.2496 16.5705C31.1723 16.6181 31.0894 16.6478 31.0011 16.6597C30.9127 16.6835 30.8298 16.6954 30.7525 16.6954C30.6752 16.6954 30.6145 16.6954 30.5703 16.6954C30.504 16.6835 30.4322 16.63 30.3549 16.5349C30.2886 16.4398 30.2278 16.3268 30.1726 16.1961C30.1284 16.0534 30.0953 15.9048 30.0732 15.7502C30.0511 15.5838 30.0566 15.4293 30.0898 15.2866C30.1229 15.1558 30.2168 15.0369 30.3714 14.9299C30.5261 14.8111 30.6918 14.7219 30.8685 14.6625C31.0563 14.603 31.2275 14.5792 31.3821 14.5911C31.5478 14.5911 31.6528 14.6446 31.6969 14.7516Z" fill="white"/>
<path d="M29.0785 4.30177C29.1006 4.34933 29.1116 4.51576 29.1116 4.80108C29.1227 5.0864 29.1227 5.43116 29.1116 5.83537C29.1116 6.23957 29.1006 6.6735 29.0785 7.13714C29.0564 7.5889 29.0288 8.01688 28.9956 8.42108C28.9736 8.64696 28.9349 8.98578 28.8797 9.43753C28.8355 9.88929 28.7803 10.3886 28.714 10.9355C28.6477 11.4823 28.5759 12.047 28.4986 12.6296C28.4323 13.2002 28.366 13.7292 28.2998 14.2166C28.2335 14.6922 28.1727 15.0904 28.1175 15.4114C28.0733 15.7324 28.0402 15.9048 28.0181 15.9286C27.9739 15.9642 27.9021 16.0534 27.8027 16.1961C27.7033 16.3268 27.5928 16.4635 27.4713 16.6062C27.3609 16.737 27.2559 16.844 27.1565 16.9272C27.0571 17.0104 26.9908 17.0223 26.9577 16.9628C26.9356 16.844 26.9246 16.4754 26.9246 15.8572C26.9246 15.5957 26.9246 15.2688 26.9246 14.8764C26.9356 14.4722 26.9467 13.9848 26.9577 13.4142C26.9798 12.8435 27.0074 12.1778 27.0405 11.4169C27.0737 10.6561 27.1123 9.77635 27.1565 8.77773C26.9356 9.58614 26.7368 10.2994 26.5601 10.9176C26.3944 11.5358 26.2453 12.0767 26.1127 12.5404C25.9912 12.9921 25.8863 13.3785 25.7979 13.6995C25.7095 14.0086 25.6322 14.2642 25.5659 14.4663C25.4223 14.9418 25.3285 15.2212 25.2843 15.3044C25.2401 15.3163 25.1683 15.2806 25.0689 15.1974C24.9805 15.1142 24.8756 14.9953 24.7541 14.8408C24.6436 14.6743 24.5276 14.4782 24.4061 14.2523C24.2957 14.0264 24.2018 13.7768 24.1245 13.5033C24.0472 13.2537 23.9477 12.9208 23.8262 12.5047C23.7158 12.1481 23.5722 11.6844 23.3955 11.1138C23.2187 10.5313 23.0033 9.80607 22.7493 8.93822C22.8155 9.91307 22.8708 10.769 22.915 11.5061C22.9591 12.2432 22.9923 12.8851 23.0144 13.432C23.0475 13.9789 23.0696 14.4425 23.0806 14.8229C23.1027 15.1915 23.1138 15.5006 23.1138 15.7502C23.1248 16.3209 23.1083 16.6478 23.0641 16.731C22.9536 16.731 22.8321 16.6775 22.6996 16.5705C22.5781 16.4517 22.4566 16.3149 22.3351 16.1604C22.2246 15.9939 22.1252 15.8335 22.0368 15.6789C21.9595 15.5244 21.9153 15.4114 21.9043 15.3401C21.8932 15.2925 21.8601 15.0726 21.8049 14.6803C21.7496 14.288 21.6834 13.7887 21.606 13.1824C21.5398 12.5642 21.4624 11.8746 21.3741 11.1138C21.2968 10.341 21.2194 9.55642 21.1421 8.7599C21.0758 7.96338 21.0206 7.19064 20.9764 6.44167C20.9322 5.68082 20.9102 5.00318 20.9102 4.40877C20.9102 4.31366 21.0206 4.18883 21.2415 4.03429C21.4624 3.86785 21.711 3.7133 21.9871 3.57064C22.2743 3.41609 22.5394 3.28532 22.7824 3.17833C23.0254 3.05944 23.1745 3 23.2298 3C23.2739 3 23.3181 3.13672 23.3623 3.41015C23.4175 3.68358 23.4783 4.02834 23.5446 4.44443C23.6108 4.86052 23.6826 5.32417 23.76 5.83537C23.8373 6.34657 23.9256 6.83399 24.0251 7.29763C24.1024 7.77317 24.1963 8.26653 24.3067 8.77773C24.3951 9.2176 24.4945 9.70502 24.605 10.24C24.7265 10.7631 24.859 11.2743 25.0026 11.7736C25.1572 11.0484 25.2953 10.3945 25.4168 9.81202C25.5494 9.2176 25.6654 8.71234 25.7648 8.29625C25.8863 7.80883 25.9912 7.37491 26.0796 6.99448C26.2784 6.06719 26.4717 5.33606 26.6595 4.80108C26.8583 4.26611 26.9853 3.95107 27.0405 3.85596C27.0737 3.80841 27.1897 3.79652 27.3885 3.8203C27.5984 3.84407 27.8248 3.88568 28.0678 3.94512C28.3108 3.99268 28.5317 4.05212 28.7305 4.12345C28.9404 4.19478 29.0564 4.25422 29.0785 4.30177Z" fill="white"/>
<path d="M14.8794 5.12213C14.9346 5.01513 15.0506 4.87842 15.2273 4.71198C15.4041 4.53366 15.6139 4.35533 15.8569 4.17701C16.111 3.99868 16.3816 3.83819 16.6688 3.69553C16.956 3.54098 17.2432 3.43993 17.5304 3.39238C17.8286 3.33293 18.1047 3.34482 18.3588 3.42804C18.6239 3.49937 18.8503 3.66581 19.0381 3.92735C19.1375 4.05812 19.2314 4.31967 19.3198 4.71198C19.4081 5.1043 19.491 5.57983 19.5683 6.13858C19.6567 6.68544 19.734 7.29769 19.8003 7.97533C19.8665 8.64108 19.9218 9.32465 19.966 10.0261C20.0101 10.7156 20.0378 11.3992 20.0488 12.0768C20.0709 12.7426 20.0709 13.3607 20.0488 13.9314C20.0378 14.4901 20.0046 14.9716 19.9494 15.3758C19.9052 15.7681 19.8334 16.0416 19.734 16.1961C19.5352 16.5052 19.2259 16.7133 18.8062 16.8203C18.3864 16.9272 17.9446 16.9272 17.4807 16.8203C17.0167 16.7251 16.5749 16.523 16.1552 16.2139C15.7354 15.9048 15.4262 15.4888 15.2273 14.9657C15.0948 14.6209 14.9843 14.1513 14.896 13.5569C14.8186 12.9625 14.7579 12.3205 14.7137 11.631C14.6695 10.9296 14.6419 10.2163 14.6309 9.49109C14.6309 8.7659 14.6364 8.10016 14.6474 7.49385C14.6695 6.87566 14.6971 6.35257 14.7303 5.92459C14.7745 5.49661 14.8242 5.22912 14.8794 5.12213ZM18.1268 14.1632C18.1931 14.0919 18.2373 13.9017 18.2594 13.5926C18.2925 13.2716 18.3091 12.8971 18.3091 12.4691C18.3201 12.0293 18.3201 11.5656 18.3091 11.0782C18.3091 10.5908 18.3091 10.139 18.3091 9.72291C18.3091 8.66485 18.276 7.84456 18.2097 7.26203C18.1434 6.6795 18.0661 6.24558 17.9777 5.96026C17.8783 5.62738 17.7679 5.41934 17.6463 5.33612C17.4807 5.37178 17.3426 5.43123 17.2321 5.51444C17.1217 5.58577 17.0333 5.66899 16.967 5.7641C16.8897 5.87109 16.829 5.98403 16.7848 6.10292C16.7516 6.20991 16.713 6.41796 16.6688 6.72705C16.6357 7.03615 16.6025 7.40469 16.5694 7.83267C16.5363 8.24876 16.5031 8.70646 16.47 9.20577C16.4479 9.69319 16.4258 10.1747 16.4037 10.6502C16.3927 11.1257 16.3816 11.5775 16.3706 12.0055C16.3706 12.4216 16.3761 12.7663 16.3871 13.0398C16.4092 13.4559 16.4976 13.759 16.6522 13.9492C16.8179 14.1394 16.9947 14.2643 17.1824 14.3237C17.3702 14.3713 17.5525 14.3713 17.7292 14.3237C17.917 14.2761 18.0495 14.2226 18.1268 14.1632Z" fill="white"/>
<path d="M8.33349 5.12213C8.38872 5.01513 8.5047 4.87842 8.68143 4.71198C8.85816 4.53366 9.06803 4.35533 9.31104 4.17701C9.56509 3.99868 9.83571 3.83819 10.1229 3.69553C10.4101 3.54098 10.6973 3.43993 10.9845 3.39238C11.2827 3.33293 11.5589 3.34482 11.8129 3.42804C12.078 3.49937 12.3044 3.66581 12.4922 3.92735C12.5916 4.05812 12.6855 4.31967 12.7739 4.71198C12.8622 5.1043 12.9451 5.57983 13.0224 6.13858C13.1108 6.68544 13.1881 7.29769 13.2544 7.97533C13.3206 8.64108 13.3759 9.32465 13.4201 10.0261C13.4642 10.7156 13.4919 11.3992 13.5029 12.0768C13.525 12.7426 13.525 13.3607 13.5029 13.9314C13.4919 14.4901 13.4587 14.9716 13.4035 15.3758C13.3593 15.7681 13.2875 16.0416 13.1881 16.1961C12.9893 16.5052 12.68 16.7133 12.2603 16.8203C11.8405 16.9272 11.3987 16.9272 10.9348 16.8203C10.4708 16.7251 10.029 16.523 9.60927 16.2139C9.18954 15.9048 8.88026 15.4888 8.68143 14.9657C8.54888 14.6209 8.43843 14.1513 8.35006 13.5569C8.27274 12.9625 8.21199 12.3205 8.1678 11.631C8.12362 10.9296 8.09601 10.2163 8.08496 9.49109C8.08496 8.7659 8.09048 8.10016 8.10153 7.49385C8.12362 6.87566 8.15124 6.35257 8.18437 5.92459C8.22856 5.49661 8.27826 5.22912 8.33349 5.12213ZM11.5809 14.1632C11.6472 14.0919 11.6914 13.9017 11.7135 13.5926C11.7466 13.2716 11.7632 12.8971 11.7632 12.4691C11.7742 12.0293 11.7742 11.5656 11.7632 11.0782C11.7632 10.5908 11.7632 10.139 11.7632 9.72291C11.7632 8.66485 11.7301 7.84456 11.6638 7.26203C11.5975 6.6795 11.5202 6.24558 11.4318 5.96026C11.3324 5.62738 11.222 5.41934 11.1005 5.33612C10.9348 5.37178 10.7967 5.43123 10.6862 5.51444C10.5758 5.58577 10.4874 5.66899 10.4211 5.7641C10.3438 5.87109 10.2831 5.98403 10.2389 6.10292C10.2057 6.20991 10.1671 6.41796 10.1229 6.72705C10.0898 7.03615 10.0566 7.40469 10.0235 7.83267C9.99035 8.24876 9.95722 8.70646 9.92408 9.20577C9.90199 9.69319 9.8799 10.1747 9.8578 10.6502C9.84676 11.1257 9.83571 11.5775 9.82467 12.0055C9.82467 12.4216 9.83019 12.7663 9.84124 13.0398C9.86333 13.4559 9.95169 13.759 10.1063 13.9492C10.272 14.1394 10.4488 14.2643 10.6365 14.3237C10.8243 14.3713 11.0066 14.3713 11.1833 14.3237C11.3711 14.2761 11.5036 14.2226 11.5809 14.1632Z" fill="white"/>
<path d="M4.63922 9.61585C4.89327 9.75851 5.14732 9.91306 5.40137 10.0795C5.66647 10.2459 5.90948 10.4064 6.13039 10.561C6.35131 10.7036 6.53356 10.8404 6.67716 10.9711C6.8318 11.09 6.93121 11.1851 6.97539 11.2564C7.03062 11.3515 7.05824 11.5002 7.05824 11.7023C7.05824 11.8925 7.04167 12.1065 7.00853 12.3442C6.98644 12.5701 6.94778 12.796 6.89255 13.0219C6.83732 13.2359 6.77657 13.4082 6.71029 13.539C6.63297 13.7054 6.45624 13.9194 6.1801 14.181C5.915 14.4425 5.61677 14.7041 5.28539 14.9656C4.95402 15.2271 4.62817 15.459 4.30784 15.6611C3.99856 15.8632 3.76108 15.988 3.59539 16.0356C3.47389 16.0712 3.29163 16.1069 3.04863 16.1425C2.81667 16.1782 2.57366 16.2079 2.31961 16.2317C2.06556 16.2555 1.83359 16.2733 1.62373 16.2852C1.4249 16.2852 1.3034 16.2733 1.25922 16.2495C1.17085 16.1901 1.09353 16.1009 1.02726 15.9821C0.972026 15.8632 0.944412 15.7086 0.944412 15.5184C0.966503 15.1023 1.01069 14.817 1.07696 14.6625C1.09905 14.6268 1.12667 14.609 1.1598 14.609C1.19294 14.5971 1.24817 14.5911 1.32549 14.5911C1.40281 14.5911 1.50222 14.5911 1.62373 14.5911C1.74523 14.5911 1.90539 14.5852 2.10422 14.5733C2.04899 13.967 1.99928 13.3904 1.9551 12.8435C1.91092 12.2967 1.87226 11.8152 1.83912 11.3991C1.79493 10.9117 1.7618 10.454 1.73971 10.026C1.71761 9.60991 1.68448 9.14626 1.64029 8.63507C1.60716 8.1952 1.5685 7.684 1.52431 7.10147C1.48013 6.51894 1.43042 5.88886 1.3752 5.21122C1.27578 5.21122 1.1598 5.21122 1.02726 5.21122C0.894706 5.21122 0.762157 5.21122 0.629608 5.21122C0.508105 5.19934 0.40317 5.18745 0.314804 5.17556C0.215392 5.15178 0.154641 5.12206 0.132549 5.0864C0.088366 5.01507 0.0552288 4.8843 0.0331373 4.69408C0.0110458 4.49198 0 4.29582 0 4.10561C0 3.90351 0.0331373 3.70735 0.0994118 3.51714C0.165686 3.31504 0.243007 3.18426 0.331373 3.12482C0.353464 3.11293 0.44183 3.11293 0.596471 3.12482C0.751111 3.12482 0.938889 3.14265 1.1598 3.17832C1.38072 3.2021 1.6182 3.23776 1.87226 3.28531C2.13735 3.32098 2.38588 3.36259 2.61784 3.41014C2.8498 3.44581 3.05415 3.48147 3.23088 3.51714C3.40761 3.5528 3.52912 3.57658 3.59539 3.58847C3.70585 3.61224 3.91572 3.67763 4.225 3.78462C4.54533 3.87973 4.88775 3.99267 5.25226 4.12344C5.61677 4.25421 5.96471 4.40282 6.29608 4.56925C6.62745 4.7238 6.85941 4.87835 6.99196 5.0329C7.04719 5.09234 7.0969 5.25878 7.14108 5.53221C7.19631 5.80564 7.23497 6.10879 7.25706 6.44167C7.2902 6.77454 7.30124 7.08958 7.2902 7.38679C7.2902 7.67211 7.26258 7.86232 7.20735 7.95743C7.16317 8.02876 7.00853 8.15359 6.74343 8.33191C6.47833 8.51024 6.18562 8.69451 5.86529 8.88472C5.50078 9.09871 5.09209 9.34242 4.63922 9.61585ZM3.38 9.2592C3.5236 9.18787 3.7169 9.04521 3.9599 8.83122C4.21395 8.61723 4.46248 8.37947 4.70549 8.11792C4.95954 7.84449 5.17494 7.57106 5.35167 7.29763C5.53944 7.01231 5.63333 6.7686 5.63333 6.56649C5.63333 6.50705 5.57258 6.42978 5.45108 6.33467C5.34062 6.23957 5.18598 6.14446 4.98716 6.04935C4.78833 5.95425 4.55085 5.85914 4.27471 5.76403C4.00961 5.65704 3.72242 5.56193 3.41314 5.47871L3.38 9.2592ZM3.36343 14.3771C3.67271 14.3058 3.96543 14.1929 4.24157 14.0383C4.51771 13.8838 4.76072 13.7173 4.97059 13.539C5.18046 13.3488 5.34614 13.1586 5.46765 12.9684C5.58915 12.7782 5.6499 12.6058 5.6499 12.4512C5.6499 12.2967 5.55601 12.1243 5.36824 11.9341C5.1915 11.7439 4.97611 11.5537 4.72206 11.3634C4.47905 11.1732 4.23052 11.0008 3.97647 10.8463C3.72242 10.6917 3.5236 10.5788 3.38 10.5075L3.36343 14.3771Z" fill="white"/>
<g clip-path="url(#clip0_560_1360)">
<path d="M42.2496 5.625V7.445C42.2503 7.82936 42.1641 8.20891 41.9975 8.55525C41.8308 8.9016 41.5879 9.20576 41.2871 9.445" stroke="white" stroke-width="1.5" stroke-linecap="round" stroke-linejoin="round"/>
<path d="M49.75 5.625V7.445C49.7493 7.82936 49.8355 8.20891 50.0022 8.55525C50.1688 8.9016 50.4117 9.20576 50.7125 9.445" stroke="white" stroke-width="1.5" stroke-linecap="round" stroke-linejoin="round"/>
<path d="M47.25 6.875V7.74417" stroke="white" stroke-width="1.5" stroke-linecap="round" stroke-linejoin="round"/>
<path d="M44.75 6.875V7.74417" stroke="white" stroke-width="1.5" stroke-linecap="round" stroke-linejoin="round"/>
<path d="M47.25 14.375C47.25 13.6846 46.6904 13.125 46 13.125C45.3096 13.125 44.75 13.6846 44.75 14.375V15.625C44.75 16.3154 45.3096 16.875 46 16.875C46.6904 16.875 47.25 16.3154 47.25 15.625V14.375Z" stroke="white" stroke-width="1.5" stroke-linecap="round" stroke-linejoin="round"/>
<path d="M42.875 11.875C42.9368 11.875 42.9972 11.8933 43.0486 11.9277C43.1 11.962 43.1401 12.0108 43.1637 12.0679C43.1874 12.125 43.1936 12.1878 43.1815 12.2485C43.1694 12.3091 43.1397 12.3648 43.096 12.4085C43.0523 12.4522 42.9966 12.4819 42.936 12.494C42.8753 12.5061 42.8125 12.4999 42.7554 12.4762C42.6983 12.4526 42.6495 12.4125 42.6152 12.3611C42.5808 12.3097 42.5625 12.2493 42.5625 12.1875C42.5625 12.1046 42.5954 12.0251 42.654 11.9665C42.7126 11.9079 42.7921 11.875 42.875 11.875Z" stroke="white" stroke-width="1.5" stroke-linecap="round" stroke-linejoin="round"/>
<path d="M49.125 11.875C49.1868 11.875 49.2472 11.8933 49.2986 11.9277C49.35 11.962 49.3901 12.0108 49.4137 12.0679C49.4374 12.125 49.4436 12.1878 49.4315 12.2485C49.4194 12.3091 49.3897 12.3648 49.346 12.4085C49.3023 12.4522 49.2466 12.4819 49.186 12.494C49.1253 12.5061 49.0625 12.4999 49.0054 12.4762C48.9483 12.4526 48.8995 12.4125 48.8652 12.3611C48.8308 12.3097 48.8125 12.2493 48.8125 12.1875C48.8125 12.1046 48.8454 12.0251 48.904 11.9665C48.9626 11.9079 49.0421 11.875 49.125 11.875Z" stroke="white" stroke-width="1.5" stroke-linecap="round" stroke-linejoin="round"/>
<path d="M46.0003 10C43.978 10.0204 41.9663 9.70705 40.0461 9.07251C39.4423 10.1177 39.1243 11.3035 39.124 12.5106C39.1238 13.7177 39.4413 14.9037 40.0448 15.9491C40.6482 16.9946 41.5162 17.8628 42.5616 18.4664C43.6069 19.07 44.7927 19.3878 45.9999 19.3878C47.207 19.3878 48.3928 19.07 49.4382 18.4664C50.4835 17.8628 51.3515 16.9946 51.955 15.9491C52.5584 14.9037 52.8759 13.7177 52.8757 12.5106C52.8755 11.3035 52.5574 10.1177 51.9536 9.07251C50.0337 9.70711 48.0222 10.0205 46.0003 10Z" stroke="white" stroke-width="1.5" stroke-linecap="round" stroke-linejoin="round"/>
<path d="M53 3.75C52.965 3.16501 52.6999 2.61764 52.2628 2.22733C51.8257 1.83702 51.2519 1.63547 50.6667 1.66667C50.1654 1.66554 49.6754 1.8157 49.2608 2.0975C48.8529 1.63471 48.3512 1.26405 47.789 1.01015C47.2267 0.756252 46.6169 0.624939 46 0.624939C45.3831 0.624939 44.7733 0.756252 44.211 1.01015C43.6488 1.26405 43.1471 1.63471 42.7392 2.0975C42.3246 1.8157 41.8346 1.66554 41.3333 1.66667C40.7481 1.63547 40.1743 1.83702 39.7372 2.22733C39.3001 2.61764 39.035 3.16501 39 3.75" stroke="white" stroke-width="1.5" stroke-linecap="round" stroke-linejoin="round"/>
<path d="M39 3.74999C38.5612 3.7272 38.1312 3.87857 37.8035 4.17118C37.4758 4.46379 37.2769 4.87397 37.25 5.31249C37.2769 5.75101 37.4758 6.16118 37.8035 6.45379C38.1312 6.7464 38.5612 6.89778 39 6.87499" stroke="white" stroke-width="1.5" stroke-linecap="round" stroke-linejoin="round"/>
<path d="M53 3.74999C53.4388 3.7272 53.8688 3.87857 54.1965 4.17118C54.5242 4.46379 54.7231 4.87397 54.75 5.31249C54.7231 5.75101 54.5242 6.16118 54.1965 6.45379C53.8688 6.7464 53.4388 6.89778 53 6.87499" stroke="white" stroke-width="1.5" stroke-linecap="round" stroke-linejoin="round"/>
</g>
<defs>
<clipPath id="clip0_560_1360">
<rect width="20" height="20" fill="white" transform="translate(36)"/>
</clipPath>
</defs>
</svg>
