<svg width="20" height="20" viewBox="0 0 20 20" fill="none" xmlns="http://www.w3.org/2000/svg">
<g clip-path="url(#clip0_622_1809)">
<mask id="mask0_622_1809" style="mask-type:luminance" maskUnits="userSpaceOnUse" x="0" y="0" width="20" height="20">
<path d="M20 0H0V20H20V0Z" fill="white"/>
</mask>
<g mask="url(#mask0_622_1809)">
<path d="M6.24961 5.625V7.445C6.25031 7.82936 6.16411 8.20891 5.99751 8.55525C5.83081 8.9016 5.58791 9.20576 5.28711 9.445" stroke="#FD4646" stroke-width="1.5" stroke-linecap="round" stroke-linejoin="round"/>
<path d="M13.75 5.625V7.445C13.7493 7.82936 13.8355 8.20891 14.0022 8.55525C14.1688 8.9016 14.4117 9.20576 14.7125 9.445" stroke="#FD4646" stroke-width="1.5" stroke-linecap="round" stroke-linejoin="round"/>
<path d="M11.25 6.875V7.74417" stroke="#FD4646" stroke-width="1.5" stroke-linecap="round" stroke-linejoin="round"/>
<path d="M8.75 6.875V7.74417" stroke="#FD4646" stroke-width="1.5" stroke-linecap="round" stroke-linejoin="round"/>
<path d="M11.25 14.375C11.25 13.6846 10.6904 13.125 10 13.125C9.3096 13.125 8.75 13.6846 8.75 14.375V15.625C8.75 16.3154 9.3096 16.875 10 16.875C10.6904 16.875 11.25 16.3154 11.25 15.625V14.375Z" stroke="#FD4646" stroke-width="1.5" stroke-linecap="round" stroke-linejoin="round"/>
<path d="M6.875 11.875C6.9368 11.875 6.9972 11.8933 7.0486 11.9277C7.1 11.962 7.1401 12.0108 7.1637 12.0679C7.1874 12.125 7.1936 12.1878 7.1815 12.2485C7.1694 12.3091 7.1397 12.3648 7.096 12.4085C7.0523 12.4522 6.9966 12.4819 6.936 12.494C6.8753 12.5061 6.8125 12.4999 6.7554 12.4762C6.6983 12.4526 6.6495 12.4125 6.6152 12.3611C6.5808 12.3097 6.5625 12.2493 6.5625 12.1875C6.5625 12.1046 6.5954 12.0251 6.654 11.9665C6.7126 11.9079 6.7921 11.875 6.875 11.875Z" stroke="#FD4646" stroke-width="1.5" stroke-linecap="round" stroke-linejoin="round"/>
<path d="M13.125 11.875C13.1868 11.875 13.2472 11.8933 13.2986 11.9277C13.35 11.962 13.3901 12.0108 13.4137 12.0679C13.4374 12.125 13.4436 12.1878 13.4315 12.2485C13.4194 12.3091 13.3897 12.3648 13.346 12.4085C13.3023 12.4522 13.2466 12.4819 13.186 12.494C13.1253 12.5061 13.0625 12.4999 13.0054 12.4762C12.9483 12.4526 12.8995 12.4125 12.8652 12.3611C12.8308 12.3097 12.8125 12.2493 12.8125 12.1875C12.8125 12.1046 12.8454 12.0251 12.904 11.9665C12.9626 11.9079 13.0421 11.875 13.125 11.875Z" stroke="#FD4646" stroke-width="1.5" stroke-linecap="round" stroke-linejoin="round"/>
<path d="M10.0003 9.99976C7.97802 10.0202 5.96632 9.70681 4.04612 9.07227C3.44232 10.1175 3.12432 11.3033 3.12402 12.5104C3.12382 13.7175 3.44132 14.9035 4.04482 15.9489C4.64822 16.9944 5.51622 17.8626 6.56162 18.4662C7.60692 19.0698 8.79272 19.3876 9.99992 19.3876C11.207 19.3876 12.3928 19.0698 13.4382 18.4662C14.4835 17.8626 15.3515 16.9944 15.955 15.9489C16.5584 14.9035 16.8759 13.7175 16.8757 12.5104C16.8755 11.3033 16.5574 10.1175 15.9536 9.07227C14.0337 9.70687 12.0222 10.0203 10.0003 9.99976Z" stroke="#FD4646" stroke-width="1.5" stroke-linecap="round" stroke-linejoin="round"/>
<path d="M17 3.75006C16.965 3.16507 16.6999 2.6177 16.2628 2.22739C15.8257 1.83708 15.2519 1.63553 14.6667 1.66673C14.1654 1.6656 13.6754 1.81576 13.2608 2.09756C12.8529 1.63477 12.3512 1.26411 11.789 1.01021C11.2267 0.756313 10.6169 0.625 10 0.625C9.3831 0.625 8.7733 0.756313 8.211 1.01021C7.6488 1.26411 7.1471 1.63477 6.7392 2.09756C6.3246 1.81576 5.8346 1.6656 5.3333 1.66673C4.7481 1.63553 4.1743 1.83708 3.7372 2.22739C3.3001 2.6177 3.035 3.16507 3 3.75006" stroke="#FD4646" stroke-width="1.5" stroke-linecap="round" stroke-linejoin="round"/>
<path d="M3 3.75029C2.5612 3.7275 2.1312 3.87887 1.8035 4.17148C1.4758 4.46409 1.2769 4.87427 1.25 5.31279C1.2769 5.75131 1.4758 6.16148 1.8035 6.45409C2.1312 6.7467 2.5612 6.89808 3 6.87529" stroke="#FD4646" stroke-width="1.5" stroke-linecap="round" stroke-linejoin="round"/>
<path d="M17 3.75029C17.4388 3.7275 17.8688 3.87887 18.1965 4.17148C18.5242 4.46409 18.7231 4.87427 18.75 5.31279C18.7231 5.75131 18.5242 6.16148 18.1965 6.45409C17.8688 6.7467 17.4388 6.89808 17 6.87529" stroke="#FD4646" stroke-width="1.5" stroke-linecap="round" stroke-linejoin="round"/>
</g>
</g>
<defs>
<clipPath id="clip0_622_1809">
<rect width="20" height="20" fill="white"/>
</clipPath>
</defs>
</svg>
