<svg width="20" height="20" viewBox="0 0 20 20" fill="none" xmlns="http://www.w3.org/2000/svg">
<g clip-path="url(#clip0_552_3589)">
<path d="M10 0C8.02219 0 6.08879 0.58649 4.4443 1.6853C2.79981 2.78412 1.51809 4.3459 0.761209 6.17317C0.00433286 8.00043 -0.193701 10.0111 0.192152 11.9509C0.578004 13.8907 1.53041 15.6725 2.92894 17.0711C4.32746 18.4696 6.10929 19.422 8.0491 19.8079C9.98891 20.1937 11.9996 19.9957 13.8268 19.2388C15.6541 18.4819 17.2159 17.2002 18.3147 15.5557C19.4135 13.9112 20 11.9778 20 10C19.9971 7.34872 18.9426 4.80684 17.0679 2.9321C15.1932 1.05736 12.6513 0.00286757 10 0ZM10 18.3333C8.35183 18.3333 6.74066 17.8446 5.37025 16.9289C3.99984 16.0132 2.93174 14.7117 2.30101 13.189C1.67028 11.6663 1.50525 9.99076 1.82679 8.37425C2.14834 6.75774 2.94201 5.27288 4.10745 4.10744C5.27289 2.94201 6.75774 2.14833 8.37425 1.82679C9.99076 1.50525 11.6663 1.67027 13.189 2.301C14.7118 2.93173 16.0132 3.99984 16.9289 5.37025C17.8446 6.74066 18.3333 8.35182 18.3333 10C18.3309 12.2094 17.4522 14.3276 15.8899 15.8899C14.3276 17.4522 12.2094 18.3309 10 18.3333Z" fill="#11775E"/>
<path d="M6.66683 6.66669H4.16683C3.94582 6.66669 3.73385 6.75448 3.57757 6.91076C3.42129 7.06705 3.3335 7.27901 3.3335 7.50002C3.3335 7.72103 3.42129 7.933 3.57757 8.08928C3.73385 8.24556 3.94582 8.33335 4.16683 8.33335H6.66683C6.88784 8.33335 7.0998 8.24556 7.25608 8.08928C7.41236 7.933 7.50016 7.72103 7.50016 7.50002C7.50016 7.27901 7.41236 7.06705 7.25608 6.91076C7.0998 6.75448 6.88784 6.66669 6.66683 6.66669Z" fill="#11775E"/>
<path d="M10.8333 8.33335H13.3333C13.5543 8.33335 13.7663 8.24556 13.9226 8.08928C14.0789 7.933 14.1667 7.72103 14.1667 7.50002C14.1667 7.27901 14.0789 7.06705 13.9226 6.91076C13.7663 6.75448 13.5543 6.66669 13.3333 6.66669H10.8333C10.6123 6.66669 10.4004 6.75448 10.2441 6.91076C10.0878 7.06705 10 7.27901 10 7.50002C10 7.72103 10.0878 7.933 10.2441 8.08928C10.4004 8.24556 10.6123 8.33335 10.8333 8.33335Z" fill="#11775E"/>
<path d="M15.0148 12.215C14.829 12.0957 14.6035 12.055 14.3877 12.1019C14.1719 12.1488 13.9836 12.2794 13.864 12.465C13.4506 13.1151 12.8796 13.6502 12.2041 14.0206C11.5285 14.3909 10.7703 14.5845 9.99984 14.5833C9.77882 14.5833 9.56686 14.6711 9.41058 14.8274C9.2543 14.9837 9.1665 15.1956 9.1665 15.4167C9.1665 15.6377 9.2543 15.8496 9.41058 16.0059C9.56686 16.1622 9.77882 16.25 9.99984 16.25C11.0496 16.2521 12.083 15.9888 13.0037 15.4846C13.9245 14.9804 14.7029 14.2515 15.2665 13.3658C15.3856 13.1798 15.4261 12.9541 15.3789 12.7383C15.3317 12.5225 15.2007 12.3343 15.0148 12.215Z" fill="#11775E"/>
</g>
<defs>
<clipPath id="clip0_552_3589">
<rect width="20" height="20" fill="white"/>
</clipPath>
</defs>
</svg>
