<svg width="20" height="20" viewBox="0 0 20 20" fill="none" xmlns="http://www.w3.org/2000/svg">
<g clip-path="url(#clip0_622_1760)">
<mask id="mask0_622_1760" style="mask-type:luminance" maskUnits="userSpaceOnUse" x="0" y="0" width="20" height="20">
<path d="M20 0H0V20H20V0Z" fill="white"/>
</mask>
<g mask="url(#mask0_622_1760)">
<path d="M10 0C8.02219 0 6.08879 0.58649 4.4443 1.6853C2.79981 2.78412 1.51809 4.3459 0.761209 6.17317C0.00433302 8.00043 -0.193701 10.0111 0.192152 11.9509C0.578004 13.8907 1.53041 15.6725 2.92894 17.0711C4.32746 18.4696 6.10929 19.422 8.0491 19.8079C9.98891 20.1937 11.9996 19.9957 13.8268 19.2388C15.6541 18.4819 17.2159 17.2002 18.3147 15.5557C19.4135 13.9112 20 11.9778 20 10C19.9971 7.34872 18.9426 4.80684 17.0679 2.9321C15.1932 1.05736 12.6513 0.00286757 10 0ZM10 18.3333C8.35183 18.3333 6.74066 17.8446 5.37025 16.9289C3.99984 16.0132 2.93174 14.7117 2.30101 13.189C1.67028 11.6663 1.50525 9.99076 1.82679 8.37425C2.14834 6.75774 2.94201 5.27288 4.10745 4.10744C5.27289 2.94201 6.75774 2.14833 8.37425 1.82679C9.99076 1.50525 11.6663 1.67027 13.189 2.301C14.7118 2.93173 16.0132 3.99984 16.9289 5.37025C17.8446 6.74066 18.3333 8.35182 18.3333 10C18.3309 12.2094 17.4522 14.3276 15.8899 15.8899C14.3276 17.4522 12.2094 18.3309 10 18.3333Z" fill="#65F8D4"/>
<path d="M6.66731 6.66699H4.16731C3.9463 6.66699 3.73433 6.75478 3.57805 6.91106C3.42177 7.06735 3.33398 7.27931 3.33398 7.50032C3.33398 7.72133 3.42177 7.9333 3.57805 8.08958C3.73433 8.24586 3.9463 8.33365 4.16731 8.33365H6.66731C6.88832 8.33365 7.10028 8.24586 7.25656 8.08958C7.41284 7.9333 7.50064 7.72133 7.50064 7.50032C7.50064 7.27931 7.41284 7.06735 7.25656 6.91106C7.10028 6.75478 6.88832 6.66699 6.66731 6.66699Z" fill="#65F8D4"/>
<path d="M10.8333 8.33365H13.3333C13.5543 8.33365 13.7663 8.24586 13.9226 8.08958C14.0789 7.9333 14.1667 7.72133 14.1667 7.50032C14.1667 7.27931 14.0789 7.06735 13.9226 6.91106C13.7663 6.75478 13.5543 6.66699 13.3333 6.66699H10.8333C10.6123 6.66699 10.4004 6.75478 10.2441 6.91106C10.0878 7.06735 10 7.27931 10 7.50032C10 7.72133 10.0878 7.9333 10.2441 8.08958C10.4004 8.24586 10.6123 8.33365 10.8333 8.33365Z" fill="#65F8D4"/>
<path d="M15.0143 12.2151C14.8285 12.0958 14.603 12.0551 14.3872 12.102C14.1714 12.1489 13.9831 12.2795 13.8635 12.4651C13.4501 13.1152 12.8791 13.6503 12.2036 14.0207C11.528 14.391 10.7698 14.5846 9.99936 14.5834C9.77834 14.5834 9.56638 14.6712 9.4101 14.8275C9.25382 14.9838 9.16602 15.1957 9.16602 15.4168C9.16602 15.6378 9.25382 15.8497 9.4101 16.006C9.56638 16.1623 9.77834 16.2501 9.99936 16.2501C11.0491 16.2522 12.0825 15.9889 13.0032 15.4847C13.924 14.9805 14.7024 14.2516 15.266 13.3659C15.3851 13.1799 15.4256 12.9542 15.3784 12.7384C15.3312 12.5226 15.2002 12.3344 15.0143 12.2151Z" fill="#65F8D4"/>
</g>
</g>
<defs>
<clipPath id="clip0_622_1760">
<rect width="20" height="20" fill="white"/>
</clipPath>
</defs>
</svg>
