<?xml version="1.0" standalone="no"?>
<!DOCTYPE svg PUBLIC "-//W3C//DTD SVG 20010904//EN"
 "http://www.w3.org/TR/2001/REC-SVG-20010904/DTD/svg10.dtd">
<svg version="1.0" xmlns="http://www.w3.org/2000/svg"
 width="700.000000pt" height="700.000000pt" viewBox="0 0 700.000000 700.000000"
 preserveAspectRatio="xMidYMid meet">
<metadata>
Created by potrace 1.14, written by Peter Selinger 2001-2017
</metadata>
<g transform="translate(0.000000,700.000000) scale(0.100000,-0.100000)"
fill="#000000" stroke="none">
<path d="M4155 6769 c-22 -5 -93 -14 -158 -19 -145 -11 -296 -38 -525 -94
-361 -87 -350 -87 -602 -43 -287 51 -542 55 -765 13 -101 -20 -128 -44 -123
-114 2 -35 9 -49 30 -65 26 -19 32 -20 147 -7 75 8 163 11 233 7 199 -12 200
-11 -63 -97 -228 -75 -378 -135 -464 -185 -23 -14 -50 -25 -60 -25 -22 0 -156
-72 -284 -153 -215 -134 -352 -256 -524 -467 -188 -230 -285 -394 -354 -599
-31 -91 -37 -119 -37 -201 -1 -86 2 -101 28 -152 l29 -57 -26 -30 c-14 -17
-28 -39 -32 -50 -3 -10 -19 -25 -36 -31 -37 -16 -54 -42 -64 -95 -4 -21 -21
-59 -38 -83 -28 -38 -32 -53 -33 -111 -1 -55 -8 -81 -42 -152 -123 -261 -172
-488 -172 -799 -1 -196 5 -243 50 -410 67 -249 72 -284 115 -697 34 -333 55
-425 154 -671 47 -117 88 -201 138 -285 26 -43 32 -62 24 -70 -32 -32 13 -97
69 -97 36 0 41 -7 24 -38 -19 -38 -18 -49 11 -68 17 -11 34 -14 53 -10 15 4
119 11 232 15 226 9 273 20 349 80 21 17 45 31 53 31 8 0 61 -16 118 -35 133
-45 241 -65 346 -65 67 0 87 4 101 18 17 17 22 14 112 -65 173 -154 349 -276
520 -363 101 -50 273 -109 344 -117 28 -3 68 -14 87 -23 19 -10 72 -29 118
-44 149 -47 272 -33 444 49 40 19 77 35 83 35 45 0 363 148 565 262 52 29 141
75 198 101 101 48 107 49 260 63 345 31 596 92 796 190 96 48 106 58 106 111
0 83 -66 116 -148 74 -93 -47 -384 -122 -423 -109 -7 2 48 41 122 87 174 108
297 194 384 270 39 34 93 77 121 96 65 43 279 255 363 360 92 114 165 229 227
358 29 62 83 153 118 202 199 275 326 618 326 876 l0 77 -32 6 c-29 6 -37 3
-60 -26 -23 -26 -28 -42 -28 -83 0 -78 -19 -221 -42 -320 -18 -79 -87 -280
-93 -273 -1 2 6 44 16 93 26 123 35 284 20 368 -10 56 -9 71 3 89 29 46 96
400 117 613 15 155 6 489 -16 610 -36 197 -109 431 -186 594 -55 116 -154 271
-222 347 -57 63 -69 89 -157 324 -93 248 -143 357 -223 478 -82 126 -206 280
-289 362 -60 58 -66 67 -61 96 7 41 -24 64 -87 64 l-45 0 0 42 c0 41 -1 43
-33 46 -20 2 -55 -7 -90 -23 -31 -14 -121 -44 -200 -65 -156 -43 -185 -56
-237 -101 -33 -29 -36 -30 -72 -17 -21 7 -76 42 -123 77 -47 35 -114 78 -150
95 -60 28 -75 31 -180 33 -63 1 -133 -3 -155 -8z m1293 -214 c67 -72 270 -323
321 -398 18 -27 52 -90 76 -140 49 -104 157 -386 153 -397 -2 -5 -38 13 -81
40 -43 26 -115 63 -160 81 -90 35 -32 -16 -573 508 -93 91 -176 167 -183 169
-13 4 350 198 375 201 7 1 39 -28 72 -64z m-1225 -115 c137 -10 267 -30 267
-40 0 -17 -361 -180 -522 -235 l-67 -23 -94 52 c-52 28 -133 67 -181 86 -71
29 -86 38 -84 55 4 27 44 45 101 45 38 0 50 4 54 18 10 40 276 62 526 42z
m457 -162 c37 -61 33 -64 -90 -57 -61 4 -113 9 -115 11 -4 4 161 76 178 77 4
1 16 -14 27 -31z m-1395 -32 c106 -29 219 -72 313 -121 l67 -35 -150 6 c-224
9 -465 -15 -713 -71 -20 -5 -22 -3 -13 14 6 11 11 37 11 59 l0 39 83 39 c88
41 246 93 287 93 14 1 66 -10 115 -23z m1653 -71 c-2 -2 -19 0 -38 4 -29 5
-36 12 -38 35 l-4 29 42 -33 c22 -18 40 -34 38 -35z m-1225 -92 c-7 -2 -21 -2
-30 0 -10 3 -4 5 12 5 17 0 24 -2 18 -5z m-1396 -36 c-185 -119 -242 -158
-325 -220 -127 -97 -283 -239 -402 -367 -52 -56 -181 -188 -286 -293 -180
-182 -342 -363 -484 -542 -41 -52 -61 -71 -57 -55 3 14 15 72 27 129 51 254
186 486 420 722 246 249 579 454 940 580 167 58 200 68 167 46z m2086 -73
c114 -33 322 -113 314 -121 -6 -6 -274 63 -404 103 -85 27 -110 39 -106 50 7
18 37 13 196 -32z m-1833 -36 c0 -7 -70 -48 -155 -90 -85 -43 -155 -76 -155
-74 0 2 53 34 118 71 64 37 131 76 147 86 37 21 45 23 45 7z m2641 -40 c82
-101 78 -95 48 -73 -15 11 -54 44 -88 73 -60 50 -61 52 -32 52 23 0 38 -11 72
-52z m-3427 -466 c-40 -37 -96 -96 -127 -132 -41 -48 -67 -69 -102 -82 l-46
-18 29 38 c17 20 45 51 64 68 39 37 240 194 248 194 3 0 -27 -31 -66 -68z
m3736 -245 c41 -30 85 -65 97 -78 19 -21 87 -148 113 -211 5 -13 47 -68 94
-123 74 -87 86 -105 86 -137 0 -36 -1 -37 -24 -26 -39 17 -586 693 -586 723 0
6 94 -58 220 -148z m270 70 c20 -15 64 -86 58 -93 -14 -13 -148 104 -148 130
0 6 72 -23 90 -37z m395 -112 c48 -67 125 -191 125 -201 0 -11 -36 39 -121
167 -82 124 -85 148 -4 34z m-115 -136 c0 -5 23 -34 50 -63 28 -29 50 -58 50
-64 0 -7 13 -53 30 -104 16 -51 28 -94 26 -95 -2 -2 -19 21 -38 50 -20 29 -59
77 -87 106 -28 29 -60 70 -71 92 l-20 38 22 25 c25 26 38 32 38 15z m-4732
-184 c10 -20 -2 -27 -195 -123 l-205 -103 60 74 c82 99 168 177 197 177 28 0
78 40 102 82 l18 29 6 -58 c3 -32 10 -67 17 -78z m1713 -73 c175 -58 312 -228
374 -467 73 -282 107 -559 108 -870 0 -254 -16 -414 -58 -574 -65 -243 -225
-478 -380 -556 l-60 -30 -677 -3 -678 -2 0 1213 c0 989 2 1217 13 1231 11 15
50 22 240 42 379 40 431 42 747 40 281 -3 310 -5 371 -24z m2306 -42 c138 -18
206 -43 247 -94 51 -61 74 -121 91 -233 37 -245 -3 -515 -90 -612 -83 -92
-536 -210 -943 -247 -125 -12 -63 -27 178 -44 428 -31 650 -88 729 -189 41
-52 87 -148 107 -222 47 -180 -2 -477 -118 -709 l-43 -85 -788 -3 -789 -2 9
472 c10 597 10 1031 0 1508 -7 318 -6 378 6 394 11 15 33 20 113 27 54 4 191
15 304 24 430 35 786 40 987 15z m-4109 -172 c-14 -18 -127 -127 -252 -243
-125 -115 -250 -239 -277 -275 -60 -80 -106 -187 -121 -284 -12 -71 -14 -74
-55 -100 -23 -15 -65 -52 -93 -83 -43 -47 -56 -56 -89 -57 l-38 -2 13 75 c31
195 134 481 173 481 26 0 75 53 142 156 59 91 63 94 157 147 228 129 448 235
461 222 2 -3 -7 -19 -21 -37z m4923 -65 c43 -94 48 -111 38 -130 -18 -34 -51
-60 -85 -67 -29 -6 -32 -4 -60 46 -39 71 -38 68 -16 68 11 0 24 6 30 13 12 15
32 107 32 147 0 17 2 30 5 30 3 0 28 -48 56 -107z m323 -147 c4 -17 9 -139 13
-272 6 -240 5 -241 -16 -247 -19 -5 -21 -1 -21 49 0 72 -26 252 -49 342 -19
71 -19 74 -1 115 14 32 25 42 43 43 20 2 26 -4 31 -30z m-5191 -38 c-6 -30
-33 -47 -33 -21 0 15 30 57 36 51 1 -2 0 -15 -3 -30z m5037 -376 c0 -18 11
-73 25 -122 14 -49 25 -100 25 -113 0 -33 -41 -150 -50 -140 -3 4 -19 65 -35
134 -27 124 -27 127 -11 191 9 35 17 98 17 139 l1 74 14 -65 c7 -36 13 -80 14
-98z m-5222 109 c36 -31 29 -62 -19 -93 -16 -10 -35 -39 -49 -75 -27 -67 -55
-107 -41 -58 4 17 6 46 4 66 -4 27 4 53 31 107 20 40 40 72 44 72 4 -1 17 -9
30 -19z m129 -33 c-2 -7 -10 -39 -17 -71 -9 -37 -16 -53 -22 -45 -18 30 3 128
29 128 8 0 13 -6 10 -12z m-467 -249 c-24 -67 -29 -76 -25 -42 5 39 44 137 52
130 1 -2 -11 -41 -27 -88z m154 -115 c21 -8 21 -67 1 -84 -19 -16 -19 -87 0
-120 15 -27 22 -260 8 -260 -18 0 -93 100 -93 124 0 14 -11 36 -27 50 l-26 24
28 79 c26 75 81 193 89 193 3 0 11 -3 20 -6z m-240 -216 c-45 -160 -66 -305
-70 -478 -5 -198 -5 -192 -14 -155 -4 17 -8 76 -9 132 -1 117 -19 170 -59 180
-24 6 -25 7 -19 97 7 109 18 149 56 207 33 48 95 99 122 99 15 0 14 -7 -7 -82z
m5776 -94 c0 -14 -12 -19 -23 -8 -9 9 4 35 14 28 5 -3 9 -12 9 -20z m-5476
-434 c10 -154 48 -308 113 -460 22 -51 22 -53 3 -30 -77 94 -146 195 -188 278
-73 143 -86 190 -87 307 0 150 2 152 84 71 l68 -68 7 -98z m-575 -120 c16 -52
37 -149 46 -215 53 -395 155 -678 350 -975 136 -208 236 -321 393 -444 34 -27
61 -51 59 -53 -2 -1 -69 -16 -150 -33 -80 -16 -173 -36 -207 -45 -33 -9 -65
-13 -70 -10 -37 23 -240 481 -277 625 -28 112 -62 383 -69 560 -8 210 -28 330
-97 570 -13 47 -27 103 -31 125 -6 39 -6 39 9 15 8 -14 28 -68 44 -120z m446
-342 c41 -62 44 -74 11 -53 -13 9 -31 34 -40 56 -27 68 -19 67 29 -3z m110
-501 c112 -150 236 -262 357 -323 73 -37 279 -192 238 -179 -36 11 -143 66
-233 119 -64 38 -86 46 -127 46 -58 0 -52 -7 -205 250 -131 221 -131 221 -30
87z m400 -597 c19 -30 258 -133 398 -171 l87 -24 -97 -12 c-110 -14 -136 -9
-250 50 -48 25 -73 47 -112 100 -28 37 -46 67 -41 67 5 0 12 -5 15 -10z m1000
-270 c13 -5 14 -9 5 -9 -8 0 -24 4 -35 9 -13 5 -14 9 -5 9 8 0 24 -4 35 -9z
m52 -16 c-3 -3 -12 -4 -19 -1 -8 3 -5 6 6 6 11 1 17 -2 13 -5z m40 -10 c-3 -3
-12 -4 -19 -1 -8 3 -5 6 6 6 11 1 17 -2 13 -5z m2031 -5 c-20 -11 -227 -26
-217 -15 5 6 87 15 219 24 11 1 11 -1 -2 -9z m-1981 -5 c-3 -3 -12 -4 -19 -1
-8 3 -5 6 6 6 11 1 17 -2 13 -5z m293 -58 c319 -63 314 -63 616 -27 l259 32
116 -30 c63 -16 156 -35 205 -41 49 -6 99 -13 112 -16 52 -10 5 -77 -65 -90
-20 -4 -37 -14 -41 -25 -12 -30 -167 -98 -307 -135 -180 -47 -330 -74 -461
-81 -103 -5 -115 -4 -147 16 -38 23 -107 95 -107 111 0 6 -8 18 -17 28 -17 16
-8 17 202 17 255 0 271 4 307 71 l23 45 -43 41 c-37 34 -48 39 -75 34 -18 -3
-95 -8 -172 -12 -160 -7 -321 10 -476 50 -94 25 -227 70 -179 62 14 -3 126
-25 250 -50z m-210 -164 c47 -16 129 -40 183 -52 90 -21 96 -24 77 -37 -14
-10 -20 -25 -20 -54 0 -37 -2 -40 -22 -33 -56 17 -244 119 -339 183 -155 105
-165 116 -59 67 52 -24 133 -57 180 -74z"/>
</g>
</svg>
