<svg width="116" height="24" viewBox="0 0 116 24" fill="none" xmlns="http://www.w3.org/2000/svg">
<g clip-path="url(#clip0_58_1849)">
<path d="M19.3366 9.06403C19.2441 8.81407 19.0773 8.59836 18.8587 8.44581C18.6401 8.29326 18.3801 8.21115 18.1135 8.21049H12.8242L10.93 2.8472C10.8364 2.59703 10.6683 2.38162 10.4483 2.23011C10.2283 2.07859 9.96707 1.99828 9.69994 2.00003C9.43282 2.00178 9.17268 2.0855 8.9547 2.23988C8.73671 2.39426 8.57141 2.61185 8.48113 2.86322L6.5931 8.21049H1.30377C1.03607 8.21074 0.774921 8.2933 0.555739 8.44697C0.336556 8.60065 0.169945 8.818 0.0784991 9.06956C-0.0129469 9.32112 -0.0248032 9.59471 0.0445384 9.85324C0.11388 10.1118 0.261064 10.3427 0.466131 10.5148L4.94452 14.2253L3.0654 19.8627C2.97718 20.1252 2.97486 20.409 3.05878 20.673C3.14269 20.9369 3.30848 21.1673 3.53211 21.3307C3.75575 21.4941 4.02562 21.5821 4.30261 21.5818C4.5796 21.5816 4.84933 21.4932 5.07271 21.3295L9.70866 17.9331L14.3437 21.3312C14.5668 21.4947 14.8362 21.583 15.1128 21.5833C15.3894 21.5837 15.6589 21.4961 15.8825 21.3332C16.106 21.1703 16.272 20.9406 16.3564 20.6772C16.4407 20.4139 16.4392 20.1305 16.3519 19.868L14.4719 14.2271L18.9601 10.5076C19.1625 10.334 19.307 10.1028 19.3743 9.84476C19.4416 9.58675 19.4285 9.31435 19.3366 9.06403ZM12.8678 13.2471C12.7296 13.3616 12.6292 13.5151 12.5798 13.6876C12.5304 13.8601 12.5343 14.0435 12.591 14.2137L13.9698 18.3497C13.9849 18.3945 13.9853 18.4429 13.9709 18.4879C13.9566 18.533 13.9282 18.5723 13.8901 18.6001C13.8519 18.628 13.8058 18.643 13.7585 18.6429C13.7113 18.6429 13.6652 18.6277 13.6271 18.5998L10.2338 16.1095C10.0812 15.9975 9.8967 15.9371 9.70732 15.9371C9.51794 15.9371 9.33349 15.9975 9.18079 16.1095L5.79195 18.5953C5.75391 18.6231 5.70802 18.6381 5.66089 18.6382C5.61377 18.6382 5.56784 18.6233 5.52973 18.5956C5.49162 18.5679 5.46329 18.5288 5.44883 18.484C5.43436 18.4391 5.43451 18.3909 5.44924 18.3461L6.82721 14.2102C6.88398 14.04 6.88801 13.8567 6.83877 13.6842C6.78953 13.5117 6.68931 13.3581 6.55126 13.2436L3.09922 10.3848C3.06382 10.3557 3.03829 10.3163 3.02612 10.2721C3.01395 10.2279 3.01573 10.181 3.03122 10.1379C3.04671 10.0947 3.07515 10.0574 3.11266 10.031C3.15016 10.0047 3.1949 9.99053 3.24076 9.99054H7.22422C7.40847 9.99049 7.58817 9.93327 7.73852 9.82679C7.88887 9.7203 8.00247 9.56978 8.06364 9.39601L9.49858 5.33037C9.51381 5.28681 9.54221 5.24905 9.57985 5.22234C9.61749 5.19563 9.6625 5.18128 9.70866 5.18128C9.75481 5.18128 9.79983 5.19563 9.83747 5.22234C9.8751 5.24905 9.9035 5.28681 9.91873 5.33037L11.3528 9.39601C11.414 9.56978 11.5275 9.7203 11.6779 9.82679C11.8283 9.93327 12.0079 9.99049 12.1922 9.99054H16.1757C16.2215 9.99053 16.2663 10.0047 16.3038 10.031C16.3413 10.0574 16.3697 10.0947 16.3852 10.1379C16.4007 10.181 16.4025 10.2279 16.3903 10.2721C16.3781 10.3163 16.3526 10.3557 16.3172 10.3848L12.8678 13.2471Z" fill="#E22269"/>
<path fill-rule="evenodd" clip-rule="evenodd" d="M9.70926 2C9.45461 2 9.20603 2.07778 8.99679 2.22294C8.78754 2.36809 8.62763 2.57369 8.53844 2.81222L8.53427 2.82556L6.71761 7.97306C6.689 8.05434 6.63589 8.12476 6.56559 8.17461C6.4953 8.22445 6.41128 8.25128 6.32511 8.25139H1.25094C0.994121 8.2512 0.743476 8.33011 0.533093 8.4774C0.32271 8.6247 0.162802 8.83321 0.0751161 9.0746C-0.0125695 9.31599 -0.0237762 9.57852 0.0430203 9.8265C0.109817 10.0745 0.251374 10.2959 0.44844 10.4606L4.76844 14.0439C4.83306 14.0975 4.87997 14.1694 4.90302 14.2502C4.92607 14.3309 4.92418 14.4167 4.89761 14.4964L3.08261 19.9389C2.99873 20.1905 2.99707 20.4623 3.07788 20.715C3.15868 20.9676 3.31776 21.188 3.5321 21.3443C3.74644 21.5005 4.00494 21.5845 4.27019 21.5842C4.53544 21.5838 4.7937 21.4991 5.00761 21.3422L9.46261 18.0756C9.53404 18.0232 9.6203 17.995 9.70886 17.995C9.70899 17.995 9.70913 17.995 9.70926 17.995V2Z" fill="#E22269"/>
</g>
<g clip-path="url(#clip1_58_1849)">
<path d="M43.3366 9.06403C43.2441 8.81407 43.0773 8.59836 42.8587 8.44581C42.6401 8.29326 42.3801 8.21115 42.1135 8.21049H36.8242L34.93 2.8472C34.8364 2.59703 34.6683 2.38162 34.4483 2.23011C34.2283 2.07859 33.9671 1.99828 33.6999 2.00003C33.4328 2.00178 33.1727 2.0855 32.9547 2.23988C32.7367 2.39426 32.5714 2.61185 32.4811 2.86322L30.5931 8.21049H25.3038C25.0361 8.21074 24.7749 8.2933 24.5557 8.44697C24.3366 8.60065 24.1699 8.818 24.0785 9.06956C23.9871 9.32112 23.9752 9.59471 24.0445 9.85324C24.1139 10.1118 24.2611 10.3427 24.4661 10.5148L28.9445 14.2253L27.0654 19.8627C26.9772 20.1252 26.9749 20.409 27.0588 20.673C27.1427 20.9369 27.3085 21.1673 27.5321 21.3307C27.7557 21.4941 28.0256 21.5821 28.3026 21.5818C28.5796 21.5816 28.8493 21.4932 29.0727 21.3295L33.7087 17.9331L38.3437 21.3312C38.5668 21.4947 38.8362 21.583 39.1128 21.5833C39.3894 21.5837 39.6589 21.4961 39.8825 21.3332C40.106 21.1703 40.272 20.9406 40.3564 20.6772C40.4407 20.4139 40.4392 20.1305 40.3519 19.868L38.4719 14.2271L42.9601 10.5076C43.1625 10.334 43.307 10.1028 43.3743 9.84476C43.4416 9.58675 43.4285 9.31435 43.3366 9.06403ZM36.8678 13.2471C36.7296 13.3616 36.6292 13.5151 36.5798 13.6876C36.5304 13.8601 36.5343 14.0435 36.591 14.2137L37.9698 18.3497C37.9849 18.3945 37.9853 18.4429 37.9709 18.4879C37.9566 18.533 37.9282 18.5723 37.8901 18.6001C37.8519 18.628 37.8058 18.643 37.7585 18.6429C37.7113 18.6429 37.6652 18.6277 37.6271 18.5998L34.2338 16.1095C34.0812 15.9975 33.8967 15.9371 33.7073 15.9371C33.5179 15.9371 33.3335 15.9975 33.1808 16.1095L29.792 18.5953C29.7539 18.6231 29.708 18.6381 29.6609 18.6382C29.6138 18.6382 29.5678 18.6233 29.5297 18.5956C29.4916 18.5679 29.4633 18.5288 29.4488 18.484C29.4344 18.4391 29.4345 18.3909 29.4492 18.3461L30.8272 14.2102C30.884 14.04 30.888 13.8567 30.8388 13.6842C30.7895 13.5117 30.6893 13.3581 30.5513 13.2436L27.0992 10.3848C27.0638 10.3557 27.0383 10.3163 27.0261 10.2721C27.0139 10.2279 27.0157 10.181 27.0312 10.1379C27.0467 10.0947 27.0752 10.0574 27.1127 10.031C27.1502 10.0047 27.1949 9.99053 27.2408 9.99054H31.2242C31.4085 9.99049 31.5882 9.93327 31.7385 9.82679C31.8889 9.7203 32.0025 9.56978 32.0636 9.39601L33.4986 5.33037C33.5138 5.28681 33.5422 5.24905 33.5798 5.22234C33.6175 5.19563 33.6625 5.18128 33.7087 5.18128C33.7548 5.18128 33.7998 5.19563 33.8375 5.22234C33.8751 5.24905 33.9035 5.28681 33.9187 5.33037L35.3528 9.39601C35.414 9.56978 35.5275 9.7203 35.6779 9.82679C35.8283 9.93327 36.0079 9.99049 36.1922 9.99054H40.1757C40.2215 9.99053 40.2663 10.0047 40.3038 10.031C40.3413 10.0574 40.3697 10.0947 40.3852 10.1379C40.4007 10.181 40.4025 10.2279 40.3903 10.2721C40.3781 10.3163 40.3526 10.3557 40.3172 10.3848L36.8678 13.2471Z" fill="#E22269"/>
<path d="M42.9356 9.44583C42.8489 9.21179 42.6928 9.00982 42.4882 8.86699C42.2836 8.72415 42.0401 8.64728 41.7906 8.64666H36.8389L35.0656 3.62499C34.978 3.39076 34.8206 3.18907 34.6146 3.04721C34.4087 2.90534 34.1642 2.83015 33.9141 2.83178C33.664 2.83342 33.4205 2.91181 33.2164 3.05636C33.0124 3.2009 32.8576 3.40463 32.7731 3.63999L31.0056 8.64666H26.0539C25.8033 8.64689 25.5588 8.72419 25.3536 8.86808C25.1484 9.01196 24.9925 9.21547 24.9069 9.45101C24.8213 9.68654 24.8102 9.94271 24.8751 10.1848C24.94 10.4268 25.0778 10.6431 25.2697 10.8042L29.4622 14.2783L27.7031 19.5567C27.6205 19.8025 27.6183 20.0682 27.6969 20.3153C27.7754 20.5624 27.9306 20.7781 28.14 20.9311C28.3494 21.0841 28.602 21.1665 28.8613 21.1663C29.1206 21.1661 29.3731 21.0833 29.5822 20.93L33.9222 17.75L38.2614 20.9317C38.4703 21.0847 38.7224 21.1674 38.9814 21.1677C39.2403 21.168 39.4927 21.086 39.7019 20.9335C39.9112 20.781 40.0666 20.5659 40.1456 20.3193C40.2246 20.0727 40.2231 19.8074 40.1414 19.5617L38.3814 14.28L42.5831 10.7975C42.7726 10.635 42.9079 10.4184 42.9709 10.1768C43.0339 9.93526 43.0216 9.68021 42.9356 9.44583ZM36.8797 13.3625C36.7504 13.4696 36.6564 13.6134 36.6101 13.7749C36.5639 13.9364 36.5675 14.1081 36.6206 14.2675L37.9114 18.14C37.9255 18.182 37.9258 18.2273 37.9124 18.2695C37.899 18.3116 37.8725 18.3484 37.8367 18.3745C37.801 18.4006 37.7578 18.4146 37.7136 18.4146C37.6693 18.4145 37.6263 18.4004 37.5906 18.3742L34.4139 16.0425C34.271 15.9376 34.0983 15.8811 33.921 15.8811C33.7437 15.8811 33.571 15.9376 33.4281 16.0425L30.2556 18.37C30.22 18.396 30.177 18.4101 30.1329 18.4101C30.0888 18.4102 30.0458 18.3962 30.0101 18.3703C29.9744 18.3443 29.9479 18.3077 29.9344 18.2658C29.9208 18.2238 29.921 18.1786 29.9347 18.1367L31.2247 14.2642C31.2779 14.1048 31.2817 13.9332 31.2356 13.7717C31.1895 13.6102 31.0957 13.4664 30.9664 13.3592L27.7347 10.6825C27.7016 10.6552 27.6777 10.6184 27.6663 10.577C27.6549 10.5356 27.6566 10.4917 27.6711 10.4513C27.6856 10.4109 27.7122 10.3759 27.7473 10.3512C27.7824 10.3266 27.8243 10.3133 27.8672 10.3133H31.5964C31.7689 10.3133 31.9371 10.2597 32.0779 10.16C32.2186 10.0603 32.325 9.91937 32.3822 9.75666L33.7256 5.94999C33.7398 5.9092 33.7664 5.87386 33.8017 5.84885C33.8369 5.82383 33.879 5.8104 33.9222 5.8104C33.9655 5.8104 34.0076 5.82383 34.0428 5.84885C34.0781 5.87386 34.1047 5.9092 34.1189 5.94999L35.4614 9.75666C35.5187 9.91937 35.625 10.0603 35.7658 10.16C35.9065 10.2597 36.0748 10.3133 36.2472 10.3133H39.9764C40.0193 10.3133 40.0612 10.3266 40.0963 10.3512C40.1314 10.3759 40.1581 10.4109 40.1726 10.4513C40.1871 10.4917 40.1887 10.5356 40.1774 10.577C40.166 10.6184 40.1421 10.6552 40.1089 10.6825L36.8797 13.3625Z" fill="#E22269"/>
</g>
<g clip-path="url(#clip2_58_1849)">
<path d="M67.3366 9.06403C67.2441 8.81407 67.0773 8.59836 66.8587 8.44581C66.6401 8.29326 66.3801 8.21115 66.1135 8.21049H60.8242L58.93 2.8472C58.8364 2.59703 58.6683 2.38162 58.4483 2.23011C58.2283 2.07859 57.9671 1.99828 57.6999 2.00003C57.4328 2.00178 57.1727 2.0855 56.9547 2.23988C56.7367 2.39426 56.5714 2.61185 56.4811 2.86322L54.5931 8.21049H49.3038C49.0361 8.21074 48.7749 8.2933 48.5557 8.44697C48.3366 8.60065 48.1699 8.818 48.0785 9.06956C47.9871 9.32112 47.9752 9.59471 48.0445 9.85324C48.1139 10.1118 48.2611 10.3427 48.4661 10.5148L52.9445 14.2253L51.0654 19.8627C50.9772 20.1252 50.9749 20.409 51.0588 20.673C51.1427 20.9369 51.3085 21.1673 51.5321 21.3307C51.7557 21.4941 52.0256 21.5821 52.3026 21.5818C52.5796 21.5816 52.8493 21.4932 53.0727 21.3295L57.7087 17.9331L62.3437 21.3312C62.5668 21.4947 62.8362 21.583 63.1128 21.5833C63.3894 21.5837 63.6589 21.4961 63.8825 21.3332C64.106 21.1703 64.272 20.9406 64.3564 20.6772C64.4407 20.4139 64.4392 20.1305 64.3519 19.868L62.4719 14.2271L66.9601 10.5076C67.1625 10.334 67.307 10.1028 67.3743 9.84476C67.4416 9.58675 67.4285 9.31435 67.3366 9.06403ZM60.8678 13.2471C60.7296 13.3616 60.6292 13.5151 60.5798 13.6876C60.5304 13.8601 60.5343 14.0435 60.591 14.2137L61.9698 18.3497C61.9849 18.3945 61.9853 18.4429 61.9709 18.4879C61.9566 18.533 61.9282 18.5723 61.8901 18.6001C61.8519 18.628 61.8058 18.643 61.7585 18.6429C61.7113 18.6429 61.6652 18.6277 61.6271 18.5998L58.2338 16.1095C58.0812 15.9975 57.8967 15.9371 57.7073 15.9371C57.5179 15.9371 57.3335 15.9975 57.1808 16.1095L53.792 18.5953C53.7539 18.6231 53.708 18.6381 53.6609 18.6382C53.6138 18.6382 53.5678 18.6233 53.5297 18.5956C53.4916 18.5679 53.4633 18.5288 53.4488 18.484C53.4344 18.4391 53.4345 18.3909 53.4492 18.3461L54.8272 14.2102C54.884 14.04 54.888 13.8567 54.8388 13.6842C54.7895 13.5117 54.6893 13.3581 54.5513 13.2436L51.0992 10.3848C51.0638 10.3557 51.0383 10.3163 51.0261 10.2721C51.0139 10.2279 51.0157 10.181 51.0312 10.1379C51.0467 10.0947 51.0752 10.0574 51.1127 10.031C51.1502 10.0047 51.1949 9.99053 51.2408 9.99054H55.2242C55.4085 9.99049 55.5882 9.93327 55.7385 9.82679C55.8889 9.7203 56.0025 9.56978 56.0636 9.39601L57.4986 5.33037C57.5138 5.28681 57.5422 5.24905 57.5798 5.22234C57.6175 5.19563 57.6625 5.18128 57.7087 5.18128C57.7548 5.18128 57.7998 5.19563 57.8375 5.22234C57.8751 5.24905 57.9035 5.28681 57.9187 5.33037L59.3528 9.39601C59.414 9.56978 59.5275 9.7203 59.6779 9.82679C59.8283 9.93327 60.0079 9.99049 60.1922 9.99054H64.1757C64.2215 9.99053 64.2663 10.0047 64.3038 10.031C64.3413 10.0574 64.3697 10.0947 64.3852 10.1379C64.4007 10.181 64.4025 10.2279 64.3903 10.2721C64.3781 10.3163 64.3526 10.3557 64.3172 10.3848L60.8678 13.2471Z" fill="#E22269"/>
<path d="M66.9356 9.44583C66.8489 9.21179 66.6928 9.00982 66.4882 8.86699C66.2836 8.72415 66.0401 8.64728 65.7906 8.64666H60.8389L59.0656 3.62499C58.978 3.39076 58.8206 3.18907 58.6146 3.04721C58.4087 2.90534 58.1642 2.83015 57.9141 2.83178C57.664 2.83342 57.4205 2.91181 57.2164 3.05636C57.0124 3.2009 56.8576 3.40463 56.7731 3.63999L55.0056 8.64666H50.0539C49.8033 8.64689 49.5588 8.72419 49.3536 8.86808C49.1484 9.01196 48.9925 9.21547 48.9069 9.45101C48.8213 9.68654 48.8102 9.94271 48.8751 10.1848C48.94 10.4268 49.0778 10.6431 49.2697 10.8042L53.4622 14.2783L51.7031 19.5567C51.6205 19.8025 51.6183 20.0682 51.6969 20.3153C51.7754 20.5624 51.9306 20.7781 52.14 20.9311C52.3494 21.0841 52.602 21.1665 52.8613 21.1663C53.1206 21.1661 53.3731 21.0833 53.5822 20.93L57.9222 17.75L62.2614 20.9317C62.4703 21.0847 62.7224 21.1674 62.9814 21.1677C63.2403 21.168 63.4927 21.086 63.7019 20.9335C63.9112 20.781 64.0666 20.5659 64.1456 20.3193C64.2246 20.0727 64.2231 19.8074 64.1414 19.5617L62.3814 14.28L66.5831 10.7975C66.7726 10.635 66.9079 10.4184 66.9709 10.1768C67.0339 9.93526 67.0216 9.68021 66.9356 9.44583ZM60.8797 13.3625C60.7504 13.4696 60.6564 13.6134 60.6101 13.7749C60.5639 13.9364 60.5675 14.1081 60.6206 14.2675L61.9114 18.14C61.9255 18.182 61.9258 18.2273 61.9124 18.2695C61.899 18.3116 61.8725 18.3484 61.8367 18.3745C61.801 18.4006 61.7578 18.4146 61.7136 18.4146C61.6693 18.4145 61.6263 18.4004 61.5906 18.3742L58.4139 16.0425C58.271 15.9376 58.0983 15.8811 57.921 15.8811C57.7437 15.8811 57.571 15.9376 57.4281 16.0425L54.2556 18.37C54.22 18.396 54.177 18.4101 54.1329 18.4101C54.0888 18.4102 54.0458 18.3962 54.0101 18.3703C53.9744 18.3443 53.9479 18.3077 53.9344 18.2658C53.9208 18.2238 53.921 18.1786 53.9347 18.1367L55.2247 14.2642C55.2779 14.1048 55.2817 13.9332 55.2356 13.7717C55.1895 13.6102 55.0957 13.4664 54.9664 13.3592L51.7347 10.6825C51.7016 10.6552 51.6777 10.6184 51.6663 10.577C51.6549 10.5356 51.6566 10.4917 51.6711 10.4513C51.6856 10.4109 51.7122 10.3759 51.7473 10.3512C51.7824 10.3266 51.8243 10.3133 51.8672 10.3133H55.5964C55.7689 10.3133 55.9371 10.2597 56.0779 10.16C56.2186 10.0603 56.325 9.91937 56.3822 9.75666L57.7256 5.94999C57.7398 5.9092 57.7664 5.87386 57.8017 5.84885C57.8369 5.82383 57.879 5.8104 57.9222 5.8104C57.9655 5.8104 58.0076 5.82383 58.0428 5.84885C58.0781 5.87386 58.1047 5.9092 58.1189 5.94999L59.4614 9.75666C59.5187 9.91937 59.625 10.0603 59.7658 10.16C59.9065 10.2597 60.0748 10.3133 60.2472 10.3133H63.9764C64.0193 10.3133 64.0612 10.3266 64.0963 10.3512C64.1314 10.3759 64.1581 10.4109 64.1726 10.4513C64.1871 10.4917 64.1887 10.5356 64.1774 10.577C64.166 10.6184 64.1421 10.6552 64.1089 10.6825L60.8797 13.3625Z" fill="#E22269"/>
</g>
<g clip-path="url(#clip3_58_1849)">
<path d="M91.3366 9.06403C91.2441 8.81407 91.0773 8.59836 90.8587 8.44581C90.6401 8.29326 90.3801 8.21115 90.1135 8.21049H84.8242L82.93 2.8472C82.8364 2.59703 82.6683 2.38162 82.4483 2.23011C82.2283 2.07859 81.9671 1.99828 81.6999 2.00003C81.4328 2.00178 81.1727 2.0855 80.9547 2.23988C80.7367 2.39426 80.5714 2.61185 80.4811 2.86322L78.5931 8.21049H73.3038C73.0361 8.21074 72.7749 8.2933 72.5557 8.44697C72.3366 8.60065 72.1699 8.818 72.0785 9.06956C71.9871 9.32112 71.9752 9.59471 72.0445 9.85324C72.1139 10.1118 72.2611 10.3427 72.4661 10.5148L76.9445 14.2253L75.0654 19.8627C74.9772 20.1252 74.9749 20.409 75.0588 20.673C75.1427 20.9369 75.3085 21.1673 75.5321 21.3307C75.7557 21.4941 76.0256 21.5821 76.3026 21.5818C76.5796 21.5816 76.8493 21.4932 77.0727 21.3295L81.7087 17.9331L86.3437 21.3312C86.5668 21.4947 86.8362 21.583 87.1128 21.5833C87.3894 21.5837 87.6589 21.4961 87.8825 21.3332C88.106 21.1703 88.272 20.9406 88.3564 20.6772C88.4407 20.4139 88.4392 20.1305 88.3519 19.868L86.4719 14.2271L90.9601 10.5076C91.1625 10.334 91.307 10.1028 91.3743 9.84476C91.4416 9.58675 91.4285 9.31435 91.3366 9.06403ZM84.8678 13.2471C84.7296 13.3616 84.6292 13.5151 84.5798 13.6876C84.5304 13.8601 84.5343 14.0435 84.591 14.2137L85.9698 18.3497C85.9849 18.3945 85.9853 18.4429 85.9709 18.4879C85.9566 18.533 85.9282 18.5723 85.8901 18.6001C85.8519 18.628 85.8058 18.643 85.7585 18.6429C85.7113 18.6429 85.6652 18.6277 85.6271 18.5998L82.2338 16.1095C82.0812 15.9975 81.8967 15.9371 81.7073 15.9371C81.5179 15.9371 81.3335 15.9975 81.1808 16.1095L77.792 18.5953C77.7539 18.6231 77.708 18.6381 77.6609 18.6382C77.6138 18.6382 77.5678 18.6233 77.5297 18.5956C77.4916 18.5679 77.4633 18.5288 77.4488 18.484C77.4344 18.4391 77.4345 18.3909 77.4492 18.3461L78.8272 14.2102C78.884 14.04 78.888 13.8567 78.8388 13.6842C78.7895 13.5117 78.6893 13.3581 78.5513 13.2436L75.0992 10.3848C75.0638 10.3557 75.0383 10.3163 75.0261 10.2721C75.0139 10.2279 75.0157 10.181 75.0312 10.1379C75.0467 10.0947 75.0752 10.0574 75.1127 10.031C75.1502 10.0047 75.1949 9.99053 75.2408 9.99054H79.2242C79.4085 9.99049 79.5882 9.93327 79.7385 9.82679C79.8889 9.7203 80.0025 9.56978 80.0636 9.39601L81.4986 5.33037C81.5138 5.28681 81.5422 5.24905 81.5798 5.22234C81.6175 5.19563 81.6625 5.18128 81.7087 5.18128C81.7548 5.18128 81.7998 5.19563 81.8375 5.22234C81.8751 5.24905 81.9035 5.28681 81.9187 5.33037L83.3528 9.39601C83.414 9.56978 83.5275 9.7203 83.6779 9.82679C83.8283 9.93327 84.0079 9.99049 84.1922 9.99054H88.1757C88.2215 9.99053 88.2663 10.0047 88.3038 10.031C88.3413 10.0574 88.3697 10.0947 88.3852 10.1379C88.4007 10.181 88.4025 10.2279 88.3903 10.2721C88.3781 10.3163 88.3526 10.3557 88.3172 10.3848L84.8678 13.2471Z" fill="#E22269"/>
<path d="M90.9356 9.44583C90.8489 9.21179 90.6928 9.00982 90.4882 8.86699C90.2836 8.72415 90.0401 8.64728 89.7906 8.64666H84.8389L83.0656 3.62499C82.978 3.39076 82.8206 3.18907 82.6146 3.04721C82.4087 2.90534 82.1642 2.83015 81.9141 2.83178C81.664 2.83342 81.4205 2.91181 81.2164 3.05636C81.0124 3.2009 80.8576 3.40463 80.7731 3.63999L79.0056 8.64666H74.0539C73.8033 8.64689 73.5588 8.72419 73.3536 8.86808C73.1484 9.01196 72.9925 9.21547 72.9069 9.45101C72.8213 9.68654 72.8102 9.94271 72.8751 10.1848C72.94 10.4268 73.0778 10.6431 73.2697 10.8042L77.4622 14.2783L75.7031 19.5567C75.6205 19.8025 75.6183 20.0682 75.6969 20.3153C75.7754 20.5624 75.9306 20.7781 76.14 20.9311C76.3494 21.0841 76.602 21.1665 76.8613 21.1663C77.1206 21.1661 77.3731 21.0833 77.5822 20.93L81.9222 17.75L86.2614 20.9317C86.4703 21.0847 86.7224 21.1674 86.9814 21.1677C87.2403 21.168 87.4927 21.086 87.7019 20.9335C87.9112 20.781 88.0666 20.5659 88.1456 20.3193C88.2246 20.0727 88.2231 19.8074 88.1414 19.5617L86.3814 14.28L90.5831 10.7975C90.7726 10.635 90.9079 10.4184 90.9709 10.1768C91.0339 9.93526 91.0216 9.68021 90.9356 9.44583ZM84.8797 13.3625C84.7504 13.4696 84.6564 13.6134 84.6101 13.7749C84.5639 13.9364 84.5675 14.1081 84.6206 14.2675L85.9114 18.14C85.9255 18.182 85.9258 18.2273 85.9124 18.2695C85.899 18.3116 85.8725 18.3484 85.8367 18.3745C85.801 18.4006 85.7578 18.4146 85.7136 18.4146C85.6693 18.4145 85.6263 18.4004 85.5906 18.3742L82.4139 16.0425C82.271 15.9376 82.0983 15.8811 81.921 15.8811C81.7437 15.8811 81.571 15.9376 81.4281 16.0425L78.2556 18.37C78.22 18.396 78.177 18.4101 78.1329 18.4101C78.0888 18.4102 78.0458 18.3962 78.0101 18.3703C77.9744 18.3443 77.9479 18.3077 77.9344 18.2658C77.9208 18.2238 77.921 18.1786 77.9347 18.1367L79.2247 14.2642C79.2779 14.1048 79.2817 13.9332 79.2356 13.7717C79.1895 13.6102 79.0957 13.4664 78.9664 13.3592L75.7347 10.6825C75.7016 10.6552 75.6777 10.6184 75.6663 10.577C75.6549 10.5356 75.6566 10.4917 75.6711 10.4513C75.6856 10.4109 75.7122 10.3759 75.7473 10.3512C75.7824 10.3266 75.8243 10.3133 75.8672 10.3133H79.5964C79.7689 10.3133 79.9371 10.2597 80.0779 10.16C80.2186 10.0603 80.325 9.91937 80.3822 9.75666L81.7256 5.94999C81.7398 5.9092 81.7664 5.87386 81.8017 5.84885C81.8369 5.82383 81.879 5.8104 81.9222 5.8104C81.9655 5.8104 82.0076 5.82383 82.0428 5.84885C82.0781 5.87386 82.1047 5.9092 82.1189 5.94999L83.4614 9.75666C83.5187 9.91937 83.625 10.0603 83.7658 10.16C83.9065 10.2597 84.0748 10.3133 84.2472 10.3133H87.9764C88.0193 10.3133 88.0612 10.3266 88.0963 10.3512C88.1314 10.3759 88.1581 10.4109 88.1726 10.4513C88.1871 10.4917 88.1887 10.5356 88.1774 10.577C88.166 10.6184 88.1421 10.6552 88.1089 10.6825L84.8797 13.3625Z" fill="#E22269"/>
</g>
<g clip-path="url(#clip4_58_1849)">
<path d="M115.337 9.06403C115.244 8.81407 115.077 8.59836 114.859 8.44581C114.64 8.29326 114.38 8.21115 114.114 8.21049H108.824L106.93 2.8472C106.836 2.59703 106.668 2.38162 106.448 2.23011C106.228 2.07859 105.967 1.99828 105.7 2.00003C105.433 2.00178 105.173 2.0855 104.955 2.23988C104.737 2.39426 104.571 2.61185 104.481 2.86322L102.593 8.21049H97.3038C97.0361 8.21074 96.7749 8.2933 96.5557 8.44697C96.3366 8.60065 96.1699 8.818 96.0785 9.06956C95.9871 9.32112 95.9752 9.59471 96.0445 9.85324C96.1139 10.1118 96.2611 10.3427 96.4661 10.5148L100.945 14.2253L99.0654 19.8627C98.9772 20.1252 98.9749 20.409 99.0588 20.673C99.1427 20.9369 99.3085 21.1673 99.5321 21.3307C99.7557 21.4941 100.026 21.5821 100.303 21.5818C100.58 21.5816 100.849 21.4932 101.073 21.3295L105.709 17.9331L110.344 21.3312C110.567 21.4947 110.836 21.583 111.113 21.5833C111.389 21.5837 111.659 21.4961 111.882 21.3332C112.106 21.1703 112.272 20.9406 112.356 20.6772C112.441 20.4139 112.439 20.1305 112.352 19.868L110.472 14.2271L114.96 10.5076C115.162 10.334 115.307 10.1028 115.374 9.84476C115.442 9.58675 115.428 9.31435 115.337 9.06403ZM108.868 13.2471C108.73 13.3616 108.629 13.5151 108.58 13.6876C108.53 13.8601 108.534 14.0435 108.591 14.2137L109.97 18.3497C109.985 18.3945 109.985 18.4429 109.971 18.4879C109.957 18.533 109.928 18.5723 109.89 18.6001C109.852 18.628 109.806 18.643 109.759 18.6429C109.711 18.6429 109.665 18.6277 109.627 18.5998L106.234 16.1095C106.081 15.9975 105.897 15.9371 105.707 15.9371C105.518 15.9371 105.333 15.9975 105.181 16.1095L101.792 18.5953C101.754 18.6231 101.708 18.6381 101.661 18.6382C101.614 18.6382 101.568 18.6233 101.53 18.5956C101.492 18.5679 101.463 18.5288 101.449 18.484C101.434 18.4391 101.435 18.3909 101.449 18.3461L102.827 14.2102C102.884 14.04 102.888 13.8567 102.839 13.6842C102.79 13.5117 102.689 13.3581 102.551 13.2436L99.0992 10.3848C99.0638 10.3557 99.0383 10.3163 99.0261 10.2721C99.0139 10.2279 99.0157 10.181 99.0312 10.1379C99.0467 10.0947 99.0752 10.0574 99.1127 10.031C99.1502 10.0047 99.1949 9.99053 99.2408 9.99054H103.224C103.408 9.99049 103.588 9.93327 103.739 9.82679C103.889 9.7203 104.002 9.56978 104.064 9.39601L105.499 5.33037C105.514 5.28681 105.542 5.24905 105.58 5.22234C105.617 5.19563 105.662 5.18128 105.709 5.18128C105.755 5.18128 105.8 5.19563 105.837 5.22234C105.875 5.24905 105.904 5.28681 105.919 5.33037L107.353 9.39601C107.414 9.56978 107.528 9.7203 107.678 9.82679C107.828 9.93327 108.008 9.99049 108.192 9.99054H112.176C112.222 9.99053 112.266 10.0047 112.304 10.031C112.341 10.0574 112.37 10.0947 112.385 10.1379C112.401 10.181 112.402 10.2279 112.39 10.2721C112.378 10.3163 112.353 10.3557 112.317 10.3848L108.868 13.2471Z" fill="#E22269"/>
<path d="M114.936 9.44583C114.849 9.21179 114.693 9.00982 114.488 8.86699C114.284 8.72415 114.04 8.64728 113.791 8.64666H108.839L107.066 3.62499C106.978 3.39076 106.821 3.18907 106.615 3.04721C106.409 2.90534 106.164 2.83015 105.914 2.83178C105.664 2.83342 105.42 2.91181 105.216 3.05636C105.012 3.2009 104.858 3.40463 104.773 3.63999L103.006 8.64666H98.0539C97.8033 8.64689 97.5588 8.72419 97.3536 8.86808C97.1484 9.01196 96.9925 9.21547 96.9069 9.45101C96.8213 9.68654 96.8102 9.94271 96.8751 10.1848C96.94 10.4268 97.0778 10.6431 97.2697 10.8042L101.462 14.2783L99.7031 19.5567C99.6205 19.8025 99.6183 20.0682 99.6969 20.3153C99.7754 20.5624 99.9306 20.7781 100.14 20.9311C100.349 21.0841 100.602 21.1665 100.861 21.1663C101.121 21.1661 101.373 21.0833 101.582 20.93L105.922 17.75L110.261 20.9317C110.47 21.0847 110.722 21.1674 110.981 21.1677C111.24 21.168 111.493 21.086 111.702 20.9335C111.911 20.781 112.067 20.5659 112.146 20.3193C112.225 20.0727 112.223 19.8074 112.141 19.5617L110.381 14.28L114.583 10.7975C114.773 10.635 114.908 10.4184 114.971 10.1768C115.034 9.93526 115.022 9.68021 114.936 9.44583ZM108.88 13.3625C108.75 13.4696 108.656 13.6134 108.61 13.7749C108.564 13.9364 108.568 14.1081 108.621 14.2675L109.911 18.14C109.925 18.182 109.926 18.2273 109.912 18.2695C109.899 18.3116 109.872 18.3484 109.837 18.3745C109.801 18.4006 109.758 18.4146 109.714 18.4146C109.669 18.4145 109.626 18.4004 109.591 18.3742L106.414 16.0425C106.271 15.9376 106.098 15.8811 105.921 15.8811C105.744 15.8811 105.571 15.9376 105.428 16.0425L102.256 18.37C102.22 18.396 102.177 18.4101 102.133 18.4101C102.089 18.4102 102.046 18.3962 102.01 18.3703C101.974 18.3443 101.948 18.3077 101.934 18.2658C101.921 18.2238 101.921 18.1786 101.935 18.1367L103.225 14.2642C103.278 14.1048 103.282 13.9332 103.236 13.7717C103.189 13.6102 103.096 13.4664 102.966 13.3592L99.7347 10.6825C99.7016 10.6552 99.6777 10.6184 99.6663 10.577C99.6549 10.5356 99.6566 10.4917 99.6711 10.4513C99.6856 10.4109 99.7122 10.3759 99.7473 10.3512C99.7824 10.3266 99.8243 10.3133 99.8672 10.3133H103.596C103.769 10.3133 103.937 10.2597 104.078 10.16C104.219 10.0603 104.325 9.91937 104.382 9.75666L105.726 5.94999C105.74 5.9092 105.766 5.87386 105.802 5.84885C105.837 5.82383 105.879 5.8104 105.922 5.8104C105.965 5.8104 106.008 5.82383 106.043 5.84885C106.078 5.87386 106.105 5.9092 106.119 5.94999L107.461 9.75666C107.519 9.91937 107.625 10.0603 107.766 10.16C107.907 10.2597 108.075 10.3133 108.247 10.3133H111.976C112.019 10.3133 112.061 10.3266 112.096 10.3512C112.131 10.3759 112.158 10.4109 112.173 10.4513C112.187 10.4917 112.189 10.5356 112.177 10.577C112.166 10.6184 112.142 10.6552 112.109 10.6825L108.88 13.3625Z" fill="#E22269"/>
</g>
<defs>
<clipPath id="clip0_58_1849">
<rect width="20" height="20" fill="white" transform="translate(0 2)"/>
</clipPath>
<clipPath id="clip1_58_1849">
<rect width="20" height="20" fill="white" transform="translate(24 2)"/>
</clipPath>
<clipPath id="clip2_58_1849">
<rect width="20" height="20" fill="white" transform="translate(48 2)"/>
</clipPath>
<clipPath id="clip3_58_1849">
<rect width="20" height="20" fill="white" transform="translate(72 2)"/>
</clipPath>
<clipPath id="clip4_58_1849">
<rect width="20" height="20" fill="white" transform="translate(96 2)"/>
</clipPath>
</defs>
</svg>
