<svg width="86" height="18" viewBox="0 0 86 18" fill="none" xmlns="http://www.w3.org/2000/svg">
<g clip-path="url(#clip0_113_467)">
<path d="M13.7404 7.09192C13.6781 6.92451 13.5662 6.78008 13.4196 6.67794C13.2731 6.57579 13.0989 6.52078 12.9202 6.52025H9.36948C9.30906 6.5203 9.25012 6.50157 9.2008 6.46667C9.15147 6.43177 9.11421 6.38241 9.09415 6.32542L7.81957 2.71284C7.75713 2.54586 7.64519 2.40194 7.49872 2.30033C7.35225 2.19873 7.17824 2.14428 6.99998 2.14428C6.82172 2.14428 6.64771 2.19873 6.50124 2.30033C6.35477 2.40194 6.24283 2.54586 6.1804 2.71284L6.17748 2.72217L4.90582 6.32542C4.88579 6.38232 4.84861 6.43161 4.79941 6.4665C4.7502 6.5014 4.69139 6.52018 4.63107 6.52025H1.07915C0.899376 6.52012 0.723924 6.57536 0.576656 6.67846C0.429388 6.78157 0.317452 6.92753 0.256072 7.0965C0.194693 7.26547 0.186848 7.44925 0.233605 7.62283C0.280363 7.79642 0.379453 7.95139 0.517399 8.06667L3.5414 10.575C3.58663 10.6125 3.61947 10.6629 3.6356 10.7194C3.65174 10.7759 3.65042 10.836 3.63182 10.8918L2.36132 14.7015C2.3026 14.8777 2.30144 15.0679 2.358 15.2448C2.41457 15.4216 2.52592 15.5759 2.67596 15.6853C2.826 15.7946 3.00695 15.8535 3.19262 15.8532C3.3783 15.8529 3.55908 15.7936 3.70882 15.6838L6.82732 13.3972C6.87732 13.3605 6.9377 13.3408 6.99969 13.3408C7.06168 13.3408 7.12206 13.3605 7.17207 13.3972L10.2894 15.6833C10.4391 15.7934 10.6199 15.8531 10.8058 15.8536C10.9916 15.8541 11.1728 15.7954 11.323 15.686C11.4733 15.5766 11.5848 15.4222 11.6415 15.2452C11.6981 15.0682 11.6969 14.8778 11.6381 14.7015L10.3676 10.8894C10.349 10.8337 10.3476 10.7736 10.3638 10.7171C10.3799 10.6605 10.4127 10.6102 10.458 10.5727L13.4878 8.06084C13.624 7.94458 13.7212 7.78934 13.7664 7.61608C13.8116 7.44281 13.8025 7.25986 13.7404 7.09192Z" fill="#F8F3E5"/>
</g>
<g clip-path="url(#clip1_113_467)">
<path d="M31.5356 6.94482C31.4708 6.76985 31.3541 6.61885 31.2011 6.51206C31.0481 6.40528 30.8661 6.34781 30.6795 6.34734H26.9769L25.651 2.59304C25.5855 2.41792 25.4678 2.26714 25.3138 2.16108C25.1598 2.05502 24.9769 1.9988 24.79 2.00002C24.603 2.00124 24.4209 2.05985 24.2683 2.16792C24.1157 2.27598 24 2.42829 23.9368 2.60425L22.6152 6.34734H18.9126C18.7252 6.34752 18.5424 6.40531 18.389 6.51288C18.2356 6.62045 18.119 6.7726 18.0549 6.94869C17.9909 7.12478 17.9826 7.3163 18.0312 7.49727C18.0797 7.67824 18.1827 7.8399 18.3263 7.96034L21.4612 10.5577L20.1458 14.5039C20.084 14.6877 20.0824 14.8863 20.1411 15.0711C20.1999 15.2558 20.3159 15.4171 20.4725 15.5315C20.629 15.6459 20.8179 15.7074 21.0118 15.7073C21.2057 15.7071 21.3945 15.6453 21.5509 15.5306L24.7961 13.1532L28.0406 15.5319C28.1968 15.6463 28.3853 15.7081 28.5789 15.7083C28.7726 15.7086 28.9612 15.6473 29.1177 15.5333C29.2742 15.4192 29.3904 15.2584 29.4495 15.0741C29.5085 14.8897 29.5074 14.6913 29.4463 14.5076L28.1303 10.5589L31.2721 7.95535C31.4137 7.83383 31.5149 7.67193 31.562 7.49133C31.6091 7.31073 31.5999 7.12004 31.5356 6.94482ZM27.0075 9.873C26.9107 9.95311 26.8405 10.0606 26.8059 10.1813C26.7713 10.3021 26.774 10.4304 26.8137 10.5496L27.7789 13.4448C27.7894 13.4761 27.7897 13.51 27.7796 13.5416C27.7696 13.5731 27.7498 13.6006 27.723 13.6201C27.6963 13.6396 27.6641 13.6501 27.631 13.65C27.5979 13.65 27.5657 13.6394 27.539 13.6198L25.1637 11.8766C25.0568 11.7982 24.9277 11.7559 24.7951 11.7559C24.6626 11.7559 24.5334 11.7982 24.4266 11.8766L22.0544 13.6167C22.0277 13.6362 21.9956 13.6467 21.9626 13.6467C21.9296 13.6468 21.8975 13.6363 21.8708 13.6169C21.8441 13.5975 21.8243 13.5702 21.8142 13.5388C21.8041 13.5074 21.8042 13.4736 21.8145 13.4423L22.779 10.5471C22.8188 10.428 22.8216 10.2997 22.7871 10.1789C22.7527 10.0582 22.6825 9.95069 22.5859 9.87051L20.1695 7.86938C20.1447 7.84898 20.1268 7.82142 20.1183 7.79048C20.1098 7.75954 20.111 7.72672 20.1219 7.69652C20.1327 7.66631 20.1526 7.64019 20.1789 7.62173C20.2051 7.60327 20.2364 7.59337 20.2685 7.59338H23.057C23.1859 7.59334 23.3117 7.55329 23.417 7.47875C23.5222 7.40421 23.6017 7.29885 23.6445 7.1772L24.649 4.33126C24.6597 4.30076 24.6795 4.27434 24.7059 4.25564C24.7322 4.23694 24.7637 4.2269 24.7961 4.2269C24.8284 4.2269 24.8599 4.23694 24.8862 4.25564C24.9126 4.27434 24.9325 4.30076 24.9431 4.33126L25.9469 7.1772C25.9898 7.29885 26.0693 7.40421 26.1745 7.47875C26.2798 7.55329 26.4056 7.59334 26.5345 7.59338H29.323C29.3551 7.59337 29.3864 7.60327 29.4126 7.62173C29.4389 7.64019 29.4588 7.66631 29.4696 7.69652C29.4805 7.72672 29.4817 7.75954 29.4732 7.79048C29.4647 7.82142 29.4468 7.84898 29.422 7.86938L27.0075 9.873Z" fill="#F8F3E5"/>
<path d="M31.2549 7.21208C31.1943 7.04825 31.085 6.90687 30.9417 6.80689C30.7985 6.70691 30.6281 6.65309 30.4534 6.65266H26.9873L25.7459 3.1375C25.6846 2.97353 25.5744 2.83235 25.4303 2.73305C25.2861 2.63374 25.1149 2.5811 24.9399 2.58225C24.7648 2.58339 24.5944 2.63827 24.4515 2.73945C24.3087 2.84063 24.2003 2.98324 24.1412 3.148L22.9039 6.65266H19.4378C19.2623 6.65282 19.0912 6.70693 18.9476 6.80765C18.8039 6.90837 18.6947 7.05083 18.6348 7.21571C18.5749 7.38058 18.5671 7.5599 18.6126 7.72934C18.658 7.89878 18.7545 8.05015 18.8888 8.16291L21.8236 10.5948L20.5922 14.2897C20.5344 14.4617 20.5328 14.6477 20.5878 14.8207C20.6428 14.9937 20.7515 15.1447 20.898 15.2518C21.0446 15.3589 21.2214 15.4166 21.4029 15.4164C21.5844 15.4163 21.7612 15.3583 21.9076 15.251L24.9456 13.025L27.983 15.2522C28.1292 15.3593 28.3057 15.4172 28.487 15.4174C28.6682 15.4176 28.8449 15.3602 28.9914 15.2535C29.1379 15.1467 29.2466 14.9961 29.3019 14.8235C29.3572 14.6509 29.3562 14.4652 29.299 14.2932L28.067 10.596L31.0082 8.15825C31.1408 8.04447 31.2355 7.89288 31.2796 7.72378C31.3237 7.55468 31.3151 7.37614 31.2549 7.21208ZM27.0158 9.95375C26.9253 10.0287 26.8595 10.1294 26.8271 10.2424C26.7947 10.3555 26.7973 10.4757 26.8344 10.5872L27.738 13.298C27.7479 13.3274 27.7481 13.3591 27.7387 13.3886C27.7293 13.4181 27.7107 13.4439 27.6857 13.4622C27.6607 13.4804 27.6305 13.4902 27.5995 13.4902C27.5685 13.4902 27.5384 13.4802 27.5134 13.4619L25.2898 11.8297C25.1897 11.7563 25.0688 11.7168 24.9447 11.7168C24.8206 11.7168 24.6997 11.7563 24.5997 11.8297L22.3789 13.459C22.354 13.4772 22.3239 13.4871 22.293 13.4871C22.2622 13.4871 22.2321 13.4774 22.2071 13.4592C22.1821 13.441 22.1635 13.4154 22.1541 13.386C22.1446 13.3566 22.1447 13.325 22.1543 13.2957L23.0573 10.5849C23.0945 10.4734 23.0972 10.3532 23.0649 10.2402C23.0326 10.1271 22.967 10.0265 22.8765 9.95141L20.6143 8.07775C20.5911 8.05865 20.5744 8.03285 20.5664 8.00388C20.5585 7.97491 20.5596 7.94418 20.5698 7.9159C20.5799 7.88762 20.5986 7.86316 20.6231 7.84587C20.6477 7.82859 20.677 7.81932 20.7071 7.81933H23.3175C23.4382 7.81929 23.556 7.78179 23.6545 7.712C23.7531 7.64221 23.8275 7.54356 23.8676 7.42966L24.8079 4.765C24.8179 4.73644 24.8365 4.7117 24.8612 4.69419C24.8858 4.67668 24.9153 4.66728 24.9456 4.66728C24.9758 4.66728 25.0053 4.67668 25.03 4.69419C25.0547 4.7117 25.0733 4.73644 25.0833 4.765L26.023 7.42966C26.0631 7.54356 26.1375 7.64221 26.2361 7.712C26.3346 7.78179 26.4523 7.81929 26.5731 7.81933H29.1835C29.2136 7.81932 29.2429 7.82859 29.2674 7.84587C29.292 7.86316 29.3107 7.88762 29.3208 7.9159C29.331 7.94418 29.3321 7.97491 29.3242 8.00388C29.3162 8.03285 29.2995 8.05865 29.2763 8.07775L27.0158 9.95375Z" fill="#F8F3E5"/>
</g>
<g clip-path="url(#clip2_113_467)">
<path d="M49.5356 6.94482C49.4708 6.76985 49.3541 6.61885 49.2011 6.51206C49.0481 6.40528 48.8661 6.34781 48.6795 6.34734H44.9769L43.651 2.59304C43.5855 2.41792 43.4678 2.26714 43.3138 2.16108C43.1598 2.05502 42.9769 1.9988 42.79 2.00002C42.603 2.00124 42.4209 2.05985 42.2683 2.16792C42.1157 2.27598 42 2.42829 41.9368 2.60425L40.6152 6.34734H36.9126C36.7252 6.34752 36.5424 6.40531 36.389 6.51288C36.2356 6.62045 36.119 6.7726 36.0549 6.94869C35.9909 7.12478 35.9826 7.3163 36.0312 7.49727C36.0797 7.67824 36.1827 7.8399 36.3263 7.96034L39.4612 10.5577L38.1458 14.5039C38.084 14.6877 38.0824 14.8863 38.1411 15.0711C38.1999 15.2558 38.3159 15.4171 38.4725 15.5315C38.629 15.6459 38.8179 15.7074 39.0118 15.7073C39.2057 15.7071 39.3945 15.6453 39.5509 15.5306L42.7961 13.1532L46.0406 15.5319C46.1968 15.6463 46.3853 15.7081 46.5789 15.7083C46.7726 15.7086 46.9612 15.6473 47.1177 15.5333C47.2742 15.4192 47.3904 15.2584 47.4495 15.0741C47.5085 14.8897 47.5074 14.6913 47.4463 14.5076L46.1303 10.5589L49.2721 7.95535C49.4137 7.83383 49.5149 7.67193 49.562 7.49133C49.6091 7.31073 49.5999 7.12004 49.5356 6.94482ZM45.0075 9.873C44.9107 9.95311 44.8405 10.0606 44.8059 10.1813C44.7713 10.3021 44.774 10.4304 44.8137 10.5496L45.7789 13.4448C45.7894 13.4761 45.7897 13.51 45.7796 13.5416C45.7696 13.5731 45.7498 13.6006 45.723 13.6201C45.6963 13.6396 45.6641 13.6501 45.631 13.65C45.5979 13.65 45.5657 13.6394 45.539 13.6198L43.1637 11.8766C43.0568 11.7982 42.9277 11.7559 42.7951 11.7559C42.6626 11.7559 42.5334 11.7982 42.4266 11.8766L40.0544 13.6167C40.0277 13.6362 39.9956 13.6467 39.9626 13.6467C39.9296 13.6468 39.8975 13.6363 39.8708 13.6169C39.8441 13.5975 39.8243 13.5702 39.8142 13.5388C39.8041 13.5074 39.8042 13.4736 39.8145 13.4423L40.779 10.5471C40.8188 10.428 40.8216 10.2997 40.7871 10.1789C40.7527 10.0582 40.6825 9.95069 40.5859 9.87051L38.1695 7.86938C38.1447 7.84898 38.1268 7.82142 38.1183 7.79048C38.1098 7.75954 38.111 7.72672 38.1219 7.69652C38.1327 7.66631 38.1526 7.64019 38.1789 7.62173C38.2051 7.60327 38.2364 7.59337 38.2685 7.59338H41.057C41.1859 7.59334 41.3117 7.55329 41.417 7.47875C41.5222 7.40421 41.6017 7.29885 41.6445 7.1772L42.649 4.33126C42.6597 4.30076 42.6795 4.27434 42.7059 4.25564C42.7322 4.23694 42.7637 4.2269 42.7961 4.2269C42.8284 4.2269 42.8599 4.23694 42.8862 4.25564C42.9126 4.27434 42.9325 4.30076 42.9431 4.33126L43.9469 7.1772C43.9898 7.29885 44.0693 7.40421 44.1745 7.47875C44.2798 7.55329 44.4056 7.59334 44.5345 7.59338H47.323C47.3551 7.59337 47.3864 7.60327 47.4126 7.62173C47.4389 7.64019 47.4588 7.66631 47.4696 7.69652C47.4805 7.72672 47.4817 7.75954 47.4732 7.79048C47.4647 7.82142 47.4468 7.84898 47.422 7.86938L45.0075 9.873Z" fill="#F8F3E5"/>
<path d="M49.2549 7.21208C49.1943 7.04825 49.085 6.90687 48.9417 6.80689C48.7985 6.70691 48.6281 6.65309 48.4534 6.65266H44.9873L43.7459 3.1375C43.6846 2.97353 43.5744 2.83235 43.4303 2.73305C43.2861 2.63374 43.1149 2.5811 42.9399 2.58225C42.7648 2.58339 42.5944 2.63827 42.4515 2.73945C42.3087 2.84063 42.2003 2.98324 42.1412 3.148L40.9039 6.65266H37.4378C37.2623 6.65282 37.0912 6.70693 36.9476 6.80765C36.8039 6.90837 36.6947 7.05083 36.6348 7.21571C36.5749 7.38058 36.5671 7.5599 36.6126 7.72934C36.658 7.89878 36.7545 8.05015 36.8888 8.16291L39.8236 10.5948L38.5922 14.2897C38.5344 14.4617 38.5328 14.6477 38.5878 14.8207C38.6428 14.9937 38.7515 15.1447 38.898 15.2518C39.0446 15.3589 39.2214 15.4166 39.4029 15.4164C39.5844 15.4163 39.7612 15.3583 39.9076 15.251L42.9456 13.025L45.983 15.2522C46.1292 15.3593 46.3057 15.4172 46.487 15.4174C46.6682 15.4176 46.8449 15.3602 46.9914 15.2535C47.1379 15.1467 47.2466 14.9961 47.3019 14.8235C47.3572 14.6509 47.3562 14.4652 47.299 14.2932L46.067 10.596L49.0082 8.15825C49.1408 8.04447 49.2355 7.89288 49.2796 7.72378C49.3237 7.55468 49.3151 7.37614 49.2549 7.21208ZM45.0158 9.95375C44.9253 10.0287 44.8595 10.1294 44.8271 10.2424C44.7947 10.3555 44.7973 10.4757 44.8344 10.5872L45.738 13.298C45.7479 13.3274 45.7481 13.3591 45.7387 13.3886C45.7293 13.4181 45.7107 13.4439 45.6857 13.4622C45.6607 13.4804 45.6305 13.4902 45.5995 13.4902C45.5685 13.4902 45.5384 13.4802 45.5134 13.4619L43.2898 11.8297C43.1897 11.7563 43.0688 11.7168 42.9447 11.7168C42.8206 11.7168 42.6997 11.7563 42.5997 11.8297L40.3789 13.459C40.354 13.4772 40.3239 13.4871 40.293 13.4871C40.2622 13.4871 40.2321 13.4774 40.2071 13.4592C40.1821 13.441 40.1635 13.4154 40.1541 13.386C40.1446 13.3566 40.1447 13.325 40.1543 13.2957L41.0573 10.5849C41.0945 10.4734 41.0972 10.3532 41.0649 10.2402C41.0326 10.1271 40.967 10.0265 40.8765 9.95141L38.6143 8.07775C38.5911 8.05865 38.5744 8.03285 38.5664 8.00388C38.5585 7.97491 38.5596 7.94418 38.5698 7.9159C38.5799 7.88762 38.5986 7.86316 38.6231 7.84587C38.6477 7.82859 38.677 7.81932 38.7071 7.81933H41.3175C41.4382 7.81929 41.556 7.78179 41.6545 7.712C41.7531 7.64221 41.8275 7.54356 41.8676 7.42966L42.8079 4.765C42.8179 4.73644 42.8365 4.7117 42.8612 4.69419C42.8858 4.67668 42.9153 4.66728 42.9456 4.66728C42.9758 4.66728 43.0053 4.67668 43.03 4.69419C43.0547 4.7117 43.0733 4.73644 43.0833 4.765L44.023 7.42966C44.0631 7.54356 44.1375 7.64221 44.2361 7.712C44.3346 7.78179 44.4523 7.81929 44.5731 7.81933H47.1835C47.2136 7.81932 47.2429 7.82859 47.2674 7.84587C47.292 7.86316 47.3107 7.88762 47.3208 7.9159C47.331 7.94418 47.3321 7.97491 47.3242 8.00388C47.3162 8.03285 47.2995 8.05865 47.2763 8.07775L45.0158 9.95375Z" fill="#F8F3E5"/>
</g>
<g clip-path="url(#clip3_113_467)">
<path d="M67.5356 6.94482C67.4708 6.76985 67.3541 6.61885 67.2011 6.51206C67.0481 6.40528 66.8661 6.34781 66.6795 6.34734H62.9769L61.651 2.59304C61.5855 2.41792 61.4678 2.26714 61.3138 2.16108C61.1598 2.05502 60.9769 1.9988 60.79 2.00002C60.603 2.00124 60.4209 2.05985 60.2683 2.16792C60.1157 2.27598 60 2.42829 59.9368 2.60425L58.6152 6.34734H54.9126C54.7252 6.34752 54.5424 6.40531 54.389 6.51288C54.2356 6.62045 54.119 6.7726 54.0549 6.94869C53.9909 7.12478 53.9826 7.3163 54.0312 7.49727C54.0797 7.67824 54.1827 7.8399 54.3263 7.96034L57.4612 10.5577L56.1458 14.5039C56.084 14.6877 56.0824 14.8863 56.1411 15.0711C56.1999 15.2558 56.3159 15.4171 56.4725 15.5315C56.629 15.6459 56.8179 15.7074 57.0118 15.7073C57.2057 15.7071 57.3945 15.6453 57.5509 15.5306L60.7961 13.1532L64.0406 15.5319C64.1968 15.6463 64.3853 15.7081 64.5789 15.7083C64.7726 15.7086 64.9612 15.6473 65.1177 15.5333C65.2742 15.4192 65.3904 15.2584 65.4495 15.0741C65.5085 14.8897 65.5074 14.6913 65.4463 14.5076L64.1303 10.5589L67.2721 7.95535C67.4137 7.83383 67.5149 7.67193 67.562 7.49133C67.6091 7.31073 67.5999 7.12004 67.5356 6.94482ZM63.0075 9.873C62.9107 9.95311 62.8405 10.0606 62.8059 10.1813C62.7713 10.3021 62.774 10.4304 62.8137 10.5496L63.7789 13.4448C63.7894 13.4761 63.7897 13.51 63.7796 13.5416C63.7696 13.5731 63.7498 13.6006 63.723 13.6201C63.6963 13.6396 63.6641 13.6501 63.631 13.65C63.5979 13.65 63.5657 13.6394 63.539 13.6198L61.1637 11.8766C61.0568 11.7982 60.9277 11.7559 60.7951 11.7559C60.6626 11.7559 60.5334 11.7982 60.4266 11.8766L58.0544 13.6167C58.0277 13.6362 57.9956 13.6467 57.9626 13.6467C57.9296 13.6468 57.8975 13.6363 57.8708 13.6169C57.8441 13.5975 57.8243 13.5702 57.8142 13.5388C57.8041 13.5074 57.8042 13.4736 57.8145 13.4423L58.779 10.5471C58.8188 10.428 58.8216 10.2997 58.7871 10.1789C58.7527 10.0582 58.6825 9.95069 58.5859 9.87051L56.1695 7.86938C56.1447 7.84898 56.1268 7.82142 56.1183 7.79048C56.1098 7.75954 56.111 7.72672 56.1219 7.69652C56.1327 7.66631 56.1526 7.64019 56.1789 7.62173C56.2051 7.60327 56.2364 7.59337 56.2685 7.59338H59.057C59.1859 7.59334 59.3117 7.55329 59.417 7.47875C59.5222 7.40421 59.6017 7.29885 59.6445 7.1772L60.649 4.33126C60.6597 4.30076 60.6795 4.27434 60.7059 4.25564C60.7322 4.23694 60.7637 4.2269 60.7961 4.2269C60.8284 4.2269 60.8599 4.23694 60.8862 4.25564C60.9126 4.27434 60.9325 4.30076 60.9431 4.33126L61.9469 7.1772C61.9898 7.29885 62.0693 7.40421 62.1745 7.47875C62.2798 7.55329 62.4056 7.59334 62.5345 7.59338H65.323C65.3551 7.59337 65.3864 7.60327 65.4126 7.62173C65.4389 7.64019 65.4588 7.66631 65.4696 7.69652C65.4805 7.72672 65.4817 7.75954 65.4732 7.79048C65.4647 7.82142 65.4468 7.84898 65.422 7.86938L63.0075 9.873Z" fill="#F8F3E5"/>
<path d="M67.2549 7.21208C67.1943 7.04825 67.085 6.90687 66.9417 6.80689C66.7985 6.70691 66.6281 6.65309 66.4534 6.65266H62.9873L61.7459 3.1375C61.6846 2.97353 61.5744 2.83235 61.4303 2.73305C61.2861 2.63374 61.1149 2.5811 60.9399 2.58225C60.7648 2.58339 60.5944 2.63827 60.4515 2.73945C60.3087 2.84063 60.2003 2.98324 60.1412 3.148L58.9039 6.65266H55.4378C55.2623 6.65282 55.0912 6.70693 54.9476 6.80765C54.8039 6.90837 54.6947 7.05083 54.6348 7.21571C54.5749 7.38058 54.5671 7.5599 54.6126 7.72934C54.658 7.89878 54.7545 8.05015 54.8888 8.16291L57.8236 10.5948L56.5922 14.2897C56.5344 14.4617 56.5328 14.6477 56.5878 14.8207C56.6428 14.9937 56.7515 15.1447 56.898 15.2518C57.0446 15.3589 57.2214 15.4166 57.4029 15.4164C57.5844 15.4163 57.7612 15.3583 57.9076 15.251L60.9456 13.025L63.983 15.2522C64.1292 15.3593 64.3057 15.4172 64.487 15.4174C64.6682 15.4176 64.8449 15.3602 64.9914 15.2535C65.1379 15.1467 65.2466 14.9961 65.3019 14.8235C65.3572 14.6509 65.3562 14.4652 65.299 14.2932L64.067 10.596L67.0082 8.15825C67.1408 8.04447 67.2355 7.89288 67.2796 7.72378C67.3237 7.55468 67.3151 7.37614 67.2549 7.21208ZM63.0158 9.95375C62.9253 10.0287 62.8595 10.1294 62.8271 10.2424C62.7947 10.3555 62.7973 10.4757 62.8344 10.5872L63.738 13.298C63.7479 13.3274 63.7481 13.3591 63.7387 13.3886C63.7293 13.4181 63.7107 13.4439 63.6857 13.4622C63.6607 13.4804 63.6305 13.4902 63.5995 13.4902C63.5685 13.4902 63.5384 13.4802 63.5134 13.4619L61.2898 11.8297C61.1897 11.7563 61.0688 11.7168 60.9447 11.7168C60.8206 11.7168 60.6997 11.7563 60.5997 11.8297L58.3789 13.459C58.354 13.4772 58.3239 13.4871 58.293 13.4871C58.2622 13.4871 58.2321 13.4774 58.2071 13.4592C58.1821 13.441 58.1635 13.4154 58.1541 13.386C58.1446 13.3566 58.1447 13.325 58.1543 13.2957L59.0573 10.5849C59.0945 10.4734 59.0972 10.3532 59.0649 10.2402C59.0326 10.1271 58.967 10.0265 58.8765 9.95141L56.6143 8.07775C56.5911 8.05865 56.5744 8.03285 56.5664 8.00388C56.5585 7.97491 56.5596 7.94418 56.5698 7.9159C56.5799 7.88762 56.5986 7.86316 56.6231 7.84587C56.6477 7.82859 56.677 7.81932 56.7071 7.81933H59.3175C59.4382 7.81929 59.556 7.78179 59.6545 7.712C59.7531 7.64221 59.8275 7.54356 59.8676 7.42966L60.8079 4.765C60.8179 4.73644 60.8365 4.7117 60.8612 4.69419C60.8858 4.67668 60.9153 4.66728 60.9456 4.66728C60.9758 4.66728 61.0053 4.67668 61.03 4.69419C61.0547 4.7117 61.0733 4.73644 61.0833 4.765L62.023 7.42966C62.0631 7.54356 62.1375 7.64221 62.2361 7.712C62.3346 7.78179 62.4523 7.81929 62.5731 7.81933H65.1835C65.2136 7.81932 65.2429 7.82859 65.2674 7.84587C65.292 7.86316 65.3107 7.88762 65.3208 7.9159C65.331 7.94418 65.3321 7.97491 65.3242 8.00388C65.3162 8.03285 65.2995 8.05865 65.2763 8.07775L63.0158 9.95375Z" fill="#F8F3E5"/>
</g>
<g clip-path="url(#clip4_113_467)">
<path d="M85.5356 6.94482C85.4708 6.76985 85.3541 6.61885 85.2011 6.51206C85.0481 6.40528 84.8661 6.34781 84.6795 6.34734H80.9769L79.651 2.59304C79.5855 2.41792 79.4678 2.26714 79.3138 2.16108C79.1598 2.05502 78.9769 1.9988 78.79 2.00002C78.603 2.00124 78.4209 2.05985 78.2683 2.16792C78.1157 2.27598 78 2.42829 77.9368 2.60425L76.6152 6.34734H72.9126C72.7252 6.34752 72.5424 6.40531 72.389 6.51288C72.2356 6.62045 72.119 6.7726 72.0549 6.94869C71.9909 7.12478 71.9826 7.3163 72.0312 7.49727C72.0797 7.67824 72.1827 7.8399 72.3263 7.96034L75.4612 10.5577L74.1458 14.5039C74.084 14.6877 74.0824 14.8863 74.1411 15.0711C74.1999 15.2558 74.3159 15.4171 74.4725 15.5315C74.629 15.6459 74.8179 15.7074 75.0118 15.7073C75.2057 15.7071 75.3945 15.6453 75.5509 15.5306L78.7961 13.1532L82.0406 15.5319C82.1968 15.6463 82.3853 15.7081 82.5789 15.7083C82.7726 15.7086 82.9612 15.6473 83.1177 15.5333C83.2742 15.4192 83.3904 15.2584 83.4495 15.0741C83.5085 14.8897 83.5074 14.6913 83.4463 14.5076L82.1303 10.5589L85.2721 7.95535C85.4137 7.83383 85.5149 7.67193 85.562 7.49133C85.6091 7.31073 85.5999 7.12004 85.5356 6.94482ZM81.0075 9.873C80.9107 9.95311 80.8405 10.0606 80.8059 10.1813C80.7713 10.3021 80.774 10.4304 80.8137 10.5496L81.7789 13.4448C81.7894 13.4761 81.7897 13.51 81.7796 13.5416C81.7696 13.5731 81.7498 13.6006 81.723 13.6201C81.6963 13.6396 81.6641 13.6501 81.631 13.65C81.5979 13.65 81.5657 13.6394 81.539 13.6198L79.1637 11.8766C79.0568 11.7982 78.9277 11.7559 78.7951 11.7559C78.6626 11.7559 78.5334 11.7982 78.4266 11.8766L76.0544 13.6167C76.0277 13.6362 75.9956 13.6467 75.9626 13.6467C75.9296 13.6468 75.8975 13.6363 75.8708 13.6169C75.8441 13.5975 75.8243 13.5702 75.8142 13.5388C75.8041 13.5074 75.8042 13.4736 75.8145 13.4423L76.779 10.5471C76.8188 10.428 76.8216 10.2997 76.7871 10.1789C76.7527 10.0582 76.6825 9.95069 76.5859 9.87051L74.1695 7.86938C74.1447 7.84898 74.1268 7.82142 74.1183 7.79048C74.1098 7.75954 74.111 7.72672 74.1219 7.69652C74.1327 7.66631 74.1526 7.64019 74.1789 7.62173C74.2051 7.60327 74.2364 7.59337 74.2685 7.59338H77.057C77.1859 7.59334 77.3117 7.55329 77.417 7.47875C77.5222 7.40421 77.6017 7.29885 77.6445 7.1772L78.649 4.33126C78.6597 4.30076 78.6795 4.27434 78.7059 4.25564C78.7322 4.23694 78.7637 4.2269 78.7961 4.2269C78.8284 4.2269 78.8599 4.23694 78.8862 4.25564C78.9126 4.27434 78.9325 4.30076 78.9431 4.33126L79.9469 7.1772C79.9898 7.29885 80.0693 7.40421 80.1745 7.47875C80.2798 7.55329 80.4056 7.59334 80.5345 7.59338H83.323C83.3551 7.59337 83.3864 7.60327 83.4126 7.62173C83.4389 7.64019 83.4588 7.66631 83.4696 7.69652C83.4805 7.72672 83.4817 7.75954 83.4732 7.79048C83.4647 7.82142 83.4468 7.84898 83.422 7.86938L81.0075 9.873Z" fill="#F8F3E5"/>
<path d="M85.2549 7.21208C85.1943 7.04825 85.085 6.90687 84.9417 6.80689C84.7985 6.70691 84.6281 6.65309 84.4534 6.65266H80.9873L79.7459 3.1375C79.6846 2.97353 79.5744 2.83235 79.4303 2.73305C79.2861 2.63374 79.1149 2.5811 78.9399 2.58225C78.7648 2.58339 78.5944 2.63827 78.4515 2.73945C78.3087 2.84063 78.2003 2.98324 78.1412 3.148L76.9039 6.65266H73.4378C73.2623 6.65282 73.0912 6.70693 72.9476 6.80765C72.8039 6.90837 72.6947 7.05083 72.6348 7.21571C72.5749 7.38058 72.5671 7.5599 72.6126 7.72934C72.658 7.89878 72.7545 8.05015 72.8888 8.16291L75.8236 10.5948L74.5922 14.2897C74.5344 14.4617 74.5328 14.6477 74.5878 14.8207C74.6428 14.9937 74.7515 15.1447 74.898 15.2518C75.0446 15.3589 75.2214 15.4166 75.4029 15.4164C75.5844 15.4163 75.7612 15.3583 75.9076 15.251L78.9456 13.025L81.983 15.2522C82.1292 15.3593 82.3057 15.4172 82.487 15.4174C82.6682 15.4176 82.8449 15.3602 82.9914 15.2535C83.1379 15.1467 83.2466 14.9961 83.3019 14.8235C83.3572 14.6509 83.3562 14.4652 83.299 14.2932L82.067 10.596L85.0082 8.15825C85.1408 8.04447 85.2355 7.89288 85.2796 7.72378C85.3237 7.55468 85.3151 7.37614 85.2549 7.21208ZM81.0158 9.95375C80.9253 10.0287 80.8595 10.1294 80.8271 10.2424C80.7947 10.3555 80.7973 10.4757 80.8344 10.5872L81.738 13.298C81.7479 13.3274 81.7481 13.3591 81.7387 13.3886C81.7293 13.4181 81.7107 13.4439 81.6857 13.4622C81.6607 13.4804 81.6305 13.4902 81.5995 13.4902C81.5685 13.4902 81.5384 13.4802 81.5134 13.4619L79.2898 11.8297C79.1897 11.7563 79.0688 11.7168 78.9447 11.7168C78.8206 11.7168 78.6997 11.7563 78.5997 11.8297L76.3789 13.459C76.354 13.4772 76.3239 13.4871 76.293 13.4871C76.2622 13.4871 76.2321 13.4774 76.2071 13.4592C76.1821 13.441 76.1635 13.4154 76.1541 13.386C76.1446 13.3566 76.1447 13.325 76.1543 13.2957L77.0573 10.5849C77.0945 10.4734 77.0972 10.3532 77.0649 10.2402C77.0326 10.1271 76.967 10.0265 76.8765 9.95141L74.6143 8.07775C74.5911 8.05865 74.5744 8.03285 74.5664 8.00388C74.5585 7.97491 74.5596 7.94418 74.5698 7.9159C74.5799 7.88762 74.5986 7.86316 74.6231 7.84587C74.6477 7.82859 74.677 7.81932 74.7071 7.81933H77.3175C77.4382 7.81929 77.556 7.78179 77.6545 7.712C77.7531 7.64221 77.8275 7.54356 77.8676 7.42966L78.8079 4.765C78.8179 4.73644 78.8365 4.7117 78.8612 4.69419C78.8858 4.67668 78.9153 4.66728 78.9456 4.66728C78.9758 4.66728 79.0053 4.67668 79.03 4.69419C79.0547 4.7117 79.0733 4.73644 79.0833 4.765L80.023 7.42966C80.0631 7.54356 80.1375 7.64221 80.2361 7.712C80.3346 7.78179 80.4523 7.81929 80.5731 7.81933H83.1835C83.2136 7.81932 83.2429 7.82859 83.2674 7.84587C83.292 7.86316 83.3107 7.88762 83.3208 7.9159C83.331 7.94418 83.3321 7.97491 83.3242 8.00388C83.3162 8.03285 83.2995 8.05865 83.2763 8.07775L81.0158 9.95375Z" fill="#F8F3E5"/>
</g>
<defs>
<clipPath id="clip0_113_467">
<rect width="14" height="14" fill="white" transform="translate(0 2)"/>
</clipPath>
<clipPath id="clip1_113_467">
<rect width="14" height="14" fill="white" transform="translate(18 2)"/>
</clipPath>
<clipPath id="clip2_113_467">
<rect width="14" height="14" fill="white" transform="translate(36 2)"/>
</clipPath>
<clipPath id="clip3_113_467">
<rect width="14" height="14" fill="white" transform="translate(54 2)"/>
</clipPath>
<clipPath id="clip4_113_467">
<rect width="14" height="14" fill="white" transform="translate(72 2)"/>
</clipPath>
</defs>
</svg>
