<svg width="116" height="24" viewBox="0 0 116 24" fill="none" xmlns="http://www.w3.org/2000/svg">
<mask id="mask0_13438_217866" style="mask-type:luminance" maskUnits="userSpaceOnUse" x="0" y="2" width="20" height="20">
<path d="M20 2H0V22H20V2Z" fill="white"/>
</mask>
<g mask="url(#mask0_13438_217866)">
<path d="M19.6292 9.27417C19.5402 9.03501 19.3803 8.82869 19.171 8.68277C18.9616 8.53685 18.7127 8.45826 18.4575 8.4575H13.385C13.2987 8.45757 13.2145 8.43082 13.1441 8.38096C13.0736 8.3311 13.0204 8.26059 12.9917 8.17917L11.1709 3.01834C11.0817 2.77981 10.9218 2.57421 10.7125 2.42905C10.5033 2.2839 10.2547 2.20612 10 2.20612C9.74538 2.20612 9.4968 2.2839 9.28756 2.42905C9.07831 2.57421 8.9184 2.77981 8.82921 3.01834L8.82504 3.03167L7.00838 8.17917C6.97977 8.26046 6.92666 8.33087 6.85637 8.38072C6.78607 8.43057 6.70205 8.45739 6.61588 8.4575H1.54171C1.28489 8.45731 1.03425 8.53623 0.823864 8.68352C0.613482 8.83081 0.453573 9.03933 0.365888 9.28072C0.278202 9.5221 0.266995 9.78464 0.333792 10.0326C0.400588 10.2806 0.542146 10.502 0.739212 10.6667L5.05921 14.25C5.12383 14.3036 5.17074 14.3755 5.19379 14.4563C5.21684 14.537 5.21495 14.6228 5.18838 14.7025L3.37338 20.145C3.2895 20.3966 3.28784 20.6684 3.36865 20.9211C3.44945 21.1737 3.60853 21.3941 3.82287 21.5504C4.03722 21.7066 4.29571 21.7907 4.56096 21.7903C4.82621 21.7899 5.08447 21.7052 5.29838 21.5483L9.75338 18.2817C9.82482 18.2293 9.91107 18.2011 9.99963 18.2011C10.0882 18.2011 10.1744 18.2293 10.2459 18.2817L14.6992 21.5475C14.913 21.7049 15.1714 21.7901 15.4369 21.7908C15.7024 21.7915 15.9612 21.7077 16.1759 21.5514C16.3905 21.3952 16.5498 21.1746 16.6307 20.9218C16.7116 20.6689 16.7099 20.3968 16.6259 20.145L14.8109 14.6992C14.7843 14.6195 14.7824 14.5337 14.8055 14.4529C14.8285 14.3722 14.8754 14.3003 14.94 14.2467L19.2684 10.6583C19.4629 10.4923 19.6018 10.2705 19.6664 10.023C19.7309 9.77545 19.7179 9.51409 19.6292 9.27417Z" fill="#F8F3E5"/>
</g>
<mask id="mask1_13438_217866" style="mask-type:luminance" maskUnits="userSpaceOnUse" x="24" y="2" width="20" height="20">
<path d="M44 2H24V22H44V2Z" fill="white"/>
</mask>
<g mask="url(#mask1_13438_217866)">
<path d="M43.6292 9.27417C43.5402 9.03501 43.3803 8.82869 43.171 8.68277C42.9616 8.53685 42.7127 8.45826 42.4575 8.4575H37.385C37.2987 8.45757 37.2145 8.43082 37.1441 8.38096C37.0736 8.3311 37.0204 8.26059 36.9917 8.17917L35.1709 3.01834C35.0817 2.77981 34.9218 2.57421 34.7125 2.42905C34.5033 2.2839 34.2547 2.20612 34 2.20612C33.7454 2.20612 33.4968 2.2839 33.2876 2.42905C33.0783 2.57421 32.9184 2.77981 32.8292 3.01834L32.825 3.03167L31.0084 8.17917C30.9798 8.26046 30.9267 8.33087 30.8564 8.38072C30.7861 8.43057 30.7021 8.45739 30.6159 8.4575H25.5417C25.2849 8.45731 25.0342 8.53623 24.8239 8.68352C24.6135 8.83081 24.4536 9.03933 24.3659 9.28072C24.2782 9.5221 24.267 9.78464 24.3338 10.0326C24.4006 10.2806 24.5421 10.502 24.7392 10.6667L29.0592 14.25C29.1238 14.3036 29.1707 14.3755 29.1938 14.4563C29.2168 14.537 29.215 14.6228 29.1884 14.7025L27.3734 20.145C27.2895 20.3966 27.2878 20.6684 27.3686 20.9211C27.4495 21.1737 27.6085 21.3941 27.8229 21.5504C28.0372 21.7066 28.2957 21.7907 28.561 21.7903C28.8262 21.7899 29.0845 21.7052 29.2984 21.5483L33.7534 18.2817C33.8248 18.2293 33.9111 18.2011 33.9996 18.2011C34.0882 18.2011 34.1744 18.2293 34.2459 18.2817L38.6992 21.5475C38.913 21.7049 39.1714 21.7901 39.4369 21.7908C39.7024 21.7915 39.9612 21.7077 40.1759 21.5514C40.3905 21.3952 40.5498 21.1746 40.6307 20.9218C40.7116 20.6689 40.7099 20.3968 40.6259 20.145L38.8109 14.6992C38.7843 14.6195 38.7824 14.5337 38.8055 14.4529C38.8285 14.3722 38.8754 14.3003 38.94 14.2467L43.2684 10.6583C43.4629 10.4923 43.6018 10.2705 43.6664 10.023C43.7309 9.77545 43.7179 9.51409 43.6292 9.27417Z" fill="#F8F3E5"/>
</g>
<mask id="mask2_13438_217866" style="mask-type:luminance" maskUnits="userSpaceOnUse" x="48" y="2" width="20" height="20">
<path d="M68 2H48V22H68V2Z" fill="white"/>
</mask>
<g mask="url(#mask2_13438_217866)">
<path d="M67.3366 9.06403C67.2441 8.81407 67.0773 8.59836 66.8587 8.44581C66.6401 8.29326 66.3801 8.21115 66.1135 8.21049H60.8242L58.93 2.8472C58.8364 2.59703 58.6683 2.38162 58.4483 2.23011C58.2283 2.07859 57.9671 1.99828 57.6999 2.00003C57.4328 2.00178 57.1727 2.0855 56.9547 2.23988C56.7367 2.39426 56.5714 2.61185 56.4811 2.86322L54.5931 8.21049H49.3038C49.0361 8.21074 48.7749 8.2933 48.5557 8.44697C48.3366 8.60065 48.1699 8.818 48.0785 9.06956C47.9871 9.32112 47.9752 9.59471 48.0445 9.85324C48.1139 10.1118 48.2611 10.3427 48.4661 10.5148L52.9445 14.2253L51.0654 19.8627C50.9772 20.1252 50.9749 20.409 51.0588 20.673C51.1427 20.9369 51.3085 21.1673 51.5321 21.3307C51.7557 21.4941 52.0256 21.5821 52.3026 21.5818C52.5796 21.5816 52.8493 21.4932 53.0727 21.3295L57.7087 17.9331L62.3437 21.3312C62.5668 21.4947 62.8362 21.583 63.1128 21.5833C63.3894 21.5837 63.6589 21.4961 63.8825 21.3332C64.106 21.1703 64.272 20.9406 64.3564 20.6772C64.4407 20.4139 64.4392 20.1305 64.3519 19.868L62.4719 14.2271L66.9601 10.5076C67.1625 10.334 67.307 10.1028 67.3743 9.84476C67.4416 9.58675 67.4285 9.31435 67.3366 9.06403ZM60.8678 13.2471C60.7296 13.3616 60.6292 13.5151 60.5798 13.6876C60.5304 13.8601 60.5343 14.0435 60.591 14.2137L61.9698 18.3497C61.9849 18.3945 61.9853 18.4429 61.9709 18.4879C61.9566 18.533 61.9282 18.5723 61.8901 18.6001C61.8519 18.628 61.8058 18.643 61.7585 18.6429C61.7113 18.6429 61.6652 18.6277 61.6271 18.5998L58.2338 16.1095C58.0812 15.9975 57.8967 15.9371 57.7073 15.9371C57.5179 15.9371 57.3335 15.9975 57.1808 16.1095L53.792 18.5953C53.7539 18.6231 53.708 18.6381 53.6609 18.6382C53.6138 18.6382 53.5678 18.6233 53.5297 18.5956C53.4916 18.5679 53.4633 18.5288 53.4488 18.484C53.4344 18.4391 53.4345 18.3909 53.4492 18.3461L54.8272 14.2102C54.884 14.04 54.888 13.8567 54.8388 13.6842C54.7895 13.5117 54.6893 13.3581 54.5513 13.2436L51.0992 10.3848C51.0638 10.3557 51.0383 10.3163 51.0261 10.2721C51.0139 10.2279 51.0157 10.181 51.0312 10.1379C51.0467 10.0947 51.0752 10.0574 51.1127 10.031C51.1502 10.0047 51.1949 9.99053 51.2408 9.99054H55.2242C55.4085 9.99049 55.5882 9.93327 55.7385 9.82679C55.8889 9.7203 56.0025 9.56978 56.0636 9.39601L57.4986 5.33037C57.5138 5.28681 57.5422 5.24905 57.5798 5.22234C57.6175 5.19563 57.6625 5.18128 57.7087 5.18128C57.7548 5.18128 57.7998 5.19563 57.8375 5.22234C57.8751 5.24905 57.9035 5.28681 57.9187 5.33037L59.3528 9.39601C59.414 9.56978 59.5275 9.7203 59.6779 9.82679C59.8283 9.93327 60.0079 9.99049 60.1922 9.99054H64.1757C64.2215 9.99053 64.2663 10.0047 64.3038 10.031C64.3413 10.0574 64.3697 10.0947 64.3852 10.1379C64.4007 10.181 64.4025 10.2279 64.3903 10.2721C64.3781 10.3163 64.3526 10.3557 64.3172 10.3848L60.8678 13.2471Z" fill="#F8F3E5"/>
<path fill-rule="evenodd" clip-rule="evenodd" d="M57.7093 2C57.4546 2 57.206 2.07778 56.9968 2.22294C56.7875 2.36809 56.6276 2.57369 56.5384 2.81222L56.5343 2.82556L54.7176 7.97306C54.689 8.05434 54.6359 8.12476 54.5656 8.17461C54.4953 8.22445 54.4113 8.25128 54.3251 8.25139H49.2509C48.9941 8.2512 48.7435 8.33011 48.5331 8.4774C48.3227 8.6247 48.1628 8.83321 48.0751 9.0746C47.9874 9.31599 47.9762 9.57852 48.043 9.8265C48.1098 10.0745 48.2514 10.2959 48.4484 10.4606L52.7684 14.0439C52.8331 14.0975 52.88 14.1694 52.903 14.2502C52.9261 14.3309 52.9242 14.4167 52.8976 14.4964L51.0826 19.9389C50.9987 20.1905 50.9971 20.4623 51.0779 20.715C51.1587 20.9676 51.3178 21.188 51.5321 21.3443C51.7464 21.5005 52.0049 21.5845 52.2702 21.5842C52.5354 21.5838 52.7937 21.4991 53.0076 21.3422L57.4626 18.0756C57.534 18.0232 57.6203 17.995 57.7089 17.995C57.7087 17.995 57.709 17.995 57.7089 17.995L57.7093 2Z" fill="#F8F3E5"/>
</g>
<mask id="mask3_13438_217866" style="mask-type:luminance" maskUnits="userSpaceOnUse" x="72" y="2" width="20" height="20">
<path d="M92 2H72V22H92V2Z" fill="white"/>
</mask>
<g mask="url(#mask3_13438_217866)">
<path d="M91.3366 9.06403C91.2441 8.81407 91.0773 8.59836 90.8587 8.44581C90.6401 8.29326 90.3801 8.21115 90.1135 8.21049H84.8242L82.93 2.8472C82.8364 2.59703 82.6683 2.38162 82.4483 2.23011C82.2283 2.07859 81.9671 1.99828 81.6999 2.00003C81.4328 2.00178 81.1727 2.0855 80.9547 2.23988C80.7367 2.39426 80.5714 2.61185 80.4811 2.86322L78.5931 8.21049H73.3038C73.0361 8.21074 72.7749 8.2933 72.5557 8.44697C72.3366 8.60065 72.1699 8.818 72.0785 9.06956C71.9871 9.32112 71.9752 9.59471 72.0445 9.85324C72.1139 10.1118 72.2611 10.3427 72.4661 10.5148L76.9445 14.2253L75.0654 19.8627C74.9772 20.1252 74.9749 20.409 75.0588 20.673C75.1427 20.9369 75.3085 21.1673 75.5321 21.3307C75.7557 21.4941 76.0256 21.5821 76.3026 21.5818C76.5796 21.5816 76.8493 21.4932 77.0727 21.3295L81.7087 17.9331L86.3437 21.3312C86.5668 21.4947 86.8362 21.583 87.1128 21.5833C87.3894 21.5837 87.6589 21.4961 87.8825 21.3332C88.106 21.1703 88.272 20.9406 88.3564 20.6772C88.4407 20.4139 88.4392 20.1305 88.3519 19.868L86.4719 14.2271L90.9601 10.5076C91.1625 10.334 91.307 10.1028 91.3743 9.84476C91.4416 9.58675 91.4285 9.31435 91.3366 9.06403ZM84.8678 13.2471C84.7296 13.3616 84.6292 13.5151 84.5798 13.6876C84.5304 13.8601 84.5343 14.0435 84.591 14.2137L85.9698 18.3497C85.9849 18.3945 85.9853 18.4429 85.9709 18.4879C85.9566 18.533 85.9282 18.5723 85.8901 18.6001C85.8519 18.628 85.8058 18.643 85.7585 18.6429C85.7113 18.6429 85.6652 18.6277 85.6271 18.5998L82.2338 16.1095C82.0812 15.9975 81.8967 15.9371 81.7073 15.9371C81.5179 15.9371 81.3335 15.9975 81.1808 16.1095L77.792 18.5953C77.7539 18.6231 77.708 18.6381 77.6609 18.6382C77.6138 18.6382 77.5678 18.6233 77.5297 18.5956C77.4916 18.5679 77.4633 18.5288 77.4488 18.484C77.4344 18.4391 77.4345 18.3909 77.4492 18.3461L78.8272 14.2102C78.884 14.04 78.888 13.8567 78.8388 13.6842C78.7895 13.5117 78.6893 13.3581 78.5513 13.2436L75.0992 10.3848C75.0638 10.3557 75.0383 10.3163 75.0261 10.2721C75.0139 10.2279 75.0157 10.181 75.0312 10.1379C75.0467 10.0947 75.0752 10.0574 75.1127 10.031C75.1502 10.0047 75.1949 9.99053 75.2408 9.99054H79.2242C79.4085 9.99049 79.5882 9.93327 79.7385 9.82679C79.8889 9.7203 80.0025 9.56978 80.0636 9.39601L81.4986 5.33037C81.5138 5.28681 81.5422 5.24905 81.5798 5.22234C81.6175 5.19563 81.6625 5.18128 81.7087 5.18128C81.7548 5.18128 81.7998 5.19563 81.8375 5.22234C81.8751 5.24905 81.9035 5.28681 81.9187 5.33037L83.3528 9.39601C83.414 9.56978 83.5275 9.7203 83.6779 9.82679C83.8283 9.93327 84.0079 9.99049 84.1922 9.99054H88.1757C88.2215 9.99053 88.2663 10.0047 88.3038 10.031C88.3413 10.0574 88.3697 10.0947 88.3852 10.1379C88.4007 10.181 88.4025 10.2279 88.3903 10.2721C88.3781 10.3163 88.3526 10.3557 88.3172 10.3848L84.8678 13.2471Z" fill="#F8F3E5"/>
<path d="M90.9356 9.44583C90.8489 9.21179 90.6928 9.00981 90.4882 8.86698C90.2836 8.72414 90.0401 8.64727 89.7906 8.64665H84.8389L83.0656 3.62498C82.978 3.39075 82.8206 3.18906 82.6146 3.0472C82.4087 2.90533 82.1642 2.83014 81.9141 2.83177C81.664 2.83341 81.4205 2.9118 81.2164 3.05635C81.0124 3.20089 80.8576 3.40463 80.7731 3.63999L79.0056 8.64665H74.0539C73.8033 8.64688 73.5588 8.72418 73.3536 8.86807C73.1484 9.01195 72.9925 9.21546 72.9069 9.451C72.8213 9.68653 72.8102 9.9427 72.8751 10.1848C72.94 10.4268 73.0778 10.6431 73.2697 10.8042L77.4622 14.2783L75.7031 19.5567C75.6205 19.8025 75.6183 20.0682 75.6969 20.3153C75.7754 20.5624 75.9306 20.7781 76.14 20.9311C76.3494 21.0841 76.602 21.1665 76.8613 21.1663C77.1206 21.1661 77.3731 21.0833 77.5822 20.93L81.9222 17.75L86.2614 20.9317C86.4703 21.0847 86.7224 21.1674 86.9814 21.1677C87.2403 21.168 87.4927 21.086 87.7019 20.9335C87.9112 20.781 88.0666 20.5659 88.1456 20.3193C88.2246 20.0727 88.2231 19.8074 88.1414 19.5617L86.3814 14.28L90.5831 10.7975C90.7726 10.635 90.9079 10.4184 90.9709 10.1768C91.0339 9.93525 91.0216 9.68021 90.9356 9.44583ZM84.8797 13.3625C84.7504 13.4696 84.6564 13.6134 84.6101 13.7749C84.5639 13.9364 84.5675 14.1081 84.6206 14.2675L85.9114 18.14C85.9255 18.182 85.9258 18.2273 85.9124 18.2695C85.899 18.3116 85.8725 18.3484 85.8367 18.3745C85.801 18.4006 85.7578 18.4146 85.7136 18.4146C85.6693 18.4145 85.6263 18.4004 85.5906 18.3742L82.4139 16.0425C82.271 15.9376 82.0983 15.8811 81.921 15.8811C81.7437 15.8811 81.571 15.9376 81.4281 16.0425L78.2556 18.37C78.22 18.396 78.177 18.4101 78.1329 18.4101C78.0888 18.4102 78.0458 18.3962 78.0101 18.3703C77.9744 18.3443 77.9479 18.3077 77.9344 18.2658C77.9208 18.2238 77.921 18.1786 77.9347 18.1367L79.2247 14.2642C79.2779 14.1048 79.2817 13.9332 79.2356 13.7717C79.1895 13.6102 79.0957 13.4664 78.9664 13.3592L75.7347 10.6825C75.7016 10.6552 75.6777 10.6184 75.6663 10.577C75.6549 10.5356 75.6566 10.4917 75.6711 10.4513C75.6856 10.4109 75.7122 10.3759 75.7473 10.3512C75.7824 10.3266 75.8243 10.3133 75.8672 10.3133H79.5964C79.7689 10.3133 79.9371 10.2597 80.0779 10.16C80.2186 10.0603 80.325 9.91937 80.3822 9.75666L81.7256 5.94998C81.7398 5.90919 81.7664 5.87385 81.8017 5.84884C81.8369 5.82382 81.879 5.8104 81.9222 5.8104C81.9655 5.8104 82.0076 5.82382 82.0428 5.84884C82.0781 5.87385 82.1047 5.90919 82.1189 5.94998L83.4614 9.75666C83.5187 9.91937 83.625 10.0603 83.7658 10.16C83.9065 10.2597 84.0748 10.3133 84.2472 10.3133H87.9764C88.0193 10.3133 88.0612 10.3266 88.0963 10.3512C88.1314 10.3759 88.1581 10.4109 88.1726 10.4513C88.1871 10.4917 88.1887 10.5356 88.1774 10.577C88.166 10.6184 88.1421 10.6552 88.1089 10.6825L84.8797 13.3625Z" fill="#F8F3E5"/>
</g>
<mask id="mask4_13438_217866" style="mask-type:luminance" maskUnits="userSpaceOnUse" x="96" y="2" width="20" height="20">
<path d="M116 2H96V22H116V2Z" fill="white"/>
</mask>
<g mask="url(#mask4_13438_217866)">
<path d="M115.337 9.06403C115.244 8.81407 115.077 8.59836 114.859 8.44581C114.64 8.29326 114.38 8.21115 114.114 8.21049H108.824L106.93 2.8472C106.836 2.59703 106.668 2.38162 106.448 2.23011C106.228 2.07859 105.967 1.99828 105.7 2.00003C105.433 2.00178 105.173 2.0855 104.955 2.23988C104.737 2.39426 104.571 2.61185 104.481 2.86322L102.593 8.21049H97.3038C97.0361 8.21074 96.7749 8.2933 96.5557 8.44697C96.3366 8.60065 96.1699 8.818 96.0785 9.06956C95.9871 9.32112 95.9752 9.59471 96.0445 9.85324C96.1139 10.1118 96.2611 10.3427 96.4661 10.5148L100.945 14.2253L99.0654 19.8627C98.9772 20.1252 98.9749 20.409 99.0588 20.673C99.1427 20.9369 99.3085 21.1673 99.5321 21.3307C99.7557 21.4941 100.026 21.5821 100.303 21.5818C100.58 21.5816 100.849 21.4932 101.073 21.3295L105.709 17.9331L110.344 21.3312C110.567 21.4947 110.836 21.583 111.113 21.5833C111.389 21.5837 111.659 21.4961 111.882 21.3332C112.106 21.1703 112.272 20.9406 112.356 20.6772C112.441 20.4139 112.439 20.1305 112.352 19.868L110.472 14.2271L114.96 10.5076C115.162 10.334 115.307 10.1028 115.374 9.84476C115.442 9.58675 115.428 9.31435 115.337 9.06403ZM108.868 13.2471C108.73 13.3616 108.629 13.5151 108.58 13.6876C108.53 13.8601 108.534 14.0435 108.591 14.2137L109.97 18.3497C109.985 18.3945 109.985 18.4429 109.971 18.4879C109.957 18.533 109.928 18.5723 109.89 18.6001C109.852 18.628 109.806 18.643 109.759 18.6429C109.711 18.6429 109.665 18.6277 109.627 18.5998L106.234 16.1095C106.081 15.9975 105.897 15.9371 105.707 15.9371C105.518 15.9371 105.333 15.9975 105.181 16.1095L101.792 18.5953C101.754 18.6231 101.708 18.6381 101.661 18.6382C101.614 18.6382 101.568 18.6233 101.53 18.5956C101.492 18.5679 101.463 18.5288 101.449 18.484C101.434 18.4391 101.435 18.3909 101.449 18.3461L102.827 14.2102C102.884 14.04 102.888 13.8567 102.839 13.6842C102.79 13.5117 102.689 13.3581 102.551 13.2436L99.0992 10.3848C99.0638 10.3557 99.0383 10.3163 99.0261 10.2721C99.0139 10.2279 99.0157 10.181 99.0312 10.1379C99.0467 10.0947 99.0752 10.0574 99.1127 10.031C99.1502 10.0047 99.1949 9.99053 99.2408 9.99054H103.224C103.408 9.99049 103.588 9.93327 103.739 9.82679C103.889 9.7203 104.002 9.56978 104.064 9.39601L105.499 5.33037C105.514 5.28681 105.542 5.24905 105.58 5.22234C105.617 5.19563 105.662 5.18128 105.709 5.18128C105.755 5.18128 105.8 5.19563 105.837 5.22234C105.875 5.24905 105.904 5.28681 105.919 5.33037L107.353 9.39601C107.414 9.56978 107.528 9.7203 107.678 9.82679C107.828 9.93327 108.008 9.99049 108.192 9.99054H112.176C112.222 9.99053 112.266 10.0047 112.304 10.031C112.341 10.0574 112.37 10.0947 112.385 10.1379C112.401 10.181 112.402 10.2279 112.39 10.2721C112.378 10.3163 112.353 10.3557 112.317 10.3848L108.868 13.2471Z" fill="#F8F3E5"/>
<path d="M114.936 9.44583C114.849 9.21179 114.693 9.00981 114.488 8.86698C114.284 8.72414 114.04 8.64727 113.791 8.64665H108.839L107.066 3.62498C106.978 3.39075 106.821 3.18906 106.615 3.0472C106.409 2.90533 106.164 2.83014 105.914 2.83177C105.664 2.83341 105.42 2.9118 105.216 3.05635C105.012 3.20089 104.858 3.40463 104.773 3.63999L103.006 8.64665H98.0539C97.8033 8.64688 97.5588 8.72418 97.3536 8.86807C97.1484 9.01195 96.9925 9.21546 96.9069 9.451C96.8213 9.68653 96.8102 9.9427 96.8751 10.1848C96.94 10.4268 97.0778 10.6431 97.2697 10.8042L101.462 14.2783L99.7031 19.5567C99.6205 19.8025 99.6183 20.0682 99.6969 20.3153C99.7754 20.5624 99.9306 20.7781 100.14 20.9311C100.349 21.0841 100.602 21.1665 100.861 21.1663C101.121 21.1661 101.373 21.0833 101.582 20.93L105.922 17.75L110.261 20.9317C110.47 21.0847 110.722 21.1674 110.981 21.1677C111.24 21.168 111.493 21.086 111.702 20.9335C111.911 20.781 112.067 20.5659 112.146 20.3193C112.225 20.0727 112.223 19.8074 112.141 19.5617L110.381 14.28L114.583 10.7975C114.773 10.635 114.908 10.4184 114.971 10.1768C115.034 9.93525 115.022 9.68021 114.936 9.44583ZM108.88 13.3625C108.75 13.4696 108.656 13.6134 108.61 13.7749C108.564 13.9364 108.568 14.1081 108.621 14.2675L109.911 18.14C109.925 18.182 109.926 18.2273 109.912 18.2695C109.899 18.3116 109.872 18.3484 109.837 18.3745C109.801 18.4006 109.758 18.4146 109.714 18.4146C109.669 18.4145 109.626 18.4004 109.591 18.3742L106.414 16.0425C106.271 15.9376 106.098 15.8811 105.921 15.8811C105.744 15.8811 105.571 15.9376 105.428 16.0425L102.256 18.37C102.22 18.396 102.177 18.4101 102.133 18.4101C102.089 18.4102 102.046 18.3962 102.01 18.3703C101.974 18.3443 101.948 18.3077 101.934 18.2658C101.921 18.2238 101.921 18.1786 101.935 18.1367L103.225 14.2642C103.278 14.1048 103.282 13.9332 103.236 13.7717C103.189 13.6102 103.096 13.4664 102.966 13.3592L99.7347 10.6825C99.7016 10.6552 99.6777 10.6184 99.6663 10.577C99.6549 10.5356 99.6566 10.4917 99.6711 10.4513C99.6856 10.4109 99.7122 10.3759 99.7473 10.3512C99.7824 10.3266 99.8243 10.3133 99.8672 10.3133H103.596C103.769 10.3133 103.937 10.2597 104.078 10.16C104.219 10.0603 104.325 9.91937 104.382 9.75666L105.726 5.94998C105.74 5.90919 105.766 5.87385 105.802 5.84884C105.837 5.82382 105.879 5.8104 105.922 5.8104C105.965 5.8104 106.008 5.82382 106.043 5.84884C106.078 5.87385 106.105 5.90919 106.119 5.94998L107.461 9.75666C107.519 9.91937 107.625 10.0603 107.766 10.16C107.907 10.2597 108.075 10.3133 108.247 10.3133H111.976C112.019 10.3133 112.061 10.3266 112.096 10.3512C112.131 10.3759 112.158 10.4109 112.173 10.4513C112.187 10.4917 112.189 10.5356 112.177 10.577C112.166 10.6184 112.142 10.6552 112.109 10.6825L108.88 13.3625Z" fill="#F8F3E5"/>
</g>
</svg>
