<svg width="116" height="24" viewBox="0 0 116 24" fill="none" xmlns="http://www.w3.org/2000/svg">
<mask id="mask0_13440_218167" style="mask-type:luminance" maskUnits="userSpaceOnUse" x="0" y="2" width="20" height="20">
<path d="M20 2H0V22H20V2Z" fill="white"/>
</mask>
<g mask="url(#mask0_13440_218167)">
<path d="M19.6292 9.27418C19.5402 9.03502 19.3803 8.8287 19.171 8.68278C18.9616 8.53685 18.7127 8.45827 18.4575 8.45751H13.385C13.2987 8.45757 13.2145 8.43083 13.1441 8.38097C13.0736 8.33111 13.0204 8.2606 12.9917 8.17918L11.1709 3.01834C11.0817 2.77981 10.9218 2.57421 10.7125 2.42906C10.5033 2.2839 10.2547 2.20612 10 2.20612C9.74538 2.20612 9.4968 2.2839 9.28756 2.42906C9.07831 2.57421 8.9184 2.77981 8.82921 3.01834L8.82504 3.03168L7.00838 8.17918C6.97977 8.26046 6.92666 8.33088 6.85637 8.38073C6.78607 8.43057 6.70205 8.4574 6.61588 8.45751H1.54171C1.28489 8.45732 1.03425 8.53623 0.823864 8.68353C0.613482 8.83082 0.453573 9.03934 0.365888 9.28072C0.278202 9.52211 0.266995 9.78464 0.333792 10.0326C0.400588 10.2806 0.542146 10.502 0.739212 10.6667L5.05921 14.25C5.12383 14.3036 5.17074 14.3755 5.19379 14.4563C5.21684 14.537 5.21495 14.6228 5.18838 14.7025L3.37338 20.145C3.2895 20.3966 3.28784 20.6684 3.36865 20.9211C3.44945 21.1737 3.60853 21.3941 3.82287 21.5504C4.03722 21.7066 4.29571 21.7906 4.56096 21.7903C4.82621 21.7899 5.08447 21.7052 5.29838 21.5483L9.75338 18.2817C9.82482 18.2293 9.91107 18.2011 9.99963 18.2011C10.0882 18.2011 10.1744 18.2293 10.2459 18.2817L14.6992 21.5475C14.913 21.7049 15.1714 21.7901 15.4369 21.7908C15.7024 21.7915 15.9612 21.7077 16.1759 21.5514C16.3905 21.3952 16.5498 21.1746 16.6307 20.9218C16.7116 20.6689 16.7099 20.3968 16.6259 20.145L14.8109 14.6992C14.7843 14.6195 14.7824 14.5337 14.8055 14.4529C14.8285 14.3722 14.8754 14.3003 14.94 14.2467L19.2684 10.6583C19.4629 10.4923 19.6018 10.2705 19.6664 10.023C19.7309 9.77545 19.7179 9.5141 19.6292 9.27418Z" fill="#6892FE"/>
</g>
<mask id="mask1_13440_218167" style="mask-type:luminance" maskUnits="userSpaceOnUse" x="24" y="2" width="20" height="20">
<path d="M44 2H24V22H44V2Z" fill="white"/>
</mask>
<g mask="url(#mask1_13440_218167)">
<path d="M43.6292 9.27418C43.5402 9.03502 43.3803 8.8287 43.171 8.68278C42.9616 8.53685 42.7127 8.45827 42.4575 8.45751H37.385C37.2987 8.45757 37.2145 8.43083 37.1441 8.38097C37.0736 8.33111 37.0204 8.2606 36.9917 8.17918L35.1709 3.01834C35.0817 2.77981 34.9218 2.57421 34.7125 2.42906C34.5033 2.2839 34.2547 2.20612 34 2.20612C33.7454 2.20612 33.4968 2.2839 33.2876 2.42906C33.0783 2.57421 32.9184 2.77981 32.8292 3.01834L32.825 3.03168L31.0084 8.17918C30.9798 8.26046 30.9267 8.33088 30.8564 8.38073C30.7861 8.43057 30.7021 8.4574 30.6159 8.45751H25.5417C25.2849 8.45732 25.0342 8.53623 24.8239 8.68353C24.6135 8.83082 24.4536 9.03934 24.3659 9.28072C24.2782 9.52211 24.267 9.78464 24.3338 10.0326C24.4006 10.2806 24.5421 10.502 24.7392 10.6667L29.0592 14.25C29.1238 14.3036 29.1707 14.3755 29.1938 14.4563C29.2168 14.537 29.215 14.6228 29.1884 14.7025L27.3734 20.145C27.2895 20.3966 27.2878 20.6684 27.3686 20.9211C27.4495 21.1737 27.6085 21.3941 27.8229 21.5504C28.0372 21.7066 28.2957 21.7906 28.561 21.7903C28.8262 21.7899 29.0845 21.7052 29.2984 21.5483L33.7534 18.2817C33.8248 18.2293 33.9111 18.2011 33.9996 18.2011C34.0882 18.2011 34.1744 18.2293 34.2459 18.2817L38.6992 21.5475C38.913 21.7049 39.1714 21.7901 39.4369 21.7908C39.7024 21.7915 39.9612 21.7077 40.1759 21.5514C40.3905 21.3952 40.5498 21.1746 40.6307 20.9218C40.7116 20.6689 40.7099 20.3968 40.6259 20.145L38.8109 14.6992C38.7843 14.6195 38.7824 14.5337 38.8055 14.4529C38.8285 14.3722 38.8754 14.3003 38.94 14.2467L43.2684 10.6583C43.4629 10.4923 43.6018 10.2705 43.6664 10.023C43.7309 9.77545 43.7179 9.5141 43.6292 9.27418Z" fill="#6892FE"/>
</g>
<mask id="mask2_13440_218167" style="mask-type:luminance" maskUnits="userSpaceOnUse" x="48" y="2" width="20" height="20">
<path d="M68 2H48V22H68V2Z" fill="white"/>
</mask>
<g mask="url(#mask2_13440_218167)">
<path d="M67.6292 9.27418C67.5402 9.03502 67.3803 8.8287 67.171 8.68278C66.9616 8.53685 66.7127 8.45827 66.4575 8.45751H61.385C61.2987 8.45757 61.2145 8.43083 61.1441 8.38097C61.0736 8.33111 61.0204 8.2606 60.9917 8.17918L59.1709 3.01834C59.0817 2.77981 58.9218 2.57421 58.7125 2.42906C58.5033 2.2839 58.2547 2.20612 58 2.20612C57.7454 2.20612 57.4968 2.2839 57.2876 2.42906C57.0783 2.57421 56.9184 2.77981 56.8292 3.01834L56.825 3.03168L55.0084 8.17918C54.9798 8.26046 54.9267 8.33088 54.8564 8.38073C54.7861 8.43057 54.7021 8.4574 54.6159 8.45751H49.5417C49.2849 8.45732 49.0342 8.53623 48.8239 8.68353C48.6135 8.83082 48.4536 9.03934 48.3659 9.28072C48.2782 9.52211 48.267 9.78464 48.3338 10.0326C48.4006 10.2806 48.5421 10.502 48.7392 10.6667L53.0592 14.25C53.1238 14.3036 53.1707 14.3755 53.1938 14.4563C53.2168 14.537 53.215 14.6228 53.1884 14.7025L51.3734 20.145C51.2895 20.3966 51.2878 20.6684 51.3686 20.9211C51.4495 21.1737 51.6085 21.3941 51.8229 21.5504C52.0372 21.7066 52.2957 21.7906 52.561 21.7903C52.8262 21.7899 53.0845 21.7052 53.2984 21.5483L57.7534 18.2817C57.8248 18.2293 57.9111 18.2011 57.9996 18.2011C58.0882 18.2011 58.1744 18.2293 58.2459 18.2817L62.6992 21.5475C62.913 21.7049 63.1714 21.7901 63.4369 21.7908C63.7024 21.7915 63.9612 21.7077 64.1759 21.5514C64.3905 21.3952 64.5498 21.1746 64.6307 20.9218C64.7116 20.6689 64.7099 20.3968 64.6259 20.145L62.8109 14.6992C62.7843 14.6195 62.7824 14.5337 62.8055 14.4529C62.8285 14.3722 62.8754 14.3003 62.94 14.2467L67.2684 10.6583C67.4629 10.4923 67.6018 10.2705 67.6664 10.023C67.7309 9.77545 67.7179 9.5141 67.6292 9.27418Z" fill="#6892FE"/>
</g>
<mask id="mask3_13440_218167" style="mask-type:luminance" maskUnits="userSpaceOnUse" x="72" y="2" width="20" height="20">
<path d="M92 2H72V22H92V2Z" fill="white"/>
</mask>
<g mask="url(#mask3_13440_218167)">
<path d="M91.3366 9.06403C91.2441 8.81407 91.0773 8.59836 90.8587 8.44581C90.6401 8.29326 90.3801 8.21115 90.1135 8.21049H84.8242L82.93 2.8472C82.8364 2.59703 82.6683 2.38162 82.4483 2.23011C82.2283 2.07859 81.9671 1.99828 81.6999 2.00003C81.4328 2.00178 81.1727 2.0855 80.9547 2.23988C80.7367 2.39426 80.5714 2.61185 80.4811 2.86322L78.5931 8.21049H73.3038C73.0361 8.21074 72.7749 8.2933 72.5557 8.44697C72.3366 8.60065 72.1699 8.818 72.0785 9.06956C71.9871 9.32112 71.9752 9.59471 72.0445 9.85324C72.1139 10.1118 72.2611 10.3427 72.4661 10.5148L76.9445 14.2253L75.0654 19.8627C74.9772 20.1252 74.9749 20.409 75.0588 20.673C75.1427 20.9369 75.3085 21.1673 75.5321 21.3307C75.7557 21.4941 76.0256 21.5821 76.3026 21.5818C76.5796 21.5816 76.8493 21.4932 77.0727 21.3295L81.7087 17.9331L86.3437 21.3312C86.5668 21.4947 86.8362 21.583 87.1128 21.5833C87.3894 21.5837 87.6589 21.4961 87.8825 21.3332C88.106 21.1703 88.272 20.9406 88.3564 20.6772C88.4407 20.4139 88.4392 20.1305 88.3519 19.868L86.4719 14.2271L90.9601 10.5076C91.1625 10.334 91.307 10.1028 91.3743 9.84476C91.4416 9.58675 91.4285 9.31435 91.3366 9.06403ZM84.8678 13.2471C84.7296 13.3616 84.6292 13.5151 84.5798 13.6876C84.5304 13.8601 84.5343 14.0435 84.591 14.2137L85.9698 18.3497C85.9849 18.3945 85.9853 18.4429 85.9709 18.4879C85.9566 18.533 85.9282 18.5723 85.8901 18.6001C85.8519 18.628 85.8058 18.643 85.7585 18.6429C85.7113 18.6429 85.6652 18.6277 85.6271 18.5998L82.2338 16.1095C82.0811 15.9975 81.8967 15.9371 81.7073 15.9371C81.5179 15.9371 81.3335 15.9975 81.1808 16.1095L77.792 18.5953C77.7539 18.6231 77.708 18.6381 77.6609 18.6382C77.6138 18.6382 77.5678 18.6233 77.5297 18.5956C77.4916 18.5679 77.4633 18.5288 77.4488 18.484C77.4344 18.4391 77.4345 18.3909 77.4492 18.3461L78.8272 14.2102C78.884 14.04 78.888 13.8567 78.8388 13.6842C78.7895 13.5117 78.6893 13.3581 78.5513 13.2436L75.0992 10.3848C75.0638 10.3557 75.0383 10.3163 75.0261 10.2721C75.0139 10.2279 75.0157 10.181 75.0312 10.1379C75.0467 10.0947 75.0752 10.0574 75.1127 10.031C75.1502 10.0047 75.1949 9.99053 75.2408 9.99054H79.2242C79.4085 9.99049 79.5882 9.93327 79.7385 9.82678C79.8889 9.7203 80.0025 9.56978 80.0636 9.39601L81.4986 5.33037C81.5138 5.28681 81.5422 5.24905 81.5798 5.22234C81.6175 5.19563 81.6625 5.18128 81.7087 5.18128C81.7548 5.18128 81.7998 5.19563 81.8375 5.22234C81.8751 5.24905 81.9035 5.28681 81.9187 5.33037L83.3528 9.39601C83.414 9.56978 83.5275 9.7203 83.6779 9.82678C83.8283 9.93327 84.0079 9.99049 84.1922 9.99054H88.1757C88.2215 9.99053 88.2663 10.0047 88.3038 10.031C88.3413 10.0574 88.3697 10.0947 88.3852 10.1379C88.4007 10.181 88.4025 10.2279 88.3903 10.2721C88.3781 10.3163 88.3526 10.3557 88.3172 10.3848L84.8678 13.2471Z" fill="#6892FE"/>
<path d="M90.9355 9.44583C90.8488 9.21179 90.6927 9.00982 90.4881 8.86699C90.2834 8.72415 90.04 8.64728 89.7905 8.64666H84.8388L83.0655 3.62499C82.9779 3.39076 82.8205 3.18907 82.6145 3.04721C82.4086 2.90534 82.164 2.83015 81.914 2.83178C81.6639 2.83342 81.4204 2.91181 81.2163 3.05636C81.0122 3.2009 80.8575 3.40463 80.773 3.63999L79.0055 8.64666H74.0538C73.8032 8.64689 73.5587 8.72419 73.3535 8.86808C73.1483 9.01196 72.9923 9.21547 72.9067 9.45101C72.8211 9.68654 72.81 9.94271 72.8749 10.1848C72.9399 10.4268 73.0777 10.6431 73.2696 10.8042L77.4621 14.2783L75.703 19.5567C75.6204 19.8025 75.6182 20.0682 75.6968 20.3153C75.7753 20.5624 75.9305 20.7781 76.1399 20.9311C76.3492 21.0841 76.6019 21.1665 76.8612 21.1663C77.1205 21.1661 77.373 21.0833 77.5821 20.93L81.9221 17.75L86.2613 20.9317C86.4702 21.0847 86.7223 21.1674 86.9813 21.1677C87.2402 21.168 87.4925 21.086 87.7018 20.9335C87.9111 20.781 88.0665 20.5659 88.1455 20.3193C88.2245 20.0727 88.223 19.8074 88.1413 19.5617L86.3813 14.28L90.583 10.7975C90.7724 10.635 90.9078 10.4184 90.9707 10.1768C91.0337 9.93526 91.0214 9.68021 90.9355 9.44583ZM84.8796 13.3625C84.7502 13.4696 84.6563 13.6134 84.61 13.7749C84.5638 13.9364 84.5674 14.1081 84.6205 14.2675L85.9113 18.14C85.9254 18.182 85.9257 18.2273 85.9123 18.2695C85.8989 18.3116 85.8723 18.3484 85.8366 18.3745C85.8008 18.4006 85.7577 18.4146 85.7135 18.4146C85.6692 18.4145 85.6261 18.4004 85.5905 18.3742L82.4138 16.0425C82.2708 15.9376 82.0982 15.8811 81.9209 15.8811C81.7436 15.8811 81.5709 15.9376 81.428 16.0425L78.2555 18.37C78.2198 18.396 78.1769 18.4101 78.1328 18.4101C78.0886 18.4102 78.0457 18.3962 78.01 18.3703C77.9743 18.3443 77.9478 18.3077 77.9342 18.2658C77.9207 18.2238 77.9208 18.1786 77.9346 18.1367L79.2246 14.2642C79.2778 14.1048 79.2815 13.9332 79.2354 13.7717C79.1893 13.6102 79.0955 13.4664 78.9663 13.3592L75.7346 10.6825C75.7015 10.6552 75.6776 10.6184 75.6662 10.577C75.6548 10.5356 75.6565 10.4917 75.671 10.4513C75.6855 10.4109 75.7121 10.3759 75.7472 10.3512C75.7823 10.3266 75.8242 10.3133 75.8671 10.3133H79.5963C79.7688 10.3133 79.937 10.2597 80.0778 10.16C80.2185 10.0603 80.3249 9.91937 80.3821 9.75666L81.7255 5.94999C81.7397 5.9092 81.7663 5.87386 81.8015 5.84884C81.8368 5.82383 81.8789 5.8104 81.9221 5.8104C81.9653 5.8104 82.0075 5.82383 82.0427 5.84884C82.0779 5.87386 82.1045 5.9092 82.1188 5.94999L83.4613 9.75666C83.5186 9.91937 83.6249 10.0603 83.7657 10.16C83.9064 10.2597 84.0746 10.3133 84.2471 10.3133H87.9763C88.0192 10.3133 88.0611 10.3266 88.0962 10.3512C88.1313 10.3759 88.158 10.4109 88.1725 10.4513C88.187 10.4917 88.1886 10.5356 88.1772 10.577C88.1658 10.6184 88.1419 10.6552 88.1088 10.6825L84.8796 13.3625Z" fill="#6892FE"/>
</g>
<mask id="mask4_13440_218167" style="mask-type:luminance" maskUnits="userSpaceOnUse" x="96" y="2" width="20" height="20">
<path d="M116 2H96V22H116V2Z" fill="white"/>
</mask>
<g mask="url(#mask4_13440_218167)">
<path d="M115.337 9.06403C115.244 8.81407 115.077 8.59836 114.859 8.44581C114.64 8.29326 114.38 8.21115 114.114 8.21049H108.824L106.93 2.8472C106.836 2.59703 106.668 2.38162 106.448 2.23011C106.228 2.07859 105.967 1.99828 105.7 2.00003C105.433 2.00178 105.173 2.0855 104.955 2.23988C104.737 2.39426 104.571 2.61185 104.481 2.86322L102.593 8.21049H97.3038C97.0361 8.21074 96.7749 8.2933 96.5557 8.44697C96.3366 8.60065 96.1699 8.818 96.0785 9.06956C95.9871 9.32112 95.9752 9.59471 96.0445 9.85324C96.1139 10.1118 96.2611 10.3427 96.4661 10.5148L100.945 14.2253L99.0654 19.8627C98.9772 20.1252 98.9749 20.409 99.0588 20.673C99.1427 20.9369 99.3085 21.1673 99.5321 21.3307C99.7557 21.4941 100.026 21.5821 100.303 21.5818C100.58 21.5816 100.849 21.4932 101.073 21.3295L105.709 17.9331L110.344 21.3312C110.567 21.4947 110.836 21.583 111.113 21.5833C111.389 21.5837 111.659 21.4961 111.882 21.3332C112.106 21.1703 112.272 20.9406 112.356 20.6772C112.441 20.4139 112.439 20.1305 112.352 19.868L110.472 14.2271L114.96 10.5076C115.162 10.334 115.307 10.1028 115.374 9.84476C115.442 9.58675 115.428 9.31435 115.337 9.06403ZM108.868 13.2471C108.73 13.3616 108.629 13.5151 108.58 13.6876C108.53 13.8601 108.534 14.0435 108.591 14.2137L109.97 18.3497C109.985 18.3945 109.985 18.4429 109.971 18.4879C109.957 18.533 109.928 18.5723 109.89 18.6001C109.852 18.628 109.806 18.643 109.759 18.6429C109.711 18.6429 109.665 18.6277 109.627 18.5998L106.234 16.1095C106.081 15.9975 105.897 15.9371 105.707 15.9371C105.518 15.9371 105.333 15.9975 105.181 16.1095L101.792 18.5953C101.754 18.6231 101.708 18.6381 101.661 18.6382C101.614 18.6382 101.568 18.6233 101.53 18.5956C101.492 18.5679 101.463 18.5288 101.449 18.484C101.434 18.4391 101.435 18.3909 101.449 18.3461L102.827 14.2102C102.884 14.04 102.888 13.8567 102.839 13.6842C102.79 13.5117 102.689 13.3581 102.551 13.2436L99.0992 10.3848C99.0638 10.3557 99.0383 10.3163 99.0261 10.2721C99.0139 10.2279 99.0157 10.181 99.0312 10.1379C99.0467 10.0947 99.0752 10.0574 99.1127 10.031C99.1502 10.0047 99.1949 9.99053 99.2408 9.99054H103.224C103.408 9.99049 103.588 9.93327 103.739 9.82678C103.889 9.7203 104.002 9.56978 104.064 9.39601L105.499 5.33037C105.514 5.28681 105.542 5.24905 105.58 5.22234C105.617 5.19563 105.662 5.18128 105.709 5.18128C105.755 5.18128 105.8 5.19563 105.837 5.22234C105.875 5.24905 105.904 5.28681 105.919 5.33037L107.353 9.39601C107.414 9.56978 107.528 9.7203 107.678 9.82678C107.828 9.93327 108.008 9.99049 108.192 9.99054H112.176C112.222 9.99053 112.266 10.0047 112.304 10.031C112.341 10.0574 112.37 10.0947 112.385 10.1379C112.401 10.181 112.402 10.2279 112.39 10.2721C112.378 10.3163 112.353 10.3557 112.317 10.3848L108.868 13.2471Z" fill="#6892FE"/>
<path d="M114.935 9.44583C114.849 9.21179 114.693 9.00982 114.488 8.86699C114.283 8.72415 114.04 8.64728 113.79 8.64666H108.839L107.065 3.62499C106.978 3.39076 106.82 3.18907 106.615 3.04721C106.409 2.90534 106.164 2.83015 105.914 2.83178C105.664 2.83342 105.42 2.91181 105.216 3.05636C105.012 3.2009 104.857 3.40463 104.773 3.63999L103.005 8.64666H98.0538C97.8032 8.64689 97.5587 8.72419 97.3535 8.86808C97.1483 9.01196 96.9923 9.21547 96.9067 9.45101C96.8211 9.68654 96.81 9.94271 96.8749 10.1848C96.9399 10.4268 97.0777 10.6431 97.2696 10.8042L101.462 14.2783L99.703 19.5567C99.6204 19.8025 99.6182 20.0682 99.6968 20.3153C99.7753 20.5624 99.9305 20.7781 100.14 20.9311C100.349 21.0841 100.602 21.1665 100.861 21.1663C101.12 21.1661 101.373 21.0833 101.582 20.93L105.922 17.75L110.261 20.9317C110.47 21.0847 110.722 21.1674 110.981 21.1677C111.24 21.168 111.493 21.086 111.702 20.9335C111.911 20.781 112.066 20.5659 112.145 20.3193C112.224 20.0727 112.223 19.8074 112.141 19.5617L110.381 14.28L114.583 10.7975C114.772 10.635 114.908 10.4184 114.971 10.1768C115.034 9.93526 115.021 9.68021 114.935 9.44583ZM108.88 13.3625C108.75 13.4696 108.656 13.6134 108.61 13.7749C108.564 13.9364 108.567 14.1081 108.62 14.2675L109.911 18.14C109.925 18.182 109.926 18.2273 109.912 18.2695C109.899 18.3116 109.872 18.3484 109.837 18.3745C109.801 18.4006 109.758 18.4146 109.713 18.4146C109.669 18.4145 109.626 18.4004 109.59 18.3742L106.414 16.0425C106.271 15.9376 106.098 15.8811 105.921 15.8811C105.744 15.8811 105.571 15.9376 105.428 16.0425L102.255 18.37C102.22 18.396 102.177 18.4101 102.133 18.4101C102.089 18.4102 102.046 18.3962 102.01 18.3703C101.974 18.3443 101.948 18.3077 101.934 18.2658C101.921 18.2238 101.921 18.1786 101.935 18.1367L103.225 14.2642C103.278 14.1048 103.282 13.9332 103.235 13.7717C103.189 13.6102 103.096 13.4664 102.966 13.3592L99.7346 10.6825C99.7015 10.6552 99.6776 10.6184 99.6662 10.577C99.6548 10.5356 99.6565 10.4917 99.671 10.4513C99.6855 10.4109 99.7121 10.3759 99.7472 10.3512C99.7823 10.3266 99.8242 10.3133 99.8671 10.3133H103.596C103.769 10.3133 103.937 10.2597 104.078 10.16C104.219 10.0603 104.325 9.91937 104.382 9.75666L105.725 5.94999C105.74 5.9092 105.766 5.87386 105.802 5.84884C105.837 5.82383 105.879 5.8104 105.922 5.8104C105.965 5.8104 106.007 5.82383 106.043 5.84884C106.078 5.87386 106.105 5.9092 106.119 5.94999L107.461 9.75666C107.519 9.91937 107.625 10.0603 107.766 10.16C107.906 10.2597 108.075 10.3133 108.247 10.3133H111.976C112.019 10.3133 112.061 10.3266 112.096 10.3512C112.131 10.3759 112.158 10.4109 112.172 10.4513C112.187 10.4917 112.189 10.5356 112.177 10.577C112.166 10.6184 112.142 10.6552 112.109 10.6825L108.88 13.3625Z" fill="#6892FE"/>
</g>
</svg>
