<svg width="116" height="24" viewBox="0 0 116 24" fill="none" xmlns="http://www.w3.org/2000/svg">
<g clip-path="url(#clip0_58_1705)">
<path d="M19.6292 9.27417C19.5402 9.03501 19.3803 8.82869 19.171 8.68277C18.9616 8.53685 18.7127 8.45826 18.4575 8.4575H13.385C13.2987 8.45757 13.2145 8.43082 13.1441 8.38096C13.0736 8.3311 13.0204 8.26059 12.9917 8.17917L11.1709 3.01834C11.0817 2.77981 10.9218 2.57421 10.7125 2.42905C10.5033 2.2839 10.2547 2.20612 10 2.20612C9.74538 2.20612 9.4968 2.2839 9.28756 2.42905C9.07831 2.57421 8.9184 2.77981 8.82921 3.01834L8.82504 3.03167L7.00838 8.17917C6.97977 8.26046 6.92666 8.33087 6.85637 8.38072C6.78607 8.43057 6.70205 8.45739 6.61588 8.4575H1.54171C1.28489 8.45731 1.03425 8.53623 0.823864 8.68352C0.613482 8.83081 0.453573 9.03933 0.365888 9.28072C0.278202 9.5221 0.266995 9.78464 0.333792 10.0326C0.400588 10.2806 0.542146 10.502 0.739212 10.6667L5.05921 14.25C5.12383 14.3036 5.17074 14.3755 5.19379 14.4563C5.21684 14.537 5.21495 14.6228 5.18838 14.7025L3.37338 20.145C3.2895 20.3966 3.28784 20.6684 3.36865 20.9211C3.44945 21.1737 3.60853 21.3941 3.82287 21.5504C4.03722 21.7066 4.29571 21.7907 4.56096 21.7903C4.82621 21.7899 5.08447 21.7052 5.29838 21.5483L9.75338 18.2817C9.82482 18.2293 9.91107 18.2011 9.99963 18.2011C10.0882 18.2011 10.1744 18.2293 10.2459 18.2817L14.6992 21.5475C14.913 21.7049 15.1714 21.7901 15.4369 21.7908C15.7024 21.7915 15.9612 21.7077 16.1759 21.5514C16.3905 21.3952 16.5498 21.1746 16.6307 20.9218C16.7116 20.6689 16.7099 20.3968 16.6259 20.145L14.8109 14.6992C14.7843 14.6195 14.7824 14.5337 14.8055 14.4529C14.8285 14.3722 14.8754 14.3003 14.94 14.2467L19.2684 10.6583C19.4629 10.4923 19.6018 10.2705 19.6664 10.023C19.7309 9.77545 19.7179 9.51409 19.6292 9.27417Z" fill="#E22269"/>
</g>
<g clip-path="url(#clip1_58_1705)">
<path d="M43.6292 9.27417C43.5402 9.03501 43.3803 8.82869 43.171 8.68277C42.9616 8.53685 42.7127 8.45826 42.4575 8.4575H37.385C37.2987 8.45757 37.2145 8.43082 37.1441 8.38096C37.0736 8.3311 37.0204 8.26059 36.9917 8.17917L35.1709 3.01834C35.0817 2.77981 34.9218 2.57421 34.7125 2.42905C34.5033 2.2839 34.2547 2.20612 34 2.20612C33.7454 2.20612 33.4968 2.2839 33.2876 2.42905C33.0783 2.57421 32.9184 2.77981 32.8292 3.01834L32.825 3.03167L31.0084 8.17917C30.9798 8.26046 30.9267 8.33087 30.8564 8.38072C30.7861 8.43057 30.7021 8.45739 30.6159 8.4575H25.5417C25.2849 8.45731 25.0342 8.53623 24.8239 8.68352C24.6135 8.83081 24.4536 9.03933 24.3659 9.28072C24.2782 9.5221 24.267 9.78464 24.3338 10.0326C24.4006 10.2806 24.5421 10.502 24.7392 10.6667L29.0592 14.25C29.1238 14.3036 29.1707 14.3755 29.1938 14.4563C29.2168 14.537 29.215 14.6228 29.1884 14.7025L27.3734 20.145C27.2895 20.3966 27.2878 20.6684 27.3686 20.9211C27.4495 21.1737 27.6085 21.3941 27.8229 21.5504C28.0372 21.7066 28.2957 21.7907 28.561 21.7903C28.8262 21.7899 29.0845 21.7052 29.2984 21.5483L33.7534 18.2817C33.8248 18.2293 33.9111 18.2011 33.9996 18.2011C34.0882 18.2011 34.1744 18.2293 34.2459 18.2817L38.6992 21.5475C38.913 21.7049 39.1714 21.7901 39.4369 21.7908C39.7024 21.7915 39.9612 21.7077 40.1759 21.5514C40.3905 21.3952 40.5498 21.1746 40.6307 20.9218C40.7116 20.6689 40.7099 20.3968 40.6259 20.145L38.8109 14.6992C38.7843 14.6195 38.7824 14.5337 38.8055 14.4529C38.8285 14.3722 38.8754 14.3003 38.94 14.2467L43.2684 10.6583C43.4629 10.4923 43.6018 10.2705 43.6664 10.023C43.7309 9.77545 43.7179 9.51409 43.6292 9.27417Z" fill="#E22269"/>
</g>
<g clip-path="url(#clip2_58_1705)">
<path d="M67.6292 9.27417C67.5402 9.03501 67.3803 8.82869 67.171 8.68277C66.9616 8.53685 66.7127 8.45826 66.4575 8.4575H61.385C61.2987 8.45757 61.2145 8.43082 61.1441 8.38096C61.0736 8.3311 61.0204 8.26059 60.9917 8.17917L59.1709 3.01834C59.0817 2.77981 58.9218 2.57421 58.7125 2.42905C58.5033 2.2839 58.2547 2.20612 58 2.20612C57.7454 2.20612 57.4968 2.2839 57.2876 2.42905C57.0783 2.57421 56.9184 2.77981 56.8292 3.01834L56.825 3.03167L55.0084 8.17917C54.9798 8.26046 54.9267 8.33087 54.8564 8.38072C54.7861 8.43057 54.7021 8.45739 54.6159 8.4575H49.5417C49.2849 8.45731 49.0342 8.53623 48.8239 8.68352C48.6135 8.83081 48.4536 9.03933 48.3659 9.28072C48.2782 9.5221 48.267 9.78464 48.3338 10.0326C48.4006 10.2806 48.5421 10.502 48.7392 10.6667L53.0592 14.25C53.1238 14.3036 53.1707 14.3755 53.1938 14.4563C53.2168 14.537 53.215 14.6228 53.1884 14.7025L51.3734 20.145C51.2895 20.3966 51.2878 20.6684 51.3686 20.9211C51.4495 21.1737 51.6085 21.3941 51.8229 21.5504C52.0372 21.7066 52.2957 21.7907 52.561 21.7903C52.8262 21.7899 53.0845 21.7052 53.2984 21.5483L57.7534 18.2817C57.8248 18.2293 57.9111 18.2011 57.9996 18.2011C58.0882 18.2011 58.1744 18.2293 58.2459 18.2817L62.6992 21.5475C62.913 21.7049 63.1714 21.7901 63.4369 21.7908C63.7024 21.7915 63.9612 21.7077 64.1759 21.5514C64.3905 21.3952 64.5498 21.1746 64.6307 20.9218C64.7116 20.6689 64.7099 20.3968 64.6259 20.145L62.8109 14.6992C62.7843 14.6195 62.7824 14.5337 62.8055 14.4529C62.8285 14.3722 62.8754 14.3003 62.94 14.2467L67.2684 10.6583C67.4629 10.4923 67.6018 10.2705 67.6664 10.023C67.7309 9.77545 67.7179 9.51409 67.6292 9.27417Z" fill="#E22269"/>
</g>
<g clip-path="url(#clip3_58_1705)">
<path d="M91.6292 9.27417C91.5402 9.03501 91.3803 8.82869 91.171 8.68277C90.9616 8.53685 90.7127 8.45826 90.4575 8.4575H85.385C85.2987 8.45757 85.2145 8.43082 85.1441 8.38096C85.0736 8.3311 85.0204 8.26059 84.9917 8.17917L83.1709 3.01834C83.0817 2.77981 82.9218 2.57421 82.7125 2.42905C82.5033 2.2839 82.2547 2.20612 82 2.20612C81.7454 2.20612 81.4968 2.2839 81.2876 2.42905C81.0783 2.57421 80.9184 2.77981 80.8292 3.01834L80.825 3.03167L79.0084 8.17917C78.9798 8.26046 78.9267 8.33087 78.8564 8.38072C78.7861 8.43057 78.7021 8.45739 78.6159 8.4575H73.5417C73.2849 8.45731 73.0342 8.53623 72.8239 8.68352C72.6135 8.83081 72.4536 9.03933 72.3659 9.28072C72.2782 9.5221 72.267 9.78464 72.3338 10.0326C72.4006 10.2806 72.5421 10.502 72.7392 10.6667L77.0592 14.25C77.1238 14.3036 77.1707 14.3755 77.1938 14.4563C77.2168 14.537 77.215 14.6228 77.1884 14.7025L75.3734 20.145C75.2895 20.3966 75.2878 20.6684 75.3686 20.9211C75.4495 21.1737 75.6085 21.3941 75.8229 21.5504C76.0372 21.7066 76.2957 21.7907 76.561 21.7903C76.8262 21.7899 77.0845 21.7052 77.2984 21.5483L81.7534 18.2817C81.8248 18.2293 81.9111 18.2011 81.9996 18.2011C82.0882 18.2011 82.1744 18.2293 82.2459 18.2817L86.6992 21.5475C86.913 21.7049 87.1714 21.7901 87.4369 21.7908C87.7024 21.7915 87.9612 21.7077 88.1759 21.5514C88.3905 21.3952 88.5498 21.1746 88.6307 20.9218C88.7116 20.6689 88.7099 20.3968 88.6259 20.145L86.8109 14.6992C86.7843 14.6195 86.7824 14.5337 86.8055 14.4529C86.8285 14.3722 86.8754 14.3003 86.94 14.2467L91.2684 10.6583C91.4629 10.4923 91.6018 10.2705 91.6664 10.023C91.7309 9.77545 91.7179 9.51409 91.6292 9.27417Z" fill="#E22269"/>
</g>
<g clip-path="url(#clip4_58_1705)">
<path d="M115.337 9.06403C115.244 8.81407 115.077 8.59836 114.859 8.44581C114.64 8.29326 114.38 8.21115 114.114 8.21049H108.824L106.93 2.8472C106.836 2.59703 106.668 2.38162 106.448 2.23011C106.228 2.07859 105.967 1.99828 105.7 2.00003C105.433 2.00178 105.173 2.0855 104.955 2.23988C104.737 2.39426 104.571 2.61185 104.481 2.86322L102.593 8.21049H97.3038C97.0361 8.21074 96.7749 8.2933 96.5557 8.44697C96.3366 8.60065 96.1699 8.818 96.0785 9.06956C95.9871 9.32112 95.9752 9.59471 96.0445 9.85324C96.1139 10.1118 96.2611 10.3427 96.4661 10.5148L100.945 14.2253L99.0654 19.8627C98.9772 20.1252 98.9749 20.409 99.0588 20.673C99.1427 20.9369 99.3085 21.1673 99.5321 21.3307C99.7557 21.4941 100.026 21.5821 100.303 21.5818C100.58 21.5816 100.849 21.4932 101.073 21.3295L105.709 17.9331L110.344 21.3312C110.567 21.4947 110.836 21.583 111.113 21.5833C111.389 21.5837 111.659 21.4961 111.882 21.3332C112.106 21.1703 112.272 20.9406 112.356 20.6772C112.441 20.4139 112.439 20.1305 112.352 19.868L110.472 14.2271L114.96 10.5076C115.162 10.334 115.307 10.1028 115.374 9.84476C115.442 9.58675 115.428 9.31435 115.337 9.06403ZM108.868 13.2471C108.73 13.3616 108.629 13.5151 108.58 13.6876C108.53 13.8601 108.534 14.0435 108.591 14.2137L109.97 18.3497C109.985 18.3945 109.985 18.4429 109.971 18.4879C109.957 18.533 109.928 18.5723 109.89 18.6001C109.852 18.628 109.806 18.643 109.759 18.6429C109.711 18.6429 109.665 18.6277 109.627 18.5998L106.234 16.1095C106.081 15.9975 105.897 15.9371 105.707 15.9371C105.518 15.9371 105.333 15.9975 105.181 16.1095L101.792 18.5953C101.754 18.6231 101.708 18.6381 101.661 18.6382C101.614 18.6382 101.568 18.6233 101.53 18.5956C101.492 18.5679 101.463 18.5288 101.449 18.484C101.434 18.4391 101.435 18.3909 101.449 18.3461L102.827 14.2102C102.884 14.04 102.888 13.8567 102.839 13.6842C102.79 13.5117 102.689 13.3581 102.551 13.2436L99.0992 10.3848C99.0638 10.3557 99.0383 10.3163 99.0261 10.2721C99.0139 10.2279 99.0157 10.181 99.0312 10.1379C99.0467 10.0947 99.0752 10.0574 99.1127 10.031C99.1502 10.0047 99.1949 9.99053 99.2408 9.99054H103.224C103.408 9.99049 103.588 9.93327 103.739 9.82679C103.889 9.7203 104.002 9.56978 104.064 9.39601L105.499 5.33037C105.514 5.28681 105.542 5.24905 105.58 5.22234C105.617 5.19563 105.662 5.18128 105.709 5.18128C105.755 5.18128 105.8 5.19563 105.837 5.22234C105.875 5.24905 105.904 5.28681 105.919 5.33037L107.353 9.39601C107.414 9.56978 107.528 9.7203 107.678 9.82679C107.828 9.93327 108.008 9.99049 108.192 9.99054H112.176C112.222 9.99053 112.266 10.0047 112.304 10.031C112.341 10.0574 112.37 10.0947 112.385 10.1379C112.401 10.181 112.402 10.2279 112.39 10.2721C112.378 10.3163 112.353 10.3557 112.317 10.3848L108.868 13.2471Z" fill="#E22269"/>
<path fill-rule="evenodd" clip-rule="evenodd" d="M105.709 2C105.455 2 105.206 2.07778 104.997 2.22294C104.788 2.36809 104.628 2.57369 104.538 2.81222L104.534 2.82556L102.718 7.97306C102.689 8.05434 102.636 8.12476 102.566 8.17461C102.495 8.22445 102.411 8.25128 102.325 8.25139H97.2509C96.9941 8.2512 96.7435 8.33011 96.5331 8.4774C96.3227 8.6247 96.1628 8.83321 96.0751 9.0746C95.9874 9.31599 95.9762 9.57852 96.043 9.8265C96.1098 10.0745 96.2514 10.2959 96.4484 10.4606L100.768 14.0439C100.833 14.0975 100.88 14.1694 100.903 14.2502C100.926 14.3309 100.924 14.4167 100.898 14.4964L99.0826 19.9389C98.9987 20.1905 98.9971 20.4623 99.0779 20.715C99.1587 20.9676 99.3178 21.188 99.5321 21.3443C99.7464 21.5005 100.005 21.5845 100.27 21.5842C100.535 21.5838 100.794 21.4991 101.008 21.3422L105.463 18.0756C105.534 18.0232 105.62 17.995 105.709 17.995C105.709 17.995 105.709 17.995 105.709 17.995V2Z" fill="#E22269"/>
</g>
<defs>
<clipPath id="clip0_58_1705">
<rect width="20" height="20" fill="white" transform="translate(0 2)"/>
</clipPath>
<clipPath id="clip1_58_1705">
<rect width="20" height="20" fill="white" transform="translate(24 2)"/>
</clipPath>
<clipPath id="clip2_58_1705">
<rect width="20" height="20" fill="white" transform="translate(48 2)"/>
</clipPath>
<clipPath id="clip3_58_1705">
<rect width="20" height="20" fill="white" transform="translate(72 2)"/>
</clipPath>
<clipPath id="clip4_58_1705">
<rect width="20" height="20" fill="white" transform="translate(96 2)"/>
</clipPath>
</defs>
</svg>
