<svg width="86" height="18" viewBox="0 0 86 18" fill="none" xmlns="http://www.w3.org/2000/svg">
<g clip-path="url(#clip0_113_408)">
<path d="M13.7404 7.09191C13.6781 6.9245 13.5662 6.78008 13.4196 6.67793C13.2731 6.57578 13.0989 6.52077 12.9202 6.52024H9.36948C9.30906 6.52029 9.25012 6.50157 9.2008 6.46666C9.15147 6.43176 9.11421 6.38241 9.09415 6.32541L7.81957 2.71283C7.75713 2.54586 7.64519 2.40193 7.49872 2.30033C7.35225 2.19872 7.17824 2.14427 6.99998 2.14427C6.82172 2.14427 6.64771 2.19872 6.50124 2.30033C6.35477 2.40193 6.24283 2.54586 6.1804 2.71283L6.17748 2.72216L4.90582 6.32541C4.88579 6.38231 4.84861 6.4316 4.79941 6.4665C4.7502 6.50139 4.69139 6.52017 4.63107 6.52024H1.07915C0.899376 6.52011 0.723924 6.57535 0.576656 6.67845C0.429388 6.78156 0.317452 6.92752 0.256072 7.09649C0.194693 7.26546 0.186848 7.44924 0.233605 7.62282C0.280363 7.79641 0.379453 7.95138 0.517399 8.06666L3.5414 10.575C3.58663 10.6125 3.61947 10.6629 3.6356 10.7194C3.65174 10.7759 3.65042 10.836 3.63182 10.8917L2.36132 14.7015C2.3026 14.8776 2.30144 15.0679 2.358 15.2448C2.41457 15.4216 2.52592 15.5759 2.67596 15.6853C2.826 15.7946 3.00695 15.8534 3.19262 15.8532C3.3783 15.8529 3.55908 15.7936 3.70882 15.6838L6.82732 13.3972C6.87732 13.3605 6.9377 13.3408 6.99969 13.3408C7.06168 13.3408 7.12206 13.3605 7.17207 13.3972L10.2894 15.6832C10.4391 15.7934 10.6199 15.8531 10.8058 15.8536C10.9916 15.854 11.1728 15.7954 11.323 15.686C11.4733 15.5766 11.5848 15.4222 11.6415 15.2452C11.6981 15.0682 11.6969 14.8778 11.6381 14.7015L10.3676 10.8894C10.349 10.8337 10.3476 10.7736 10.3638 10.7171C10.3799 10.6605 10.4127 10.6102 10.458 10.5727L13.4878 8.06083C13.624 7.94457 13.7212 7.78933 13.7664 7.61607C13.8116 7.44281 13.8025 7.25985 13.7404 7.09191Z" fill="#F8F3E5"/>
</g>
<g clip-path="url(#clip1_113_408)">
<path d="M31.7404 7.09191C31.6781 6.9245 31.5662 6.78008 31.4196 6.67793C31.2731 6.57578 31.0989 6.52077 30.9202 6.52024H27.3695C27.3091 6.52029 27.2501 6.50157 27.2008 6.46666C27.1515 6.43176 27.1142 6.38241 27.0941 6.32541L25.8196 2.71283C25.7571 2.54586 25.6452 2.40193 25.4987 2.30033C25.3523 2.19872 25.1782 2.14427 25 2.14427C24.8217 2.14427 24.6477 2.19872 24.5012 2.30033C24.3548 2.40193 24.2428 2.54586 24.1804 2.71283L24.1775 2.72216L22.9058 6.32541C22.8858 6.38231 22.8486 6.4316 22.7994 6.4665C22.7502 6.50139 22.6914 6.52017 22.6311 6.52024H19.0791C18.8994 6.52011 18.7239 6.57535 18.5767 6.67845C18.4294 6.78156 18.3175 6.92752 18.2561 7.09649C18.1947 7.26546 18.1868 7.44924 18.2336 7.62282C18.2804 7.79641 18.3795 7.95138 18.5174 8.06666L21.5414 10.575C21.5866 10.6125 21.6195 10.6629 21.6356 10.7194C21.6517 10.7759 21.6504 10.836 21.6318 10.8917L20.3613 14.7015C20.3026 14.8776 20.3014 15.0679 20.358 15.2448C20.4146 15.4216 20.5259 15.5759 20.676 15.6853C20.826 15.7946 21.0069 15.8534 21.1926 15.8532C21.3783 15.8529 21.5591 15.7936 21.7088 15.6838L24.8273 13.3972C24.8773 13.3605 24.9377 13.3408 24.9997 13.3408C25.0617 13.3408 25.1221 13.3605 25.1721 13.3972L28.2894 15.6832C28.4391 15.7934 28.6199 15.8531 28.8058 15.8536C28.9916 15.854 29.1728 15.7954 29.323 15.686C29.4733 15.5766 29.5848 15.4222 29.6415 15.2452C29.6981 15.0682 29.6969 14.8778 29.6381 14.7015L28.3676 10.8894C28.349 10.8337 28.3476 10.7736 28.3638 10.7171C28.3799 10.6605 28.4127 10.6102 28.458 10.5727L31.4878 8.06083C31.624 7.94457 31.7212 7.78933 31.7664 7.61607C31.8116 7.44281 31.8025 7.25985 31.7404 7.09191Z" fill="#F8F3E5"/>
</g>
<g clip-path="url(#clip2_113_408)">
<path d="M49.7404 7.09191C49.6781 6.9245 49.5662 6.78008 49.4196 6.67793C49.2731 6.57578 49.0989 6.52077 48.9202 6.52024H45.3695C45.3091 6.52029 45.2501 6.50157 45.2008 6.46666C45.1515 6.43176 45.1142 6.38241 45.0941 6.32541L43.8196 2.71283C43.7571 2.54586 43.6452 2.40193 43.4987 2.30033C43.3523 2.19872 43.1782 2.14427 43 2.14427C42.8217 2.14427 42.6477 2.19872 42.5012 2.30033C42.3548 2.40193 42.2428 2.54586 42.1804 2.71283L42.1775 2.72216L40.9058 6.32541C40.8858 6.38231 40.8486 6.4316 40.7994 6.4665C40.7502 6.50139 40.6914 6.52017 40.6311 6.52024H37.0791C36.8994 6.52011 36.7239 6.57535 36.5767 6.67845C36.4294 6.78156 36.3175 6.92752 36.2561 7.09649C36.1947 7.26546 36.1868 7.44924 36.2336 7.62282C36.2804 7.79641 36.3795 7.95138 36.5174 8.06666L39.5414 10.575C39.5866 10.6125 39.6195 10.6629 39.6356 10.7194C39.6517 10.7759 39.6504 10.836 39.6318 10.8917L38.3613 14.7015C38.3026 14.8776 38.3014 15.0679 38.358 15.2448C38.4146 15.4216 38.5259 15.5759 38.676 15.6853C38.826 15.7946 39.0069 15.8534 39.1926 15.8532C39.3783 15.8529 39.5591 15.7936 39.7088 15.6838L42.8273 13.3972C42.8773 13.3605 42.9377 13.3408 42.9997 13.3408C43.0617 13.3408 43.1221 13.3605 43.1721 13.3972L46.2894 15.6832C46.4391 15.7934 46.6199 15.8531 46.8058 15.8536C46.9916 15.854 47.1728 15.7954 47.323 15.686C47.4733 15.5766 47.5848 15.4222 47.6415 15.2452C47.6981 15.0682 47.6969 14.8778 47.6381 14.7015L46.3676 10.8894C46.349 10.8337 46.3476 10.7736 46.3638 10.7171C46.3799 10.6605 46.4127 10.6102 46.458 10.5727L49.4878 8.06083C49.624 7.94457 49.7212 7.78933 49.7664 7.61607C49.8116 7.44281 49.8025 7.25985 49.7404 7.09191Z" fill="#F8F3E5"/>
</g>
<g clip-path="url(#clip3_113_408)">
<path d="M67.7404 7.09191C67.6781 6.9245 67.5662 6.78008 67.4196 6.67793C67.2731 6.57578 67.0989 6.52077 66.9202 6.52024H63.3695C63.3091 6.52029 63.2501 6.50157 63.2008 6.46666C63.1515 6.43176 63.1142 6.38241 63.0941 6.32541L61.8196 2.71283C61.7571 2.54586 61.6452 2.40193 61.4987 2.30033C61.3523 2.19872 61.1782 2.14427 61 2.14427C60.8217 2.14427 60.6477 2.19872 60.5012 2.30033C60.3548 2.40193 60.2428 2.54586 60.1804 2.71283L60.1775 2.72216L58.9058 6.32541C58.8858 6.38231 58.8486 6.4316 58.7994 6.4665C58.7502 6.50139 58.6914 6.52017 58.6311 6.52024H55.0791C54.8994 6.52011 54.7239 6.57535 54.5767 6.67845C54.4294 6.78156 54.3175 6.92752 54.2561 7.09649C54.1947 7.26546 54.1868 7.44924 54.2336 7.62282C54.2804 7.79641 54.3795 7.95138 54.5174 8.06666L57.5414 10.575C57.5866 10.6125 57.6195 10.6629 57.6356 10.7194C57.6517 10.7759 57.6504 10.836 57.6318 10.8917L56.3613 14.7015C56.3026 14.8776 56.3014 15.0679 56.358 15.2448C56.4146 15.4216 56.5259 15.5759 56.676 15.6853C56.826 15.7946 57.0069 15.8534 57.1926 15.8532C57.3783 15.8529 57.5591 15.7936 57.7088 15.6838L60.8273 13.3972C60.8773 13.3605 60.9377 13.3408 60.9997 13.3408C61.0617 13.3408 61.1221 13.3605 61.1721 13.3972L64.2894 15.6832C64.4391 15.7934 64.6199 15.8531 64.8058 15.8536C64.9916 15.854 65.1728 15.7954 65.323 15.686C65.4733 15.5766 65.5848 15.4222 65.6415 15.2452C65.6981 15.0682 65.6969 14.8778 65.6381 14.7015L64.3676 10.8894C64.349 10.8337 64.3476 10.7736 64.3638 10.7171C64.3799 10.6605 64.4127 10.6102 64.458 10.5727L67.4878 8.06083C67.624 7.94457 67.7212 7.78933 67.7664 7.61607C67.8116 7.44281 67.8025 7.25985 67.7404 7.09191Z" fill="#F8F3E5"/>
</g>
<g clip-path="url(#clip4_113_408)">
<path d="M85.5356 6.94482C85.4708 6.76985 85.3541 6.61885 85.2011 6.51206C85.0481 6.40528 84.8661 6.34781 84.6795 6.34734H80.9769L79.651 2.59304C79.5855 2.41792 79.4678 2.26714 79.3138 2.16108C79.1598 2.05502 78.9769 1.9988 78.79 2.00002C78.603 2.00124 78.4209 2.05985 78.2683 2.16792C78.1157 2.27598 78 2.42829 77.9368 2.60425L76.6152 6.34734H72.9126C72.7252 6.34752 72.5424 6.40531 72.389 6.51288C72.2356 6.62045 72.119 6.7726 72.0549 6.94869C71.9909 7.12478 71.9826 7.3163 72.0312 7.49727C72.0797 7.67824 72.1827 7.8399 72.3263 7.96034L75.4612 10.5577L74.1458 14.5039C74.084 14.6877 74.0824 14.8863 74.1411 15.0711C74.1999 15.2558 74.3159 15.4171 74.4725 15.5315C74.629 15.6459 74.8179 15.7074 75.0118 15.7073C75.2057 15.7071 75.3945 15.6453 75.5509 15.5306L78.7961 13.1532L82.0406 15.5319C82.1968 15.6463 82.3853 15.7081 82.5789 15.7083C82.7726 15.7086 82.9612 15.6473 83.1177 15.5333C83.2742 15.4192 83.3904 15.2584 83.4495 15.0741C83.5085 14.8897 83.5074 14.6913 83.4463 14.5076L82.1303 10.5589L85.2721 7.95535C85.4137 7.83383 85.5149 7.67193 85.562 7.49133C85.6091 7.31073 85.5999 7.12004 85.5356 6.94482ZM81.0075 9.873C80.9107 9.95311 80.8405 10.0606 80.8059 10.1813C80.7713 10.3021 80.774 10.4304 80.8137 10.5496L81.7789 13.4448C81.7894 13.4761 81.7897 13.51 81.7796 13.5416C81.7696 13.5731 81.7498 13.6006 81.723 13.6201C81.6963 13.6396 81.6641 13.6501 81.631 13.65C81.5979 13.65 81.5657 13.6394 81.539 13.6198L79.1637 11.8766C79.0568 11.7982 78.9277 11.7559 78.7951 11.7559C78.6626 11.7559 78.5334 11.7982 78.4266 11.8766L76.0544 13.6167C76.0277 13.6362 75.9956 13.6467 75.9626 13.6467C75.9296 13.6468 75.8975 13.6363 75.8708 13.6169C75.8441 13.5975 75.8243 13.5702 75.8142 13.5388C75.8041 13.5074 75.8042 13.4736 75.8145 13.4423L76.779 10.5471C76.8188 10.428 76.8216 10.2997 76.7871 10.1789C76.7527 10.0582 76.6825 9.95069 76.5859 9.87051L74.1695 7.86938C74.1447 7.84898 74.1268 7.82142 74.1183 7.79048C74.1098 7.75954 74.111 7.72672 74.1219 7.69652C74.1327 7.66631 74.1526 7.64019 74.1789 7.62173C74.2051 7.60327 74.2364 7.59337 74.2685 7.59338H77.057C77.1859 7.59334 77.3117 7.55329 77.417 7.47875C77.5222 7.40421 77.6017 7.29885 77.6445 7.1772L78.649 4.33126C78.6597 4.30076 78.6795 4.27434 78.7059 4.25564C78.7322 4.23694 78.7637 4.2269 78.7961 4.2269C78.8284 4.2269 78.8599 4.23694 78.8862 4.25564C78.9126 4.27434 78.9325 4.30076 78.9431 4.33126L79.9469 7.1772C79.9898 7.29885 80.0693 7.40421 80.1745 7.47875C80.2798 7.55329 80.4056 7.59334 80.5345 7.59338H83.323C83.3551 7.59337 83.3864 7.60327 83.4126 7.62173C83.4389 7.64019 83.4588 7.66631 83.4696 7.69652C83.4805 7.72672 83.4817 7.75954 83.4732 7.79048C83.4647 7.82142 83.4468 7.84898 83.422 7.86938L81.0075 9.873Z" fill="#F8F3E5"/>
<path d="M85.2549 7.21208C85.1943 7.04825 85.085 6.90687 84.9417 6.80689C84.7985 6.70691 84.6281 6.65309 84.4534 6.65266H80.9873L79.7459 3.1375C79.6846 2.97353 79.5744 2.83235 79.4303 2.73305C79.2861 2.63374 79.1149 2.5811 78.9399 2.58225C78.7648 2.58339 78.5944 2.63827 78.4515 2.73945C78.3087 2.84063 78.2003 2.98324 78.1412 3.148L76.9039 6.65266H73.4378C73.2623 6.65282 73.0912 6.70693 72.9476 6.80765C72.8039 6.90837 72.6947 7.05083 72.6348 7.21571C72.5749 7.38058 72.5671 7.5599 72.6126 7.72934C72.658 7.89878 72.7545 8.05015 72.8888 8.16291L75.8236 10.5948L74.5922 14.2897C74.5344 14.4617 74.5328 14.6477 74.5878 14.8207C74.6428 14.9937 74.7515 15.1447 74.898 15.2518C75.0446 15.3589 75.2214 15.4166 75.4029 15.4164C75.5844 15.4163 75.7612 15.3583 75.9076 15.251L78.9456 13.025L81.983 15.2522C82.1292 15.3593 82.3057 15.4172 82.487 15.4174C82.6682 15.4176 82.8449 15.3602 82.9914 15.2535C83.1379 15.1467 83.2466 14.9961 83.3019 14.8235C83.3572 14.6509 83.3562 14.4652 83.299 14.2932L82.067 10.596L85.0082 8.15825C85.1408 8.04447 85.2355 7.89288 85.2796 7.72378C85.3237 7.55468 85.3151 7.37614 85.2549 7.21208ZM81.0158 9.95375C80.9253 10.0287 80.8595 10.1294 80.8271 10.2424C80.7947 10.3555 80.7973 10.4757 80.8344 10.5872L81.738 13.298C81.7479 13.3274 81.7481 13.3591 81.7387 13.3886C81.7293 13.4181 81.7107 13.4439 81.6857 13.4622C81.6607 13.4804 81.6305 13.4902 81.5995 13.4902C81.5685 13.4902 81.5384 13.4802 81.5134 13.4619L79.2898 11.8297C79.1897 11.7563 79.0688 11.7168 78.9447 11.7168C78.8206 11.7168 78.6997 11.7563 78.5997 11.8297L76.3789 13.459C76.354 13.4772 76.3239 13.4871 76.293 13.4871C76.2622 13.4871 76.2321 13.4774 76.2071 13.4592C76.1821 13.441 76.1635 13.4154 76.1541 13.386C76.1446 13.3566 76.1447 13.325 76.1543 13.2957L77.0573 10.5849C77.0945 10.4734 77.0972 10.3532 77.0649 10.2402C77.0326 10.1271 76.967 10.0265 76.8765 9.95141L74.6143 8.07775C74.5911 8.05865 74.5744 8.03285 74.5664 8.00388C74.5585 7.97491 74.5596 7.94418 74.5698 7.9159C74.5799 7.88762 74.5986 7.86316 74.6231 7.84587C74.6477 7.82859 74.677 7.81932 74.7071 7.81933H77.3175C77.4382 7.81929 77.556 7.78179 77.6545 7.712C77.7531 7.64221 77.8275 7.54356 77.8676 7.42966L78.8079 4.765C78.8179 4.73644 78.8365 4.7117 78.8612 4.69419C78.8858 4.67668 78.9153 4.66728 78.9456 4.66728C78.9758 4.66728 79.0053 4.67668 79.03 4.69419C79.0547 4.7117 79.0733 4.73644 79.0833 4.765L80.023 7.42966C80.0631 7.54356 80.1375 7.64221 80.2361 7.712C80.3346 7.78179 80.4523 7.81929 80.5731 7.81933H83.1835C83.2136 7.81932 83.2429 7.82859 83.2674 7.84587C83.292 7.86316 83.3107 7.88762 83.3208 7.9159C83.331 7.94418 83.3321 7.97491 83.3242 8.00388C83.3162 8.03285 83.2995 8.05865 83.2763 8.07775L81.0158 9.95375Z" fill="#F8F3E5"/>
</g>
<defs>
<clipPath id="clip0_113_408">
<rect width="14" height="14" fill="white" transform="translate(0 2)"/>
</clipPath>
<clipPath id="clip1_113_408">
<rect width="14" height="14" fill="white" transform="translate(18 2)"/>
</clipPath>
<clipPath id="clip2_113_408">
<rect width="14" height="14" fill="white" transform="translate(36 2)"/>
</clipPath>
<clipPath id="clip3_113_408">
<rect width="14" height="14" fill="white" transform="translate(54 2)"/>
</clipPath>
<clipPath id="clip4_113_408">
<rect width="14" height="14" fill="white" transform="translate(72 2)"/>
</clipPath>
</defs>
</svg>
