<svg width="86" height="18" viewBox="0 0 86 18" fill="none" xmlns="http://www.w3.org/2000/svg">
<g clip-path="url(#clip0_113_396)">
<path d="M13.7404 7.09193C13.6781 6.92451 13.5662 6.78009 13.4196 6.67795C13.2731 6.5758 13.0989 6.52079 12.9202 6.52026H9.36948C9.30906 6.5203 9.25012 6.50158 9.2008 6.46668C9.15147 6.43178 9.11421 6.38242 9.09415 6.32543L7.81957 2.71284C7.75713 2.54587 7.64519 2.40195 7.49872 2.30034C7.35225 2.19873 7.17824 2.14429 6.99998 2.14429C6.82172 2.14429 6.64771 2.19873 6.50124 2.30034C6.35477 2.40195 6.24283 2.54587 6.1804 2.71284L6.17748 2.72218L4.90582 6.32543C4.88579 6.38233 4.84861 6.43162 4.79941 6.46651C4.7502 6.5014 4.69139 6.52018 4.63107 6.52026H1.07915C0.899376 6.52012 0.723924 6.57537 0.576656 6.67847C0.429388 6.78157 0.317452 6.92754 0.256072 7.09651C0.194693 7.26548 0.186848 7.44925 0.233605 7.62284C0.280363 7.79643 0.379453 7.9514 0.517399 8.06668L3.5414 10.575C3.58663 10.6125 3.61947 10.6629 3.6356 10.7194C3.65174 10.7759 3.65042 10.836 3.63182 10.8918L2.36132 14.7015C2.3026 14.8777 2.30144 15.0679 2.358 15.2448C2.41457 15.4216 2.52592 15.5759 2.67596 15.6853C2.826 15.7946 3.00695 15.8535 3.19262 15.8532C3.3783 15.853 3.55908 15.7936 3.70882 15.6838L6.82732 13.3972C6.87732 13.3605 6.9377 13.3408 6.99969 13.3408C7.06168 13.3408 7.12206 13.3605 7.17207 13.3972L10.2894 15.6833C10.4391 15.7934 10.6199 15.8531 10.8058 15.8536C10.9916 15.8541 11.1728 15.7954 11.323 15.686C11.4733 15.5766 11.5848 15.4222 11.6415 15.2452C11.6981 15.0682 11.6969 14.8778 11.6381 14.7015L10.3676 10.8894C10.349 10.8337 10.3476 10.7736 10.3638 10.7171C10.3799 10.6605 10.4127 10.6102 10.458 10.5727L13.4878 8.06084C13.624 7.94459 13.7212 7.78935 13.7664 7.61608C13.8116 7.44282 13.8025 7.25987 13.7404 7.09193Z" fill="#F8F3E5"/>
</g>
<g clip-path="url(#clip1_113_396)">
<path d="M31.7404 7.09193C31.6781 6.92451 31.5662 6.78009 31.4196 6.67795C31.2731 6.5758 31.0989 6.52079 30.9202 6.52026H27.3695C27.3091 6.5203 27.2501 6.50158 27.2008 6.46668C27.1515 6.43178 27.1142 6.38242 27.0941 6.32543L25.8196 2.71284C25.7571 2.54587 25.6452 2.40195 25.4987 2.30034C25.3523 2.19873 25.1782 2.14429 25 2.14429C24.8217 2.14429 24.6477 2.19873 24.5012 2.30034C24.3548 2.40195 24.2428 2.54587 24.1804 2.71284L24.1775 2.72218L22.9058 6.32543C22.8858 6.38233 22.8486 6.43162 22.7994 6.46651C22.7502 6.5014 22.6914 6.52018 22.6311 6.52026H19.0791C18.8994 6.52012 18.7239 6.57537 18.5767 6.67847C18.4294 6.78157 18.3175 6.92754 18.2561 7.09651C18.1947 7.26548 18.1868 7.44925 18.2336 7.62284C18.2804 7.79643 18.3795 7.9514 18.5174 8.06668L21.5414 10.575C21.5866 10.6125 21.6195 10.6629 21.6356 10.7194C21.6517 10.7759 21.6504 10.836 21.6318 10.8918L20.3613 14.7015C20.3026 14.8777 20.3014 15.0679 20.358 15.2448C20.4146 15.4216 20.5259 15.5759 20.676 15.6853C20.826 15.7946 21.0069 15.8535 21.1926 15.8532C21.3783 15.853 21.5591 15.7936 21.7088 15.6838L24.8273 13.3972C24.8773 13.3605 24.9377 13.3408 24.9997 13.3408C25.0617 13.3408 25.1221 13.3605 25.1721 13.3972L28.2894 15.6833C28.4391 15.7934 28.6199 15.8531 28.8058 15.8536C28.9916 15.8541 29.1728 15.7954 29.323 15.686C29.4733 15.5766 29.5848 15.4222 29.6415 15.2452C29.6981 15.0682 29.6969 14.8778 29.6381 14.7015L28.3676 10.8894C28.349 10.8337 28.3476 10.7736 28.3638 10.7171C28.3799 10.6605 28.4127 10.6102 28.458 10.5727L31.4878 8.06084C31.624 7.94459 31.7212 7.78935 31.7664 7.61608C31.8116 7.44282 31.8025 7.25987 31.7404 7.09193Z" fill="#F8F3E5"/>
</g>
<g clip-path="url(#clip2_113_396)">
<path d="M49.7404 7.09193C49.6781 6.92451 49.5662 6.78009 49.4196 6.67795C49.2731 6.5758 49.0989 6.52079 48.9202 6.52026H45.3695C45.3091 6.5203 45.2501 6.50158 45.2008 6.46668C45.1515 6.43178 45.1142 6.38242 45.0941 6.32543L43.8196 2.71284C43.7571 2.54587 43.6452 2.40195 43.4987 2.30034C43.3523 2.19873 43.1782 2.14429 43 2.14429C42.8217 2.14429 42.6477 2.19873 42.5012 2.30034C42.3548 2.40195 42.2428 2.54587 42.1804 2.71284L42.1775 2.72218L40.9058 6.32543C40.8858 6.38233 40.8486 6.43162 40.7994 6.46651C40.7502 6.5014 40.6914 6.52018 40.6311 6.52026H37.0791C36.8994 6.52012 36.7239 6.57537 36.5767 6.67847C36.4294 6.78157 36.3175 6.92754 36.2561 7.09651C36.1947 7.26548 36.1868 7.44925 36.2336 7.62284C36.2804 7.79643 36.3795 7.9514 36.5174 8.06668L39.5414 10.575C39.5866 10.6125 39.6195 10.6629 39.6356 10.7194C39.6517 10.7759 39.6504 10.836 39.6318 10.8918L38.3613 14.7015C38.3026 14.8777 38.3014 15.0679 38.358 15.2448C38.4146 15.4216 38.5259 15.5759 38.676 15.6853C38.826 15.7946 39.0069 15.8535 39.1926 15.8532C39.3783 15.853 39.5591 15.7936 39.7088 15.6838L42.8273 13.3972C42.8773 13.3605 42.9377 13.3408 42.9997 13.3408C43.0617 13.3408 43.1221 13.3605 43.1721 13.3972L46.2894 15.6833C46.4391 15.7934 46.6199 15.8531 46.8058 15.8536C46.9916 15.8541 47.1728 15.7954 47.323 15.686C47.4733 15.5766 47.5848 15.4222 47.6415 15.2452C47.6981 15.0682 47.6969 14.8778 47.6381 14.7015L46.3676 10.8894C46.349 10.8337 46.3476 10.7736 46.3638 10.7171C46.3799 10.6605 46.4127 10.6102 46.458 10.5727L49.4878 8.06084C49.624 7.94459 49.7212 7.78935 49.7664 7.61608C49.8116 7.44282 49.8025 7.25987 49.7404 7.09193Z" fill="#F8F3E5"/>
</g>
<g clip-path="url(#clip3_113_396)">
<path d="M67.7404 7.09193C67.6781 6.92451 67.5662 6.78009 67.4196 6.67795C67.2731 6.5758 67.0989 6.52079 66.9202 6.52026H63.3695C63.3091 6.5203 63.2501 6.50158 63.2008 6.46668C63.1515 6.43178 63.1142 6.38242 63.0941 6.32543L61.8196 2.71284C61.7571 2.54587 61.6452 2.40195 61.4987 2.30034C61.3523 2.19873 61.1782 2.14429 61 2.14429C60.8217 2.14429 60.6477 2.19873 60.5012 2.30034C60.3548 2.40195 60.2428 2.54587 60.1804 2.71284L60.1775 2.72218L58.9058 6.32543C58.8858 6.38233 58.8486 6.43162 58.7994 6.46651C58.7502 6.5014 58.6914 6.52018 58.6311 6.52026H55.0791C54.8994 6.52012 54.7239 6.57537 54.5767 6.67847C54.4294 6.78157 54.3175 6.92754 54.2561 7.09651C54.1947 7.26548 54.1868 7.44925 54.2336 7.62284C54.2804 7.79643 54.3795 7.9514 54.5174 8.06668L57.5414 10.575C57.5866 10.6125 57.6195 10.6629 57.6356 10.7194C57.6517 10.7759 57.6504 10.836 57.6318 10.8918L56.3613 14.7015C56.3026 14.8777 56.3014 15.0679 56.358 15.2448C56.4146 15.4216 56.5259 15.5759 56.676 15.6853C56.826 15.7946 57.0069 15.8535 57.1926 15.8532C57.3783 15.853 57.5591 15.7936 57.7088 15.6838L60.8273 13.3972C60.8773 13.3605 60.9377 13.3408 60.9997 13.3408C61.0617 13.3408 61.1221 13.3605 61.1721 13.3972L64.2894 15.6833C64.4391 15.7934 64.6199 15.8531 64.8058 15.8536C64.9916 15.8541 65.1728 15.7954 65.323 15.686C65.4733 15.5766 65.5848 15.4222 65.6415 15.2452C65.6981 15.0682 65.6969 14.8778 65.6381 14.7015L64.3676 10.8894C64.349 10.8337 64.3476 10.7736 64.3638 10.7171C64.3799 10.6605 64.4127 10.6102 64.458 10.5727L67.4878 8.06084C67.624 7.94459 67.7212 7.78935 67.7664 7.61608C67.8116 7.44282 67.8025 7.25987 67.7404 7.09193Z" fill="#F8F3E5"/>
</g>
<g clip-path="url(#clip4_113_396)">
<path d="M85.7404 7.09193C85.6781 6.92451 85.5662 6.78009 85.4196 6.67795C85.2731 6.5758 85.0989 6.52079 84.9202 6.52026H81.3695C81.3091 6.5203 81.2501 6.50158 81.2008 6.46668C81.1515 6.43178 81.1142 6.38242 81.0941 6.32543L79.8196 2.71284C79.7571 2.54587 79.6452 2.40195 79.4987 2.30034C79.3523 2.19873 79.1782 2.14429 79 2.14429C78.8217 2.14429 78.6477 2.19873 78.5012 2.30034C78.3548 2.40195 78.2428 2.54587 78.1804 2.71284L78.1775 2.72218L76.9058 6.32543C76.8858 6.38233 76.8486 6.43162 76.7994 6.46651C76.7502 6.5014 76.6914 6.52018 76.6311 6.52026H73.0791C72.8994 6.52012 72.7239 6.57537 72.5767 6.67847C72.4294 6.78157 72.3175 6.92754 72.2561 7.09651C72.1947 7.26548 72.1868 7.44925 72.2336 7.62284C72.2804 7.79643 72.3795 7.9514 72.5174 8.06668L75.5414 10.575C75.5866 10.6125 75.6195 10.6629 75.6356 10.7194C75.6517 10.7759 75.6504 10.836 75.6318 10.8918L74.3613 14.7015C74.3026 14.8777 74.3014 15.0679 74.358 15.2448C74.4146 15.4216 74.5259 15.5759 74.676 15.6853C74.826 15.7946 75.0069 15.8535 75.1926 15.8532C75.3783 15.853 75.5591 15.7936 75.7088 15.6838L78.8273 13.3972C78.8773 13.3605 78.9377 13.3408 78.9997 13.3408C79.0617 13.3408 79.1221 13.3605 79.1721 13.3972L82.2894 15.6833C82.4391 15.7934 82.6199 15.8531 82.8058 15.8536C82.9916 15.8541 83.1728 15.7954 83.323 15.686C83.4733 15.5766 83.5848 15.4222 83.6415 15.2452C83.6981 15.0682 83.6969 14.8778 83.6381 14.7015L82.3676 10.8894C82.349 10.8337 82.3476 10.7736 82.3638 10.7171C82.3799 10.6605 82.4127 10.6102 82.458 10.5727L85.4878 8.06084C85.624 7.94459 85.7212 7.78935 85.7664 7.61608C85.8116 7.44282 85.8025 7.25987 85.7404 7.09193Z" fill="#F8F3E5"/>
</g>
<defs>
<clipPath id="clip0_113_396">
<rect width="14" height="14" fill="white" transform="translate(0 2)"/>
</clipPath>
<clipPath id="clip1_113_396">
<rect width="14" height="14" fill="white" transform="translate(18 2)"/>
</clipPath>
<clipPath id="clip2_113_396">
<rect width="14" height="14" fill="white" transform="translate(36 2)"/>
</clipPath>
<clipPath id="clip3_113_396">
<rect width="14" height="14" fill="white" transform="translate(54 2)"/>
</clipPath>
<clipPath id="clip4_113_396">
<rect width="14" height="14" fill="white" transform="translate(72 2)"/>
</clipPath>
</defs>
</svg>
