<svg width="116" height="24" viewBox="0 0 116 24" fill="none" xmlns="http://www.w3.org/2000/svg">
<g clip-path="url(#clip0_129_638)">
<path d="M19.6292 9.27417C19.5402 9.03501 19.3803 8.82869 19.171 8.68277C18.9616 8.53685 18.7127 8.45826 18.4575 8.4575H13.385C13.2987 8.45757 13.2145 8.43082 13.1441 8.38096C13.0736 8.3311 13.0204 8.26059 12.9917 8.17917L11.1709 3.01834C11.0817 2.77981 10.9218 2.57421 10.7125 2.42905C10.5033 2.2839 10.2547 2.20612 10 2.20612C9.74538 2.20612 9.4968 2.2839 9.28756 2.42905C9.07831 2.57421 8.9184 2.77981 8.82921 3.01834L8.82504 3.03167L7.00838 8.17917C6.97977 8.26046 6.92666 8.33087 6.85637 8.38072C6.78607 8.43057 6.70205 8.45739 6.61588 8.4575H1.54171C1.28489 8.45731 1.03425 8.53623 0.823864 8.68352C0.613482 8.83081 0.453573 9.03933 0.365888 9.28072C0.278202 9.5221 0.266995 9.78464 0.333792 10.0326C0.400588 10.2806 0.542146 10.502 0.739212 10.6667L5.05921 14.25C5.12383 14.3036 5.17074 14.3755 5.19379 14.4563C5.21684 14.537 5.21495 14.6228 5.18838 14.7025L3.37338 20.145C3.2895 20.3966 3.28784 20.6684 3.36865 20.9211C3.44945 21.1737 3.60853 21.3941 3.82287 21.5504C4.03722 21.7066 4.29571 21.7907 4.56096 21.7903C4.82621 21.7899 5.08447 21.7052 5.29838 21.5483L9.75338 18.2817C9.82482 18.2293 9.91107 18.2011 9.99963 18.2011C10.0882 18.2011 10.1744 18.2293 10.2459 18.2817L14.6992 21.5475C14.913 21.7049 15.1714 21.7901 15.4369 21.7908C15.7024 21.7915 15.9612 21.7077 16.1759 21.5514C16.3905 21.3952 16.5498 21.1746 16.6307 20.9218C16.7116 20.6689 16.7099 20.3968 16.6259 20.145L14.8109 14.6992C14.7843 14.6195 14.7824 14.5337 14.8055 14.4529C14.8285 14.3722 14.8754 14.3003 14.94 14.2467L19.2684 10.6583C19.4629 10.4923 19.6018 10.2705 19.6664 10.023C19.7309 9.77545 19.7179 9.51409 19.6292 9.27417Z" fill="#272934"/>
</g>
<g clip-path="url(#clip1_129_638)">
<path d="M43.6292 9.27417C43.5402 9.03501 43.3803 8.82869 43.171 8.68277C42.9616 8.53685 42.7127 8.45826 42.4575 8.4575H37.385C37.2987 8.45757 37.2145 8.43082 37.1441 8.38096C37.0736 8.3311 37.0204 8.26059 36.9917 8.17917L35.1709 3.01834C35.0817 2.77981 34.9218 2.57421 34.7125 2.42905C34.5033 2.2839 34.2547 2.20612 34 2.20612C33.7454 2.20612 33.4968 2.2839 33.2876 2.42905C33.0783 2.57421 32.9184 2.77981 32.8292 3.01834L32.825 3.03167L31.0084 8.17917C30.9798 8.26046 30.9267 8.33087 30.8564 8.38072C30.7861 8.43057 30.7021 8.45739 30.6159 8.4575H25.5417C25.2849 8.45731 25.0342 8.53623 24.8239 8.68352C24.6135 8.83081 24.4536 9.03933 24.3659 9.28072C24.2782 9.5221 24.267 9.78464 24.3338 10.0326C24.4006 10.2806 24.5421 10.502 24.7392 10.6667L29.0592 14.25C29.1238 14.3036 29.1707 14.3755 29.1938 14.4563C29.2168 14.537 29.215 14.6228 29.1884 14.7025L27.3734 20.145C27.2895 20.3966 27.2878 20.6684 27.3686 20.9211C27.4495 21.1737 27.6085 21.3941 27.8229 21.5504C28.0372 21.7066 28.2957 21.7907 28.561 21.7903C28.8262 21.7899 29.0845 21.7052 29.2984 21.5483L33.7534 18.2817C33.8248 18.2293 33.9111 18.2011 33.9996 18.2011C34.0882 18.2011 34.1744 18.2293 34.2459 18.2817L38.6992 21.5475C38.913 21.7049 39.1714 21.7901 39.4369 21.7908C39.7024 21.7915 39.9612 21.7077 40.1759 21.5514C40.3905 21.3952 40.5498 21.1746 40.6307 20.9218C40.7116 20.6689 40.7099 20.3968 40.6259 20.145L38.8109 14.6992C38.7843 14.6195 38.7824 14.5337 38.8055 14.4529C38.8285 14.3722 38.8754 14.3003 38.94 14.2467L43.2684 10.6583C43.4629 10.4923 43.6018 10.2705 43.6664 10.023C43.7309 9.77545 43.7179 9.51409 43.6292 9.27417Z" fill="#272934"/>
</g>
<g clip-path="url(#clip2_129_638)">
<path d="M67.6292 9.27417C67.5402 9.03501 67.3803 8.82869 67.171 8.68277C66.9616 8.53685 66.7127 8.45826 66.4575 8.4575H61.385C61.2987 8.45757 61.2145 8.43082 61.1441 8.38096C61.0736 8.3311 61.0204 8.26059 60.9917 8.17917L59.1709 3.01834C59.0817 2.77981 58.9218 2.57421 58.7125 2.42905C58.5033 2.2839 58.2547 2.20612 58 2.20612C57.7454 2.20612 57.4968 2.2839 57.2876 2.42905C57.0783 2.57421 56.9184 2.77981 56.8292 3.01834L56.825 3.03167L55.0084 8.17917C54.9798 8.26046 54.9267 8.33087 54.8564 8.38072C54.7861 8.43057 54.7021 8.45739 54.6159 8.4575H49.5417C49.2849 8.45731 49.0342 8.53623 48.8239 8.68352C48.6135 8.83081 48.4536 9.03933 48.3659 9.28072C48.2782 9.5221 48.267 9.78464 48.3338 10.0326C48.4006 10.2806 48.5421 10.502 48.7392 10.6667L53.0592 14.25C53.1238 14.3036 53.1707 14.3755 53.1938 14.4563C53.2168 14.537 53.215 14.6228 53.1884 14.7025L51.3734 20.145C51.2895 20.3966 51.2878 20.6684 51.3686 20.9211C51.4495 21.1737 51.6085 21.3941 51.8229 21.5504C52.0372 21.7066 52.2957 21.7907 52.561 21.7903C52.8262 21.7899 53.0845 21.7052 53.2984 21.5483L57.7534 18.2817C57.8248 18.2293 57.9111 18.2011 57.9996 18.2011C58.0882 18.2011 58.1744 18.2293 58.2459 18.2817L62.6992 21.5475C62.913 21.7049 63.1714 21.7901 63.4369 21.7908C63.7024 21.7915 63.9612 21.7077 64.1759 21.5514C64.3905 21.3952 64.5498 21.1746 64.6307 20.9218C64.7116 20.6689 64.7099 20.3968 64.6259 20.145L62.8109 14.6992C62.7843 14.6195 62.7824 14.5337 62.8055 14.4529C62.8285 14.3722 62.8754 14.3003 62.94 14.2467L67.2684 10.6583C67.4629 10.4923 67.6018 10.2705 67.6664 10.023C67.7309 9.77545 67.7179 9.51409 67.6292 9.27417Z" fill="#272934"/>
</g>
<g clip-path="url(#clip3_129_638)">
<path d="M91.6292 9.27417C91.5402 9.03501 91.3803 8.82869 91.171 8.68277C90.9616 8.53685 90.7127 8.45826 90.4575 8.4575H85.385C85.2987 8.45757 85.2145 8.43082 85.1441 8.38096C85.0736 8.3311 85.0204 8.26059 84.9917 8.17917L83.1709 3.01834C83.0817 2.77981 82.9218 2.57421 82.7125 2.42905C82.5033 2.2839 82.2547 2.20612 82 2.20612C81.7454 2.20612 81.4968 2.2839 81.2876 2.42905C81.0783 2.57421 80.9184 2.77981 80.8292 3.01834L80.825 3.03167L79.0084 8.17917C78.9798 8.26046 78.9267 8.33087 78.8564 8.38072C78.7861 8.43057 78.7021 8.45739 78.6159 8.4575H73.5417C73.2849 8.45731 73.0342 8.53623 72.8239 8.68352C72.6135 8.83081 72.4536 9.03933 72.3659 9.28072C72.2782 9.5221 72.267 9.78464 72.3338 10.0326C72.4006 10.2806 72.5421 10.502 72.7392 10.6667L77.0592 14.25C77.1238 14.3036 77.1707 14.3755 77.1938 14.4563C77.2168 14.537 77.215 14.6228 77.1884 14.7025L75.3734 20.145C75.2895 20.3966 75.2878 20.6684 75.3686 20.9211C75.4495 21.1737 75.6085 21.3941 75.8229 21.5504C76.0372 21.7066 76.2957 21.7907 76.561 21.7903C76.8262 21.7899 77.0845 21.7052 77.2984 21.5483L81.7534 18.2817C81.8248 18.2293 81.9111 18.2011 81.9996 18.2011C82.0882 18.2011 82.1744 18.2293 82.2459 18.2817L86.6992 21.5475C86.913 21.7049 87.1714 21.7901 87.4369 21.7908C87.7024 21.7915 87.9612 21.7077 88.1759 21.5514C88.3905 21.3952 88.5498 21.1746 88.6307 20.9218C88.7116 20.6689 88.7099 20.3968 88.6259 20.145L86.8109 14.6992C86.7843 14.6195 86.7824 14.5337 86.8055 14.4529C86.8285 14.3722 86.8754 14.3003 86.94 14.2467L91.2684 10.6583C91.4629 10.4923 91.6018 10.2705 91.6664 10.023C91.7309 9.77545 91.7179 9.51409 91.6292 9.27417Z" fill="#272934"/>
</g>
<g clip-path="url(#clip4_129_638)">
<path d="M115.629 9.27417C115.54 9.03501 115.38 8.82869 115.171 8.68277C114.962 8.53685 114.713 8.45826 114.458 8.4575H109.385C109.299 8.45757 109.215 8.43082 109.144 8.38096C109.074 8.3311 109.02 8.26059 108.992 8.17917L107.171 3.01834C107.082 2.77981 106.922 2.57421 106.713 2.42905C106.503 2.2839 106.255 2.20612 106 2.20612C105.745 2.20612 105.497 2.2839 105.288 2.42905C105.078 2.57421 104.918 2.77981 104.829 3.01834L104.825 3.03167L103.008 8.17917C102.98 8.26046 102.927 8.33087 102.856 8.38072C102.786 8.43057 102.702 8.45739 102.616 8.4575H97.5417C97.2849 8.45731 97.0342 8.53623 96.8239 8.68352C96.6135 8.83081 96.4536 9.03933 96.3659 9.28072C96.2782 9.5221 96.267 9.78464 96.3338 10.0326C96.4006 10.2806 96.5421 10.502 96.7392 10.6667L101.059 14.25C101.124 14.3036 101.171 14.3755 101.194 14.4563C101.217 14.537 101.215 14.6228 101.188 14.7025L99.3734 20.145C99.2895 20.3966 99.2878 20.6684 99.3686 20.9211C99.4495 21.1737 99.6085 21.3941 99.8229 21.5504C100.037 21.7066 100.296 21.7907 100.561 21.7903C100.826 21.7899 101.084 21.7052 101.298 21.5483L105.753 18.2817C105.825 18.2293 105.911 18.2011 106 18.2011C106.088 18.2011 106.174 18.2293 106.246 18.2817L110.699 21.5475C110.913 21.7049 111.171 21.7901 111.437 21.7908C111.702 21.7915 111.961 21.7077 112.176 21.5514C112.39 21.3952 112.55 21.1746 112.631 20.9218C112.712 20.6689 112.71 20.3968 112.626 20.145L110.811 14.6992C110.784 14.6195 110.782 14.5337 110.805 14.4529C110.829 14.3722 110.875 14.3003 110.94 14.2467L115.268 10.6583C115.463 10.4923 115.602 10.2705 115.666 10.023C115.731 9.77545 115.718 9.51409 115.629 9.27417Z" fill="#272934"/>
</g>
<defs>
<clipPath id="clip0_129_638">
<rect width="20" height="20" fill="white" transform="translate(0 2)"/>
</clipPath>
<clipPath id="clip1_129_638">
<rect width="20" height="20" fill="white" transform="translate(24 2)"/>
</clipPath>
<clipPath id="clip2_129_638">
<rect width="20" height="20" fill="white" transform="translate(48 2)"/>
</clipPath>
<clipPath id="clip3_129_638">
<rect width="20" height="20" fill="white" transform="translate(72 2)"/>
</clipPath>
<clipPath id="clip4_129_638">
<rect width="20" height="20" fill="white" transform="translate(96 2)"/>
</clipPath>
</defs>
</svg>
