<svg width="32" height="32" viewBox="0 0 32 32" fill="none" xmlns="http://www.w3.org/2000/svg">
<g clip-path="url(#clip0_1623_9258)">
<path d="M31.3892 17.0686C31.3892 18.8249 30.7801 20.528 29.4215 22.1247C28.0629 23.5085 26.3763 24.5729 25.1582 25.1052C23.1905 26.1696 21.0354 26.6486 19.0209 27.1808L18.8804 27.0212C19.9579 26.6486 21.0354 26.3293 21.9256 25.4777C22.0661 25.3181 22.0661 25.3181 22.2535 25.1052C24.6897 24.0407 27.1727 22.4973 28.6719 19.8894V19.7297C29.4215 18.6653 30.0306 17.4944 30.3585 16.0574C30.6864 14.1413 30.3585 12.2253 29.4215 10.469C28.8125 9.40455 28.2034 8.92555 27.4538 8.71266C27.1259 7.8611 26.5168 6.95632 26.0952 6.26442C26.2357 6.10476 26.2357 6.10476 26.2357 5.89187C28.0629 6.42409 29.6089 8.12721 30.218 10.2561C30.9675 12.7043 30.6864 15.3122 30.218 17.0154C30.218 17.175 30.218 17.5476 30.5459 17.5476C30.5459 17.5476 30.5459 17.5476 30.6864 17.5476C30.827 17.5476 31.0144 17.3879 31.0144 17.175C31.4829 15.259 31.9514 12.4915 31.0144 9.88355C30.2648 7.27565 28.3908 5.35964 26.2826 4.82742C26.142 4.82742 25.9546 4.82742 25.9546 4.98709C25.0177 3.44364 23.7996 1.84696 22.113 0.995403C21.9724 0.995403 21.9724 0.995402 21.785 0.835735C21.5976 0.676068 21.3165 0.463178 21.0354 0.30351C20.4264 -0.0690466 19.6768 -0.0690462 18.8804 0.143844C17.6623 0.143844 16.2568 0.5164 15.0387 0.835735C14.7108 0.835735 14.4297 0.995403 13.9612 0.995403C13.9612 0.995403 13.9612 0.995403 13.8206 0.995403C12.134 0.622846 10.4474 0.463178 8.90141 0.835735C8.76086 0.835735 8.57347 0.995402 8.57347 1.36796C8.57347 1.52763 8.71401 1.74052 9.04196 1.74052C9.79155 1.58085 10.7285 1.58085 11.4781 1.74052C10.26 2.11307 9.04196 2.43241 7.82387 3.1243H7.68332C6.32469 3.81619 4.9192 4.66775 3.84166 6.10476C2.76412 7.32887 2.01453 8.71266 1.87398 9.93677C1.87398 10.3093 1.87398 10.6287 2.20193 11.0012C2.06138 11.1609 1.87398 11.3738 1.87398 11.5334C1.73343 11.5334 1.54603 11.6931 1.54603 11.6931C1.40549 11.8528 1.40549 12.0657 1.40549 12.2253C1.26494 12.385 1.07754 12.5979 1.07754 12.7576C0.936991 12.9172 1.07754 13.2898 1.21809 13.2898H1.35864C1.49919 13.2898 1.49918 13.2898 1.68658 13.1301C2.01453 12.7576 2.15508 12.4382 2.43618 12.0657C3.37317 11.5334 4.26331 11.0012 5.2003 10.6819C5.05975 10.8416 5.05975 10.8416 5.05975 11.0012C4.31016 11.5334 3.70111 12.2253 2.90467 12.9172C2.15508 13.6091 1.82713 14.4607 1.82713 15.1526C1.49919 15.3122 1.07754 15.6848 0.890141 16.0041C0.749593 15.8445 0.421646 16.0041 0.421646 16.1638C-0.187398 17.3879 -0.0468498 18.612 0.281097 19.6233C0.421645 19.9958 0.421646 20.4748 0.609044 20.8474C0.609044 21.3796 0.749592 21.9118 0.749592 22.2312C0.890141 23.4553 0.890142 24.4665 1.35864 25.6906C1.68658 26.5422 1.96768 27.2341 2.43618 27.926C2.29563 27.926 2.29563 28.0856 2.29563 28.0856C2.29563 28.2453 2.43618 28.4582 2.90467 28.4582C2.43618 29.1383 3.23262 28.9853 3.23262 28.9853C3.61216 28.9007 3.61216 28.9007 3.61216 28.9007C4.61321 28.9007 4.75376 28.9007 4.61321 28.9007C5.11373 28.9007 5.61425 28.9007 6.11477 28.3936C7.72945 28.4582 7.96443 27.7131 12.8836 27.7131C14.3828 27.7131 14.8513 27.6598 17.756 27.1808C17.756 26.6486 25.5798 26.8615 21.1291 26.7018C22.4878 26.3293 23.8933 25.8503 25.2519 25.1584C26.6105 24.4665 28.4845 23.6149 29.8432 22.0183C31.1549 20.528 32.0451 18.5056 31.9982 16.696C31.9514 16.696 31.8108 16.6428 31.6703 16.6428C31.5297 16.7492 31.3892 16.9089 31.3892 17.0686ZM6.74633 26.1164C6.13729 25.9567 5.66879 25.5842 5.05975 25.2648C4.9192 25.2648 4.7318 25.2648 4.59125 25.2648C4.12276 24.5729 3.65426 23.7214 3.23262 23.0295C4.45071 24.2004 5.52825 25.2648 6.74633 26.1164ZM2.76412 21.0603C2.76412 20.9006 2.62357 20.6877 2.62357 20.528C2.95152 20.9006 3.23262 21.2199 3.37317 21.5925C3.23262 21.4328 2.90467 21.2732 2.76412 21.0603ZM4.31016 21.2732C3.84166 20.7409 3.37317 20.049 3.09207 19.1975C2.95152 18.6653 2.95152 18.133 3.09207 17.8137C3.42002 18.1863 3.84166 18.5056 4.16961 18.8781C4.49756 19.57 4.77865 20.2619 5.24715 20.7942C5.99674 21.8586 6.79318 23.0295 7.54278 24.0939C5.94989 23.1892 5.05975 22.2844 4.31016 21.2732ZM5.66879 19.3571C5.34085 18.9846 5.2003 18.6653 4.9192 18.133C4.59126 17.6008 4.59125 17.2282 4.59125 16.9089C4.9192 17.7605 5.34085 18.6653 5.66879 19.3571ZM9.651 8.02076C10.1195 7.8611 10.588 7.8611 11.197 7.8611C10.4474 8.23365 9.51046 8.55299 8.76086 8.92555C8.01127 9.08521 7.21483 9.2981 6.46524 9.45777C6.93373 8.92555 7.54278 8.39332 8.01127 8.07399C8.33922 8.07399 8.47977 7.91432 8.62031 7.91432C8.94826 7.75465 9.08881 7.75465 9.36991 7.54176V7.70143C9.18251 8.02077 9.32306 8.02076 9.651 8.02076ZM20.9417 7.8611C20.9417 7.8611 20.9417 7.8611 20.8012 7.8611C20.0048 7.27565 19.1146 6.79665 18.2245 6.47732C18.365 6.47732 18.6461 6.47731 18.6461 6.31765C18.7867 5.62575 18.7867 5.46609 18.5056 5.2532C16.819 4.56131 14.9919 4.88064 13.3053 5.2532C12.5557 5.41287 11.9466 5.62576 11.1502 5.94509C13.1179 4.88064 15.4135 4.40164 17.5686 4.40164C18.1776 4.56131 18.7867 4.7742 19.3957 5.09353C19.5363 5.09353 19.5363 5.2532 19.7237 5.2532C20.0516 5.41287 20.3327 5.78542 20.6606 6.10476C20.5201 6.26442 20.5201 6.47731 20.5201 6.63698C20.6606 7.00954 20.8012 7.54176 20.9417 7.8611ZM22.9563 16.217C23.0968 15.6848 23.0968 15.1526 23.0968 14.8332C23.0968 14.8332 23.0968 14.8332 23.2374 14.8332C23.3779 15.2058 23.3779 15.3655 23.5653 15.6848C23.7059 16.217 24.0338 16.7492 24.1744 17.0686C24.5023 17.7605 24.5023 18.4524 24.5023 18.9846C23.7527 18.8249 22.9563 18.612 22.2067 18.4524C22.5346 17.9201 22.6752 17.3879 22.8157 16.9089C22.9563 16.9089 23.1437 16.7492 23.1437 16.5364C23.1437 16.3235 23.0968 16.217 22.9563 16.217ZM19.4426 20.9006C18.8335 20.9006 18.365 20.9006 17.756 20.9006C16.819 20.528 15.9288 20.2087 15.1324 19.6765C14.8045 19.3039 14.6639 18.9846 14.3828 18.612C14.2423 18.2395 14.0549 17.9201 13.9143 17.3879C15.2729 18.4524 16.819 19.1443 18.365 19.6233C18.365 19.7829 18.5056 20.1555 18.693 20.1555C18.8335 20.1555 19.0209 19.9958 19.1615 19.7829C19.7705 19.9426 20.3795 20.1555 20.9886 20.1555C20.848 20.6877 20.5201 21.007 20.3796 21.3796C20.239 21.3796 20.239 21.3796 20.0516 21.3796H19.9111C19.9111 21.3796 20.0516 21.2199 20.0516 21.007C19.7237 21.0603 19.5831 20.9006 19.4426 20.9006ZM17.8965 22.9763C17.756 22.9763 17.5686 22.9763 17.2875 22.9763C16.5379 22.8166 15.7414 22.6037 14.9919 22.2844C15.1324 22.2844 15.4603 22.2844 15.6009 22.444C16.0694 22.444 16.5379 22.444 16.819 22.444C17.1469 22.6569 17.6154 22.8166 17.8965 22.9763ZM10.26 14.1413C10.1195 14.1413 9.9321 14.301 9.9321 14.6736C9.60416 14.6736 9.32306 14.6736 8.99511 14.6736C8.52662 14.1413 8.24552 13.6091 8.24552 13.4495C8.24552 13.4495 8.24552 13.4495 8.24552 13.2898C8.38607 13.2898 8.85456 13.1301 10.4006 13.822V13.9817C10.5411 14.1413 10.7285 14.3542 10.8691 14.6736C10.8691 14.6736 10.8691 14.6736 10.7285 14.6736V14.5139C10.7285 14.301 10.4006 14.1413 10.26 14.1413ZM10.7285 16.5364C10.4006 16.1638 10.26 16.0041 9.97895 15.6848C10.1195 15.6848 10.1195 15.6848 10.3069 15.6848C10.4006 16.0574 10.5411 16.3767 10.7285 16.5364ZM9.651 12.7576C10.4006 12.7576 11.0096 12.5979 11.8061 12.5979C11.9466 12.5979 11.9466 12.5979 12.134 12.7576C12.2746 13.1301 12.462 13.2898 12.6025 13.6091C12.6025 13.7688 12.6025 13.9817 12.6025 14.1413C11.1502 13.4495 10.26 12.9172 9.651 12.7576ZM9.32306 9.61744C9.79155 9.61744 10.0727 9.45777 10.6817 9.45777C11.6187 9.2981 12.5088 9.2981 13.4458 9.2981C13.4458 9.2981 13.4458 9.45777 13.3053 9.45777C12.8368 9.61744 12.2277 9.61744 11.7592 9.83033C10.8691 9.77711 10.1195 9.61744 9.32306 9.61744ZM9.51046 10.469C9.36991 10.469 9.04196 10.6287 8.90141 10.6287C8.57347 10.6287 8.29237 10.469 7.96442 10.469C8.29237 10.469 8.57346 10.469 8.71401 10.469C9.04196 10.469 9.18251 10.469 9.32306 10.469H9.51046ZM19.1146 11.8528C19.4426 11.8528 19.7237 12.0124 20.0516 12.0124C20.1922 12.1721 20.1922 12.385 20.3796 12.5447C18.5524 12.1721 16.7253 11.8528 14.7108 11.8528C14.5702 11.8528 14.3828 11.6931 14.3828 11.6931C14.0549 11.5334 13.9143 11.5334 13.6332 11.3206C13.6332 11.1609 13.6332 10.948 13.7738 10.948C15.4603 11.0012 17.2875 11.3206 19.1146 11.8528ZM14.5234 10.1497C15.2729 9.99 16.3505 9.77711 17.428 9.61744C17.756 9.61744 18.0371 9.61744 18.365 9.61744C18.5056 9.61744 18.5056 9.61744 18.693 9.7771C18.8335 9.93677 19.1615 10.3093 19.302 10.6287C19.4426 10.7883 19.4426 11.0012 19.63 11.0012H19.4894C17.756 10.6287 16.2099 10.3093 14.5234 10.1497ZM20.8012 10.1497C21.1291 10.3093 21.4102 10.5222 21.7382 10.8416L21.4102 11.3738C21.2697 11.3738 21.2697 11.3738 21.2697 11.3738C21.2697 11.3738 21.2697 11.3738 21.2697 11.2141C21.2697 10.8416 20.9417 10.469 20.8012 10.1497ZM20.0516 10.469C20.3795 10.6287 20.5201 11.0012 20.5201 11.3206C20.3327 11.0012 20.1922 10.8416 20.0516 10.469ZM20.6606 13.4495C20.9886 14.1413 21.1291 14.8332 21.2697 15.5251C19.9111 14.8332 18.6461 14.1413 17.428 13.4495C17.1001 13.2898 16.819 13.0769 16.491 12.9172C17.756 12.9172 19.302 13.0769 20.6606 13.4495ZM11.8061 8.39332C12.2746 8.23365 12.5557 8.23365 13.0242 8.02076C13.3521 8.02076 13.6332 8.18043 13.9612 8.18043C13.1647 8.39332 12.5557 8.39332 11.8061 8.39332ZM12.8368 10.8416V11.0012C12.3683 10.8416 11.8998 10.8416 11.2907 10.8416C11.4313 10.8416 11.6187 10.6819 11.7592 10.6819C12.0872 10.6287 12.4151 10.6287 12.8368 10.8416ZM10.8691 11.0012C10.8691 11.0012 10.7285 11.1609 10.7285 11.3738V11.427C10.588 11.3738 10.3537 11.3738 10.26 11.3738C10.4006 11.0012 10.5411 11.0012 10.8691 11.0012ZM12.4151 16.217C12.5557 16.3767 12.7431 16.5896 12.8836 16.7492C13.0242 17.6008 13.3521 18.2927 13.8206 18.9846C13.4927 18.612 13.071 18.2927 12.7431 17.9201C12.2746 17.3879 11.6655 16.696 11.3844 16.0041C11.6187 16.0574 11.9466 16.0574 12.4151 16.217ZM13.1647 13.2366C14.3828 13.7688 15.6009 14.4607 16.819 15.1526C16.0694 14.9929 15.1324 14.9929 14.3828 14.78C14.1017 14.4607 13.6332 13.9285 13.1647 13.2366ZM15.1324 16.9089C16.0694 17.6008 16.819 18.2927 17.756 18.8249C16.3973 18.2927 14.9919 17.6008 13.7738 16.5896C14.2423 16.7492 14.7108 16.7492 15.1324 16.9089ZM19.5831 17.4411C18.6461 17.0686 17.8965 16.5896 17.1469 16.0574C17.6154 16.0574 18.2245 16.217 18.693 16.217C19.0209 16.3767 19.302 16.5896 19.4426 16.7492C19.4426 16.7492 19.5831 16.7492 19.5831 16.9089C19.4426 17.0686 19.4426 17.2282 19.5831 17.4411ZM19.4426 18.6653C19.5363 18.5588 19.5831 18.3991 19.5363 18.3459C20.0048 18.5056 20.5669 18.6653 20.9886 18.8249C20.9886 18.9846 20.9886 19.1975 20.9886 19.1975C20.5201 19.1443 20.0516 18.9846 19.4426 18.6653ZM19.9111 17.6008C20.0516 17.4411 20.0516 17.4411 20.1922 17.4411C20.3327 17.6008 20.6606 17.8137 20.8012 17.9734C20.5201 17.7605 20.1922 17.7605 19.9111 17.6008ZM20.3327 16.5364C20.3327 16.3767 20.1922 16.1638 20.0048 16.0041C19.6768 15.6316 19.2552 15.6316 18.9272 15.4719C18.9272 15.4719 18.9272 15.4719 18.7867 15.4719C17.1001 14.4075 15.4135 13.3962 13.7269 12.4915C14.0549 12.4915 14.1954 12.4915 14.4765 12.4915C15.4135 13.0237 16.1631 13.343 17.1001 13.8752C18.4587 14.7268 20.0048 15.4187 21.3634 16.1106C21.3634 16.2702 21.3634 16.4831 21.3634 16.4831C21.3634 16.6428 21.3634 17.0154 21.3634 17.175C21.1291 17.0686 20.6606 16.7492 20.3327 16.5364ZM21.2697 12.7576H21.1291C21.1291 12.5979 20.9886 12.5979 20.9886 12.385C21.4571 12.5447 21.7382 12.7576 22.2067 12.9172C22.3472 13.0769 22.5346 13.0769 22.5346 13.2898V13.4495C22.2067 12.9172 21.7382 12.7576 21.2697 12.7576ZM22.0193 11.6931L22.1598 11.3206C22.1598 11.4802 22.1598 11.6931 22.3004 11.8528C22.3472 11.8528 22.2067 11.8528 22.0193 11.6931ZM22.4878 14.1413C22.3472 14.1413 22.3472 14.301 22.3472 14.5139C22.3472 14.7268 22.4878 14.6736 22.4878 14.8865C22.4878 15.259 22.4878 15.5784 22.3472 15.9509C22.2067 15.9509 22.0193 15.9509 22.0193 15.7912C21.8787 15.0994 21.6913 14.4075 21.5508 13.7156C21.8787 13.7688 22.3472 13.9285 22.4878 14.1413ZM22.4878 9.08521L22.3472 8.92555C22.2067 8.39332 21.8787 7.8611 21.7382 7.16921C22.0661 7.8611 22.4878 8.39332 22.6752 9.08521C22.4878 9.08521 22.4878 9.08521 22.4878 9.08521ZM21.8787 9.7771C21.4102 9.40455 20.8012 9.08521 20.1922 8.92555C20.1922 8.92555 20.3327 8.76588 20.3327 8.55299C20.3327 8.39332 20.1922 8.18043 20.0048 8.18043C19.3957 8.18043 18.7867 8.18043 18.3182 8.18043C17.9902 7.80787 17.5686 7.64821 17.2406 7.32887H17.3812C17.5217 7.32887 17.7091 7.16921 17.7091 6.95632C17.7091 6.74343 17.7091 6.79665 17.5686 6.58376C18.6461 7.00954 19.5831 7.32887 20.5201 8.02076C20.9886 8.55299 21.2697 8.87232 21.7382 9.24488C21.7382 9.45777 21.8787 9.61744 21.8787 9.7771ZM13.4458 6.47732C13.8206 6.37087 14.2423 6.31765 14.6639 6.2112C14.5702 6.31765 14.5234 6.42409 14.5234 6.63698C14.5234 6.79665 14.6639 7.00954 14.9919 7.00954C15.6009 6.84987 16.3505 7.00954 16.9595 7.00954C15.6009 7.00954 14.1954 7.16921 12.8368 7.54176C12.0872 7.32887 11.1502 7.16921 10.4006 7.32887C11.3376 7.00954 12.4151 6.63698 13.4458 6.47732ZM8.85456 11.5334C9.18251 11.6931 9.46361 11.6931 9.9321 11.906C9.18251 11.906 8.24552 12.0657 7.49593 12.0657C7.96442 11.8528 8.43292 11.6931 8.85456 11.5334ZM6.98058 15.8977C7.26168 16.5364 7.68332 17.1218 7.96442 17.6008C7.63648 17.4411 7.21483 17.2282 6.88688 17.0686C6.74633 16.696 6.74633 16.3767 6.88688 16.217C6.98058 16.1106 7.02743 16.0041 6.98058 15.8977ZM7.82387 12.9172C7.68332 13.0769 7.68332 13.2898 7.68332 13.4495C7.68332 13.6091 7.68332 13.822 7.82387 13.9817C7.68332 13.9817 7.49593 14.1413 7.49593 14.3542V14.5139C7.35538 14.5139 7.16798 14.5139 7.16798 14.5139C6.84003 13.9817 6.69948 13.6623 6.41839 13.1301C6.88688 13.0769 7.35538 12.9172 7.82387 12.9172ZM6.41839 18.2927C6.41839 18.4524 6.55894 18.4524 6.55894 18.6653C6.41839 18.6653 6.41839 18.8249 6.23099 18.8249C6.23099 18.8249 6.18414 18.8781 6.18414 18.9314C5.99674 18.3991 5.71564 17.9201 5.52825 17.4411L5.85619 17.6008C5.99674 17.6008 6.18414 17.7605 6.18414 17.7605C6.13729 17.9734 6.27784 18.133 6.41839 18.2927ZM6.13729 16.7492L5.2003 16.217C5.2003 16.217 5.2003 16.217 5.2003 16.0574C5.34085 15.8977 5.80934 15.8977 6.41839 15.6848C6.13729 16.0574 6.13729 16.3767 6.13729 16.7492ZM7.02743 20.5813C6.84003 20.1555 6.65263 19.7829 6.46524 19.3571C6.74633 19.5168 7.02743 19.6765 7.21483 19.8361C7.54278 20.3684 7.82387 20.7942 8.10497 21.2199C7.82387 21.007 7.44908 20.7942 7.02743 20.5813ZM7.96442 19.1443C7.82387 18.7717 7.63647 18.612 7.49593 18.2927C7.82387 18.4524 8.24552 18.6653 8.57347 18.8249C8.71401 19.1975 8.90141 19.5168 9.04196 19.6765C8.71401 19.6765 8.43292 19.3571 7.96442 19.1443ZM9.651 20.9006C9.97895 21.4328 10.1195 21.7522 10.26 22.2844C9.79155 21.7522 9.32306 21.2199 8.90141 20.528C9.18251 20.7409 9.32306 20.7409 9.651 20.9006ZM10.1195 20.2087C9.97895 19.8361 9.79155 19.6765 9.651 19.3571C9.79155 19.3571 9.79155 19.3571 9.97895 19.5168C10.3069 19.8894 10.7285 20.2087 11.0565 20.5813C10.7285 20.5813 10.4006 20.3684 10.1195 20.2087ZM10.4006 18.8249C9.9321 18.2927 9.46361 17.7605 9.18251 17.0686C8.85456 16.696 8.71401 16.217 8.43292 15.6848C8.57347 15.6848 8.90141 15.6848 9.04196 15.6848C9.36991 16.0574 9.79155 16.5364 10.26 17.0686C10.4006 17.2282 10.588 17.4411 10.7285 17.6008C10.7285 17.6008 10.588 17.6008 10.588 17.7605C10.4474 17.9201 10.588 18.2927 10.7285 18.2927C11.0565 18.4524 11.3376 18.6653 11.4781 18.8249C11.6187 18.9846 11.8061 19.3571 11.9466 19.5168C11.3376 19.1443 10.8691 18.9846 10.4006 18.8249ZM12.5557 20.5813C12.6962 20.7409 12.6962 20.9538 12.8836 21.1135C12.5557 20.9538 12.2746 20.5813 11.9466 20.4216C12.0872 20.3684 12.2277 20.3684 12.5557 20.5813ZM12.6962 19.3571C13.0242 19.5168 13.3053 19.7297 13.6332 19.8894L13.7738 20.049C13.4458 20.049 13.1647 19.8894 13.0242 19.6765C12.8368 19.6765 12.8368 19.5168 12.6962 19.3571ZM15.1324 21.2732C15.2729 21.2732 15.2729 21.4328 15.4603 21.4328C14.8513 21.4328 14.2423 21.2732 13.7738 21.2732C13.7738 21.1135 13.6332 21.1135 13.6332 20.9006C14.1017 21.0603 14.7108 21.0603 15.1324 21.2732ZM14.7108 24.3601H14.8513C16.2099 24.3601 17.6154 24.3601 18.8335 23.9875C19.302 23.9875 19.7705 23.8278 20.1922 23.6149C19.4426 24.4665 18.5056 24.9987 17.5686 25.5309C16.2099 25.1584 14.8045 24.8391 13.4458 24.1472C13.7738 24.1472 14.0549 24.1472 14.3828 24.1472C14.5234 24.3601 14.7108 24.3601 14.7108 24.3601ZM21.2697 24.5729C20.6606 25.1052 19.9111 25.4245 18.9741 25.7971C19.9111 25.2648 20.6606 24.5729 21.2697 23.7214C21.2697 23.7214 21.2697 23.7214 21.4102 23.7214C21.4102 23.7214 21.4102 23.7214 21.4102 23.8811C21.4102 24.0407 21.5508 24.2536 21.7382 24.2536C21.5976 24.3601 21.4102 24.5729 21.2697 24.5729ZM24.0338 22.8166C24.0338 22.6569 24.1744 22.2844 24.3618 22.1247C24.5023 22.1247 24.5023 22.1247 24.6897 22.1247C24.5023 22.444 24.3149 22.6569 24.0338 22.8166ZM23.7059 21.4328C22.7689 21.4328 21.8787 21.5925 21.0823 21.5925C21.2228 21.2199 21.4102 20.9006 21.5508 20.528C21.8787 20.528 22.3004 20.528 22.6283 20.528C22.9563 20.528 23.2374 20.528 23.5653 20.528C23.7059 20.528 23.8933 20.3684 23.8933 19.9958C23.8933 19.6233 23.7527 19.6233 23.4248 19.6233C23.0968 19.6233 22.6752 19.6233 22.3472 19.6233C22.2067 19.6233 22.0193 19.6233 21.8787 19.4636C22.0193 19.4636 22.0193 19.3039 22.2067 19.091C22.9563 19.2507 23.7527 19.4636 24.6429 19.6233C24.5023 20.2087 24.1744 20.9006 23.7059 21.4328ZM24.924 13.4495C24.924 13.2898 24.924 13.2898 24.924 13.0769C24.596 12.2253 24.1744 11.5334 23.7059 10.8416C23.7059 10.1497 23.5653 9.45777 23.2374 8.76588C22.9094 7.91432 22.3004 7.00954 21.6913 6.15798C23.987 8.07399 25.8141 10.8416 26.2826 13.6091C26.4231 14.8332 26.4231 15.8445 26.2826 17.0686C26.142 17.4411 26.142 17.7605 26.142 18.133C26.0015 18.5056 26.0015 18.8249 25.8141 18.9846C25.6735 18.9846 25.4862 18.9846 25.3456 18.9846C25.3456 18.612 25.3456 18.2927 25.3456 17.9201C25.3456 17.9201 25.3456 17.9201 25.4861 17.9201C25.6267 17.9201 25.8141 17.7605 25.8141 17.5476C26.1889 16.3767 25.8609 14.9929 24.924 13.4495ZM22.6283 2.6453C23.3779 3.17752 24.1744 4.02908 24.7834 4.88064C24.0338 4.13553 23.1905 3.55008 22.2535 3.1243C22.3004 3.1243 22.3472 3.1243 22.3472 3.1243C22.4878 3.17752 22.6283 3.01786 22.6283 2.6453ZM16.819 1.95341C16.9595 1.95341 16.9595 1.95341 16.9595 1.79374C17.2875 1.79374 17.7091 1.63407 18.0371 1.63407C19.1146 1.63407 20.3327 1.63407 21.4102 2.00663C21.5508 2.1663 21.8787 2.53885 21.8787 2.85819C21.8787 2.96463 21.9724 3.07108 22.113 3.1243C21.3634 2.80497 20.5669 2.59208 19.7237 2.48563C19.5831 2.48563 19.3957 2.6453 19.2552 2.85819C19.2552 3.01786 19.3957 3.23075 19.5831 3.39041C23.2374 3.76297 26.47 6.84987 27.407 10.8416C27.407 11.0012 27.5475 11.2141 27.7349 11.2141C27.7349 11.2141 27.7349 11.2141 27.8755 11.2141C28.016 11.2141 28.2034 10.8416 28.2034 10.6819C28.2034 10.5222 28.0629 10.1497 28.0629 9.99C28.5314 10.3626 28.8125 10.6819 28.9999 11.2141C29.7495 12.5979 30.0774 14.3542 29.7495 16.0574C29.4215 17.7605 28.5314 19.1975 27.3133 20.2087C27.1727 20.3684 27.1727 20.5813 27.1727 20.7409C26.7042 21.2732 26.2357 21.8054 25.6267 22.1247C26.2357 21.4328 26.7042 20.5813 26.9853 19.6765C27.1259 19.6765 27.3133 19.5168 27.3133 19.3039C27.3133 19.3039 27.3133 19.3039 27.3133 19.1443C28.0629 17.2282 28.5314 15.3122 28.3908 13.2366C28.3908 13.0769 28.2503 12.864 27.9223 12.864C27.7818 12.864 27.6881 12.9705 27.6412 13.2366C27.5944 12.4382 27.407 11.6399 27.0322 10.7883C26.4231 9.40455 25.4861 8.18043 24.1275 7.11598H23.987C22.9094 5.89187 21.8319 5.04031 20.4732 4.34842C20.3327 4.34842 20.1453 4.34842 20.0048 4.50808C18.7867 3.65653 17.5686 2.75174 16.1631 2.27274C16.2099 1.95341 16.5379 1.95341 16.819 1.95341ZM27.5944 14.301C27.5944 15.738 27.3133 17.175 26.7979 18.6653C26.7979 18.5056 26.7979 18.5056 26.7979 18.2927C26.9385 17.9201 26.9385 17.6008 27.1259 17.2282C27.3133 16.3235 27.5475 15.3655 27.5944 14.301ZM12.5557 3.17752C13.1647 2.80497 13.7738 2.6453 14.3828 2.48563C15.3198 2.6453 16.2099 3.01786 17.1469 3.55008C16.819 3.55008 16.6784 3.55008 16.3973 3.55008C15.0387 3.39041 13.6332 3.55008 12.4151 3.70975C12.5557 3.70975 12.6962 3.33719 12.5557 3.17752ZM11.4781 4.02908V4.18875C11.4781 4.56131 11.8061 4.56131 11.9466 4.56131C11.9935 4.56131 12.0872 4.56131 12.134 4.56131C10.4474 5.2532 8.90141 6.05153 7.49593 7.16921C7.16798 7.32887 6.74633 7.54176 6.27784 7.70143C6.41839 7.54176 6.60579 7.32887 6.74633 7.16921C8.24552 5.94509 9.79155 4.93386 11.4781 4.02908ZM2.76412 10.3093C2.90467 9.24488 3.51372 8.07399 4.45071 7.00954C5.52825 5.78542 6.88688 4.93386 8.29237 4.24197C9.04196 3.86941 9.8384 3.70975 10.588 3.39041C9.04196 4.24197 7.68332 5.30642 6.46524 6.6902C6.32469 6.6902 6.32469 6.84987 6.13729 7.06276C4.9192 8.12721 3.70111 9.51099 2.62357 10.8948C2.76412 10.469 2.76412 10.3093 2.76412 10.3093ZM3.51372 10.6287C3.84166 10.2561 4.12276 9.77711 4.59125 9.40455H4.7318C4.87235 9.40455 4.87235 9.40455 5.05975 9.24488C5.24715 9.08521 5.3877 8.87232 5.3877 8.71266C5.3877 8.87232 5.3877 9.08521 5.3877 9.24488C5.3877 9.40455 5.52825 9.61744 5.52825 9.61744C4.9192 9.93677 4.12276 10.3093 3.51372 10.6287ZM6.13729 11.3206C6.60578 11.3206 6.88688 11.3206 7.35538 11.3206C6.41839 11.6931 5.66879 12.0124 4.7318 12.5447C5.2003 12.0124 5.66879 11.6931 6.13729 11.3206ZM1.54603 17.0686C1.54603 16.696 1.87398 16.217 2.29563 16.0041H2.43618H2.57672C2.71727 15.8445 2.71727 15.6316 2.71727 15.4719C2.38933 14.9397 2.85782 14.2478 3.46687 13.7156C3.60741 13.5559 3.93536 13.1833 4.21646 13.0237C4.21646 13.0237 4.21646 13.0237 4.21646 13.1833C4.21646 13.343 4.54441 13.5559 4.68495 13.5559C5.0129 13.5559 5.43455 13.3962 5.76249 13.3962C5.90304 13.7688 6.23099 14.2478 6.37154 14.6203C5.90304 14.6203 5.294 14.6203 4.8255 14.6203V14.4607C4.96605 14.301 4.8255 14.0881 4.68495 13.9285C4.54441 13.7688 4.35701 13.7688 4.21646 13.9285C4.07591 14.0881 4.07591 14.301 3.88851 14.6203C3.74796 14.6203 3.74796 14.6203 3.56056 14.6203C3.42002 14.6203 3.23262 14.78 3.23262 14.9929C3.23262 15.1526 3.37317 15.3655 3.56056 15.3655C3.56056 15.5251 3.56056 15.5251 3.56056 15.738C3.42002 15.738 3.42002 15.8977 3.42002 15.8977C3.42002 16.0574 3.42002 16.2702 3.56056 16.4299C3.56056 16.5896 3.56056 16.9621 3.56056 17.1218V17.2815C3.56056 17.4411 3.56056 17.4411 3.56056 17.654C3.42002 17.4944 3.23262 17.2815 3.09207 17.1218C3.09207 16.9621 3.09207 16.7492 2.95152 16.7492C2.81097 16.5896 2.48303 16.5896 2.48303 16.7492C2.01453 17.4411 1.87398 18.5056 2.15508 19.5168C2.01453 19.5168 2.01453 19.5168 1.82713 19.6765C1.82713 19.5168 1.68658 19.1443 1.49918 18.9846C1.54603 18.2927 1.35864 17.7605 1.54603 17.0686ZM3.04522 28.1921C2.57672 27.5002 2.29563 26.6486 1.96768 25.9567C1.49919 24.8923 1.49919 23.8811 1.35864 22.6569C1.35864 22.1247 1.35864 21.5925 1.21809 21.1135C1.21809 20.5813 1.07754 20.2619 0.890141 19.7297C0.749593 19.0378 0.562194 18.5056 0.562194 17.9734C0.562194 18.5056 0.702743 18.8249 0.890141 19.1975C1.82713 22.3376 3.32632 25.2648 5.34085 27.7131C4.45071 27.8727 3.65426 28.0324 3.04522 28.1921ZM6.41839 27.6598C6.09044 27.2873 5.80934 26.8083 5.4814 26.4357C6.23099 26.968 7.16798 27.2873 8.10497 27.5002C7.49593 27.5002 6.88688 27.6598 6.41839 27.6598ZM9.32306 26.8083C8.57346 26.4357 7.77702 25.9567 7.02743 25.2648C7.96442 25.7971 8.85456 26.3293 9.79155 26.6486C9.51046 26.6486 9.32306 26.6486 9.32306 26.8083ZM11.3376 26.2761C11.197 26.2761 11.0096 26.2761 11.0096 26.1164C10.6817 25.7438 10.4006 25.4245 10.0727 25.0519C10.6817 25.5842 11.1502 25.9035 11.7592 26.2761C11.6187 26.2761 11.4781 26.2761 11.3376 26.2761ZM8.24552 22.444C8.24552 22.2844 8.10497 22.2844 8.10497 22.0715C8.85456 22.6037 9.79155 23.1359 10.5411 23.6149C10.8691 23.9875 11.1502 24.3068 11.4781 24.4665C11.6187 24.8391 11.8061 25.1584 11.9466 25.5309C10.7285 24.7326 9.32306 23.6682 8.24552 22.444ZM11.4781 22.8166C11.1502 22.2844 11.0096 21.965 10.7285 21.4328C11.3376 21.5925 11.9466 21.8054 12.6962 21.965C13.0242 22.1247 13.3053 22.3376 13.6332 22.4973C13.7738 22.6569 13.9612 23.0295 13.9612 23.1892C13.4927 23.1892 13.0242 23.1892 12.6025 23.0295C12.0872 22.9763 11.8061 22.8166 11.4781 22.8166ZM13.6332 26.489C13.4927 26.489 13.3053 26.3293 13.1647 26.3293V26.1696C13.1647 26.01 13.0242 26.0099 13.0242 25.7971H13.1647C13.3053 25.7971 13.4927 25.7971 13.4927 25.6374C13.6332 25.4777 13.5395 25.2648 13.4458 25.1584C14.4765 25.6374 15.5072 26.01 16.5847 26.1696C15.6009 26.2761 14.5234 26.489 13.6332 26.489Z" fill="#F8F3E5"/>
<path d="M0.726085 18.6637C0.279243 16.995 0.431745 15.2198 1.33231 13.3524C2.28705 11.6872 3.63845 10.2409 4.67465 9.42109C6.29643 7.90228 8.24741 6.89139 10.0497 5.86618L10.2255 5.98164C9.28383 6.6135 8.32865 7.1948 7.68913 8.23344C7.59456 8.42139 7.59456 8.42139 7.46848 8.67199C5.39609 10.3116 3.40049 12.4184 2.62201 15.2829L2.66263 15.4346C2.21246 16.6393 1.92455 17.9088 1.97471 19.3587C2.14674 21.2637 2.94964 22.9996 4.29772 24.4267C5.15433 25.281 5.862 25.579 6.63715 25.588C7.16923 26.3125 7.98523 27.015 8.56681 27.5637C8.47225 27.7516 8.47225 27.7516 8.52641 27.9539C6.6336 27.9194 4.71326 26.7 3.58583 24.8343C2.24197 22.7015 1.84885 20.1512 1.86617 18.4122C1.82555 18.2605 1.73076 17.9066 1.41533 17.9911C1.41533 17.9911 1.41533 17.9911 1.28014 18.0274C1.14496 18.0636 1.00533 18.2637 1.05949 18.4659C1.09634 20.4072 1.34984 23.1575 2.91457 25.3937C4.29905 27.6782 6.58898 29.0154 8.75216 28.9773C8.88735 28.9411 9.0676 28.8928 9.02697 28.7411C10.3209 29.9659 11.8987 31.1688 13.7376 31.5429C13.8728 31.5066 13.8728 31.5066 14.0936 31.61C14.3145 31.7134 14.639 31.8432 14.95 31.9224C15.6306 32.1193 16.3516 31.926 17.0635 31.5183C18.2351 31.2042 19.4922 30.4877 20.5825 29.8702C20.898 29.7856 21.1277 29.5614 21.5783 29.4406C21.5783 29.4406 21.5783 29.4406 21.7135 29.4043C23.4305 29.3234 25.0934 29.0401 26.4856 28.2874C26.6208 28.2512 26.7604 28.0511 26.6656 27.6972C26.625 27.5455 26.4357 27.3794 26.1202 27.464C25.4399 27.809 24.5386 28.0507 23.777 28.0923C24.8538 27.4242 25.9442 26.8066 26.9398 25.8351L27.075 25.7989C28.2057 24.7911 29.3409 23.6196 30.0118 21.9763C30.7367 20.5354 31.1057 19.0273 30.9294 17.828C30.8346 17.474 30.7534 17.1706 30.3432 16.9012C30.4377 16.7133 30.5638 16.4627 30.5232 16.311C30.6584 16.2747 30.798 16.0747 30.798 16.0747C30.8926 15.8868 30.8384 15.6845 30.7978 15.5328C30.8923 15.3448 31.0184 15.0942 30.9778 14.9425C31.0724 14.7546 30.8424 14.4369 30.7072 14.4731L30.572 14.5093C30.4368 14.5456 30.4368 14.5456 30.2972 14.7456C30.0766 15.1842 30.0226 15.5238 29.847 15.9503C29.0812 16.6976 28.3605 17.4329 27.5405 17.9779C27.635 17.79 27.635 17.79 27.5944 17.6383C28.18 16.9393 28.5898 16.1248 29.1798 15.262C29.7247 14.4113 29.8235 13.5177 29.6475 12.8603C29.9223 12.624 30.2331 12.1613 30.3321 11.8096C30.5079 11.925 30.7827 11.6888 30.7421 11.5371C31.0164 10.2169 30.5698 9.09012 29.9971 8.21391C29.7671 7.89618 29.6453 7.44107 29.3702 7.13543C29.2348 6.62975 28.9642 6.16032 28.883 5.85691C28.4364 4.73011 28.1791 3.76932 27.4171 2.72709C26.885 2.00258 26.4386 1.41769 25.8119 0.881136C25.9471 0.844889 25.9065 0.693185 25.9065 0.693185C25.8659 0.541482 25.6765 0.375458 25.2259 0.49628C25.5035 -0.270764 24.7764 0.0800773 24.7764 0.0800773C24.4328 0.258331 24.4328 0.258331 24.4328 0.258331C23.47 0.516494 23.3348 0.55274 23.47 0.516494C22.9886 0.645575 22.5072 0.774656 22.1547 1.38548C20.5852 1.74056 20.5488 2.5091 15.8173 3.77773C14.3754 4.16436 13.9383 4.33576 11.2663 5.53996C11.4017 6.04564 3.82226 7.86109 8.14374 6.86499C6.93174 7.56934 5.70175 8.38692 4.57099 9.39468C3.44023 10.4024 1.85441 11.6948 0.953839 13.5622C0.0712504 15.3164 -0.27038 17.4676 0.235065 19.1748C0.280126 19.1627 0.428851 19.177 0.564036 19.1408C0.67214 19.0034 0.766707 18.8154 0.726085 18.6637ZM22.1266 3.712C22.7531 3.70663 23.2985 3.93978 23.9655 4.08612C24.1007 4.04987 24.2809 4.00155 24.4161 3.9653C25.0428 4.50186 25.71 5.19012 26.2916 5.73876C24.8221 4.9404 23.5149 4.20694 22.1266 3.712ZM27.2432 7.48894C27.2839 7.64064 27.4732 7.80667 27.5138 7.95837C27.1036 7.68897 26.752 7.45806 26.522 7.14033C26.6978 7.25579 27.0539 7.32291 27.2432 7.48894ZM25.702 7.68538C26.2881 8.07023 26.9147 8.60679 27.4017 9.34338C27.6723 9.81281 27.8077 10.3185 27.7538 10.6581C27.3436 10.3887 26.8568 10.1941 26.4466 9.92468C25.9551 9.35187 25.5087 8.76699 24.9227 8.38213C23.9309 7.56409 22.8669 6.657 21.8751 5.83896C23.6374 6.28782 24.7238 6.91791 25.702 7.68538ZM24.8827 9.8562C25.2929 10.1256 25.5094 10.3928 25.9151 10.8259C26.366 11.247 26.4608 11.601 26.542 11.9044C26.0099 11.1799 25.3742 10.429 24.8827 9.8562ZM23.9366 21.6541C23.5266 21.9266 23.076 22.0474 22.4902 22.2045C23.1164 21.6572 23.9364 21.1122 24.5626 20.5649C25.243 20.2199 25.9549 19.8122 26.6352 19.4672C26.32 20.0937 25.8696 20.7564 25.5003 21.1807C25.1848 21.2652 25.0903 21.4532 24.9551 21.4894C24.6803 21.7257 24.5451 21.7619 24.3289 22.0367L24.2882 21.885C24.3873 21.5333 24.2521 21.5695 23.9366 21.6541ZM13.1174 24.7176C13.1174 24.7176 13.1174 24.7176 13.2526 24.6814C14.1676 25.0322 15.1456 25.2578 16.083 25.3316C15.9478 25.3678 15.6775 25.4403 15.7181 25.592C15.7589 26.2857 15.7996 26.4374 16.1241 26.5672C17.9223 26.7896 19.5985 26.015 21.1259 25.226C21.8063 24.881 22.3379 24.5217 23.0227 24.0129C21.401 25.5317 19.3148 26.5788 17.242 27.1346C16.6155 27.14 15.9756 27.0948 15.3085 26.9484C15.1733 26.9847 15.1327 26.833 14.9525 26.8813C14.5964 26.8142 14.2313 26.5327 13.8346 26.3138C13.9292 26.1259 13.875 25.9236 13.8344 25.7719C13.6044 25.4542 13.3338 24.9848 13.1174 24.7176ZM9.05385 17.298C9.05407 17.8399 9.18947 18.3456 9.27072 18.649C9.27072 18.649 9.27072 18.649 9.13553 18.6853C8.90556 18.3675 8.86494 18.2158 8.60345 17.9608C8.33286 17.4913 7.88202 17.0702 7.66559 16.8031C7.17413 16.2303 6.9981 15.5729 6.86269 15.0672C7.6243 15.0256 8.44452 15.0225 9.20613 14.9809C9.0261 15.5711 9.02632 16.113 9.013 16.6044C8.87782 16.6406 8.73819 16.8407 8.79235 17.0429C8.84652 17.2452 8.91866 17.3343 9.05385 17.298ZM11.2419 11.9419C11.8277 11.7848 12.2783 11.664 12.8641 11.5069C13.8601 11.6193 14.7976 11.6931 15.699 11.9934C16.1092 12.2628 16.3257 12.53 16.6908 12.8114C16.9208 13.1292 17.1823 13.3842 17.4529 13.8537C15.8753 13.1927 14.2122 12.934 12.6033 12.8776C12.5627 12.7259 12.3327 12.4082 12.1525 12.4565C12.0173 12.4928 11.8776 12.6928 11.7966 12.9313C11.1702 12.9367 10.5302 12.8915 9.94443 13.0486C9.94421 12.5066 10.1784 12.1187 10.2188 11.7284C10.354 11.6922 10.354 11.6922 10.5342 11.6439L10.6694 11.6076C10.6694 11.6076 10.5748 11.7956 10.629 11.9978C10.9309 11.8627 11.1067 11.9781 11.2419 11.9419ZM12.2008 9.57105C12.336 9.5348 12.5163 9.48648 12.7866 9.41398C13.5483 9.37237 14.3685 9.36924 15.1707 9.47934C15.0355 9.51558 14.7201 9.60016 14.5443 9.4847C14.0937 9.60552 13.643 9.72634 13.3727 9.79884C13.0031 9.68114 12.5118 9.65026 12.2008 9.57105ZM21.7937 15.9959C21.9288 15.9596 22.0685 15.7596 21.9737 15.4056C22.2891 15.3211 22.5595 15.2486 22.8749 15.164C23.4609 15.5488 23.8667 15.982 23.9073 16.1337C23.9073 16.1337 23.9073 16.1337 23.948 16.2854C23.8128 16.3217 23.4028 16.5942 21.7397 16.3355L21.6991 16.1838C21.5233 16.0684 21.2889 15.9144 21.0724 15.6473C21.0724 15.6473 21.0724 15.6473 21.2076 15.611L21.2483 15.7627C21.3024 15.965 21.6585 16.0321 21.7937 15.9959ZM20.7337 13.8412C21.1439 14.1106 21.3197 14.226 21.6713 14.4569C21.5362 14.4932 21.5362 14.4932 21.3559 14.5415C21.171 14.2117 20.9546 13.9445 20.7337 13.8412ZM22.7315 17.1536C22.0105 17.3469 21.4653 17.6557 20.6993 17.8611C20.5641 17.8973 20.5641 17.8973 20.3432 17.7939C20.1133 17.4762 19.8924 17.3728 19.676 17.1057C19.6354 16.954 19.5812 16.7517 19.5406 16.6C21.1135 16.8828 22.1051 17.1589 22.7315 17.1536ZM23.8458 20.0525C23.3952 20.1733 23.1655 20.3975 22.5797 20.5546C21.7191 20.9479 20.8629 21.1775 19.9617 21.4191C19.9617 21.4191 19.921 21.2674 20.0562 21.2312C20.4662 20.9587 21.052 20.8016 21.4485 20.4785C22.3182 20.2995 23.0798 20.2579 23.8458 20.0525ZM23.4489 19.2917C23.5841 19.2555 23.8589 19.0192 23.9941 18.983C24.3096 18.8984 24.6206 18.9776 24.936 18.893C24.6206 18.9776 24.3502 19.0501 24.215 19.0863C23.8996 19.1709 23.7644 19.2072 23.6292 19.2434L23.4489 19.2917ZM13.8592 20.4538C13.5438 20.5384 13.2328 20.4592 12.9174 20.5438C12.7416 20.4283 12.6874 20.226 12.4665 20.1227C14.3187 20.0054 16.1574 19.8376 18.095 19.3181C18.2302 19.2819 18.4511 19.3852 18.4511 19.3852C18.8071 19.4524 18.9423 19.4161 19.2669 19.5459C19.3075 19.6976 19.3617 19.8999 19.2265 19.9361C17.5907 20.3205 15.7521 20.4883 13.8592 20.4538ZM18.7086 20.8879C18.0282 21.233 17.046 21.7131 16.0502 22.1427C15.7347 22.2273 15.4644 22.2998 15.1489 22.3844C15.0137 22.4206 15.0138 22.4206 14.7929 22.3172C14.6171 22.2018 14.2069 21.9324 13.9904 21.6652C13.8146 21.5498 13.7605 21.3475 13.5802 21.3958L13.7154 21.3596C15.4775 21.2665 17.0457 21.1712 18.7086 20.8879ZM12.6703 22.507C12.3143 22.4398 11.9897 22.3101 11.5931 22.0912L11.7731 21.501C11.9083 21.4647 11.9083 21.4647 11.9083 21.4647C11.9083 21.4647 11.9083 21.4647 11.9489 21.6164C12.0437 21.9704 12.4539 22.2398 12.6703 22.507ZM13.3101 22.0102C12.954 21.9431 12.724 21.6254 12.6428 21.322C12.9043 21.577 13.0801 21.6925 13.3101 22.0102ZM11.966 19.3355C11.4745 18.7627 11.1633 18.1416 10.8521 17.5204C12.3349 17.8274 13.7276 18.1586 15.0752 18.5018C15.4313 18.569 15.7558 18.6987 16.1119 18.7659C14.8952 19.0921 13.3676 19.3391 11.966 19.3355ZM21.769 21.8559C21.359 22.1284 21.0886 22.2009 20.6922 22.524C20.3768 22.6086 20.0658 22.5294 19.7503 22.614C20.4622 22.2063 21.048 22.0492 21.769 21.8559ZM20.1548 19.7956L20.1142 19.6439C20.6054 19.6748 21.056 19.554 21.6418 19.3969C21.5066 19.4331 21.367 19.6332 21.2318 19.6694C20.9299 19.8046 20.6145 19.8891 20.1548 19.7956ZM22.0068 19.1364C22.0068 19.1364 22.1013 18.9485 22.0472 18.7462L22.0336 18.6957C22.1823 18.71 22.4076 18.6496 22.4978 18.6254C22.4574 19.0156 22.3222 19.0519 22.0068 19.1364ZM19.1927 14.5795C19.0169 14.4641 18.7825 14.3101 18.6067 14.1947C18.2549 13.4218 17.7634 12.849 17.1368 12.3125C17.547 12.5819 18.0338 12.7765 18.444 13.0459C19.03 13.4308 19.7919 13.9311 20.2383 14.516C19.9994 14.5258 19.684 14.6104 19.1927 14.5795ZM19.23 17.6046C17.923 17.4131 16.5754 17.0698 15.2277 16.7266C15.9894 16.685 16.8906 16.4434 17.6657 16.4523C18.0174 16.6832 18.6034 17.0681 19.23 17.6046ZM16.4031 14.6229C15.3259 14.2072 14.4288 13.7431 13.3922 13.4791C14.8344 13.6344 16.3623 13.9293 17.7912 14.5759C17.2999 14.5451 16.8493 14.6659 16.4031 14.6229ZM11.9869 15.265C12.9829 15.3774 13.8257 15.6392 14.6821 15.9515C14.2315 16.0724 13.6051 16.0777 13.1545 16.1985C12.7984 16.1314 12.4739 16.0016 12.2981 15.8862C12.2981 15.8862 12.1629 15.9224 12.1223 15.7707C12.2168 15.5828 12.1762 15.4311 11.9869 15.265ZM11.8106 14.0657C11.7476 14.191 11.7431 14.3548 11.8017 14.3933C11.3105 14.3624 10.7291 14.3557 10.2829 14.3128C10.2423 14.1611 10.1882 13.9588 10.1882 13.9588C10.6523 13.8885 11.1436 13.9194 11.8106 14.0657ZM11.6308 15.1979C11.5362 15.3859 11.5362 15.3859 11.4011 15.4221C11.2252 15.3067 10.8556 15.189 10.6798 15.0735C11.0044 15.2033 11.3198 15.1187 11.6308 15.1979ZM11.4961 16.318C11.5367 16.4697 11.726 16.6357 11.9469 16.7391C12.3571 17.0085 12.7627 16.8998 13.1187 16.9669C13.1187 16.9669 13.1187 16.9669 13.2539 16.9307C15.1469 17.507 17.0264 18.0329 18.8788 18.4576C18.5634 18.5421 18.4282 18.5784 18.1579 18.6509C17.1212 18.3868 16.319 18.2768 15.2823 18.0127C13.7589 17.554 12.0958 17.2954 10.613 16.9884C10.5724 16.8367 10.5182 16.6344 10.5182 16.6344C10.4776 16.4827 10.3828 16.1287 10.3422 15.977C10.5946 16.0177 11.1265 16.2003 11.4961 16.318ZM11.5562 20.15L11.6914 20.1137C11.732 20.2654 11.8672 20.2292 11.9214 20.4314C11.4301 20.4006 11.1056 20.2708 10.6144 20.2399C10.4385 20.1244 10.2583 20.1728 10.2041 19.9705L10.1635 19.8188C10.6144 20.2399 11.1056 20.2708 11.5562 20.15ZM11.106 21.3546L11.0656 21.7448C11.025 21.5931 10.9708 21.3909 10.795 21.2754C10.75 21.2875 10.8852 21.2513 11.106 21.3546ZM10.0325 19.1493C10.1677 19.1131 10.1271 18.9614 10.0729 18.7591C10.0188 18.5568 9.89714 18.6437 9.84298 18.4414C9.74819 18.0874 9.66695 17.784 9.70735 17.3938C9.84253 17.3575 10.0228 17.3092 10.0634 17.4609C10.3746 18.0821 10.7309 18.6911 11.0421 19.3122C10.7131 19.3462 10.2219 19.3154 10.0325 19.1493ZM11.3189 23.9533L11.4947 24.0687C11.7653 24.5382 12.2161 24.9593 12.5274 25.5804C12.0359 25.0076 11.4949 24.6106 11.1387 24.0016C11.3189 23.9533 11.3189 23.9533 11.3189 23.9533ZM11.7287 23.1388C12.2741 23.372 12.9411 23.5183 13.5676 23.5129C13.5676 23.5129 13.473 23.7009 13.5272 23.9032C13.5678 24.0549 13.7571 24.2209 13.9374 24.1726C14.5232 24.0155 15.109 23.8584 15.5596 23.7376C15.9698 24.007 16.416 24.05 16.8127 24.2688L16.6775 24.305C16.5423 24.3413 16.4027 24.5413 16.4568 24.7436C16.511 24.9459 16.4975 24.8953 16.6868 25.0613C15.5421 24.9347 14.5596 24.8729 13.4823 24.4572C12.8963 24.0723 12.5447 23.8414 11.9993 23.6082C11.9451 23.406 11.7693 23.2905 11.7287 23.1388ZM20.6793 24.0992C20.3459 24.297 19.9539 24.4563 19.5754 24.6662C19.6385 24.5409 19.6564 24.4277 19.6023 24.2254C19.5617 24.0737 19.3723 23.9077 19.0569 23.9923C18.5117 24.301 17.7501 24.3426 17.1643 24.4997C18.4711 24.1493 19.7823 23.6352 20.9943 22.9308C21.7695 22.9398 22.7113 22.8498 23.3917 22.5048C22.5717 23.0498 21.63 23.6817 20.6793 24.0992ZM23.809 18.1112C23.4529 18.0441 23.1826 18.1166 22.6778 18.0352C23.3988 17.8418 24.2594 17.4485 24.9804 17.2552C24.5839 17.5783 24.1739 17.8508 23.809 18.1112ZM24.5011 13.4814C24.0683 12.9471 23.5138 12.4996 23.1215 12.117C23.4776 12.1841 23.9373 12.2776 24.2934 12.3447C24.5233 12.6625 24.6046 12.9659 24.51 13.1538C24.447 13.2791 24.429 13.3923 24.5011 13.4814ZM24.4483 16.5307C24.5429 16.3427 24.4887 16.1404 24.4481 15.9887C24.4075 15.837 24.3533 15.6348 24.1775 15.5193C24.3127 15.4831 24.4523 15.283 24.3981 15.0808L24.3575 14.9291C24.4927 14.8928 24.6729 14.8445 24.6729 14.8445C25.1238 15.2656 25.3402 15.5327 25.746 15.9659C25.3089 16.1373 24.8989 16.4098 24.4483 16.5307ZM24.4325 11.0609C24.3919 10.9092 24.2567 10.9454 24.2026 10.7431C24.3378 10.7069 24.2971 10.5552 24.4774 10.5069C24.4774 10.5069 24.5089 10.4442 24.4954 10.3936C24.811 10.851 25.2033 11.2336 25.5054 11.6404L25.1493 11.5733C25.0141 11.6095 24.7933 11.5061 24.7933 11.5061C24.7842 11.2918 24.6084 11.1763 24.4325 11.0609ZM25.0956 12.4548L26.1322 12.7189C26.1322 12.7189 26.1322 12.7189 26.1729 12.8706C26.0783 13.0585 25.6277 13.1793 25.096 13.5387C25.2716 13.1122 25.1904 12.8088 25.0956 12.4548ZM23.2645 9.04353C23.5531 9.39974 23.8281 9.70538 24.1167 10.0616C23.8057 9.98239 23.4947 9.90318 23.2738 9.7998C22.823 9.3787 22.4443 9.04665 22.0656 8.71461C22.3901 8.84438 22.8048 8.95 23.2645 9.04353ZM22.7289 10.6505C22.9588 10.9682 23.1797 11.0716 23.3961 11.3388C23.0401 11.2716 22.5804 11.1781 22.2243 11.111C21.9943 10.7932 21.7328 10.5382 21.557 10.4227C21.8725 10.3381 22.2241 10.569 22.7289 10.6505ZM20.6598 9.41672C20.209 8.99562 19.9925 8.72846 19.7219 8.25903C20.308 8.64389 20.894 9.02874 21.4756 9.57738C21.151 9.44761 21.0158 9.48385 20.6598 9.41672ZM20.3852 10.1949C20.6152 10.5127 20.836 10.616 21.0525 10.8832C20.9173 10.9194 20.9173 10.9194 20.6964 10.8161C20.2862 10.5467 19.7994 10.352 19.3892 10.0826C19.7046 9.99802 20.0742 10.1157 20.3852 10.1949ZM20.4669 11.5822C21.0529 11.967 21.6389 12.3519 22.0853 12.9368C22.4956 13.2062 22.7526 13.625 23.1584 14.0582C23.0232 14.0945 22.7078 14.179 22.5726 14.2153C22.1624 13.9459 21.6349 13.5995 21.0489 13.2147C20.8731 13.0992 20.6387 12.9453 20.4629 12.8298C20.4629 12.8298 20.5981 12.7936 20.5575 12.6419C20.652 12.4539 20.4221 12.1362 20.2869 12.1724C19.9308 12.1053 19.6063 11.9755 19.4305 11.8601C19.2547 11.7446 18.9796 11.439 18.8038 11.3235C19.4844 11.5204 19.9757 11.5513 20.4669 11.5822ZM17.9472 10.4692C17.7714 10.3538 17.7172 10.1515 17.4964 10.0481C17.8524 10.1153 18.2176 10.3967 18.5736 10.4639C18.452 10.5507 18.3168 10.5869 17.9472 10.4692ZM18.1235 11.6685C17.7674 11.6014 17.4429 11.4716 17.0868 11.4045L16.911 11.289C17.2264 11.2045 17.5374 11.2837 17.7268 11.4497C17.907 11.4014 17.9477 11.5531 18.1235 11.6685ZM15.2928 10.4764C15.1576 10.5126 15.117 10.3609 14.9367 10.4092C15.5225 10.2522 16.149 10.2468 16.5996 10.126C16.6402 10.2777 16.7754 10.2414 16.8295 10.4437C16.3383 10.4128 15.7525 10.5699 15.2928 10.4764ZM14.913 7.4347L14.7778 7.47095C13.471 7.82133 12.1192 8.1838 11.0423 8.85191C10.5917 8.97273 10.1817 9.24526 9.83033 9.55627C10.3347 8.55387 11.1005 7.80655 11.8663 7.05923C13.2679 7.06282 14.701 7.00376 16.1838 7.31076C15.8684 7.39533 15.598 7.46782 15.2826 7.5524C15.0932 7.38638 14.913 7.4347 14.913 7.4347ZM8.55018 8.92394C9.00058 8.26119 9.64032 7.76448 10.4468 7.16886C9.68094 7.91618 9.13598 8.76687 8.76683 9.73302C8.76683 9.73302 8.76683 9.73302 8.63165 9.76927C8.63165 9.76927 8.63165 9.76927 8.59103 9.61757C8.5504 9.46586 8.36106 9.29984 8.18081 9.34817C8.28891 9.21078 8.415 8.96019 8.55018 8.92394ZM6.33838 11.3055C6.37901 11.4572 6.3386 11.8474 6.19898 12.0475C6.06379 12.0837 6.06379 12.0837 5.88355 12.1321C5.98255 11.7803 6.10864 11.5297 6.33838 11.3055ZM7.00587 12.5357C7.90711 12.2941 8.72266 11.9128 9.48871 11.7074C9.44831 12.0976 9.3493 12.4494 9.3089 12.8396C8.99347 12.9242 8.58791 13.0329 8.27248 13.1175C7.95705 13.202 7.68668 13.2745 7.37125 13.3591C7.23606 13.3954 7.09644 13.5954 7.19122 13.9494C7.28601 14.3033 7.42119 14.2671 7.73663 14.1825C8.05206 14.0979 8.45761 13.9892 8.77304 13.9046C8.90823 13.8684 9.08848 13.82 9.26428 13.9355C9.1291 13.9718 9.16972 14.1235 9.04364 14.3741C8.28203 14.4157 7.46181 14.4188 6.56502 14.4967C6.55126 13.9042 6.69066 13.1622 7.00587 12.5357ZM7.86537 20.435C7.90599 20.5867 7.90599 20.5867 7.96015 20.789C8.49223 21.5135 9.07382 22.0621 9.70046 22.5987C9.87649 23.2561 10.1877 23.8772 10.6792 24.45C11.2112 25.1745 12.0272 25.8771 12.8297 26.5291C10.1342 25.3007 7.67268 23.1424 6.51795 20.6337C6.07133 19.5069 5.81406 18.5461 5.63781 17.3468C5.67821 16.9566 5.59697 16.6532 5.50218 16.2992C5.54258 15.909 5.46134 15.6055 5.60096 15.4055C5.73615 15.3693 5.9164 15.3209 6.05158 15.2847C6.14637 15.6387 6.22761 15.9421 6.32239 16.296C6.32239 16.296 6.3224 16.296 6.18721 16.3323C6.05203 16.3685 5.9124 16.5686 5.96656 16.7708C5.90396 17.98 6.57145 19.2102 7.86537 20.435ZM12.8221 30.1082C11.9658 29.7958 10.9831 29.1922 10.1806 28.5401C11.0912 29.0548 12.0512 29.3935 13.0608 29.5564C13.0157 29.5685 12.9706 29.5806 12.9706 29.5806C12.8219 29.5663 12.7274 29.7542 12.8221 30.1082ZM18.5858 29.2674C18.4506 29.3036 18.4506 29.3036 18.4913 29.4553C18.1758 29.5399 17.8109 29.8004 17.4955 29.8849C16.459 30.1628 15.2874 30.477 14.1562 30.4009C13.9804 30.2854 13.5702 30.016 13.489 29.7126C13.4619 29.6115 13.3447 29.5345 13.196 29.5202C13.9982 29.6303 14.8184 29.6272 15.6566 29.5108C15.7918 29.4746 15.9314 29.2745 16.0124 29.036C15.9718 28.8843 15.7825 28.7183 15.5616 28.6149C11.952 29.2033 8.05737 27.1041 6.14059 23.5532C6.09997 23.4015 5.91062 23.2354 5.73037 23.2838C5.73037 23.2838 5.73037 23.2838 5.59519 23.32C5.46 23.3563 5.37454 23.7586 5.41516 23.9103C5.45578 24.062 5.68575 24.3797 5.72637 24.5314C5.18097 24.2982 4.82936 24.0673 4.51371 23.61C3.44066 22.4885 2.67839 20.9044 2.56052 19.2016C2.44265 17.4989 2.93322 15.904 3.84755 14.6291C3.94212 14.4411 3.88796 14.2389 3.84734 14.0872C4.16255 13.4607 4.47775 12.8342 4.98231 12.3737C4.57254 13.1881 4.33857 14.118 4.29839 15.0502C4.16321 15.0864 4.02358 15.2865 4.07775 15.4887C4.07775 15.4887 4.07775 15.4887 4.11837 15.6404C3.88485 17.6542 3.92169 19.5955 4.58496 21.5313C4.62558 21.683 4.81493 21.8491 5.13036 21.7645C5.26555 21.7282 5.32859 21.603 5.30595 21.338C5.55412 22.0845 5.93748 22.7946 6.51462 23.5071C7.45248 24.6648 8.66515 25.5862 10.2428 26.2471L10.3779 26.2109C11.7258 27.0961 12.9789 27.6273 14.4617 27.9343C14.5969 27.898 14.7771 27.8497 14.8717 27.6617C16.2599 28.1567 17.6617 28.7022 19.1354 28.7948C19.1716 29.1103 18.8562 29.1949 18.5858 29.2674ZM5.0802 20.3146C4.7146 18.9493 4.61937 17.5114 4.73591 15.9626C4.77653 16.1144 4.77653 16.1144 4.8307 16.3166C4.7903 16.7068 4.87154 17.0103 4.78608 17.4126C4.83602 18.3205 4.85445 19.2912 5.0802 20.3146ZM22.375 27.0049C21.884 27.5159 21.3388 27.8247 20.7936 28.1334C19.8518 28.2234 18.9008 28.099 17.8642 27.8349C18.1796 27.7504 18.3148 27.7141 18.5852 27.6416C19.9326 27.4429 21.2438 26.9288 22.3748 26.4629C22.2396 26.4992 22.1992 26.8894 22.375 27.0049ZM23.1948 25.9179L23.1542 25.7662C23.0594 25.4122 22.7439 25.4968 22.6088 25.533C22.5637 25.5451 22.4736 25.5693 22.4285 25.5814C23.8747 24.489 25.1586 23.3318 26.2261 21.9074C26.5009 21.6711 26.8523 21.3601 27.2623 21.0876C27.1678 21.2755 27.0417 21.5261 26.9471 21.7141C25.8166 23.2638 24.5868 24.6233 23.1948 25.9179ZM29.9785 17.7036C30.1141 18.7512 29.8262 20.0208 29.1958 21.2738C28.4708 22.7147 27.3806 23.8742 26.2048 24.894C25.5786 25.4413 24.8532 25.7984 24.2134 26.2951C25.4838 25.0873 26.5198 23.7256 27.3393 22.0967C27.4745 22.0605 27.4339 21.9088 27.56 21.6582C28.4608 20.3327 29.2803 18.7038 29.9647 17.1111C29.9378 17.5519 29.9785 17.7036 29.9785 17.7036ZM29.1762 17.5935C28.9556 18.0321 28.8071 18.5597 28.4512 19.0345L28.3161 19.0707C28.1809 19.107 28.1809 19.107 28.0412 19.307C27.9016 19.507 27.8206 19.7455 27.8612 19.8972C27.8206 19.7455 27.7664 19.5433 27.7258 19.3916C27.6852 19.2399 27.4958 19.0738 27.4958 19.0738C28.0004 18.6134 28.6717 18.054 29.1762 17.5935ZM26.4767 17.6127C26.0261 17.7336 25.7558 17.8061 25.3051 17.9269C26.1116 17.3313 26.7513 16.8345 27.5172 16.0872C27.2019 16.7137 26.8326 17.1379 26.4767 17.6127ZM29.4304 10.9674C29.5252 11.3214 29.3316 11.861 28.9802 12.172L28.7099 12.2445C28.6153 12.4325 28.6695 12.6348 28.7101 12.7865C29.1609 13.2076 28.8863 13.9858 28.4359 14.6485C28.3414 14.8365 28.1207 15.275 27.891 15.4992C27.891 15.4992 27.891 15.4992 27.8503 15.3475C27.8097 15.1958 27.4401 15.0781 27.3049 15.1143C26.9895 15.1989 26.6246 15.4594 26.3092 15.5439C26.0792 15.2262 25.6419 14.8557 25.4119 14.538C25.8625 14.4171 26.4483 14.2601 26.8989 14.1392L26.9396 14.2909C26.845 14.4789 27.0344 14.6449 27.2102 14.7604C27.386 14.8758 27.5662 14.8275 27.6608 14.6396C27.7553 14.4516 27.7012 14.2493 27.8002 13.8976C27.9354 13.8613 27.9354 13.8613 28.1156 13.813C28.2508 13.7768 28.3904 13.5767 28.3363 13.3745C28.2956 13.2228 28.1063 13.0567 27.926 13.1051C27.8854 12.9534 27.8854 12.9534 27.8313 12.7511C27.9664 12.7149 27.9258 12.5632 27.9258 12.5632C27.8852 12.4114 27.831 12.2092 27.6552 12.0937C27.6146 11.942 27.5198 11.588 27.4792 11.4363L27.4386 11.2846C27.398 11.1329 27.398 11.1329 27.3438 10.9307C27.5196 11.0461 27.754 11.2001 27.9298 11.3155C27.9704 11.4672 28.0246 11.6695 28.1598 11.6332C28.3356 11.7487 28.651 11.6641 28.6104 11.5124C28.885 10.7342 28.7494 9.68662 28.2217 8.79833C28.3569 8.76208 28.3569 8.76208 28.4965 8.56205C28.5372 8.71376 28.7671 9.03148 28.988 9.13486C29.119 9.80432 29.4346 10.2617 29.4304 10.9674ZM25.1584 0.785367C25.7851 1.32192 26.2721 2.05851 26.7636 2.63132C27.485 3.52185 27.7423 4.48263 28.1889 5.60944C28.3243 6.11512 28.4597 6.62079 28.7167 7.03966C28.8521 7.54533 29.0686 7.81249 29.3842 8.26984C29.6954 8.89097 30.0111 9.34832 30.1465 9.854C30.0111 9.34832 29.7947 9.08116 29.5196 8.77552C27.8195 6.03367 25.6328 3.63908 23.0723 1.8325C23.8878 1.45123 24.6132 1.09414 25.1584 0.785367ZM22.0494 2.16096C22.4596 2.43036 22.8518 2.81297 23.2621 3.08237C22.4057 2.77001 21.4232 2.70825 20.4678 2.74762C21.0536 2.59055 21.5988 2.28178 22.0494 2.16096ZM19.4722 3.71914C20.288 3.8798 21.1759 4.12951 22.0729 4.59357C21.0363 4.32954 20.0447 4.05342 19.0622 3.99166C19.3326 3.91917 19.5128 3.87084 19.4722 3.71914ZM17.67 4.74435C17.8052 4.7081 17.9854 4.65977 18.026 4.81148C18.4362 5.08087 18.7879 5.31179 19.1981 5.58118C18.4769 5.23258 17.945 5.05 17.2644 4.85309C17.3996 4.81684 17.5348 4.7806 17.67 4.74435ZM21.619 7.58779C21.6596 7.7395 21.7948 7.70325 21.8489 7.90552C20.9925 7.59316 19.9559 7.32913 19.113 7.06734C18.7028 6.79794 18.3512 6.56703 17.9952 6.4999C17.7652 6.18217 17.5037 5.92709 17.2737 5.60937C18.6484 6.05374 20.2711 6.70263 21.619 7.58779ZM18.4149 8.06749C18.8658 8.4886 19.0822 8.75575 19.488 9.18894C18.8615 9.1943 18.2216 9.1491 17.46 9.19071C17.1039 9.12359 16.7794 8.99381 16.4233 8.92668C16.2475 8.81122 15.9725 8.50558 15.9319 8.35388C16.3825 8.23305 16.8331 8.11223 17.2793 8.1552C17.7885 8.07286 18.0995 8.15207 18.4149 8.06749ZM15.4078 5.13411C15.543 5.09786 15.7638 5.20123 15.899 5.16499L15.9396 5.31669C15.9803 5.46839 16.1154 5.43215 16.1696 5.63442L16.0344 5.67067C15.8992 5.70691 15.719 5.75524 15.7596 5.90694C15.6651 6.09489 15.8093 6.273 15.9265 6.34997C14.8133 6.16067 13.7272 6.0725 12.6501 6.19869C13.5694 5.84383 14.5516 5.36367 15.4078 5.13411Z" fill="#F8F3E5"/>
<path d="M4.49992 16.9999C3.29992 20.5999 6.16666 23.4999 7.5 24.9999C7.5 25.6666 9 27.4999 11.4999 27.9999C16.5 28.9999 13 28.4999 21 27.9999C29 27.4999 30.9999 20 30.4999 16.9999C29.5379 11.2272 28 11 25.5 7.49991C22.5939 3.4313 15.5 2.7143 12.5 3.99991C8.99996 5.49981 7.16656 6.99991 6.49992 8.99988C5.49995 11.9999 5.99992 12.4999 4.49992 16.9999Z" fill="#F8F3E5"/>
</g>
<defs>
<clipPath id="clip0_1623_9258">
<rect width="32" height="32" fill="white"/>
</clipPath>
</defs>
</svg>
