<svg width="344" height="39" viewBox="0 0 344 39" fill="none" xmlns="http://www.w3.org/2000/svg">
<rect width="344" height="39" fill="#F8F3E5"/>
<path d="M27.104 10.4C28.064 10.464 28.736 10.528 29.76 10.528C29.952 10.528 30.144 10.56 30.304 10.56H31.168C31.392 10.56 31.392 10.56 31.392 10.752C31.392 10.944 31.392 11.328 31.168 11.68L29.76 15.424C29.6 15.84 29.152 17.056 29.024 17.504C28.8 17.76 27.936 19.936 27.712 20.256C27.584 20.512 27.488 20.96 27.328 21.408C26.944 22.208 26.432 23.488 26.176 24.064C25.952 24.416 25.6 25.632 25.408 25.984C25.152 26.464 25.024 27.008 24.832 27.488C24.672 27.904 24.512 28.48 24.384 28.864H23.872C23.68 28.864 23.552 28.8 23.104 28.864C22.752 28.864 22.112 28.928 21.92 28.864H20.8C20.64 28.864 20.448 28.672 20.448 28.672C20.48 28.416 20.16 27.936 20.064 27.424C19.872 27.04 19.872 26.656 19.712 26.304C19.52 25.44 19.232 24.704 19.04 24.032C18.688 23.104 18.432 22.176 18.112 21.28C17.952 20.64 17.632 19.776 17.472 19.36C17.472 19.296 17.408 19.2 17.408 19.2C17.344 19.2 17.312 19.424 17.248 19.488C17.28 19.392 16.672 20.768 16.608 21.12C16.384 22.144 15.904 23.456 15.648 24.384C15.36 24.864 15.2 25.6 15.072 26.176C14.944 26.72 14.784 27.36 14.528 27.744C14.528 27.776 14.112 28.768 14.08 28.864H11.008C10.784 28.864 10.56 28.672 10.56 28.48L10.304 27.456C10.112 27.04 9.6 25.6 9.536 25.216C9.344 24.704 9.248 24.288 9.056 23.808C8.864 23.232 8.384 21.984 8.32 21.504C8.288 21.184 8.16 20.928 8.032 20.64C7.968 20.512 7.904 20.416 7.936 20.32C7.936 20.288 7.04 18.176 7.04 17.856C6.912 17.28 6.528 16.48 6.432 15.904C6.4 15.744 6.368 15.616 6.24 15.52L5.888 14.656L5.728 14.4C5.568 13.76 4.928 12 4.704 11.488C4.512 11.328 4.512 10.944 4.32 10.752C4.32 10.56 4.32 10.56 4.512 10.56C4.704 10.528 4.96 10.528 5.12 10.56C5.344 10.592 5.536 10.592 5.76 10.56C6.4 10.528 7.52 10.72 8.32 10.784C8.384 10.784 8.512 10.88 8.544 10.944C8.608 11.008 8.64 11.104 8.64 11.136C8.64 11.36 8.8 11.648 8.864 11.904C9.12 12.96 9.376 14.24 9.632 15.104C9.92 15.488 10.272 17.504 10.368 17.76C10.624 18.272 10.752 18.816 10.912 19.264C11.008 19.424 11.328 20.224 11.328 20.352C11.68 21.28 11.84 22.048 12.192 22.752C12.608 23.424 12.672 24.096 12.992 24.64C13.024 24.768 13.088 24.864 13.088 24.864C13.216 24.864 13.248 24.8 13.312 24.704C13.952 23.232 14.208 21.536 14.848 19.904C15.2 18.784 15.584 17.696 15.776 16.416C15.872 16.064 15.872 15.872 16 15.744C16.32 15.616 16.672 15.744 16.832 15.744H18.112C18.304 15.712 18.56 15.68 18.656 16.032C19.104 17.056 19.264 18.144 19.552 19.2C19.904 19.904 20.096 20.832 20.384 21.472C20.672 22.24 20.832 23.104 21.024 23.872C21.312 24.48 21.28 25.28 21.632 25.632C21.92 25.632 21.92 25.44 21.92 25.44C21.856 25.376 22.048 25.024 22.112 24.736L22.592 23.296L23.2 21.856C23.328 21.408 23.712 20.384 23.872 20C24.064 19.488 24.192 19.008 24.352 18.528C24.48 17.984 24.8 16.704 24.992 16.224C25.12 15.904 25.248 15.712 25.376 15.36C25.664 14.56 25.984 13.504 26.272 12.576C26.464 11.968 26.592 11.456 26.752 11.04C26.816 10.912 27.104 10.464 27.104 10.4ZM42.5348 22.368C42.5348 22.464 42.4708 22.592 42.3748 22.688C42.2468 22.816 41.9268 22.848 41.7348 22.848C41.4468 22.912 40.9348 22.912 40.6468 22.912C40.0708 22.912 39.9108 22.944 39.2388 23.008L37.3188 23.168V23.552C37.3188 24.032 37.4148 24.48 37.7668 24.928C37.9588 25.248 38.3108 25.6 38.5988 25.696C38.5988 25.696 39.2388 25.984 39.5268 25.952C40.6788 25.952 40.9988 25.664 41.7668 25.28C41.9268 25.28 42.1508 25.024 42.2468 24.992C42.4388 24.928 42.9828 24.448 43.1748 24.352C43.3028 24.448 43.2068 25.056 43.2708 25.472C43.2708 25.472 43.3028 26.048 43.2708 26.464C42.8228 26.944 43.0148 26.816 42.4708 27.328C42.0548 27.744 41.6708 27.968 41.2548 28.096C40.7748 28.352 40.1348 28.416 39.8148 28.544C39.4628 28.608 39.0148 28.608 39.0148 28.608C38.2148 28.608 37.4468 28.672 36.6148 28.256C36.3268 28.288 35.6228 28 35.4628 27.808C35.0148 27.552 34.6628 27.104 34.2468 26.816C33.6708 26.4 33.4788 25.92 33.2548 25.408C33.0308 25.024 32.8708 24.512 32.7108 24.064C32.7108 23.616 32.6788 23.168 32.6788 22.752V21.568C32.6788 20.8 33.0628 19.584 33.5108 18.816C33.5108 18.816 33.8628 18.432 34.2788 18.016C34.4068 17.984 34.5348 17.888 34.8228 17.728C34.9508 17.664 35.1428 17.376 35.4628 17.28C35.9427 17.12 36.3908 16.864 36.6148 16.864C36.9028 16.864 37.8308 16.928 38.5668 16.96C38.9508 16.992 39.2068 17.12 39.3348 17.12C39.6548 17.152 39.8788 17.184 40.1348 17.28C40.9028 17.536 41.1908 17.824 41.4468 18.112C41.6068 18.304 41.7668 18.656 41.9268 18.848C42.1188 19.104 42.3428 19.616 42.4388 20.032C42.5348 20.384 42.5668 21.024 42.5668 21.44C42.5668 21.856 42.5348 21.984 42.5348 22.368ZM39.7828 20.512C39.7828 20.416 39.7828 20.128 39.7188 20.032C39.3668 19.488 38.6308 19.424 38.1828 19.52C37.8948 19.584 37.8628 19.712 37.7028 19.968C37.6388 20.032 37.6068 20.128 37.5108 20.224C37.4468 20.32 37.4148 20.48 37.3828 20.608C37.3188 20.8 37.3188 20.832 37.3828 21.152C37.7028 21.344 39.5908 21.344 39.9108 21.152C39.9427 21.12 39.7828 20.928 39.7828 20.512ZM56.57 19.744C56.602 19.84 56.602 20.288 56.602 20.448C56.538 20.672 56.538 20.832 56.538 21.056C56.538 21.312 56.602 22.24 56.602 22.528V23.232C56.602 23.616 56.634 24 56.634 24.384C56.634 24.672 56.57 24.96 56.602 25.248C56.602 25.504 56.666 25.728 56.666 25.984V28.896C56.666 29.12 56.794 29.376 56.666 29.344C56.25 29.344 55.61 29.504 55.162 29.504C54.778 29.504 54.554 29.504 54.106 29.28V28.864C53.914 28.064 53.914 27.424 53.914 26.816C53.914 26.368 53.882 25.952 53.978 25.536C53.978 25.472 53.978 25.376 53.914 25.28C53.882 25.184 53.882 24.416 53.882 24.288V22.944C53.882 22.432 53.85 21.92 53.914 21.408C53.978 21.344 54.074 19.68 54.074 19.488C54.106 18.816 54.074 18.112 54.106 17.472C54.106 16.256 54.074 15.072 54.106 13.888C54.106 13.12 54.106 12.384 54.074 11.648C54.01 10.848 54.17 10.944 54.106 10.112C54.106 9.696 54.17 9.28 54.17 8.896C54.17 8.48 54.138 8.224 54.138 7.808L54.298 7.648C54.714 7.648 55.29 7.712 55.674 7.68C56.026 7.648 56.09 7.648 56.442 7.648C56.538 7.648 56.666 7.712 56.698 7.744C56.794 9.152 56.634 10.464 56.634 11.968V14.208C56.602 15.744 56.506 17.024 56.506 18.304C56.506 18.752 56.57 19.296 56.57 19.744ZM62.2158 16.384C62.5038 16.288 62.9838 16.064 63.3998 16.064C63.9438 16.064 64.3918 16.032 64.9358 16.032C65.3518 16.032 65.7678 16.032 66.1198 16.16C66.1838 16.16 66.3438 16.192 66.5358 16.384C67.3998 16.608 68.0718 17.728 68.4878 18.56C68.7118 18.912 68.7118 19.552 68.8398 19.904C68.8398 20.512 68.9358 21.056 68.9358 21.632C68.9358 22.592 68.8718 23.456 68.8718 24.448L68.8078 25.504C68.8078 25.664 68.5518 26.24 68.5198 26.432C68.3918 26.848 68.1358 27.584 68.0398 27.68C67.6238 28.096 67.8158 28.384 67.3038 28.64C67.1118 28.736 66.7598 28.96 66.5038 29.12C66.3118 29.216 66.4078 29.248 66.1198 29.344L65.5438 29.472C65.0318 29.568 64.7758 29.472 64.3918 29.472C63.8158 29.472 63.1758 29.344 62.5998 29.12C62.2158 29.12 61.7998 28.896 61.6398 28.704C61.4478 28.544 61.2238 28.352 60.9998 28.128C60.6478 27.744 60.4557 27.36 60.2638 26.944C60.0718 26.464 59.7518 25.984 59.6558 25.408C59.5598 24.448 59.4958 23.648 59.4958 22.848V21.536C59.4638 21.472 59.4638 21.088 59.4958 21.024C59.4958 20.8 59.5278 20.576 59.5598 20.352C59.5918 20 59.5278 19.648 59.7518 19.328C59.6878 19.456 60.2318 18.24 60.1998 18.336L60.4238 17.92C60.7118 17.632 60.8078 17.344 62.2158 16.384ZM64.5518 21.696C64.3918 21.696 64.1998 21.92 64.1678 22.048C64.0078 22.4 63.9438 22.656 63.9438 22.848C63.9438 23.456 64.1678 23.808 64.5518 24C64.7438 24 64.9358 23.808 64.9358 23.648C64.9358 23.232 65.1598 22.656 64.9358 22.048C64.7438 21.856 64.7438 21.696 64.5518 21.696ZM77.3585 23.84C77.3905 23.904 77.5185 24.192 77.5825 24.224C77.8065 24.224 77.8065 24 77.9985 23.744C78.5425 22.656 78.8945 21.984 79.4385 20.96L80.0465 19.488C80.2065 19.2 80.6545 18.528 80.7185 18.24C80.7825 17.984 80.8465 17.92 80.9425 17.632C80.9745 17.504 81.4225 16.736 81.4865 16.608C82.3185 16.8 82.9585 17.024 83.7585 17.44C83.5345 17.824 83.4705 18.016 83.3745 18.272C83.1185 18.784 82.6385 19.424 82.5745 19.584L81.9985 20.96C81.8385 21.28 81.6465 21.6 81.4225 21.92C81.3905 22.016 81.3265 22.176 81.2305 22.272C80.8465 22.912 79.8545 25.152 79.4385 25.664C79.1185 26.304 78.8945 26.688 78.6065 27.328C78.5745 27.552 78.4465 27.744 78.3505 27.936C78.2865 28.128 78.1905 28.352 77.9985 28.576C77.8385 28.64 76.6545 28.8 76.4305 28.736C76.2385 28.672 75.9505 27.936 75.8545 27.84L75.3105 27.104C75.1825 26.88 74.7985 26.048 74.3185 25.44L73.6785 24.224C73.5505 23.936 73.2305 23.328 73.0385 23.072C72.8785 22.88 72.8465 22.624 72.6545 22.176C72.4305 21.984 72.1425 21.12 71.7265 20.704C71.6625 20.576 71.3745 20.16 71.1825 19.904C70.9585 19.456 70.7345 19.072 70.3825 18.464C70.3825 18.464 70.4465 18.304 70.6385 18.208C70.8945 17.984 71.1505 17.728 71.7265 17.472L72.8465 16.608C73.0705 16.608 73.2305 16.8 73.2305 16.8C73.7745 17.344 73.9025 17.984 74.3505 18.56C74.6065 19.008 75.1505 20.224 75.4385 20.64C76.1105 21.536 76.8145 22.944 77.3585 23.84ZM94.9098 22.368C94.9098 22.464 94.8458 22.592 94.7498 22.688C94.6218 22.816 94.3018 22.848 94.1098 22.848C93.8218 22.912 93.3098 22.912 93.0218 22.912C92.4458 22.912 92.2858 22.944 91.6138 23.008L89.6938 23.168V23.552C89.6938 24.032 89.7898 24.48 90.1418 24.928C90.3338 25.248 90.6858 25.6 90.9738 25.696C90.9738 25.696 91.6138 25.984 91.9018 25.952C93.0538 25.952 93.3738 25.664 94.1418 25.28C94.3018 25.28 94.5258 25.024 94.6218 24.992C94.8138 24.928 95.3578 24.448 95.5498 24.352C95.6778 24.448 95.5818 25.056 95.6458 25.472C95.6458 25.472 95.6778 26.048 95.6458 26.464C95.1978 26.944 95.3898 26.816 94.8458 27.328C94.4298 27.744 94.0458 27.968 93.6298 28.096C93.1498 28.352 92.5098 28.416 92.1898 28.544C91.8378 28.608 91.3898 28.608 91.3898 28.608C90.5898 28.608 89.8218 28.672 88.9898 28.256C88.7018 28.288 87.9978 28 87.8378 27.808C87.3898 27.552 87.0378 27.104 86.6218 26.816C86.0458 26.4 85.8538 25.92 85.6298 25.408C85.4058 25.024 85.2458 24.512 85.0858 24.064C85.0858 23.616 85.0538 23.168 85.0538 22.752V21.568C85.0538 20.8 85.4378 19.584 85.8858 18.816C85.8858 18.816 86.2378 18.432 86.6538 18.016C86.7818 17.984 86.9098 17.888 87.1978 17.728C87.3258 17.664 87.5178 17.376 87.8378 17.28C88.3177 17.12 88.7658 16.864 88.9898 16.864C89.2778 16.864 90.2058 16.928 90.9418 16.96C91.3258 16.992 91.5818 17.12 91.7098 17.12C92.0298 17.152 92.2538 17.184 92.5098 17.28C93.2778 17.536 93.5658 17.824 93.8218 18.112C93.9818 18.304 94.1418 18.656 94.3018 18.848C94.4938 19.104 94.7178 19.616 94.8138 20.032C94.9098 20.384 94.9418 21.024 94.9418 21.44C94.9418 21.856 94.9098 21.984 94.9098 22.368ZM92.1578 20.512C92.1578 20.416 92.1578 20.128 92.0938 20.032C91.7418 19.488 91.0058 19.424 90.5578 19.52C90.2698 19.584 90.2378 19.712 90.0778 19.968C90.0138 20.032 89.9818 20.128 89.8858 20.224C89.8218 20.32 89.7898 20.48 89.7578 20.608C89.6938 20.8 89.6938 20.832 89.7578 21.152C90.0778 21.344 91.9658 21.344 92.2858 21.152C92.3177 21.12 92.1578 20.928 92.1578 20.512Z" fill="#272934"/>
<path d="M128.3 12.576C127.83 11.6602 127.151 10.8676 126.319 10.2616C125.487 9.65569 124.524 9.25341 123.508 9.08711C122.492 8.92081 121.452 8.99511 120.47 9.30406C119.488 9.61301 118.592 10.148 117.854 10.866L117 11.647L116.173 10.894C115.437 10.1621 114.537 9.61637 113.548 9.30226C112.558 8.98815 111.508 8.91469 110.485 9.088C109.468 9.24664 108.503 9.64577 107.67 10.2522C106.838 10.8587 106.163 11.655 105.7 12.575C105.082 13.7869 104.866 15.1644 105.083 16.5075C105.301 17.8505 105.941 19.0893 106.91 20.044L116.283 29.7C116.376 29.7959 116.488 29.8721 116.611 29.9241C116.734 29.9761 116.866 30.0029 117 30.0029C117.134 30.0029 117.266 29.9761 117.389 29.9241C117.512 29.8721 117.624 29.7959 117.717 29.7L127.077 20.062C128.05 19.1064 128.694 17.8654 128.914 16.5192C129.134 15.173 128.919 13.7917 128.3 12.576Z" fill="#E22269"/>
<path d="M147.496 28.736C147.24 28.864 146.952 28.96 146.696 29.056C146.44 29.12 145.48 29.248 144.68 29.184H143.88C143.56 29.184 143.208 29.248 142.856 29.184C141.8 28.992 141.032 28.384 140.744 28.288C140.296 28.16 139.784 27.52 139.624 27.264C139.144 26.912 138.792 26.368 138.504 25.92C138.312 25.408 138.024 25.024 138.024 24.576V23.68C137.928 23.424 138.024 23.232 138.024 22.976C138.248 22.304 138.504 21.632 138.792 21.088C139.048 20.608 139.272 20.064 139.72 19.744C139.816 19.584 139.816 19.488 139.944 19.392C140.392 18.88 140.968 18.4 141.512 18.048C141.352 17.92 141.32 17.792 141.16 17.696C140.744 17.344 140.392 16.928 140.04 16.576C139.72 16.128 139.368 15.648 139.368 15.104C139.272 14.88 139.272 14.656 139.144 14.528C139.048 14.304 139.048 14.208 139.048 13.952V12.832C139.048 12.512 139.272 12.096 139.368 11.84C139.368 11.392 139.72 11.04 139.944 10.72C140.264 10.208 140.776 9.984 141.16 9.6L142.184 9.248C142.664 9.152 143.08 9.024 143.56 9.024C144.584 9.184 145 9.152 145.352 9.344C145.8 9.6 146.12 9.92 146.472 10.368C146.792 10.592 147.048 10.944 147.24 11.296C147.368 11.392 147.368 11.488 147.496 11.712C147.72 12.064 147.72 12.512 147.72 12.992C147.72 13.536 147.368 14.432 147.24 14.88C147.048 15.232 146.792 15.552 146.6 15.904C146.056 16.64 145.32 17.504 144.552 17.92L144.776 18.272C145.096 18.624 145.448 18.944 145.8 19.296C146.12 19.744 146.504 19.904 146.792 20.416C147.496 20.864 148.04 21.632 148.616 22.208C149.16 22.624 149.288 22.912 149.864 23.776C150.056 23.712 150.216 23.584 150.44 23.552C151.016 23.296 151.432 23.104 151.88 22.656C151.976 22.56 151.944 22.496 152.104 22.496C152.328 22.496 152.424 22.656 152.584 22.88C152.776 23.04 152.872 23.232 153.128 23.424C153.128 23.424 153.224 23.552 153.224 23.68C153.16 23.84 152.776 24.256 152.584 24.448C152.328 24.672 152.072 25.088 151.848 25.28L152.104 25.696C152.584 26.24 153.128 26.656 153.544 27.2L153.8 27.392L154.12 27.744C154.088 27.872 154.056 27.904 154.024 27.936C153.768 28.256 153.544 28.672 153.448 29.056C153.224 29.056 153.192 28.96 153 28.864L150.312 26.816C150.056 27.2 149.672 27.36 149.416 27.616C149.192 27.744 148.936 27.936 148.744 28.032C148.616 28.192 148.488 28.288 148.392 28.288C148.168 28.384 147.752 28.64 147.496 28.736ZM143.976 26.24C144.168 26.24 145.672 26.496 145.928 26.496C146.568 26.304 147.336 26.464 147.816 26.048C148.072 25.92 148.264 25.792 148.488 25.696C148.744 25.568 148.936 25.376 149.192 25.216C149.064 25.12 149.064 25.024 148.936 24.928C148.392 24.576 147.848 23.872 147.24 23.424C147.048 23.232 146.792 23.104 146.6 22.88C145.928 22.304 145.256 21.76 144.68 21.088L143.112 19.488C142.984 19.392 142.792 19.232 142.568 19.104C142.376 19.488 141.832 20.032 141.736 20.288C141.512 20.896 141.416 21.312 141.416 21.76C141.32 22.208 141.416 22.56 141.416 22.976C141.608 23.68 141.864 24.352 142.28 24.928C142.6 25.568 143.336 25.888 143.976 26.24ZM142.184 13.216C141.864 13.44 141.608 13.856 141.608 14.208C141.608 14.528 141.608 14.88 141.864 15.104C142.088 15.328 142.184 15.456 142.344 15.712C142.344 15.936 143.08 16.608 143.272 16.672C143.496 16.608 143.848 16 143.976 15.552C144.136 15.328 144.264 15.072 144.264 14.848C144.36 14.496 144.264 13.888 144.136 13.76C143.88 13.536 143.656 13.312 143.432 13.216C143.304 13.088 143.208 13.088 142.984 13.088C142.76 13.088 142.472 13.056 142.184 13.216ZM164.854 28.064C164.79 27.36 164.566 25.088 164.63 24.736C164.662 24.352 164.534 22.944 164.534 22.56C164.566 21.248 164.502 19.776 164.63 18.496C164.63 18.272 164.662 17.664 164.662 17.44C164.662 17.216 164.566 16.8 164.662 16.576C164.63 15.808 164.694 14.176 164.662 13.952C164.63 13.76 164.63 12.736 164.726 12.064C164.822 11.712 164.694 11.296 164.758 10.944C164.886 10.304 164.854 9.664 164.854 8.992C164.854 8.096 164.886 7.264 164.886 6.368H167.158C167.126 6.88 167.35 7.744 167.35 8.256L167.542 12.48C167.51 13.056 167.542 13.696 167.542 14.336C167.51 15.008 167.542 15.744 167.542 16.448C167.542 17.088 167.542 17.696 167.766 18.336C167.99 18.112 168.246 17.888 168.502 17.856C169.11 17.44 169.814 17.216 170.614 17.216C170.838 17.216 171.254 17.088 171.67 17.088C171.862 17.088 172.086 17.088 172.502 17.312C173.142 17.472 173.718 17.888 174.326 18.112C175.254 18.784 175.414 19.168 175.99 19.776C176.63 20.576 176.822 21.216 176.822 22.016C177.014 23.264 177.014 24.288 177.014 25.536C177.014 26.592 176.982 27.68 176.854 28.416C176.822 28.672 176.854 28.832 176.822 28.832C175.766 28.832 174.742 28.832 173.526 29.056C173.462 28.8 173.526 28.384 173.526 28.192C173.494 27.904 173.59 27.488 173.59 26.976C173.59 26.208 173.526 25.248 173.526 24.512C173.526 23.68 173.526 22.848 173.302 21.824C173.302 21.44 173.142 20.992 173.142 20.576C173.014 20.352 172.95 20.096 172.79 20.032C172.662 19.968 172.47 19.808 172.31 19.616C172.022 19.36 171.062 19.136 170.614 19.36C170.23 19.552 169.814 19.776 169.59 19.968C169.174 20.16 168.79 20.8 168.79 21.44C168.374 22.464 168.15 23.68 168.15 24.928C168.054 25.696 168.086 26.4 168.086 27.072C168.086 27.456 167.99 27.808 167.99 28.192V29.44C167.478 29.44 166.934 29.472 166.422 29.536C166.102 29.568 165.814 29.632 165.494 29.76C165.27 29.856 165.078 29.952 164.886 29.92C164.726 29.728 164.918 29.216 164.886 28.864C164.854 28.512 164.886 28.288 164.854 28.064ZM190.737 28.608V28.768L190.513 28.8C190.289 28.832 190.321 28.8 190.001 28.8C189.905 28.832 189.073 29.024 188.689 28.832C188.465 28.832 188.465 28.768 188.241 28.768C188.049 28.608 188.049 28.192 188.049 27.968V27.168L187.793 27.52L187.217 28.064C186.801 28.352 186.577 28.544 186.193 28.736C185.553 29.12 184.753 29.216 184.113 29.216C183.473 29.216 182.705 28.864 182.161 28.672C182.001 28.64 181.841 28.512 181.713 28.416C181.457 28.192 181.105 27.968 180.881 27.776C180.753 27.68 180.657 27.552 180.497 27.488C180.369 27.424 180.273 27.296 180.209 27.168C179.985 26.72 179.601 26.304 179.409 25.696C179.281 25.248 178.993 24.8 178.993 24.416C178.993 24.224 178.929 23.52 178.929 23.328C178.929 22.944 178.961 22.816 178.961 22.4C178.961 22.208 179.025 21.984 179.121 21.6C179.185 21.152 179.217 20.512 179.313 20.192C179.601 19.648 179.665 19.648 179.761 19.328C179.857 19.072 179.985 18.56 180.273 18.368C180.497 18.208 181.425 17.344 181.553 17.312L182.129 17.056C182.481 16.928 182.929 16.864 183.313 16.864L184.305 16.832C184.529 16.832 184.849 16.832 184.945 16.864C185.137 16.864 185.361 17.056 185.585 17.056C185.777 17.056 186.161 17.248 186.385 17.44C186.801 17.6 187.025 17.888 187.217 18.08C187.409 18.304 187.633 18.464 187.825 18.688C187.857 18.816 188.049 18.912 188.049 18.912C188.113 18.816 188.113 18.528 188.241 18.304C188.273 17.696 188.305 17.152 188.337 16.992C188.305 16.832 188.369 16.384 188.593 16.448C188.785 16.384 189.937 16.64 190.513 16.64C190.545 16.64 190.545 16.928 190.513 17.056L190.705 20.128V23.584C190.705 23.712 190.673 23.84 190.673 23.968C190.705 24.352 190.705 24.768 190.705 25.184C190.737 25.472 190.705 25.792 190.705 26.144C190.705 26.688 190.769 28.032 190.737 28.608ZM186.609 24.064C186.641 24.032 186.609 23.84 186.609 23.84C186.609 23.584 186.865 22.656 186.385 21.376C186.257 21.056 186.033 20.576 185.489 20.384C185.201 20.32 184.945 20.16 184.657 20.192C184.369 20.288 183.825 20.608 183.537 21.024C183.345 21.248 183.313 21.472 183.281 21.824C183.153 22.368 183.089 22.592 183.089 23.04C183.089 23.872 183.793 24.608 183.921 24.8C184.049 24.928 184.113 24.864 184.337 25.088C184.753 25.28 185.137 25.088 185.585 24.864H185.777C186.161 24.672 186.385 24.48 186.609 24.064ZM199.899 27.2C199.899 27.68 199.867 28.192 199.899 28.672C199.899 28.928 199.899 29.536 199.867 29.792C199.899 29.952 199.707 30.144 199.643 30.208H198.811C198.587 30.208 198.299 30.176 198.075 30.176C197.755 30.304 196.699 30.208 196.571 30.208C196.379 29.984 196.379 29.984 196.379 29.792V26.72L196.315 24.832L196.379 22.688L196.347 20.832L196.219 19.296C195.707 19.296 194.843 19.392 194.459 19.296C193.723 19.168 193.435 19.296 192.859 19.296V17.248H193.051C193.243 17.248 193.435 17.216 193.499 17.248C193.723 17.408 194.267 17.28 194.235 17.216C194.715 17.184 194.651 17.184 195.035 17.184C195.387 17.184 196.219 17.216 196.443 17.184C196.475 17.184 196.443 16 196.443 15.552C196.539 14.752 196.539 14.144 196.571 13.312C196.603 12.736 196.603 12.192 196.603 11.584C196.603 10.976 196.699 9.984 196.667 9.312C196.667 9.088 196.571 9.088 196.571 8.896C196.571 8.704 196.571 8.576 196.795 8.576C197.179 8.576 197.627 8.64 198.011 8.64C198.651 8.64 199.227 8.64 199.547 8.672C199.835 8.704 200.059 8.736 200.283 8.8C200.315 8.8 200.283 9.664 200.251 10.144C200.219 11.2 200.219 11.872 200.251 12.928C200.251 13.408 200.219 13.92 200.251 14.4C200.251 14.656 200.123 16.352 200.091 16.608C200.091 16.832 200.219 17.024 200.283 17.024C200.507 17.024 200.891 17.12 201.115 17.12C201.307 17.12 201.531 17.216 201.947 17.216C202.331 17.216 202.747 17.248 203.195 17.248C203.387 17.248 203.579 17.28 203.579 17.28C203.771 17.92 203.771 18.88 203.579 19.296H203.387C202.555 19.392 201.723 19.456 200.891 19.456C200.699 19.456 200.347 19.488 200.123 19.488C200.123 19.68 200.091 19.904 200.091 19.904V20.192C200.091 20.576 200.123 20.864 200.091 21.216L200.155 22.912L200.027 24.352C200.059 24.8 199.931 26.752 199.899 27.2ZM215.191 22.368C215.191 22.464 215.127 22.592 215.031 22.688C214.903 22.816 214.583 22.848 214.391 22.848C214.103 22.912 213.591 22.912 213.303 22.912C212.727 22.912 212.567 22.944 211.895 23.008L209.975 23.168V23.552C209.975 24.032 210.071 24.48 210.423 24.928C210.615 25.248 210.967 25.6 211.255 25.696C211.255 25.696 211.895 25.984 212.183 25.952C213.335 25.952 213.655 25.664 214.423 25.28C214.583 25.28 214.807 25.024 214.903 24.992C215.095 24.928 215.639 24.448 215.831 24.352C215.959 24.448 215.863 25.056 215.927 25.472C215.927 25.472 215.959 26.048 215.927 26.464C215.479 26.944 215.671 26.816 215.127 27.328C214.711 27.744 214.327 27.968 213.911 28.096C213.431 28.352 212.791 28.416 212.471 28.544C212.119 28.608 211.671 28.608 211.671 28.608C210.871 28.608 210.103 28.672 209.271 28.256C208.983 28.288 208.279 28 208.119 27.808C207.671 27.552 207.319 27.104 206.903 26.816C206.327 26.4 206.135 25.92 205.911 25.408C205.687 25.024 205.527 24.512 205.367 24.064C205.367 23.616 205.335 23.168 205.335 22.752V21.568C205.335 20.8 205.719 19.584 206.167 18.816C206.167 18.816 206.519 18.432 206.935 18.016C207.063 17.984 207.191 17.888 207.479 17.728C207.607 17.664 207.799 17.376 208.119 17.28C208.599 17.12 209.047 16.864 209.271 16.864C209.559 16.864 210.487 16.928 211.223 16.96C211.607 16.992 211.863 17.12 211.991 17.12C212.311 17.152 212.535 17.184 212.791 17.28C213.559 17.536 213.847 17.824 214.103 18.112C214.263 18.304 214.423 18.656 214.583 18.848C214.775 19.104 214.999 19.616 215.095 20.032C215.191 20.384 215.223 21.024 215.223 21.44C215.223 21.856 215.191 21.984 215.191 22.368ZM212.439 20.512C212.439 20.416 212.439 20.128 212.375 20.032C212.023 19.488 211.287 19.424 210.839 19.52C210.551 19.584 210.519 19.712 210.359 19.968C210.295 20.032 210.263 20.128 210.167 20.224C210.103 20.32 210.071 20.48 210.039 20.608C209.975 20.8 209.975 20.832 210.039 21.152C210.359 21.344 212.247 21.344 212.567 21.152C212.599 21.12 212.439 20.928 212.439 20.512Z" fill="#272934"/>
<path d="M248.32 12.7C247.849 11.7838 247.17 10.9908 246.337 10.3846C245.505 9.77849 244.541 9.37611 243.525 9.20981C242.508 9.04352 241.467 9.11794 240.484 9.42711C239.502 9.73628 238.605 10.2716 237.867 10.99C237.655 11.183 237.59 11.221 237.558 11.31L234.858 18.658C234.844 18.6959 234.84 18.7366 234.845 18.7767C234.85 18.8167 234.865 18.8549 234.888 18.888C234.911 18.9211 234.942 18.9481 234.977 18.9667C235.013 18.9854 235.053 18.9951 235.093 18.995H239.88C239.996 18.9949 240.111 19.0217 240.214 19.0733C240.318 19.125 240.409 19.2001 240.479 19.2927C240.549 19.3853 240.596 19.4929 240.617 19.6069C240.639 19.721 240.633 19.8384 240.601 19.95L238.139 28.605C238.124 28.6585 238.127 28.7156 238.148 28.7671C238.169 28.8187 238.207 28.8617 238.255 28.8895C238.303 28.9173 238.359 28.9282 238.414 28.9205C238.469 28.9128 238.52 28.8869 238.559 28.847L246.77 20.389C247.846 19.4616 248.582 18.2024 248.863 16.8101C249.143 15.4178 248.953 13.9717 248.32 12.7Z" fill="#E22269"/>
<path d="M238.8 20.813C238.81 20.7758 238.812 20.7367 238.805 20.6987C238.798 20.6608 238.782 20.625 238.759 20.594C238.736 20.5628 238.706 20.5375 238.671 20.5202C238.636 20.5028 238.598 20.4938 238.559 20.494H233.659C233.539 20.4934 233.42 20.4637 233.313 20.4076C233.207 20.3515 233.115 20.2705 233.047 20.1715C232.978 20.0725 232.934 19.9585 232.919 19.839C232.904 19.7195 232.917 19.5981 232.959 19.485L236.037 11.1C236.054 11.0534 236.057 11.0027 236.045 10.9544C236.034 10.9062 236.008 10.8625 235.971 10.829C235.24 10.1603 234.367 9.66698 233.417 9.38661C232.467 9.10624 231.466 9.04618 230.489 9.211C229.471 9.36956 228.505 9.76885 227.672 10.3757C226.839 10.9825 226.163 11.7793 225.7 12.7C225.084 13.9092 224.868 15.2829 225.084 16.6228C225.3 17.9627 225.936 19.1993 226.9 20.154C226.9 20.154 234.257 28.092 235.853 29.798C235.883 29.8303 235.921 29.8541 235.963 29.867C236.006 29.8798 236.051 29.8812 236.094 29.871C236.137 29.8609 236.176 29.8395 236.208 29.8091C236.24 29.7787 236.264 29.7404 236.276 29.698L238.8 20.813Z" fill="#E22269"/>
<path d="M275.432 28.48V27.616C275.528 26.624 275.432 25.824 275.432 25.248C275.304 24.736 275.272 24.192 275.208 23.712C275.016 23.104 275.016 22.464 274.792 21.888C274.792 21.248 274.568 20.64 273.992 20.224C273.544 20 273.16 19.808 272.744 19.808C272.552 19.936 271.88 20.256 271.688 20.704C271.464 21.216 271.336 21.632 271.176 21.888C270.92 22.304 270.984 22.976 270.952 23.456C270.952 23.648 270.76 24.928 270.76 25.12L270.504 26.976C270.504 27.264 270.472 27.552 270.472 27.84C270.472 28.064 270.408 28.256 270.408 28.48H270.216C269.704 28.544 269.16 28.576 268.392 28.48C268.2 28.448 268.008 28.48 268.008 28.064C268.008 27.552 267.976 27.136 267.976 26.688C268.008 26.048 268.04 25.408 267.912 24.64C267.912 24.096 267.72 23.392 267.656 22.816C267.592 22.272 267.656 21.664 267.432 21.184C267.304 20.768 267.176 20.416 266.952 20C266.92 19.936 266.856 19.904 266.824 19.872L266.6 19.776C266.344 19.616 266.056 19.52 265.736 19.456H265.608L264.904 19.552C264.488 19.616 264.168 19.744 263.88 20C263.24 20.64 262.856 21.44 262.664 22.464C262.408 22.848 262.408 23.264 262.344 23.648C262.28 24.096 262.248 24.608 262.216 25.088C262.216 25.44 262.056 25.792 262.12 26.08C262.12 26.272 262.056 27.456 262.024 27.616C261.96 27.776 261.992 28.48 261.928 28.576C261.704 28.576 261.416 28.672 261.128 28.736C260.872 28.8 260.488 28.736 260.2 28.672C259.56 28.544 259.368 28.608 258.92 28.48C258.952 28 258.728 26.656 258.76 26.208C258.792 25.984 258.632 24.736 258.632 24.512C258.6 24.096 258.6 23.776 258.6 23.36C258.632 22.944 258.632 22.56 258.632 22.176V19.52C258.632 19.296 258.696 17.056 258.728 16.832C258.952 16.832 259.336 16.768 259.56 16.768C259.976 16.768 260.328 16.736 260.712 16.736C261.128 16.736 261 16.704 261.16 16.736C261.288 17.12 261.224 17.12 261.288 17.408C261.32 17.632 261.416 17.984 261.416 18.176V18.336C261.8 17.952 262.216 17.76 262.44 17.536C263.016 17.056 263.656 16.96 264.456 16.832L265.896 16.672H266.12C266.76 16.8 267.24 16.928 267.784 17.248L268.584 17.952C268.68 18.016 268.776 18.08 268.84 18.176C269.032 18.336 269.256 18.56 269.416 18.976C269.64 18.784 269.8 18.592 269.992 18.368C270.088 18.272 270.248 18.208 270.44 18.112C270.76 17.92 270.888 17.76 271.208 17.6C271.432 17.504 271.72 17.44 271.944 17.312C272.968 16.896 273.768 17.312 274.568 17.536C275.208 17.76 275.624 18.176 276.04 18.784L276.648 20C276.872 20.64 277.096 21.248 277.096 21.888C277.256 22.688 277.48 23.488 277.48 24.512C277.672 25.152 277.48 25.984 277.672 26.592V28.256C277.256 28.256 277.096 28.48 276.648 28.48C276.456 28.48 276.04 28.576 275.816 28.64C275.624 28.64 275.432 28.64 275.432 28.48ZM283.153 16.384C283.441 16.288 283.921 16.064 284.337 16.064C284.881 16.064 285.329 16.032 285.873 16.032C286.289 16.032 286.705 16.032 287.057 16.16C287.121 16.16 287.281 16.192 287.473 16.384C288.337 16.608 289.009 17.728 289.425 18.56C289.649 18.912 289.649 19.552 289.777 19.904C289.777 20.512 289.873 21.056 289.873 21.632C289.873 22.592 289.809 23.456 289.809 24.448L289.745 25.504C289.745 25.664 289.489 26.24 289.457 26.432C289.329 26.848 289.073 27.584 288.977 27.68C288.561 28.096 288.753 28.384 288.241 28.64C288.049 28.736 287.697 28.96 287.441 29.12C287.249 29.216 287.345 29.248 287.057 29.344L286.481 29.472C285.969 29.568 285.713 29.472 285.329 29.472C284.753 29.472 284.113 29.344 283.537 29.12C283.153 29.12 282.737 28.896 282.577 28.704C282.385 28.544 282.161 28.352 281.937 28.128C281.585 27.744 281.393 27.36 281.201 26.944C281.009 26.464 280.689 25.984 280.593 25.408C280.497 24.448 280.433 23.648 280.433 22.848V21.536C280.401 21.472 280.401 21.088 280.433 21.024C280.433 20.8 280.465 20.576 280.497 20.352C280.529 20 280.465 19.648 280.689 19.328C280.625 19.456 281.169 18.24 281.137 18.336L281.361 17.92C281.649 17.632 281.745 17.344 283.153 16.384ZM285.489 21.696C285.329 21.696 285.137 21.92 285.105 22.048C284.945 22.4 284.881 22.656 284.881 22.848C284.881 23.456 285.105 23.808 285.489 24C285.681 24 285.873 23.808 285.873 23.648C285.873 23.232 286.097 22.656 285.873 22.048C285.681 21.856 285.681 21.696 285.489 21.696ZM298.296 23.84C298.328 23.904 298.456 24.192 298.52 24.224C298.744 24.224 298.744 24 298.936 23.744C299.48 22.656 299.832 21.984 300.376 20.96L300.984 19.488C301.144 19.2 301.592 18.528 301.656 18.24C301.72 17.984 301.784 17.92 301.88 17.632C301.912 17.504 302.36 16.736 302.424 16.608C303.256 16.8 303.896 17.024 304.696 17.44C304.472 17.824 304.408 18.016 304.312 18.272C304.056 18.784 303.576 19.424 303.512 19.584L302.936 20.96C302.776 21.28 302.584 21.6 302.36 21.92C302.328 22.016 302.264 22.176 302.168 22.272C301.784 22.912 300.792 25.152 300.376 25.664C300.056 26.304 299.832 26.688 299.544 27.328C299.512 27.552 299.384 27.744 299.288 27.936C299.224 28.128 299.128 28.352 298.936 28.576C298.776 28.64 297.592 28.8 297.368 28.736C297.176 28.672 296.888 27.936 296.792 27.84L296.248 27.104C296.12 26.88 295.736 26.048 295.256 25.44L294.616 24.224C294.488 23.936 294.168 23.328 293.976 23.072C293.816 22.88 293.784 22.624 293.592 22.176C293.368 21.984 293.08 21.12 292.664 20.704C292.6 20.576 292.312 20.16 292.12 19.904C291.896 19.456 291.672 19.072 291.32 18.464C291.32 18.464 291.384 18.304 291.576 18.208C291.832 17.984 292.088 17.728 292.664 17.472L293.784 16.608C294.008 16.608 294.168 16.8 294.168 16.8C294.712 17.344 294.84 17.984 295.288 18.56C295.544 19.008 296.088 20.224 296.376 20.64C297.048 21.536 297.752 22.944 298.296 23.84ZM309.415 25.728C309.479 26.56 309.415 27.264 309.351 27.84C309.351 27.968 309.319 28.064 309.255 28.128C308.839 28.192 308.199 28.288 307.751 28.256C307.367 28.224 306.919 28.32 306.759 28.32C306.759 28.064 306.695 27.904 306.727 27.52C306.759 27.168 306.727 26.752 306.727 26.432V24.864C306.695 23.872 306.695 22.688 306.663 22.336C306.631 21.952 306.727 21.568 306.727 21.184C306.695 20.576 306.727 19.968 306.727 19.36C306.727 18.848 306.663 17.856 306.727 17.344C307.079 17.28 307.623 17.28 308.199 17.248C308.679 17.216 309.223 17.216 309.415 17.216C309.479 17.216 309.447 17.568 309.447 17.632C309.415 18.688 309.479 19.392 309.415 20.256C309.447 21.12 309.415 21.632 309.351 22.464C309.319 22.72 309.447 24.992 309.415 25.728ZM306.695 15.168C306.663 14.944 306.695 14.464 306.695 14.016C306.695 13.824 306.663 13.632 306.663 13.472C306.663 13.408 306.695 13.344 306.695 13.28H308.999C309.223 13.28 309.223 13.28 309.223 13.472V15.552C308.743 15.616 306.759 15.616 306.727 15.488C306.695 15.392 306.695 15.296 306.695 15.168ZM321.91 22.368C321.91 22.464 321.846 22.592 321.75 22.688C321.622 22.816 321.302 22.848 321.11 22.848C320.822 22.912 320.31 22.912 320.022 22.912C319.446 22.912 319.286 22.944 318.614 23.008L316.694 23.168V23.552C316.694 24.032 316.79 24.48 317.142 24.928C317.334 25.248 317.686 25.6 317.974 25.696C317.974 25.696 318.614 25.984 318.902 25.952C320.054 25.952 320.374 25.664 321.142 25.28C321.302 25.28 321.526 25.024 321.622 24.992C321.814 24.928 322.358 24.448 322.55 24.352C322.678 24.448 322.582 25.056 322.646 25.472C322.646 25.472 322.678 26.048 322.646 26.464C322.198 26.944 322.39 26.816 321.846 27.328C321.43 27.744 321.046 27.968 320.63 28.096C320.15 28.352 319.51 28.416 319.19 28.544C318.838 28.608 318.39 28.608 318.39 28.608C317.59 28.608 316.822 28.672 315.99 28.256C315.702 28.288 314.998 28 314.838 27.808C314.39 27.552 314.038 27.104 313.622 26.816C313.046 26.4 312.854 25.92 312.63 25.408C312.406 25.024 312.246 24.512 312.086 24.064C312.086 23.616 312.054 23.168 312.054 22.752V21.568C312.054 20.8 312.438 19.584 312.886 18.816C312.886 18.816 313.238 18.432 313.654 18.016C313.782 17.984 313.91 17.888 314.198 17.728C314.326 17.664 314.518 17.376 314.838 17.28C315.318 17.12 315.766 16.864 315.99 16.864C316.278 16.864 317.206 16.928 317.942 16.96C318.326 16.992 318.582 17.12 318.71 17.12C319.03 17.152 319.254 17.184 319.51 17.28C320.278 17.536 320.566 17.824 320.822 18.112C320.982 18.304 321.142 18.656 321.302 18.848C321.494 19.104 321.718 19.616 321.814 20.032C321.91 20.384 321.942 21.024 321.942 21.44C321.942 21.856 321.91 21.984 321.91 22.368ZM319.158 20.512C319.158 20.416 319.158 20.128 319.094 20.032C318.742 19.488 318.006 19.424 317.558 19.52C317.27 19.584 317.238 19.712 317.078 19.968C317.014 20.032 316.982 20.128 316.886 20.224C316.822 20.32 316.79 20.48 316.758 20.608C316.694 20.8 316.694 20.832 316.758 21.152C317.078 21.344 318.966 21.344 319.286 21.152C319.318 21.12 319.158 20.928 319.158 20.512ZM331.593 26.368C332.009 25.984 332.233 25.568 332.233 24.928C332.233 24.544 332.009 24.128 331.593 23.904C330.569 23.52 329.545 23.104 328.297 22.88C327.689 22.656 327.081 22.464 326.217 22.24C325.417 21.856 324.841 21.184 324.617 20.192C324.617 19.392 324.521 18.624 324.905 17.824C325.385 16.64 325.641 16.864 326.153 16.416C327.113 16.032 327.689 15.904 328.713 15.68C329.129 15.456 329.545 15.456 329.929 15.456H331.657C332.297 15.456 332.841 15.424 333.417 15.456C334.345 15.488 335.081 15.648 336.137 15.84C336.585 15.904 336.937 15.968 337.193 16.064C337.129 16.256 337.033 16.8 337.001 17.28C337.001 17.344 336.969 17.44 336.969 17.504C336.969 17.568 336.937 17.664 336.873 17.696C336.809 17.728 336.681 17.664 336.553 17.632C335.817 17.568 335.049 17.568 334.281 17.6C333.513 17.632 332.713 17.792 332.009 17.888C331.689 17.984 331.369 18.048 331.081 18.112C330.761 18.176 330.473 18.336 330.153 18.528C329.961 18.752 329.801 18.976 329.705 19.232C329.609 19.456 329.545 19.712 329.545 20C329.481 20.224 329.545 20.768 329.801 21.056C330.057 21.344 330.281 21.536 330.569 21.632C331.369 21.856 332.137 22.016 332.745 22.176C332.937 22.176 333.257 22.304 333.449 22.304C334.313 22.368 334.921 22.592 335.721 22.88C336.329 23.104 336.969 23.296 337.545 23.68C337.993 24.32 338.185 24.704 338.409 25.344V26.176C338.409 26.592 338.185 27.008 337.993 27.232C337.769 27.808 337.385 28.256 336.745 28.672C335.945 29.28 335.081 29.696 334.057 29.856C332.617 30.304 331.177 30.368 329.545 30.144L327.785 29.984C327.401 29.952 326.857 29.856 326.345 29.696C325.609 29.472 325.321 29.504 325.289 29.44C325.257 29.376 325.193 29.28 325.193 29.248C325.001 28.768 325.033 28.448 324.809 27.84C324.713 27.616 324.681 27.456 324.649 27.296C324.649 27.296 324.617 27.136 324.649 27.008C324.873 27.008 325.001 27.072 325.193 27.072C325.705 27.2 326.473 27.36 326.857 27.36C327.241 27.36 327.689 27.392 328.297 27.392C328.809 27.424 329.385 27.488 329.929 27.264C330.217 27.04 331.241 26.752 331.593 26.368Z" fill="#272934"/>
</svg>
