<svg width="194" height="80" viewBox="0 0 194 80" fill="none" xmlns="http://www.w3.org/2000/svg">
<path d="M16.704 64.64C13.76 64.64 11.136 63.936 8.832 62.528C6.57067 61.12 4.77867 59.2 3.456 56.768C2.176 54.336 1.536 51.5627 1.536 48.448C1.536 45.3333 2.176 42.56 3.456 40.128C4.77867 37.696 6.57067 35.776 8.832 34.368C11.136 32.96 13.76 32.256 16.704 32.256C18.8373 32.256 20.7573 32.6613 22.464 33.472C24.2133 34.2827 25.6427 35.4133 26.752 36.864C27.904 38.272 28.544 39.8933 28.672 41.728V54.848C28.544 56.6827 27.9253 58.3467 26.816 59.84C25.7067 61.2907 24.2773 62.464 22.528 63.36C20.7787 64.2133 18.8373 64.64 16.704 64.64ZM18.432 55.808C19.84 55.808 21.056 55.5093 22.08 54.912C23.104 54.272 23.9147 53.3973 24.512 52.288C25.1093 51.1787 25.408 49.8987 25.408 48.448C25.408 46.9973 25.1093 45.7387 24.512 44.672C23.9573 43.5627 23.1467 42.688 22.08 42.048C21.056 41.408 19.8613 41.088 18.496 41.088C17.1307 41.088 15.9147 41.408 14.848 42.048C13.824 42.688 12.992 43.5627 12.352 44.672C11.7547 45.7813 11.456 47.04 11.456 48.448C11.456 49.856 11.7547 51.1147 12.352 52.224C12.9493 53.3333 13.7813 54.208 14.848 54.848C15.9147 55.488 17.1093 55.808 18.432 55.808ZM34.624 64H25.024V55.616L26.496 48.064L24.832 40.512V17.536H34.624V64ZM56.8785 64.704C53.5078 64.704 50.4998 64.0213 47.8545 62.656C45.2518 61.248 43.2038 59.3067 41.7105 56.832C40.2172 54.3573 39.4705 51.5627 39.4705 48.448C39.4705 45.3333 40.1958 42.56 41.6465 40.128C43.1398 37.6533 45.1452 35.712 47.6625 34.304C50.1798 32.896 53.0172 32.192 56.1745 32.192C59.2465 32.192 61.9558 32.8533 64.3025 34.176C66.6492 35.4987 68.4838 37.3333 69.8065 39.68C71.1718 42.0267 71.8545 44.7147 71.8545 47.744C71.8545 48.2987 71.8118 48.896 71.7265 49.536C71.6838 50.1333 71.5772 50.8373 71.4065 51.648L44.5905 51.712V44.992L67.2465 44.928L63.0225 47.744C62.9798 45.952 62.7025 44.48 62.1905 43.328C61.6785 42.1333 60.9105 41.2373 59.8865 40.64C58.9052 40 57.6892 39.68 56.2385 39.68C54.7025 39.68 53.3585 40.0427 52.2065 40.768C51.0972 41.4507 50.2225 42.432 49.5825 43.712C48.9852 44.992 48.6865 46.5493 48.6865 48.384C48.6865 50.2187 49.0065 51.7973 49.6465 53.12C50.3292 54.4 51.2678 55.4027 52.4625 56.128C53.6998 56.8107 55.1505 57.152 56.8145 57.152C58.3505 57.152 59.7372 56.896 60.9745 56.384C62.2118 55.8293 63.2998 55.0187 64.2385 53.952L69.6145 59.328C68.0785 61.12 66.2225 62.464 64.0465 63.36C61.8705 64.256 59.4812 64.704 56.8785 64.704ZM87.909 64.768C86.0743 64.768 84.261 64.5333 82.469 64.064C80.7197 63.5947 79.077 62.9333 77.541 62.08C76.0477 61.184 74.7677 60.16 73.701 59.008L79.269 53.376C80.293 54.4853 81.509 55.36 82.917 56C84.325 56.5973 85.861 56.896 87.525 56.896C88.677 56.896 89.5517 56.7253 90.149 56.384C90.789 56.0427 91.109 55.5733 91.109 54.976C91.109 54.208 90.725 53.632 89.957 53.248C89.2317 52.8213 88.293 52.4587 87.141 52.16C85.989 51.8187 84.773 51.456 83.493 51.072C82.213 50.688 80.997 50.1547 79.845 49.472C78.693 48.7893 77.7543 47.8507 77.029 46.656C76.3037 45.4187 75.941 43.8613 75.941 41.984C75.941 39.9787 76.453 38.2507 77.477 36.8C78.501 35.3067 79.9517 34.1333 81.829 33.28C83.7063 32.4267 85.9037 32 88.421 32C91.0663 32 93.4983 32.4693 95.717 33.408C97.9783 34.304 99.813 35.648 101.221 37.44L95.653 43.072C94.6717 41.92 93.5623 41.1093 92.325 40.64C91.1303 40.1707 89.957 39.936 88.805 39.936C87.6957 39.936 86.8637 40.1067 86.309 40.448C85.7543 40.7467 85.477 41.1947 85.477 41.792C85.477 42.432 85.8397 42.944 86.565 43.328C87.2903 43.712 88.229 44.0533 89.381 44.352C90.533 44.6507 91.749 45.0133 93.029 45.44C94.309 45.8667 95.525 46.4427 96.677 47.168C97.829 47.8933 98.7677 48.8747 99.493 50.112C100.218 51.3067 100.581 52.8853 100.581 54.848C100.581 57.8773 99.429 60.288 97.125 62.08C94.8637 63.872 91.7917 64.768 87.909 64.768ZM105.894 64V32.896H115.686V64H105.894ZM110.822 28.608C109.286 28.608 108.006 28.096 106.982 27.072C106 26.0053 105.51 24.7253 105.51 23.232C105.51 21.696 106 20.416 106.982 19.392C108.006 18.368 109.286 17.856 110.822 17.856C112.358 17.856 113.616 18.368 114.598 19.392C115.579 20.416 116.07 21.696 116.07 23.232C116.07 24.7253 115.579 26.0053 114.598 27.072C113.616 28.096 112.358 28.608 110.822 28.608ZM135.765 77.952C132.352 77.952 129.344 77.3547 126.741 76.16C124.181 75.008 122.154 73.3653 120.661 71.232L126.677 65.216C127.786 66.5387 129.024 67.5413 130.389 68.224C131.797 68.9067 133.482 69.248 135.445 69.248C137.877 69.248 139.776 68.6507 141.141 67.456C142.549 66.2613 143.253 64.576 143.253 62.4V54.464L144.917 47.68L143.445 40.896V32.896H153.045V62.144C153.045 65.344 152.298 68.1173 150.805 70.464C149.312 72.8107 147.264 74.6453 144.661 75.968C142.058 77.2907 139.093 77.952 135.765 77.952ZM135.317 63.04C132.458 63.04 129.92 62.3573 127.701 60.992C125.482 59.6267 123.733 57.7707 122.453 55.424C121.173 53.0773 120.533 50.4747 120.533 47.616C120.533 44.7147 121.173 42.112 122.453 39.808C123.733 37.4613 125.482 35.6267 127.701 34.304C129.92 32.9387 132.458 32.256 135.317 32.256C137.45 32.256 139.349 32.6613 141.013 33.472C142.72 34.24 144.085 35.3493 145.109 36.8C146.176 38.208 146.773 39.8507 146.901 41.728V53.568C146.773 55.4027 146.176 57.0453 145.109 58.496C144.085 59.904 142.72 61.0133 141.013 61.824C139.306 62.6347 137.408 63.04 135.317 63.04ZM137.173 54.336C138.538 54.336 139.712 54.0373 140.693 53.44C141.717 52.8427 142.485 52.0533 142.997 51.072C143.552 50.048 143.829 48.896 143.829 47.616C143.829 46.336 143.552 45.184 142.997 44.16C142.485 43.136 141.717 42.3253 140.693 41.728C139.712 41.1307 138.538 40.832 137.173 40.832C135.85 40.832 134.677 41.1307 133.653 41.728C132.629 42.3253 131.84 43.136 131.285 44.16C130.73 45.184 130.453 46.336 130.453 47.616C130.453 48.8107 130.73 49.9413 131.285 51.008C131.84 52.032 132.608 52.8427 133.589 53.44C134.613 54.0373 135.808 54.336 137.173 54.336ZM180.5 64V46.272C180.5 44.6507 179.988 43.3493 178.964 42.368C177.983 41.344 176.724 40.832 175.188 40.832C174.121 40.832 173.183 41.0667 172.372 41.536C171.561 41.9627 170.921 42.6027 170.452 43.456C169.983 44.2667 169.748 45.2053 169.748 46.272L165.972 44.416C165.972 41.984 166.505 39.8507 167.572 38.016C168.639 36.1813 170.111 34.7733 171.988 33.792C173.908 32.768 176.063 32.256 178.452 32.256C180.756 32.256 182.783 32.8107 184.532 33.92C186.324 34.9867 187.732 36.416 188.756 38.208C189.78 40 190.292 41.9627 190.292 44.096V64H180.5ZM159.956 64V32.896H169.748V64H159.956Z" fill="#272934"/>
</svg>
