<svg width="24" height="24" viewBox="0 0 24 24" fill="none" xmlns="http://www.w3.org/2000/svg">
<path d="M15.7502 2.90556C15.7504 2.70677 15.8295 2.51618 15.9701 2.37568C16.1108 2.23518 16.3014 2.15625 16.5002 2.15625H16.5009C17.4877 2.15854 18.4567 2.41948 19.3112 2.91303C20.1657 3.40659 20.8759 4.11553 21.3709 4.96916C21.4202 5.05447 21.4522 5.14865 21.4651 5.24633C21.478 5.34402 21.4715 5.44328 21.4461 5.53846C21.4206 5.63364 21.3766 5.72287 21.3166 5.80104C21.2567 5.87922 21.1819 5.94481 21.0965 5.99407C21.0112 6.04333 20.917 6.0753 20.8193 6.08815C20.7216 6.10099 20.6224 6.09446 20.5272 6.06893C20.432 6.0434 20.3428 5.99937 20.2647 5.93936C20.1865 5.87934 20.121 5.80452 20.0718 5.71916C19.7086 5.09306 19.1876 4.5731 18.5608 4.21113C17.934 3.84917 17.2233 3.65785 16.4995 3.65625C16.3006 3.65606 16.1099 3.57686 15.9694 3.43608C15.8289 3.2953 15.75 3.10447 15.7502 2.90556ZM8.03012 21.8839C6.84888 21.0661 5.86487 19.9952 5.14968 18.7491C5.05023 18.5769 4.88642 18.4512 4.69429 18.3997C4.50217 18.3482 4.29746 18.3752 4.12521 18.4747C3.95296 18.5741 3.82727 18.7379 3.7758 18.93C3.72432 19.1222 3.75128 19.3269 3.85073 19.4991C4.67623 20.9371 5.81201 22.1729 7.17538 23.1166C7.25632 23.1728 7.34753 23.2124 7.4438 23.2333C7.54007 23.2543 7.63952 23.256 7.73646 23.2385C7.8334 23.2209 7.92594 23.1845 8.00879 23.1312C8.09164 23.0779 8.16317 23.0088 8.21931 22.9278C8.27544 22.8468 8.31508 22.7556 8.33595 22.6593C8.35683 22.5631 8.35853 22.4636 8.34096 22.3667C8.32339 22.2697 8.28689 22.1772 8.23356 22.0944C8.18022 22.0116 8.11109 21.94 8.03012 21.8839ZM21.4685 16.0092C21.0458 17.5849 20.1654 19 18.9386 20.0756C17.7118 21.1511 16.1938 21.8388 14.5762 22.0517C12.9587 22.2647 11.3143 21.9933 9.85101 21.2719C8.38768 20.5506 7.17104 19.4116 6.35488 17.9989L2.79238 11.8285C2.57083 11.445 2.44994 11.0117 2.44097 10.5689C2.43199 10.1261 2.53523 9.68824 2.74106 9.2961C2.94689 8.90395 3.24862 8.57028 3.61815 8.32616C3.98767 8.08204 4.41297 7.93541 4.85443 7.89993L4.16503 6.70587C3.8526 6.16419 3.74376 5.52879 3.8581 4.914C3.97245 4.29922 4.30248 3.74544 4.78878 3.35233C5.27509 2.95921 5.88574 2.75258 6.51083 2.76963C7.13593 2.78667 7.73441 3.02626 8.19857 3.44529C8.43624 3.05742 8.77066 2.73799 9.16901 2.51834C9.56736 2.29868 10.016 2.18635 10.4708 2.19236C10.9257 2.19837 11.3712 2.32251 11.7636 2.55261C12.156 2.7827 12.4819 3.11085 12.7092 3.50487L14.3351 6.32112C14.587 5.95689 14.9269 5.66228 15.3232 5.46466C15.7195 5.26705 16.1594 5.17285 16.6018 5.19084C17.0443 5.20882 17.4751 5.3384 17.854 5.56752C18.233 5.79665 18.5478 6.11788 18.7693 6.50134L20.6443 9.7489C21.1888 10.686 21.542 11.7219 21.6835 12.7965C21.825 13.8711 21.7519 14.963 21.4685 16.0092ZM19.3453 10.4989L17.4703 7.25134C17.3964 7.12339 17.2981 7.01125 17.1809 6.92131C17.0637 6.83137 16.9299 6.76539 16.7872 6.72715C16.6445 6.68891 16.4957 6.67915 16.3492 6.69843C16.2027 6.71771 16.0615 6.76565 15.9335 6.83951C15.8056 6.91338 15.6934 7.01172 15.6035 7.12893C15.5135 7.24614 15.4476 7.37991 15.4093 7.52261C15.3711 7.66532 15.3613 7.81416 15.3806 7.96063C15.3999 8.10711 15.4478 8.24835 15.5217 8.3763L16.4592 10.0001C16.4717 10.0218 16.4831 10.0441 16.4934 10.0669C16.5009 10.0835 16.507 10.1004 16.5133 10.1173C16.5155 10.1233 16.5182 10.1292 16.5203 10.1353C16.5273 10.156 16.533 10.1769 16.5382 10.1979C16.5388 10.2005 16.5397 10.2031 16.5403 10.2057C16.5453 10.2273 16.5491 10.249 16.5521 10.2707C16.5524 10.2731 16.553 10.2754 16.5534 10.2777C16.5561 10.2985 16.5575 10.3193 16.5585 10.3401C16.5586 10.3437 16.5592 10.3473 16.5593 10.351C16.5599 10.3701 16.5593 10.3892 16.5584 10.4082C16.5582 10.4137 16.5584 10.4192 16.558 10.4246C16.5568 10.4425 16.5544 10.4602 16.5519 10.478C16.551 10.4845 16.5507 10.4911 16.5496 10.4977C16.5461 10.5189 16.5413 10.54 16.536 10.5609C16.5353 10.5636 16.5349 10.5665 16.5342 10.5693C16.5334 10.5721 16.5323 10.5748 16.5315 10.5776C16.5257 10.5984 16.5193 10.6189 16.5117 10.639C16.5096 10.6446 16.5069 10.6499 16.5047 10.6554C16.4977 10.6727 16.4906 10.6899 16.4825 10.7066C16.4804 10.7106 16.4781 10.7144 16.476 10.7184C16.4668 10.7362 16.4573 10.7539 16.4466 10.7711C16.4454 10.7731 16.444 10.7749 16.4427 10.7768C16.4309 10.7955 16.4184 10.8139 16.4048 10.8316L16.4032 10.8335C16.3888 10.8521 16.3736 10.8701 16.3574 10.8874L16.3559 10.8889C16.3398 10.906 16.3229 10.9226 16.305 10.9383C16.3021 10.9408 16.2988 10.9431 16.2959 10.9456C16.2803 10.9589 16.2644 10.9719 16.2475 10.984C16.2273 10.9986 16.2063 11.0122 16.1847 11.0246C15.4957 11.4225 14.9928 12.0777 14.7869 12.8462C14.581 13.6148 14.6887 14.4337 15.0865 15.1227C15.186 15.295 15.213 15.4997 15.1615 15.6918C15.11 15.8839 14.9843 16.0477 14.8121 16.1472C14.6398 16.2467 14.4351 16.2736 14.243 16.2221C14.0509 16.1707 13.8871 16.045 13.7876 15.8727C13.256 14.9516 13.0677 13.872 13.2559 12.8253C13.4442 11.7786 13.9969 10.8323 14.8161 10.1542L14.2227 9.12634L14.2225 9.12593L11.4102 4.25491C11.2611 3.99651 11.0153 3.80796 10.7271 3.73073C10.4389 3.6535 10.1318 3.69392 9.87344 3.84311C9.61504 3.99229 9.42648 4.23802 9.34925 4.52622C9.27202 4.81443 9.31245 5.12151 9.46163 5.37991L11.899 9.60182C11.9985 9.77409 12.0254 9.9788 11.974 10.1709C11.9225 10.3631 11.7968 10.5269 11.6245 10.6263C11.4523 10.7258 11.2475 10.7527 11.0554 10.7013C10.8633 10.6498 10.6995 10.5241 10.6 10.3518L8.1625 6.12991L8.16103 6.12726L7.41259 4.83087C7.26328 4.57274 7.01759 4.38444 6.72951 4.30737C6.44143 4.2303 6.13454 4.27076 5.87628 4.41986C5.61802 4.56896 5.42952 4.81449 5.35221 5.1025C5.2749 5.39052 5.3151 5.69744 5.46398 5.95583L7.33862 9.20282L7.33899 9.20343L9.02649 12.1263C9.08012 12.2182 9.11352 12.3204 9.12444 12.4261C9.13536 12.5319 9.12355 12.6388 9.0898 12.7396C9.05605 12.8404 9.00114 12.9329 8.92875 13.0108C8.85636 13.0887 8.76817 13.1502 8.67007 13.1912C8.66197 13.1946 8.65382 13.1976 8.64567 13.2007C8.62498 13.2087 8.60412 13.2157 8.5831 13.2218C8.57472 13.2242 8.56643 13.2267 8.55801 13.2288C8.53202 13.2353 8.50569 13.2405 8.47914 13.2442C8.4768 13.2445 8.47447 13.2451 8.47213 13.2454C8.4432 13.249 8.41408 13.2509 8.38493 13.251C8.38255 13.251 8.38012 13.2515 8.37774 13.2515C8.3728 13.2515 8.36795 13.2506 8.363 13.2505C8.34025 13.2501 8.31762 13.2486 8.29512 13.2461C8.28706 13.2452 8.27905 13.2444 8.27104 13.2433C8.24407 13.2395 8.21733 13.2343 8.19093 13.2276C8.1891 13.2271 8.18722 13.2269 8.18539 13.2264C8.1571 13.2188 8.12929 13.2095 8.10208 13.1987C8.09507 13.1959 8.08834 13.1928 8.08143 13.1898C8.06074 13.181 8.04048 13.1712 8.02064 13.1605C8.0135 13.1566 8.0064 13.1529 7.99936 13.1488C7.97447 13.1345 7.95043 13.1188 7.92735 13.1017L7.9257 13.1006C7.90193 13.0825 7.87926 13.0629 7.85781 13.0421C7.85218 13.0367 7.84678 13.0309 7.84129 13.0252C7.82508 13.0086 7.8096 12.9912 7.79483 12.9729C7.7897 12.9666 7.78448 12.9604 7.77954 12.9538C7.76058 12.9291 7.74319 12.9032 7.72744 12.8763L6.03994 9.95347C5.89075 9.69508 5.64503 9.50654 5.35682 9.42933C5.06862 9.35211 4.76155 9.39255 4.50316 9.54174C4.24477 9.69093 4.05623 9.93665 3.97901 10.2249C3.9018 10.5131 3.94224 10.8201 4.09143 11.0785L7.65383 17.2489C8.54894 18.7993 10.0233 19.9306 11.7525 20.3939C13.4817 20.8573 15.3242 20.6147 16.8746 19.7196C18.425 18.8245 19.5563 17.3502 20.0196 15.621C20.483 13.8918 20.2404 12.0493 19.3453 10.4989Z" fill="#272934"/>
</svg>
