<svg width="24" height="24" viewBox="0 0 24 24" fill="none" xmlns="http://www.w3.org/2000/svg">
<g clip-path="url(#clip0_584_2031)">
<rect width="24" height="24" rx="8" fill="#272934"/>
<path d="M12 15C11.4834 15 10.9669 14.8306 10.5262 14.4872L4 9.4125V16.5C4 17.3281 4.67156 18 5.5 18H18.5C19.3284 18 20 17.3284 20 16.5V9.4125L13.475 14.4906C13.0344 14.8313 12.5156 15 12 15ZM4.50906 8.54063L11.1403 13.7C11.6463 14.0937 12.355 14.0937 12.8609 13.7L19.4922 8.54063C19.7844 8.29063 20 7.90625 20 7.5C20 6.67156 19.3281 6 18.5 6H5.5C4.67156 6 4 6.67156 4 7.5C4 7.90625 4.18781 8.29063 4.50906 8.54063Z" fill="#EDE6C0"/>
</g>
<defs>
<clipPath id="clip0_584_2031">
<rect width="24" height="24" rx="8" fill="white"/>
</clipPath>
</defs>
</svg>
