<svg width="24" height="24" viewBox="0 0 24 24" fill="none" xmlns="http://www.w3.org/2000/svg">
<g clip-path="url(#clip0_584_2006)">
<rect width="24" height="24" rx="8" fill="#272934"/>
<path d="M4.30968 20.5161H7.40645V9.05806H4.30968V20.5161ZM5.85806 4C4.82581 4 4 4.82581 4 5.85806C4 6.89032 4.82581 7.71613 5.85806 7.71613C6.89032 7.71613 7.71613 6.89032 7.71613 5.85806C7.71613 4.82581 6.89032 4 5.85806 4ZM12.671 10.8129V9.05806H9.57419V20.5161H12.671V14.6323C12.671 11.329 16.9032 11.1226 16.9032 14.6323V20.5161H20V13.4968C20 7.92258 14.1161 8.12903 12.671 10.8129Z" fill="#EDE6C0"/>
</g>
<defs>
<clipPath id="clip0_584_2006">
<rect width="24" height="24" rx="8" fill="white"/>
</clipPath>
</defs>
</svg>
