<svg width="24" height="24" viewBox="0 0 24 24" fill="none" xmlns="http://www.w3.org/2000/svg">
<g clip-path="url(#clip0_584_2023)">
<rect width="24" height="24" rx="8" fill="#272934"/>
<path d="M12.0001 7.83789C9.74206 7.83789 7.87109 9.6766 7.87109 11.9669C7.87109 14.2572 9.7098 16.096 12.0001 16.096C14.2904 16.096 16.1292 14.225 16.1292 11.9669C16.1292 9.70886 14.2582 7.83789 12.0001 7.83789ZM12.0001 14.6121C10.5485 14.6121 9.35496 13.4185 9.35496 11.9669C9.35496 10.5153 10.5485 9.32176 12.0001 9.32176C13.4517 9.32176 14.6453 10.5153 14.6453 11.9669C14.6453 13.4185 13.4517 14.6121 12.0001 14.6121Z" fill="#EDE6C0"/>
<path d="M16.2905 8.67761C16.8071 8.67761 17.2259 8.25878 17.2259 7.74212C17.2259 7.22547 16.8071 6.80664 16.2905 6.80664C15.7738 6.80664 15.355 7.22547 15.355 7.74212C15.355 8.25878 15.7738 8.67761 16.2905 8.67761Z" fill="#EDE6C0"/>
<path d="M18.7097 5.32258C17.871 4.45161 16.6774 4 15.3226 4H8.67742C5.87097 4 4 5.87097 4 8.67742V15.2903C4 16.6774 4.45161 17.871 5.35484 18.7419C6.22581 19.5806 7.3871 20 8.70968 20H15.2903C16.6774 20 17.8387 19.5484 18.6774 18.7419C19.5484 17.9032 20 16.7097 20 15.3226V8.67742C20 7.32258 19.5484 6.16129 18.7097 5.32258ZM18.5806 15.3226C18.5806 16.3226 18.2258 17.129 17.6452 17.6774C17.0645 18.2258 16.2581 18.5161 15.2903 18.5161H8.70968C7.74194 18.5161 6.93548 18.2258 6.35484 17.6774C5.77419 17.0968 5.48387 16.2903 5.48387 15.2903V8.67742C5.48387 7.70968 5.77419 6.90323 6.35484 6.32258C6.90323 5.77419 7.74194 5.48387 8.70968 5.48387H15.3548C16.3226 5.48387 17.129 5.77419 17.7097 6.35484C18.2581 6.93548 18.5806 7.74194 18.5806 8.67742V15.3226Z" fill="#EDE6C0"/>
</g>
<defs>
<clipPath id="clip0_584_2023">
<rect width="24" height="24" rx="8" fill="white"/>
</clipPath>
</defs>
</svg>
