<svg width="1244" height="243" viewBox="0 0 1244 243" fill="none" xmlns="http://www.w3.org/2000/svg">
<g clip-path="url(#clip0_549_6848)">
<path d="M1238.58 140.957L1238.42 140.646C1238.03 139.883 1237.7 139.164 1237.45 138.476L1236.24 135.265L1236.17 135.093C1235.18 132.826 1234.31 130.506 1233.58 128.186C1232.72 125.469 1231.7 122.74 1230.56 120.066L1228.49 114.555C1227.84 112.805 1227.24 111.032 1226.71 109.271L1226.64 109.024L1226.57 108.841C1226.52 108.691 1226.3 107.982 1225.6 105.436C1224.9 102.923 1223.78 99.8076 1222.18 95.93L1218.58 86.3166C1218 84.7698 1217.37 83.1801 1216.7 81.5904C1216.22 80.4733 1215.8 79.2917 1215.46 78.0887C1215.08 76.5742 1214.58 75.1241 1213.97 73.7707C1213.72 73.2014 1213.5 72.557 1213.33 71.8588L1213.18 71.2143L1212.92 70.6128C1211.99 68.5397 1210.8 65.7577 1209.38 62.3205C1207.94 58.8618 1206.38 54.995 1204.74 50.8274C1203.1 46.5953 1201.34 42.0947 1199.48 37.3256C1197.7 32.7605 1195.9 28.0666 1194.15 23.3726L1191.7 16.8205L1184.87 19.7743C1184.67 19.8173 1184.13 19.9462 1182.96 20.118C1180.75 20.4403 1178.87 20.9559 1177.23 21.6648L1171 24.3608C1166.02 26.5198 1165.4 30.58 1165.36 32.2449C1165.33 33.7595 1165.59 35.2525 1166.12 36.6703L1169.65 46.1012C1170.28 47.7983 1170.84 49.388 1171.31 50.8059C1171.82 52.3741 1172.2 53.5127 1172.46 54.2001L1181.92 79.4743L1186.25 89.8504L1187.1 92.1598C1187.29 92.6539 1187.46 93.2447 1187.62 93.9429L1187.8 94.7485L1188.16 95.4896C1188.99 97.2082 1189.65 98.9161 1190.14 100.57C1185.67 97.0041 1181.35 93.5132 1177.29 90.1727C1172.37 86.1232 1167.97 82.4927 1163.83 79.0554L1163.75 78.991L1163.67 78.9266C1162.78 78.2391 1161.78 77.3798 1160.69 76.3701C1159.37 75.1564 1158.01 73.9963 1156.67 72.9007C1155.31 71.7943 1153.98 70.7632 1152.71 69.8287C1151.49 68.9264 1150.41 68.1853 1149.52 67.6267C1149.31 67.4656 1148.62 66.8748 1147.29 65.2529C1145.61 63.2228 1143.48 60.9779 1140.75 58.3785C1139.48 57.1647 1138.18 56.0369 1136.9 55.0057C1136.09 54.3612 1135.43 53.7382 1134.94 53.1582L1131.87 49.5384L1123.75 53.0508C1122.54 53.1045 1121.3 53.4053 1120.06 53.9423C1118.59 54.5761 1117.27 55.3279 1116.14 56.1873C1116.12 56.1873 1115.63 56.5525 1114.05 57.2506C1112.62 57.7662 1111.3 58.2818 1110.11 58.7974C1109.48 59.0659 1108.87 59.3452 1108.29 59.6352C1106.54 60.4838 1105.72 60.8597 1105.39 60.9993L1102.12 62.4065L1100.46 70.9887L1101.64 73.2874C1102.11 74.2004 1102.55 75.1026 1102.93 75.9405C1103.3 76.7783 1103.66 77.6591 1104 78.5506L1107.85 89.5926L1100.1 92.6002L1096.28 94.7055C1096.08 94.8129 1095.54 95.0814 1094.35 95.5218C1093.25 95.9193 1092.14 96.3059 1091.03 96.6497L1087.35 97.8205C1086.76 98.0031 1086.2 98.2072 1085.68 98.4112L1085.53 98.3253C1085.44 98.2716 1084.96 97.9494 1083.74 96.9719C1083.56 96.8323 1083.43 96.7249 1083.33 96.6389C1082.64 95.3392 1081.87 94.2866 1080.99 93.438C1080.33 92.7935 1079.59 92.278 1078.81 91.902C1078.73 91.8376 1078.57 91.7087 1078.31 91.4509L1077.24 90.4412C1073.86 87.2081 1071.27 84.7805 1069.29 82.9975C1067.23 81.1178 1065.66 79.7214 1064.5 78.7225C1063.26 77.6269 1062.31 76.8213 1061.64 76.2949C1061.18 75.9297 1060.78 75.586 1060.42 75.2423L1056.77 71.7621C1056.37 71.3754 1056.02 70.9887 1055.72 70.6128C1055.33 70.0435 1054.87 69.4527 1054.38 68.8727C1054.47 68.0564 1054.52 67.1326 1054.54 66.0692C1055 64.544 1055.23 62.7072 1055.26 60.4301C1055.28 59.2163 1055.35 58.6148 1055.39 58.3785L1055.46 58.1959L1055.62 57.5407C1055.76 56.9606 1055.91 56.3913 1056.05 55.8113C1056.16 55.3817 1056.31 54.8661 1056.5 54.3075L1056.66 53.8134L1056.75 53.3086C1057.34 50.1292 1057.68 47.229 1057.76 44.7048C1057.81 43.2333 1058.02 41.9228 1058.38 40.795L1059.8 36.3374L1056.53 33.2224C1055.91 32.6316 1055.19 31.9871 1054.27 31.2245C1053.67 30.7304 1052.96 30.0859 1052.14 29.3126L1049.56 26.8421C1049.56 26.8421 1049.43 26.7239 1049.19 26.3909C1048.52 25.4242 1047.76 24.5434 1046.94 23.7593L1040.94 18.0342L1036.91 25.4887C1036.26 26.681 1035.75 28.0236 1035.36 29.5811C1035.21 30.2041 1035.02 30.7949 1034.81 31.3212L1034.67 31.6649L1034.57 32.0301C1034.14 33.5339 1033.69 34.898 1033.25 36.1225C1032.68 37.6908 1032.21 39.3127 1031.84 40.9561C1031.64 41.5576 1031.44 42.1591 1031.23 42.7929C1031.01 43.4588 1030.78 44.1248 1030.56 44.7908C1029.93 46.4019 1029.44 48.0668 1029.1 49.7532C1028.89 50.8059 1028.62 51.8907 1028.3 52.9864C1027.4 55.6717 1026.49 58.0777 1025.6 60.1615C1024.54 62.6105 1023.48 65.4355 1022.43 68.5612L1022.23 69.1627L1022.13 69.7965C1021.98 70.7417 1021.76 71.6762 1021.46 72.5785C1021.12 73.6418 1020.71 74.7697 1020.26 75.919L1020.11 76.3057L1019.44 78.7762C1019.42 78.0887 1019.4 77.3476 1019.38 76.5742C1019.31 74.1789 1019.01 72.1166 1018.47 70.3765C1018.47 66.617 1018.03 62.8898 1017.15 59.1948C1016.28 55.4998 1015.5 51.9122 1014.83 48.4428C1014.83 46.7027 1014.09 44.533 1012.6 41.9228C1011.13 39.3234 1009.85 37.143 1008.77 35.4136C1008.37 34.8336 1007.93 34.2536 1007.46 33.6735C1006.98 33.0935 1006.61 32.5135 1006.35 31.9334C1005.67 30.6337 1004.56 29.4415 1003.02 28.3459C1001.47 27.261 1000.29 26.2191 999.479 25.1987C998.54 24.189 997.391 23.2115 996.043 22.2663C994.695 21.3318 993.386 20.5262 992.107 19.8817C990.829 19.2265 989.65 18.7217 988.572 18.3565C987.493 18.002 986.684 17.7442 986.144 17.5938C984.536 17.0245 983.088 16.509 981.809 16.0793C980.521 15.6389 978.942 15.4241 977.055 15.4241C974.907 15.4241 972.78 15.4993 970.702 15.6389C968.604 15.7893 966.686 16.0041 964.938 16.2941C963.19 16.5841 961.033 17.132 958.476 17.9268C955.919 18.7217 953.961 19.6239 952.623 20.6444L948.178 23.4586C947.369 24.0386 946.46 24.6616 945.451 25.3061C944.442 25.9613 943.593 26.6487 942.924 27.3684L937.07 34.318C934.913 36.9281 933.195 39.9357 931.916 43.3407C930.727 46.5094 929.559 50.011 928.44 53.8671C927.391 53.2871 926.293 52.8037 925.144 52.4063C923.266 51.7726 921.638 51.2355 920.15 50.7951L916.134 49.5921C914.216 49.0228 912.189 48.3461 910.081 47.5727C907.904 46.7779 905.786 45.9938 903.758 45.2311C901.84 44.5115 900.612 44.0711 899.803 43.8133C897.935 43.0077 895.867 42.2665 893.65 41.6006C893.08 41.4287 892.491 41.2676 891.892 41.1065C889.265 40.3976 887.067 39.7746 885.359 39.259L885.2 39.216L885.04 39.1731C884.39 39.0227 883.741 38.8401 883.112 38.6575C881.584 38.1956 880.115 37.6478 878.727 37.0033C877.398 36.3911 876.02 35.8755 874.602 35.4458C872.933 34.9517 871.186 34.5758 869.408 34.3395C869.218 34.318 868.798 34.2321 868.079 34.0173C867.739 33.9206 867.36 33.7917 866.95 33.652C866.371 33.448 865.812 33.2654 865.282 33.1042C864.124 32.7605 863.035 32.5027 862.046 32.3524L861.856 32.3201L861.666 32.2986C860.857 32.2235 860.028 32.0516 859.189 31.8045C858.969 31.7401 858.74 31.6649 858.51 31.579C857.052 31.0741 855.673 30.5586 854.395 30.0322L854.115 29.9248L848.471 28.2277L846.354 29.2052C843.327 30.5908 841.969 32.7713 841.37 34.3287C841.05 35.1236 840.78 35.9722 840.56 36.8315L840.211 38.1849L840.371 39.5812C840.441 40.2042 840.321 40.8809 840.001 41.665C838.583 45.1774 838.283 48.4535 839.092 51.4074L840.131 55.1453L843.637 56.198C845.365 56.7136 847.193 57.1754 849.071 57.5729C849.77 57.7233 850.449 57.8951 851.108 58.0885C851.748 58.2818 852.377 58.4966 852.966 58.7329L853.046 58.7652L853.126 58.7974C855.533 59.6782 857.571 60.3656 859.199 60.849L863.414 62.1057C864.853 62.5353 866.371 62.9543 867.929 63.3409C869.447 63.7169 871.395 64.1895 873.872 64.7695L873.952 64.791L874.042 64.8125C874.931 64.9951 875.9 65.2422 876.919 65.5429C877.438 65.6933 877.978 65.8652 878.507 66.0478C878.567 66.0692 878.637 66.0907 878.697 66.1122C878.287 67.4549 877.988 68.7653 877.808 70.022C877.628 71.2895 877.418 72.5999 877.209 73.9319L877.189 74.05C876.879 76.1768 876.36 78.5721 875.62 81.1715C874.831 83.975 874.172 86.3703 873.673 88.2929C872.754 91.279 872.025 94.2544 871.505 97.1652C871.096 99.4854 870.496 101.924 869.727 104.416L869.677 104.577L868.628 108.637C868.309 109.872 867.989 110.903 867.69 111.709C866.86 113.589 866.211 115.608 865.752 117.724C865.452 119.088 865.192 120.431 864.953 121.72C863.724 124.018 862.705 126.424 861.916 128.906C861.307 130.828 860.428 132.944 859.279 135.2C858.35 136.661 857.561 138.347 856.872 140.334C856.772 140.603 856.682 140.807 856.612 140.957C856.582 141.011 856.552 141.065 856.532 141.108C855.653 141.763 854.844 142.515 854.145 143.353C853.725 143.847 853.166 144.481 852.477 145.211C852.067 145.641 851.288 146.403 849.9 147.553C848.821 148.444 847.223 149.54 845.165 150.786L844.756 151.033L844.386 151.344C842.918 152.558 841.33 153.084 839.382 153.009C837.584 152.945 835.826 152.655 834.158 152.161C833.319 151.903 832.49 151.602 831.721 151.258L828.864 149.98C827.535 149.282 826.347 148.648 825.228 148.036C824.259 147.51 823.33 146.93 822.481 146.317L822.351 146.231C820.963 145.275 819.754 144.373 818.725 143.525C817.517 142.536 817.067 142.053 816.957 141.935L816.258 141.151L816.098 140.957H816.238C816.138 140.259 816.038 139.561 815.929 138.874C815.669 137.155 815.489 135.404 815.399 133.686V133.449L815.359 133.213C815.109 131.118 814.8 129.045 814.42 127.069C814.141 125.554 813.951 123.965 813.861 122.354V122.117L813.821 121.881C813.681 120.689 813.591 119.711 813.561 118.97C813.521 118.121 813.461 117.305 813.381 116.543L813.401 113.374L813.352 112.923C813.292 112.482 813.222 112.074 813.122 111.687C813.172 108.411 812.912 105.2 812.343 102.106C811.863 99.4854 811.584 96.8645 811.504 94.3081L811.484 93.5132L811.284 92.7506C811.124 92.0954 811.004 91.5153 810.944 91.0105L810.665 88.6689L809.776 77.7987L806.15 52.1485C806.04 51.2355 805.96 50.3225 805.91 49.4417C805.86 48.5609 805.83 47.5835 805.83 46.5953V44.0926L800.736 37.7982L797.42 38.2493C797.08 38.2923 796.241 38.3997 794.413 38.5608C793.804 38.6145 793.175 38.6897 792.535 38.7756C791.327 38.9475 790.008 39.1731 788.6 39.4631C786.982 39.6672 786.422 39.6135 786.402 39.6135C785.084 39.4738 783.665 39.506 782.177 39.7101C780.909 39.882 779.75 40.2472 778.721 40.8165L770.461 41.9443L769.462 46.4771C769.302 47.2183 769.022 48.0668 768.633 49.0013C768.013 50.4944 767.424 52.0841 766.885 53.7275C765.736 57.2506 764.937 60.183 764.427 62.7072C764.018 64.7158 763.698 65.5536 763.598 65.79C763.089 66.703 762.52 67.8523 761.89 69.2164C761.241 70.6235 760.582 72.1488 759.922 73.7385C759.283 75.3175 758.664 76.9716 758.085 78.6365C757.605 80.0222 757.146 81.2359 756.706 82.2563L756.666 82.3423L756.636 82.4282C754.669 87.3585 752.581 92.5787 750.244 98.4005C748.316 103.202 746.228 108.25 744.041 113.449C743.731 111.838 743.551 110.087 743.501 108.24L743.471 107.445L743.281 106.682C743.112 106.027 743.002 105.447 742.942 104.953L742.662 102.6L741.773 91.8161L738.727 66.08C738.637 65.3818 738.467 64.2432 738.217 62.6857C737.988 61.2786 737.768 59.6782 737.568 57.9488L736.429 48.3461C736.26 46.896 735.83 45.5319 735.151 44.2859C734.402 42.9325 732.134 39.8498 727.05 40.5479L720.717 41.418C719.039 41.6436 717.261 42.1591 715.283 42.997C714.245 43.4266 713.735 43.5985 713.555 43.6522L706.593 44.6082L707.393 51.2785C707.952 56.0584 708.491 60.8597 708.981 65.5429C709.5 70.4409 709.98 75.0597 710.429 79.3992C710.869 83.6742 711.248 87.67 711.548 91.2683C711.847 94.8236 712.057 97.7345 712.187 99.9258L712.207 100.248C711.128 99.6357 710.009 99.1202 708.871 98.6798C707.922 98.3146 706.953 97.8957 705.974 97.4123C703.617 96.1126 701.509 94.8451 699.701 93.6314C697.574 92.2028 695.097 90.7097 692.35 89.1952L691.82 88.9052L691.251 88.7226C690.392 88.4433 689.563 88.0889 688.764 87.6592C687.825 87.1651 686.836 86.5851 685.837 85.9513L685.497 85.7365L678.126 82.2778L670.814 77.5087L670.594 77.3798C670.315 77.2294 670.065 77.0576 669.815 76.8535C668.787 76.0157 667.658 75.3712 666.439 74.9523C665.181 74.2326 663.852 73.4807 662.324 72.5892C661.375 72.0414 659.527 70.8813 656.101 68.4645L656.011 68.4108L655.921 68.3464C653.933 67.0359 651.906 65.7255 649.868 64.4366C647.761 63.1154 645.803 61.9338 644.065 60.9456L643.975 60.8919C642.577 60.1293 641.767 59.6245 641.308 59.3237C640.069 58.4966 638.971 57.9703 637.902 57.691L636.094 56.9499L626.944 51.4074L621.111 47.8842L619.772 47.1109L616.846 44.9948L616.726 44.9411C615.867 44.0818 614.828 43.3729 613.64 42.8466L609.874 41.1709L600.095 50.3547C599.376 49.431 598.707 48.5717 598.087 47.7983C597.128 46.5953 595.78 45.4137 594.032 44.2322C592.034 42.9003 590.036 41.6436 588.029 40.4835C586.011 39.3127 584.113 38.3245 582.335 37.4974C580.557 36.6811 578.27 35.8433 575.473 34.984C572.676 34.1354 570.379 33.7595 568.591 33.8561L562.947 33.7057C561.889 33.7487 560.72 33.7487 559.431 33.7272C558.143 33.695 556.994 33.8132 555.985 34.0602L546.816 36.8637C543.42 37.9378 540.203 39.6457 537.197 42.0088C534.17 44.3611 530.974 47.1109 527.598 50.2473C527.238 50.5588 526.439 51.4826 525.22 52.9864C523.992 54.5009 522.733 56.0691 521.435 57.7125C520.126 59.3559 518.888 60.9027 517.709 62.342C516.52 63.7813 515.751 64.6621 515.392 64.9844C514.043 66.703 512.795 68.5612 511.626 70.5698C510.457 72.5785 509.339 74.3508 508.28 75.876C507.73 76.7568 507.201 77.6269 506.692 78.5184C506.682 78.4969 506.682 78.4754 506.682 78.4539L506.662 78.2606L506.632 78.0672C506.392 76.6601 506.282 75.006 506.312 73.1692C506.332 71.021 506.232 68.9801 506.002 67.0897C506.272 65.5107 506.332 63.9425 506.162 62.385C506.022 61.0638 505.813 59.6137 505.553 58.067C505.393 57.068 505.373 56.5632 505.373 56.3699C505.373 55.2205 505.273 53.9745 505.053 52.5782C504.884 49.9788 504.664 47.4546 504.404 45.0485C504.154 42.8036 503.835 40.4835 503.465 38.1419C503.475 36.9496 503.285 35.8003 503.106 34.7691L501.817 27.0569C502.107 26.9495 502.386 26.8421 502.666 26.7347C505.423 25.7465 506.182 25.5853 506.262 25.5639L511.576 24.5327L511.666 18.7324C511.686 17.2716 511.516 15.8752 511.156 14.554V14.5111C511.047 14.1674 510.967 13.8236 510.917 13.4907L508.919 1.53561L504.634 0.525933C502.157 -0.0540967 499.59 -0.150768 497.003 0.235918C495.045 0.536674 493.367 0.826688 491.849 1.1167L487.743 1.91156C485.785 2.2875 483.678 2.62048 481.47 2.9105C479.193 3.21125 476.966 3.49053 474.838 3.74832C472.81 4.00611 471.522 4.17797 470.693 4.3176C468.695 4.46798 466.527 4.76874 464.26 5.20913C463.681 5.31654 463.081 5.44544 462.472 5.57433C459.825 6.15436 457.598 6.62698 455.85 6.95996L455.68 6.99218L455.52 7.03515C454.871 7.19627 454.221 7.34665 453.582 7.4648C452.024 7.76556 450.466 7.9589 448.957 8.02335C447.519 8.09854 446.061 8.2704 444.622 8.54967C442.914 8.88265 441.196 9.36601 439.488 9.97826C439.309 10.0427 438.899 10.1716 438.17 10.3112C437.82 10.3757 437.431 10.4401 437.001 10.5046C436.402 10.5905 435.822 10.6872 435.273 10.7946C434.094 11.0202 433.006 11.2994 432.057 11.6217L431.877 11.6754L431.687 11.7506C430.938 12.0621 430.119 12.2984 429.26 12.4595C429.03 12.5025 428.8 12.5454 428.561 12.5777C427.042 12.8032 425.594 12.9858 424.226 13.104L423.926 13.1362L418.163 14.2533L416.644 16.1115C414.487 18.7754 414.137 21.3748 414.217 23.0504C414.267 23.9204 414.357 24.812 414.507 25.682L414.737 27.0784L415.446 28.2599C415.755 28.7862 415.925 29.4522 415.965 30.3008C416.105 34.1354 417.154 37.2289 419.072 39.4953L421.519 42.3954L425.095 41.6973C426.863 41.3535 428.701 40.9239 430.549 40.3976C431.238 40.215 431.927 40.0431 432.596 39.9142C433.245 39.7961 433.895 39.6994 434.524 39.6349H434.614L434.704 39.6135C437.221 39.2805 439.338 38.9475 440.997 38.6253L445.302 37.7874C446.77 37.5082 448.308 37.1752 449.866 36.7885C451.385 36.4233 453.333 35.9399 455.79 35.3062L455.88 35.2847L455.96 35.2632C456.838 35.0162 457.817 34.7799 458.856 34.5758C459.386 34.4791 459.935 34.3825 460.484 34.2965C460.554 34.2965 460.624 34.275 460.684 34.2643C460.854 35.6607 461.124 36.9818 461.463 38.2063C461.803 39.4201 462.152 40.7091 462.502 42.0088L462.532 42.1162C463.111 44.1785 463.611 46.5845 463.99 49.2591C464.41 52.1593 464.789 54.619 465.119 56.5954C465.489 59.7104 466.038 62.7287 466.747 65.5859C467.307 67.8845 467.756 70.355 468.066 72.9544L468.086 73.1263L468.775 77.2831C468.985 78.5399 469.124 79.614 469.174 80.484C469.184 82.5571 469.414 84.6839 469.864 86.7999C470.143 88.1748 470.443 89.5067 470.753 90.7742C470.563 93.4165 470.623 96.0696 470.922 98.669C471.142 100.678 471.202 102.998 471.082 105.565C470.833 107.316 470.803 109.206 470.982 111.322C471.012 111.709 471.012 111.988 470.992 112.171C470.453 113.17 470.043 114.222 469.744 115.307C469.574 115.952 469.314 116.779 468.995 117.767C468.805 118.347 468.405 119.389 467.616 121.065C467.007 122.386 466.008 124.115 464.66 126.199L464.39 126.607L464.18 127.058C463.351 128.841 462.132 130.066 460.344 130.904C458.696 131.677 456.998 132.246 455.29 132.569C454.441 132.74 453.572 132.848 452.733 132.901L449.647 133.073C448.168 133.073 446.84 133.073 445.591 133.03C444.503 133.009 443.434 132.923 442.425 132.762L442.265 132.74C440.627 132.526 439.169 132.278 437.91 131.999C436.422 131.677 435.813 131.451 435.673 131.387L431.378 129.636C431.497 128.992 431.647 128.336 431.817 127.692C432.267 126.199 432.576 124.684 432.756 123.191C432.826 122.568 432.976 121.913 433.185 121.226L433.375 120.592L433.455 119.926C433.735 117.649 434.144 114.609 434.684 110.903C435.223 107.155 435.872 102.998 436.612 98.5401C437.361 94.0288 438.16 89.2274 439.009 84.1361C439.828 79.2595 440.697 74.2648 441.596 69.3024L442.844 62.3635L435.623 60.8597C435.433 60.7845 434.914 60.5697 433.855 60.0326C431.827 59.0122 429.989 58.3462 428.251 57.981L421.669 56.5954C416.395 55.4998 413.818 58.5503 412.949 59.9252C412.16 61.1819 411.62 62.5783 411.34 64.0821L409.543 74.0607C409.213 75.8653 408.883 77.5194 408.554 78.9803C408.184 80.5914 407.934 81.773 407.804 82.5034L402.97 109.238L401.342 120.485L400.902 122.923C400.812 123.438 400.653 124.051 400.443 124.717L400.183 125.501L400.113 126.339C399.933 128.261 399.634 130.087 399.204 131.752C397.247 126.145 395.389 120.699 393.671 115.522C391.593 109.249 389.735 103.621 387.997 98.3146L387.957 98.2179L387.927 98.1212C387.528 97.0256 387.128 95.7152 386.709 94.2329C386.219 92.4391 385.67 90.6668 385.09 88.9589C384.511 87.251 383.922 85.5969 383.322 84.0824C382.753 82.6001 382.224 81.3541 381.754 80.3551C381.664 80.1081 381.385 79.2058 381.085 77.0576C380.715 74.383 380.056 71.2465 379.077 67.4656C378.618 65.704 378.108 64.0069 377.549 62.385C377.199 61.3753 376.96 60.473 376.84 59.6889L376.091 54.8553L367.5 53.0615C366.452 52.3956 365.263 51.923 363.955 51.6544C362.406 51.3322 360.908 51.1926 359.53 51.2463C359.5 51.2463 358.91 51.2463 357.232 50.9133C355.774 50.5159 354.405 50.1721 353.147 49.9143C352.488 49.7747 351.828 49.6458 351.199 49.5491C349.291 49.2376 348.422 49.0658 348.073 49.0013L344.617 48.2709L338.883 54.5009L338.713 57.1217C338.643 58.1636 338.554 59.1733 338.454 60.1078C338.344 61.0208 338.204 61.9661 338.034 62.9113L332.59 89.5282L330.962 100.86L330.523 103.299C330.423 103.814 330.263 104.416 330.053 105.092L329.803 105.876L329.724 106.703C329.484 109.378 329.014 112.117 328.345 114.824C327.556 118.025 327.077 121.376 326.917 124.813C326.797 125.2 326.687 125.63 326.597 126.092L326.517 126.543L326.337 129.883C326.208 130.667 326.088 131.516 325.998 132.407C325.968 132.633 325.938 132.869 325.908 133.138C325.528 132.611 325.129 132.107 324.719 131.613C324.05 130.818 323.381 129.948 322.742 129.024C321.243 126.672 319.955 124.48 318.906 122.482C317.657 120.141 316.149 117.563 314.391 114.824L314.061 114.298L313.642 113.846C313.013 113.159 312.433 112.429 311.924 111.634C311.315 110.721 310.705 109.711 310.106 108.637L309.906 108.282L304.952 101.462L300.627 93.5132L300.487 93.2984C300.307 93.0191 300.167 92.7398 300.038 92.4391C299.508 91.1609 298.799 90.0223 297.91 89.0448C297.121 87.7559 296.292 86.4132 295.333 84.8557C294.744 83.8783 293.635 81.9126 291.687 78.035L291.647 77.9383L291.587 77.8417C290.418 75.6719 289.21 73.4807 287.991 71.311C286.723 69.0553 285.534 67.0252 284.435 65.2636L284.375 65.167C283.486 63.7813 282.997 62.922 282.737 62.4279C282.008 61.0638 281.279 60.0326 280.46 59.2485L279.191 57.6695L273.598 48.1205L270.032 42.0302L269.193 40.6554L267.555 37.3041L267.475 37.1967C267.105 35.9936 266.506 34.8443 265.687 33.7702L263.12 30.376L250.025 33.5554C249.245 33.738 248.466 33.985 247.657 34.2965C246.169 34.8873 244.771 35.9292 243.382 37.4974L242.353 38.6575L241.884 40.172C241.584 41.1602 241.384 42.0302 241.265 42.8573L240.845 43.577L240.805 45.5212C240.775 46.5631 240.735 47.4546 240.665 48.1528C240.575 49.0658 240.466 50.0755 240.326 51.1389V51.257L240.306 51.3859C240.216 52.3096 240.126 53.2334 240.046 54.1357C239.966 54.9413 239.896 55.7469 239.816 56.5417C239.487 58.3248 239.227 60.0434 239.057 61.676C238.907 63.0187 238.688 64.4473 238.398 65.9403C237.948 68.2927 237.759 69.9361 237.789 71.2465C237.809 71.848 237.809 72.4173 237.789 72.9437C237.789 73.5022 237.759 74.1574 237.719 74.9308C237.709 75.339 237.639 76.1983 237.429 77.9813L235.311 91.2683C234.982 93.0513 234.802 94.8988 234.762 96.7463C234.732 98.0783 234.662 99.3457 234.552 100.527C234.263 103.653 233.983 104.877 233.873 105.264C233.733 105.79 233.603 106.285 233.503 106.746C233.134 105.436 232.734 104.029 232.295 102.536C232.035 101.784 231.755 101.107 231.446 100.517C231.146 99.9258 230.797 99.3457 230.417 98.7657C229.418 97.0041 228.279 95.5218 226.991 94.2866C225.702 93.0621 224.294 91.8483 222.786 90.6668C222.116 90.1297 221.277 89.4315 220.259 88.5615C219.24 87.6914 218.151 86.8644 217.002 86.091C215.854 85.3284 214.775 84.5872 213.786 83.8675C212.787 83.1479 211.978 82.686 211.349 82.4712C209.571 81.483 207.393 80.527 204.806 79.5925C202.209 78.658 199.612 77.8417 196.975 77.1542L190.473 75.3497C188.765 74.8341 187.106 74.7052 185.508 74.9738C183.91 75.2316 182.562 75.2101 181.483 74.9093C179.605 74.2648 177.487 74.05 175.14 74.2756C172.793 74.5119 170.745 74.7697 168.997 75.049C166.88 74.7697 165.122 74.6945 163.723 74.8449C162.335 74.9952 160.687 75.2208 158.799 75.5323C157.201 75.8008 155.203 76.166 152.816 76.6387C150.428 77.122 148.411 77.8095 146.752 78.7225C142.977 79.3455 139.301 80.4733 135.745 82.0952C132.179 83.7279 128.703 85.2209 125.327 86.5743C123.679 86.8536 121.731 87.9707 119.504 89.9364C119.913 88.8193 120.313 87.7129 120.692 86.6281C121.431 84.5013 122.141 82.2886 122.8 80.0222C123.319 78.9695 123.639 77.8524 123.919 76.8535L126.056 69.3561C126.356 69.399 126.655 69.442 126.945 69.4957C129.812 69.9683 130.571 70.1939 130.641 70.2154L135.805 71.9125L138.352 66.7996C138.991 65.5214 139.441 64.1788 139.681 62.8361V62.7931C139.75 62.4387 139.82 62.0842 139.91 61.7727L143.227 50.1614L139.85 47.1538C137.893 45.4137 135.655 44.0711 133.188 43.1366C131.32 42.4492 129.702 41.8691 128.224 41.3858L124.238 40.0753C122.34 39.4416 120.323 38.7112 118.235 37.8734C116.087 37.0248 113.98 36.1762 111.982 35.3599C110.074 34.5865 108.856 34.1139 108.057 33.8239C106.209 32.9753 104.161 32.1697 101.964 31.4501C101.394 31.2567 100.815 31.0741 100.216 30.8915C97.6086 30.1074 95.4311 29.4307 93.733 28.8722L93.5732 28.8185L93.4134 28.7755C92.7641 28.6036 92.1248 28.4103 91.5055 28.2062C89.9873 27.7014 88.5289 27.1106 87.1505 26.4232C85.852 25.7787 84.4736 25.2201 83.0752 24.7583C81.4171 24.2105 79.679 23.7915 77.9011 23.5015C77.7113 23.4693 77.3018 23.3834 76.5826 23.1471C76.243 23.0289 75.8734 22.9 75.4639 22.7389C74.8945 22.5241 74.3351 22.3307 73.8057 22.1481C72.6571 21.7722 71.5783 21.4822 70.5994 21.2996L70.4096 21.2673L70.2099 21.2351C69.4108 21.1385 68.5817 20.9451 67.7527 20.6766C67.5329 20.6014 67.3032 20.5262 67.0734 20.4295C65.6351 19.8925 64.2666 19.3339 63.0081 18.7754L62.7284 18.6465L57.1248 16.799L54.9772 17.712C51.9307 19.0224 50.5123 21.1492 49.8731 22.6959C49.5434 23.48 49.2438 24.3179 49.0041 25.1772L48.6245 26.5198L48.7444 27.9269C48.8043 28.5392 48.6644 29.2266 48.3348 29.9893C46.8265 33.4694 46.447 36.7348 47.1861 39.6994L48.1351 43.4696L51.6011 44.6189C53.3291 45.1882 55.147 45.7038 57.0049 46.1549C57.7041 46.316 58.3834 46.5094 59.0326 46.7242C59.6619 46.939 60.2912 47.1753 60.8705 47.4224L60.9504 47.4546L61.0403 47.4868C63.4176 48.432 65.4453 49.1839 67.0535 49.7103L71.2387 51.0959C72.6571 51.5578 74.1753 52.0196 75.7136 52.4493C77.2318 52.8682 79.1596 53.3945 81.6168 54.0497L81.7067 54.0712L81.7866 54.0927C82.6856 54.2968 83.6445 54.5761 84.6534 54.909C85.1628 55.0702 85.7022 55.2635 86.2216 55.4568C86.2915 55.4783 86.3514 55.4998 86.4213 55.5213C85.9719 56.8532 85.6422 58.1529 85.4325 59.4096C85.2127 60.6664 84.983 61.9768 84.7333 63.298L84.7133 63.4161C84.3537 65.5322 83.7644 67.9167 82.9753 70.4839C82.1163 73.2659 81.3971 75.6397 80.8477 77.5624C79.8588 80.5163 79.0597 83.4701 78.4704 86.3595C78.001 88.6689 77.3417 91.0964 76.5127 93.5562L76.4527 93.7173L75.304 97.756C74.9544 98.9698 74.6148 100.001 74.2952 100.796C73.4262 102.643 72.727 104.652 72.2176 106.757C71.8879 108.111 71.5883 109.443 71.3186 110.721C70.0301 112.976 68.9513 115.361 68.1123 117.821C67.453 119.722 66.5141 121.816 65.3154 124.04C64.3565 125.469 63.5175 127.133 62.7783 129.11C62.6385 129.475 62.5186 129.711 62.4187 129.872C61.5298 130.495 60.7107 131.226 59.9815 132.042C59.552 132.526 58.9727 133.138 58.2735 133.857C57.854 134.276 57.0549 135.007 55.6465 136.113C54.5377 136.983 52.9196 138.025 50.822 139.217L50.4125 139.454L50.0329 139.754C49.3337 140.302 48.6045 140.71 47.8254 140.957H42.4615C41.5526 140.796 40.6536 140.571 39.7846 140.281C38.9555 140.012 38.1365 139.679 37.3773 139.314L34.5506 137.95C33.2321 137.219 32.0634 136.554 30.9647 135.909C30.0057 135.361 29.0968 134.749 28.2577 134.115L28.1379 134.019C26.7694 133.03 25.5708 132.085 24.572 131.215C23.3833 130.195 22.9438 129.701 22.8439 129.572L17.6898 123.417L12.8553 129.862C12.4558 130.388 11.8465 131.161 11.0074 132.203C10.1184 133.299 9.22946 134.373 8.35047 135.404C7.50144 136.403 6.68237 137.338 5.91325 138.165C5.63357 138.455 5.44379 138.648 5.32392 138.766L3.3262 139.905L3.02655 140.957L0 148V243H1244V148L1238.58 140.957ZM178.816 134.405C177.637 135.555 175.919 136.489 173.632 137.177L162.724 138.981C161.566 139.174 160.357 139.046 159.108 138.616C157.85 138.186 156.521 137.681 155.093 137.112L154.524 136.253C154.334 135.963 154.144 135.673 153.954 135.383C153.764 135.093 153.645 134.803 153.605 134.48C152.696 133.353 152.186 132.397 152.076 131.613C151.967 130.839 152.176 129.679 152.696 128.154C153.085 126.65 153.774 125.501 154.773 124.684C155.772 123.89 156.861 123.385 158.02 123.191C161.216 122.665 164.133 122.225 166.76 121.87C169.387 121.516 172.353 121.387 175.63 121.484C176.479 122.149 177.328 122.644 178.187 122.987C179.056 123.32 179.645 124.029 179.945 125.093C180.204 125.855 180.484 126.285 180.804 126.392C181.113 126.5 181.313 126.876 181.403 127.499L181.733 129.84C180.963 131.731 179.995 133.245 178.816 134.405ZM271.86 119.335C271.3 119.475 270.751 119.615 270.222 119.754C267.994 120.366 265.727 120.957 263.489 121.505C263.289 121.548 263.08 121.58 262.84 121.602C263.349 119.056 263.839 116.521 264.308 114.029L264.338 113.879L264.358 113.728C264.528 112.547 264.778 111.419 265.087 110.398C265.527 108.905 265.956 107.273 266.356 105.522L266.406 105.318L266.436 105.103C266.526 104.577 266.626 104.061 266.716 103.535C267.105 104.287 267.485 104.942 267.854 105.522L268.004 105.748L277.483 118.218C275.485 118.54 273.598 118.916 271.86 119.335ZM564.136 101.086C562.428 104.04 560.84 106.693 559.371 109.067C557.903 111.44 556.065 113.943 553.858 116.553C552.839 116.811 551.93 117.176 551.131 117.66C550.332 118.154 549.443 118.164 548.504 117.713C547.795 117.434 547.305 117.38 547.026 117.563C546.746 117.746 546.356 117.67 545.857 117.337L543.989 116.081C543.16 114.222 542.72 112.439 542.67 110.721C542.631 109.013 543.1 107.004 544.099 104.684L549.942 94.6303C550.561 93.5562 551.441 92.6539 552.559 91.9128C553.678 91.1716 554.907 90.409 556.235 89.6249L557.214 89.7215C557.543 89.7538 557.863 89.786 558.193 89.8182C558.522 89.8504 558.812 89.9578 559.062 90.119C560.45 90.119 561.449 90.3338 562.078 90.7527C562.698 91.1716 563.377 92.0954 564.116 93.5132C564.925 94.8022 565.285 96.1233 565.205 97.466C565.115 98.7979 564.765 100.012 564.136 101.086ZM656.94 114.942C656.511 115.339 656.091 115.748 655.682 116.145C654.003 117.821 652.265 119.496 650.537 121.129C650.388 121.269 650.218 121.408 650.018 121.548C649.329 119.045 648.64 116.564 647.95 114.136L647.91 113.997L647.86 113.846C647.491 112.708 647.211 111.602 647.021 110.549C646.752 109.013 646.402 107.348 645.983 105.597L645.933 105.393L645.873 105.2C645.723 104.684 645.573 104.179 645.423 103.674C646.102 104.136 646.722 104.523 647.301 104.835L647.531 104.963L661.395 111.075C659.777 112.386 658.279 113.675 656.94 114.942ZM979.382 83.8461C979.312 86.4562 979.012 89.3563 978.473 92.5358C977.794 93.2554 977.264 94.018 976.855 94.8129C976.455 95.6078 975.776 96.0804 974.837 96.2308C974.158 96.3704 973.758 96.5852 973.629 96.8752C973.489 97.176 973.149 97.3156 972.62 97.3156H970.592C969.114 96.3059 967.965 95.1459 967.166 93.8354C966.357 92.5358 965.817 90.7205 965.548 88.4111V77.5517C965.548 76.3916 965.817 75.2315 966.357 74.0715C966.886 72.9114 967.496 71.6869 968.175 70.3765L968.984 69.9468C969.244 69.8072 969.513 69.6568 969.783 69.5064C970.053 69.3668 970.322 69.2916 970.592 69.2916C971.671 68.572 972.55 68.2067 973.219 68.2067C973.888 68.2067 974.837 68.572 976.046 69.2916C977.264 69.8716 978.133 70.7095 978.673 71.7943C979.212 72.8792 979.482 73.9963 979.482 75.1564C979.482 78.3465 979.452 81.2359 979.382 83.8461ZM1051.03 112.783L1050.9 112.848L1050.78 112.923C1049.77 113.46 1048.79 113.9 1047.83 114.233C1046.46 114.706 1044.97 115.297 1043.41 115.962L1043.22 116.038L1043.05 116.124C1042.59 116.36 1042.14 116.575 1041.7 116.8C1042.04 116.027 1042.32 115.307 1042.53 114.652L1042.62 114.384L1046.52 98.8301C1047.92 100.398 1049.31 101.827 1050.64 103.105C1051.07 103.513 1051.49 103.9 1051.91 104.287C1053.67 105.866 1055.44 107.509 1057.15 109.153C1057.3 109.292 1057.45 109.453 1057.61 109.647C1055.39 110.699 1053.19 111.752 1051.03 112.783Z" fill="#EDE6C0"/>
</g>
<defs>
<clipPath id="clip0_549_6848">
<rect width="1244" height="243" fill="white"/>
</clipPath>
</defs>
</svg>
