<svg width="43" height="43" viewBox="0 0 43 43" fill="none" xmlns="http://www.w3.org/2000/svg">
<path d="M41.7456 11.4521C40.9031 9.8114 39.6874 8.39116 38.1964 7.30554C36.7053 6.21991 34.9804 5.49916 33.1602 5.2012C31.34 4.90324 29.4753 5.03637 27.716 5.5899C25.9566 6.14343 24.3515 7.10193 23.0298 8.38838L21.4998 9.78767L20.0181 8.43855C18.6994 7.12717 17.0869 6.14946 15.3144 5.58667C13.5419 5.02389 11.6606 4.89228 9.82705 5.2028C8.00409 5.48702 6.27526 6.20214 4.78418 7.28873C3.29311 8.37533 2.08285 9.80204 1.25393 11.4503C0.145916 13.6217 -0.241273 16.0897 0.148562 18.496C0.538396 20.9023 1.68497 23.1218 3.42184 24.8323L20.2151 42.1326C20.3821 42.3044 20.5818 42.4409 20.8025 42.5341C21.0231 42.6273 21.2602 42.6754 21.4998 42.6754C21.7393 42.6754 21.9764 42.6273 22.197 42.5341C22.4177 42.4409 22.6174 42.3044 22.7844 42.1326L39.5544 24.8645C41.2984 23.1524 42.4511 20.9289 42.8451 18.517C43.2392 16.105 42.854 13.6302 41.7456 11.4521Z" fill="#E22269"/>
</svg>
