<svg width="43" height="43" viewBox="0 0 43 43" fill="none" xmlns="http://www.w3.org/2000/svg">
<path d="M41.7815 9.31669C40.9381 7.67518 39.7214 6.25436 38.2293 5.16834C36.7371 4.08233 35.0111 3.36139 33.1898 3.06345C31.3684 2.7655 29.5026 2.89884 27.7422 3.45277C25.9818 4.0067 24.3758 4.96576 23.0532 6.25294C22.6734 6.59873 22.557 6.66681 22.4996 6.82627L17.6621 19.9914C17.6373 20.0594 17.6292 20.1323 17.6385 20.2041C17.6479 20.2758 17.6744 20.3442 17.7159 20.4035C17.757 20.4628 17.8119 20.5112 17.8759 20.5446C17.9399 20.578 18.011 20.5954 18.0832 20.5952H26.6599C26.8678 20.595 27.0728 20.643 27.259 20.7356C27.4451 20.8282 27.6072 20.9627 27.7325 21.1286C27.8577 21.2945 27.9427 21.4873 27.9808 21.6916C28.0188 21.896 28.0088 22.1064 27.9517 22.3063L23.5406 37.8131C23.5135 37.9091 23.5192 38.0113 23.5568 38.1036C23.5944 38.1959 23.6617 38.2731 23.7481 38.3229C23.8344 38.3726 23.9349 38.3922 24.0336 38.3784C24.1324 38.3646 24.2237 38.3183 24.2931 38.2467L39.0045 23.0928C40.9319 21.4313 42.2511 19.1752 42.754 16.6807C43.2569 14.1862 42.9147 11.5952 41.7815 9.31669Z" fill="#E22269"/>
<path d="M24.7246 23.8525C24.7431 23.7858 24.7461 23.7158 24.7334 23.6478C24.7206 23.5798 24.6925 23.5156 24.6511 23.4601C24.6096 23.4043 24.5555 23.359 24.4933 23.3278C24.431 23.2967 24.3624 23.2807 24.2928 23.2809H15.5136C15.2978 23.2798 15.0854 23.2267 14.8944 23.1262C14.7034 23.0256 14.5395 22.8805 14.4165 22.7032C14.2934 22.5258 14.2149 22.3215 14.1876 22.1073C14.1603 21.8932 14.1849 21.6757 14.2595 21.4731L19.7742 6.45002C19.805 6.3665 19.8101 6.27571 19.7891 6.18923C19.768 6.10275 19.7217 6.0245 19.6559 5.96448C18.3469 4.76637 16.7819 3.88253 15.0799 3.3802C13.378 2.87787 11.5838 2.77026 9.83403 3.06556C8.00963 3.34966 6.27938 4.06504 4.78704 5.15228C3.2947 6.23951 2.08339 7.66719 1.25374 9.31669C0.149855 11.4832 -0.236782 13.9444 0.149682 16.345C0.536145 18.7456 1.6757 20.9612 3.40374 22.6718C3.40374 22.6718 16.585 36.894 19.4445 39.9506C19.4984 40.0086 19.5667 40.0512 19.6424 40.0742C19.7181 40.0972 19.7986 40.0997 19.8756 40.0815C19.9526 40.0633 20.0234 40.025 20.0808 39.9705C20.1382 39.9161 20.1802 39.8474 20.2024 39.7714L24.7246 23.8525Z" fill="#E22269"/>
</svg>
