<svg width="208" height="80" viewBox="0 0 208 80" fill="none" xmlns="http://www.w3.org/2000/svg">
<path d="M3.456 64V32.896H13.248V64H3.456ZM23.36 64V45.824C23.36 44.2453 22.8693 43.0293 21.888 42.176C20.9493 41.28 19.776 40.832 18.368 40.832C17.3867 40.832 16.512 41.0453 15.744 41.472C14.976 41.856 14.3573 42.4107 13.888 43.136C13.4613 43.8613 13.248 44.7573 13.248 45.824L9.472 44.16C9.472 41.6853 10.0053 39.5733 11.072 37.824C12.1387 36.032 13.5893 34.6667 15.424 33.728C17.2587 32.7467 19.328 32.256 21.632 32.256C23.808 32.256 25.7493 32.7467 27.456 33.728C29.2053 34.7093 30.592 36.0747 31.616 37.824C32.64 39.5733 33.152 41.664 33.152 44.096V64H23.36ZM43.264 64V45.824C43.264 44.2453 42.7733 43.0293 41.792 42.176C40.8533 41.28 39.68 40.832 38.272 40.832C37.2907 40.832 36.416 41.0453 35.648 41.472C34.88 41.856 34.2613 42.4107 33.792 43.136C33.3653 43.8613 33.152 44.7573 33.152 45.824L27.52 45.056C27.6053 42.4107 28.224 40.1493 29.376 38.272C30.5707 36.352 32.128 34.88 34.048 33.856C36.0107 32.7893 38.208 32.256 40.64 32.256C43.0293 32.256 45.1413 32.768 46.976 33.792C48.8533 34.7733 50.3253 36.2027 51.392 38.08C52.5013 39.9147 53.056 42.1333 53.056 44.736V64H43.264ZM74.307 64.704C71.107 64.704 68.2057 64 65.603 62.592C63.043 61.1413 61.0163 59.1787 59.523 56.704C58.0297 54.2293 57.283 51.456 57.283 48.384C57.283 45.312 58.0297 42.56 59.523 40.128C61.0163 37.696 63.043 35.776 65.603 34.368C68.163 32.9173 71.0643 32.192 74.307 32.192C77.5497 32.192 80.451 32.896 83.011 34.304C85.571 35.712 87.5977 37.6533 89.091 40.128C90.5843 42.56 91.331 45.312 91.331 48.384C91.331 51.456 90.5843 54.2293 89.091 56.704C87.5977 59.1787 85.571 61.1413 83.011 62.592C80.451 64 77.5497 64.704 74.307 64.704ZM74.307 55.808C75.715 55.808 76.9523 55.5093 78.019 54.912C79.0857 54.272 79.8963 53.3973 80.451 52.288C81.0483 51.136 81.347 49.8347 81.347 48.384C81.347 46.9333 81.0483 45.6747 80.451 44.608C79.8537 43.4987 79.0217 42.6453 77.955 42.048C76.931 41.408 75.715 41.088 74.307 41.088C72.9417 41.088 71.7257 41.408 70.659 42.048C69.5923 42.6453 68.7603 43.4987 68.163 44.608C67.5657 45.7173 67.267 46.9973 67.267 48.448C67.267 49.856 67.5657 51.136 68.163 52.288C68.7603 53.3973 69.5923 54.272 70.659 54.912C71.7257 55.5093 72.9417 55.808 74.307 55.808ZM105.123 64L91.939 32.896H102.499L111.459 58.816H106.851L115.811 32.896H126.179L112.995 63.936L105.123 64ZM129.706 64V32.896H139.498V64H129.706ZM134.634 28.608C133.098 28.608 131.818 28.096 130.794 27.072C129.813 26.0053 129.322 24.7253 129.322 23.232C129.322 21.696 129.813 20.416 130.794 19.392C131.818 18.368 133.098 17.856 134.634 17.856C136.17 17.856 137.429 18.368 138.41 19.392C139.391 20.416 139.882 21.696 139.882 23.232C139.882 24.7253 139.391 26.0053 138.41 27.072C137.429 28.096 136.17 28.608 134.634 28.608ZM161.753 64.704C158.383 64.704 155.375 64.0213 152.73 62.656C150.127 61.248 148.079 59.3067 146.586 56.832C145.092 54.3573 144.346 51.5627 144.346 48.448C144.346 45.3333 145.071 42.56 146.522 40.128C148.015 37.6533 150.02 35.712 152.538 34.304C155.055 32.896 157.892 32.192 161.05 32.192C164.122 32.192 166.831 32.8533 169.178 34.176C171.524 35.4987 173.359 37.3333 174.682 39.68C176.047 42.0267 176.729 44.7147 176.729 47.744C176.729 48.2987 176.687 48.896 176.602 49.536C176.559 50.1333 176.452 50.8373 176.282 51.648L149.466 51.712V44.992L172.122 44.928L167.898 47.744C167.855 45.952 167.578 44.48 167.066 43.328C166.554 42.1333 165.786 41.2373 164.762 40.64C163.78 40 162.564 39.68 161.114 39.68C159.578 39.68 158.234 40.0427 157.082 40.768C155.972 41.4507 155.098 42.432 154.458 43.712C153.86 44.992 153.562 46.5493 153.562 48.384C153.562 50.2187 153.882 51.7973 154.522 53.12C155.204 54.4 156.143 55.4027 157.338 56.128C158.575 56.8107 160.026 57.152 161.69 57.152C163.226 57.152 164.612 56.896 165.85 56.384C167.087 55.8293 168.175 55.0187 169.114 53.952L174.49 59.328C172.954 61.12 171.098 62.464 168.922 63.36C166.746 64.256 164.356 64.704 161.753 64.704ZM192.784 64.768C190.949 64.768 189.136 64.5333 187.344 64.064C185.595 63.5947 183.952 62.9333 182.416 62.08C180.923 61.184 179.643 60.16 178.576 59.008L184.144 53.376C185.168 54.4853 186.384 55.36 187.792 56C189.2 56.5973 190.736 56.896 192.4 56.896C193.552 56.896 194.427 56.7253 195.024 56.384C195.664 56.0427 195.984 55.5733 195.984 54.976C195.984 54.208 195.6 53.632 194.832 53.248C194.107 52.8213 193.168 52.4587 192.016 52.16C190.864 51.8187 189.648 51.456 188.368 51.072C187.088 50.688 185.872 50.1547 184.72 49.472C183.568 48.7893 182.629 47.8507 181.904 46.656C181.179 45.4187 180.816 43.8613 180.816 41.984C180.816 39.9787 181.328 38.2507 182.352 36.8C183.376 35.3067 184.827 34.1333 186.704 33.28C188.581 32.4267 190.779 32 193.296 32C195.941 32 198.373 32.4693 200.592 33.408C202.853 34.304 204.688 35.648 206.096 37.44L200.528 43.072C199.547 41.92 198.437 41.1093 197.2 40.64C196.005 40.1707 194.832 39.936 193.68 39.936C192.571 39.936 191.739 40.1067 191.184 40.448C190.629 40.7467 190.352 41.1947 190.352 41.792C190.352 42.432 190.715 42.944 191.44 43.328C192.165 43.712 193.104 44.0533 194.256 44.352C195.408 44.6507 196.624 45.0133 197.904 45.44C199.184 45.8667 200.4 46.4427 201.552 47.168C202.704 47.8933 203.643 48.8747 204.368 50.112C205.093 51.3067 205.456 52.8853 205.456 54.848C205.456 57.8773 204.304 60.288 202 62.08C199.739 63.872 196.667 64.768 192.784 64.768Z" fill="#272934"/>
</svg>
