<svg width="71" height="135" viewBox="0 0 71 135" fill="none" xmlns="http://www.w3.org/2000/svg">
<path d="M70.1875 76.3229C70.1875 76.3229 57.6257 88.1108 55.0336 91.7071C53.4384 92.9059 51.8433 94.3045 49.65 96.3024C47.8554 97.701 46.8584 100.298 45.2633 101.497L35.0942 111.087C32.7015 114.084 29.3118 116.082 26.5203 119.479C24.5263 121.477 23.33 123.674 21.5354 125.273C20.5385 126.472 18.1457 129.269 16.9494 129.868C15.9524 131.666 14.3573 133.464 12.5627 134.863C11.167 135.263 10.5688 134.463 9.17303 133.464C8.57485 132.665 7.57788 132.266 6.38152 130.467C5.18516 128.869 4.78637 128.869 3.59001 128.07C2.79243 127.071 2.19425 126.272 2.19425 125.672C2.19425 125.073 3.19122 124.274 3.98879 123.674C5.78334 122.276 6.78031 119.678 8.17606 118.08C9.17303 116.482 11.7651 112.885 13.1609 111.487C14.3573 110.088 18.1457 106.292 19.1427 104.894C20.9373 101.697 24.7257 98.5002 27.5173 95.3034C27.916 94.3045 32.5021 88.91 34.496 88.1108C34.496 88.1108 35.2936 87.1118 35.2936 86.5124C36.2906 85.7133 36.8888 85.1139 37.8857 84.5145C38.0851 83.3157 40.8766 80.9182 42.2724 79.3198C44.2663 77.7214 45.2633 76.5227 46.0609 75.1241C47.656 73.1261 49.8493 69.9294 51.6439 67.5319C49.0518 64.7347 44.0669 59.3403 43.2694 57.3423C41.2754 55.3443 39.6803 53.3464 37.8857 51.3484C35.2936 48.5513 33.4991 45.954 30.5082 43.3566C28.913 41.3587 27.916 39.1609 26.1215 37.9621C24.327 35.165 21.9342 33.5666 20.5385 30.1701C18.7439 28.372 16.9494 26.7736 15.3542 25.375C14.7561 24.5758 13.7591 22.1783 12.7621 21.5789C11.9645 20.9795 10.7682 19.9805 9.97061 18.9816C9.57182 18.7818 9.77121 18.3822 9.77121 18.3822C6.9797 16.3842 5.38455 13.5871 2.99183 11.7889C2.19425 10.9898 2.19425 10.3904 1.19728 9.79098C0.399709 9.39139 0.798497 9.3914 0.200315 8.79201C0.000921768 7.99282 2.19425 6.39445 2.19425 6.39445C3.39061 4.7961 5.38455 3.19773 6.38152 1.39957C7.17909 0.800184 7.97667 0.999988 8.37546 0.999988C9.17303 0.999988 9.37242 1.79916 10.3694 2.59834L14.7561 6.19466C17.1488 7.39344 19.7409 8.79201 20.9373 10.3904C21.336 11.1896 35.6924 22.9775 36.8888 24.1763C39.6803 26.7736 42.4718 29.7705 45.6621 32.1681C48.2542 33.9662 51.2451 36.5636 52.8403 38.7613C54.6348 40.7593 55.6318 41.9581 57.2269 43.1568C58.0245 44.7552 59.819 45.954 60.816 47.5523C62.0124 48.7511 62.2117 49.7501 64.0063 50.7491C65.6014 51.9478 66.5984 54.3454 68.5923 55.5441C69.5893 56.1435 69.3899 57.7419 69.3899 58.3413C69.3899 62.7368 69.5893 67.3321 69.5893 71.7276C69.5893 73.5257 70.1875 74.9243 70.1875 76.3229Z" fill="#272934"/>
</svg>
