<svg width="70" height="134" viewBox="0 0 70 134" fill="none" xmlns="http://www.w3.org/2000/svg">
<path d="M-1.9973e-06 75.3549C-1.9973e-06 75.3549 12.5618 87.1428 15.1539 90.7391C16.7491 91.9379 18.3442 93.3364 20.5375 95.3344C22.3321 96.733 23.3291 99.3303 24.9242 100.529L35.0933 110.119C37.486 113.116 40.8757 115.114 43.6672 118.511C45.6612 120.509 46.8575 122.706 48.6521 124.305C49.649 125.504 52.0418 128.301 53.2381 128.9C54.2351 130.698 55.8302 132.496 57.6248 133.895C59.0205 134.295 59.6187 133.495 61.0145 132.496C61.6126 131.697 62.6096 131.298 63.806 129.499C65.0023 127.901 65.4011 127.901 66.5975 127.102C67.3951 126.103 67.9932 125.304 67.9932 124.704C67.9932 124.105 66.9963 123.306 66.1987 122.706C64.4042 121.308 63.4072 118.71 62.0114 117.112C61.0145 115.514 58.4224 111.917 57.0266 110.519C55.8302 109.12 52.0418 105.324 51.0448 103.926C49.2502 100.729 45.4618 97.5322 42.6702 94.3354C42.2715 93.3364 37.6854 87.942 35.6915 87.1428C35.6915 87.1428 34.8939 86.1438 34.8939 85.5444C33.8969 84.7452 33.2987 84.1459 32.3018 83.5465C32.1024 82.3477 29.3109 79.9501 27.9151 78.3518C25.9212 76.7534 24.9242 75.5546 24.1266 74.1561C22.5315 72.1581 20.3382 68.9614 18.5436 66.5639C21.1357 63.7667 26.1206 58.3722 26.9181 56.3743C28.9121 54.3763 30.5072 52.3784 32.3018 50.3804C34.8939 47.5833 36.6884 44.9859 39.6793 42.3886C41.2745 40.3906 42.2715 38.1929 44.066 36.9941C45.8605 34.197 48.2533 32.5986 49.649 29.2021C51.4436 27.4039 53.2381 25.8056 54.8333 24.407C55.4314 23.6078 56.4284 21.2103 57.4254 20.6109C58.223 20.0115 59.4193 19.0125 60.2169 18.0136C60.6157 17.8138 60.4163 17.4142 60.4163 17.4142C63.2078 15.4162 64.8029 12.6191 67.1957 10.8209C67.9932 10.0217 67.9932 9.42235 68.9902 8.82296C69.7878 8.42338 69.389 8.42338 69.9872 7.82399C70.1866 7.0248 67.9932 5.42644 67.9932 5.42644C66.7969 3.82808 64.8029 2.22972 63.806 0.431557C63.0084 -0.167834 62.2108 0.03197 61.812 0.03197C61.0145 0.03197 60.8151 0.831143 59.8181 1.63033L55.4314 5.22664C53.0387 6.42543 50.4466 7.82399 49.2502 9.42236C48.8515 10.2215 34.4951 22.0095 33.2987 23.2082C30.5072 25.8056 27.7157 28.8025 24.5254 31.2001C21.9333 32.9982 18.9424 35.5956 17.3472 37.7933C15.5527 39.7913 14.5557 40.99 12.9606 42.1888C12.163 43.7872 10.3685 44.9859 9.37151 46.5843C8.17514 47.7831 7.97575 48.7821 6.18121 49.781C4.58605 50.9798 3.58909 53.3774 1.59515 54.5761C0.598186 55.1755 0.797576 56.7739 0.797576 57.3733C0.797576 61.7688 0.598185 66.3641 0.598185 70.7596C0.598185 72.5577 -1.9973e-06 73.9563 -1.9973e-06 75.3549Z" fill="#272934"/>
</svg>
