<svg width="282" height="80" viewBox="0 0 282 80" fill="none" xmlns="http://www.w3.org/2000/svg">
<path d="M15.616 64L1.088 18.816H11.072L21.696 53.568H17.792L28.16 18.816H36.032L46.4 53.568H42.56L53.12 18.816H63.04L48.512 64H40.64L30.208 29.248H33.92L23.488 64H15.616ZM78.941 64.704C75.5703 64.704 72.5623 64.0213 69.917 62.656C67.3143 61.248 65.2663 59.3067 63.773 56.832C62.2797 54.3573 61.533 51.5627 61.533 48.448C61.533 45.3333 62.2583 42.56 63.709 40.128C65.2023 37.6533 67.2077 35.712 69.725 34.304C72.2423 32.896 75.0797 32.192 78.237 32.192C81.309 32.192 84.0183 32.8533 86.365 34.176C88.7117 35.4987 90.5463 37.3333 91.869 39.68C93.2343 42.0267 93.917 44.7147 93.917 47.744C93.917 48.2987 93.8743 48.896 93.789 49.536C93.7463 50.1333 93.6397 50.8373 93.469 51.648L66.653 51.712V44.992L89.309 44.928L85.085 47.744C85.0423 45.952 84.765 44.48 84.253 43.328C83.741 42.1333 82.973 41.2373 81.949 40.64C80.9677 40 79.7517 39.68 78.301 39.68C76.765 39.68 75.421 40.0427 74.269 40.768C73.1597 41.4507 72.285 42.432 71.645 43.712C71.0477 44.992 70.749 46.5493 70.749 48.384C70.749 50.2187 71.069 51.7973 71.709 53.12C72.3917 54.4 73.3303 55.4027 74.525 56.128C75.7623 56.8107 77.213 57.152 78.877 57.152C80.413 57.152 81.7997 56.896 83.037 56.384C84.2743 55.8293 85.3623 55.0187 86.301 53.952L91.677 59.328C90.141 61.12 88.285 62.464 86.109 63.36C83.933 64.256 81.5437 64.704 78.941 64.704Z" fill="#272934"/>
<path d="M158.6 28.7838C157.659 26.9523 156.302 25.3669 154.638 24.155C152.973 22.9432 151.048 22.1386 149.016 21.806C146.984 21.4734 144.903 21.622 142.939 22.2399C140.975 22.8578 139.183 23.9277 137.708 25.3638L136 26.9258L134.346 25.4198C132.874 23.9559 131.074 22.8645 129.095 22.2363C127.116 21.6081 125.016 21.4612 122.97 21.8078C120.935 22.1251 119.005 22.9233 117.34 24.1363C115.676 25.3492 114.325 26.9418 113.4 28.7818C112.163 31.2056 111.731 33.9605 112.166 36.6467C112.601 39.3328 113.881 41.8104 115.82 43.7198L134.566 63.0318C134.752 63.2235 134.975 63.3759 135.221 63.48C135.468 63.584 135.732 63.6376 136 63.6376C136.267 63.6376 136.532 63.584 136.778 63.48C137.024 63.3759 137.247 63.2235 137.434 63.0318L156.154 43.7558C158.1 41.8446 159.387 39.3625 159.827 36.6701C160.267 33.9777 159.837 31.2152 158.6 28.7838Z" fill="#E22269"/>
<path d="M208.576 64L187.84 41.216C186.219 39.424 185.045 37.7387 184.32 36.16C183.595 34.5387 183.232 32.768 183.232 30.848C183.232 28.544 183.808 26.432 184.96 24.512C186.155 22.5493 187.755 20.992 189.76 19.84C191.808 18.6453 194.176 18.048 196.864 18.048C198.955 18.048 200.811 18.368 202.432 19.008C204.053 19.6053 205.461 20.3947 206.656 21.376C207.851 22.3147 208.768 23.3173 209.408 24.384L202.88 30.592C202.027 29.44 201.131 28.5653 200.192 27.968C199.296 27.3707 198.229 27.072 196.992 27.072C195.712 27.072 194.645 27.456 193.792 28.224C192.981 28.9493 192.576 29.8667 192.576 30.976C192.576 31.9147 192.768 32.7467 193.152 33.472C193.579 34.1973 194.176 35.008 194.944 35.904L220.032 64H208.576ZM193.728 64.704C190.656 64.704 187.968 64.1067 185.664 62.912C183.403 61.6747 181.632 60.0107 180.352 57.92C179.115 55.7867 178.496 53.4187 178.496 50.816C178.496 48 179.243 45.504 180.736 43.328C182.229 41.1093 184.469 39.3173 187.456 37.952L191.616 44.288C190.336 44.8853 189.376 45.6747 188.736 46.656C188.096 47.6373 187.776 48.8107 187.776 50.176C187.776 51.2853 188.011 52.2667 188.48 53.12C188.992 53.9307 189.717 54.5707 190.656 55.04C191.595 55.5093 192.704 55.744 193.984 55.744C195.435 55.744 196.672 55.4453 197.696 54.848C198.763 54.208 199.659 53.3333 200.384 52.224L206.976 59.008C206.251 59.9467 205.205 60.864 203.84 61.76C202.517 62.6133 200.981 63.3173 199.232 63.872C197.525 64.4267 195.691 64.704 193.728 64.704Z" fill="#272934"/>
<path d="M280.64 26.4C279.699 24.5676 278.34 22.9816 276.675 21.7693C275.009 20.557 273.082 19.7522 271.049 19.4196C269.016 19.0871 266.933 19.2359 264.968 19.8542C263.003 20.4726 261.21 21.5432 259.734 22.98C259.31 23.366 259.18 23.442 259.116 23.62L253.716 38.316C253.688 38.3919 253.679 38.4733 253.69 38.5534C253.7 38.6334 253.73 38.7098 253.776 38.776C253.822 38.8422 253.883 38.8962 253.955 38.9335C254.026 38.9708 254.106 38.9902 254.186 38.99H263.76C263.992 38.9897 264.221 39.0434 264.429 39.1467C264.637 39.25 264.818 39.4002 264.957 39.5854C265.097 39.7706 265.192 39.9858 265.235 40.2139C265.277 40.442 265.266 40.6769 265.202 40.9L260.278 58.21C260.248 58.3171 260.254 58.4312 260.296 58.5343C260.338 58.6373 260.413 58.7234 260.51 58.779C260.606 58.8345 260.718 58.8563 260.828 58.841C260.939 58.8256 261.041 58.7738 261.118 58.694L277.54 41.778C279.692 39.9233 281.164 37.4049 281.726 34.6203C282.287 31.8357 281.905 28.9434 280.64 26.4Z" fill="#E22269"/>
<path d="M261.6 42.626C261.621 42.5516 261.624 42.4734 261.61 42.3975C261.596 42.3216 261.564 42.2499 261.518 42.188C261.472 42.1257 261.411 42.0751 261.342 42.0404C261.272 42.0056 261.196 41.9877 261.118 41.988H251.318C251.077 41.9868 250.84 41.9275 250.627 41.8152C250.414 41.703 250.231 41.541 250.093 41.3431C249.956 41.1451 249.868 40.917 249.838 40.678C249.807 40.439 249.835 40.1961 249.918 39.97L256.074 23.2C256.108 23.1068 256.114 23.0054 256.091 22.9089C256.067 22.8124 256.015 22.725 255.942 22.658C254.481 21.3206 252.734 20.334 250.834 19.7732C248.934 19.2125 246.931 19.0924 244.978 19.422C242.942 19.7391 241.01 20.5377 239.344 21.7514C237.678 22.965 236.326 24.5587 235.4 26.4C234.168 28.8184 233.736 31.5659 234.168 34.2456C234.599 36.9253 235.871 39.3985 237.8 41.308C237.8 41.308 252.514 57.184 255.706 60.596C255.766 60.6607 255.842 60.7083 255.927 60.734C256.011 60.7596 256.101 60.7624 256.187 60.7421C256.273 60.7218 256.352 60.6791 256.416 60.6183C256.48 60.5575 256.527 60.4808 256.552 60.396L261.6 42.626Z" fill="#E22269"/>
</svg>
