<svg width="117" height="114" viewBox="0 0 117 114" fill="none" xmlns="http://www.w3.org/2000/svg">
<path d="M47.6059 79.3874C46.1532 78.2208 44.5499 77.2537 42.8442 76.5807L42.8438 76.5805L42.8431 76.5802C41.4989 75.902 40.0483 75.5399 37.5535 75.5399C33.2768 75.5399 28.4738 74.4109 24.2345 73.248C20.4836 72.219 15.4318 69.8425 12.4541 67.4366C11.3287 66.5273 10.0898 65.8925 8.95036 65.3086C8.67884 65.1695 8.41296 65.0333 8.15561 64.8969C6.78686 64.1717 5.5757 63.4089 4.60785 62.1345C0.475193 56.6928 -0.056384 48.1426 1.8984 39.8088C3.85022 31.4876 8.21784 23.6651 13.5212 19.7371C15.7806 18.0636 17.6878 15.965 19.5331 13.9344C19.9462 13.4797 20.3563 13.0285 20.7666 12.5862C23.0392 10.136 25.3527 7.9126 28.3667 6.53887C37.5153 2.36898 46.0917 0.809765 56.1098 0.809765C56.662 0.809765 57.2096 0.808951 57.753 0.808143C66.6249 0.794957 74.3762 0.783437 82.4858 4.34285C85.7257 5.76488 88.493 7.47225 91.2067 9.31586C92.2308 10.0115 93.2587 10.735 94.3039 11.4707C96.0012 12.6653 97.7444 13.8922 99.5918 15.0851C102.913 17.2298 105.396 20.3963 107.49 23.9479C108.991 26.4945 110.264 29.1848 111.506 31.8109C112.004 32.8653 112.498 33.9094 113 34.9296C115.304 39.6146 115.834 45.1612 115.834 50.4185C115.834 52.2796 115.924 54.2276 116.013 56.1759C116.061 57.2194 116.109 58.263 116.143 59.2934C116.242 62.2789 116.229 65.207 115.804 67.9396C114.591 75.7224 110.524 82.7776 106.518 89.7266C105.703 91.1401 104.891 92.5492 104.106 93.9592C102.303 97.1957 99.3071 100.897 95.8494 104.111C92.3862 107.329 88.524 109.998 85.0132 111.236C82.0305 112.288 78.472 113.124 75.0117 113.19C71.5474 113.255 68.2565 112.548 65.717 110.597C63.3171 108.754 60.9171 105.859 59.0267 102.622C57.1355 99.3826 55.7956 95.8711 55.4524 92.8209C54.9124 88.0215 51.8841 82.8507 47.6698 79.439C47.6674 79.437 47.6649 79.435 47.6624 79.433L47.6066 79.3878L47.6059 79.3874Z" fill="#303AB2" fill-opacity="0.18" stroke="#303AB2" stroke-width="1.6124" stroke-linecap="round"/>
</svg>
