<svg xmlns="http://www.w3.org/2000/svg" width="120" height="22" viewBox="0 0 120 22">
    <g fill="#FFF" fill-rule="evenodd">
        <path d="M2.51 21.721V10.05H0V6.83h2.51V6.09c0-2.275.49-3.487 1.685-4.403.826-.65 2.082-.975 3.827-.975.612 0 1.133.03 1.592.118v3.044c-.275-.089-.765-.148-1.408-.148-1.378 0-2.02.591-2.02 2.098V6.83h2.908v3.22H6.185v11.672H2.511M9.614 13.71c0-2.251.805-4.172 2.383-5.702 1.578-1.53 3.514-2.31 5.807-2.31 2.294 0 4.23.78 5.808 2.31 1.578 1.53 2.382 3.45 2.382 5.701 0 2.25-.804 4.17-2.382 5.701-1.578 1.53-3.514 2.311-5.808 2.311-2.293 0-4.229-.78-5.807-2.31-1.578-1.531-2.383-3.451-2.383-5.702M21.11 17.1c.894-.93 1.34-2.04 1.34-3.39s-.446-2.46-1.34-3.36c-.893-.931-1.995-1.381-3.306-1.381-1.34 0-2.441.45-3.335 1.38-.864.9-1.31 2.01-1.31 3.361 0 1.35.446 2.46 1.31 3.39.894.901 1.995 1.35 3.335 1.35 1.311 0 2.413-.449 3.306-1.35M28.893 9.636h-1.83v-3.22h1.83V.711h3.49v5.703h3.225v3.22h-3.226v6.65c0 1.624.552 2.215 1.83 2.215.437 0 .844-.03 1.222-.118v3.162c-.494.118-1.104.177-1.803.177-3.168 0-4.738-1.684-4.738-5.053V9.636M37.033 13.71c0-2.251.804-4.172 2.382-5.702 1.579-1.53 3.515-2.31 5.808-2.31 2.293 0 4.228.78 5.807 2.31 1.578 1.53 2.382 3.45 2.382 5.701 0 2.25-.804 4.17-2.382 5.701-1.579 1.53-3.514 2.311-5.807 2.311-2.293 0-4.23-.78-5.808-2.31-1.578-1.531-2.382-3.451-2.382-5.702m11.495 3.39c.893-.93 1.34-2.04 1.34-3.39s-.447-2.46-1.34-3.36c-.893-.931-1.995-1.381-3.305-1.381-1.34 0-2.442.45-3.336 1.38-.863.9-1.31 2.01-1.31 3.361 0 1.35.447 2.46 1.31 3.39.894.901 1.996 1.35 3.336 1.35 1.31 0 2.412-.449 3.305-1.35M69.08 8.308l-2.215 2.31c-1.046-1.11-2.333-1.65-3.83-1.65-1.316 0-2.423.45-3.321 1.35-.868.9-1.317 2.04-1.317 3.391 0 1.35.45 2.49 1.317 3.391.898.9 2.005 1.35 3.322 1.35 1.496 0 2.783-.54 3.83-1.65l2.214 2.31c-1.616 1.74-3.62 2.611-6.044 2.611-2.305 0-4.25-.75-5.835-2.28-1.587-1.531-2.364-3.451-2.364-5.732 0-2.28.777-4.17 2.364-5.701 1.586-1.53 3.53-2.31 5.835-2.31 2.423 0 4.428.87 6.044 2.61M82.15 8.195v-2.17h3.59v10.464c0 1.279.3 1.754 1.108 1.754.21 0 .479-.03.748-.06v2.884c-.39.15-.988.239-1.765.239-.868 0-1.556-.15-2.095-.476-.658-.446-1.077-1.04-1.227-1.814-1.047 1.576-2.783 2.349-5.176 2.349-2.125 0-3.92-.743-5.386-2.26-1.436-1.516-2.155-3.36-2.155-5.589 0-2.23.719-4.073 2.155-5.56 1.466-1.515 3.261-2.259 5.386-2.259 2.424 0 4.249 1.07 4.817 2.498m-1.077 8.592c.898-.863 1.346-1.963 1.346-3.27 0-1.309-.448-2.409-1.346-3.271-.868-.862-1.974-1.308-3.261-1.308-1.287 0-2.334.446-3.202 1.308-.838.862-1.257 1.962-1.257 3.27s.42 2.408 1.257 3.27c.868.862 1.915 1.309 3.202 1.309s2.393-.447 3.261-1.308M90.911 16.691c.671 1.085 2.1 1.898 3.88 1.898 1.838 0 2.626-.723 2.626-1.657 0-.512-.35-.933-.846-1.205-.321-.21-.934-.421-1.371-.572-.438-.15-1.313-.421-1.809-.632-2.363-.874-3.617-2.109-3.617-4.277 0-1.416.496-2.5 1.488-3.314 1.02-.813 2.245-1.235 3.705-1.235 2.07 0 3.646.754 4.754 2.23l-1.955 2.138c-.641-.843-1.604-1.265-2.858-1.265-1.08 0-1.78.542-1.78 1.355 0 .512.263.783.671 1.054.234.151.817.392 1.196.543.438.12 1.255.421 1.838.632 2.713.994 3.939 2.35 3.939 4.518 0 2.801-2.042 4.82-6.04 4.82-2.946 0-5.133-1.176-6.067-3.073l2.246-1.958M114.554 8.195v-2.17h3.59v10.464c0 1.279.3 1.754 1.108 1.754.21 0 .48-.03.748-.06v2.884c-.389.15-.987.239-1.765.239-.868 0-1.556-.15-2.095-.476-.658-.446-1.077-1.04-1.227-1.814-1.047 1.576-2.782 2.349-5.177 2.349-2.124 0-3.92-.743-5.386-2.26-1.436-1.516-2.154-3.36-2.154-5.589 0-2.23.718-4.073 2.154-5.56 1.467-1.515 3.262-2.259 5.386-2.259 2.424 0 4.25 1.07 4.818 2.498m-1.077 8.592c.897-.863 1.347-1.963 1.347-3.27 0-1.309-.45-2.409-1.347-3.271-.868-.862-1.975-1.308-3.261-1.308-1.287 0-2.335.446-3.202 1.308-.838.862-1.257 1.962-1.257 3.27s.419 2.408 1.257 3.27c.867.862 1.915 1.309 3.202 1.309 1.286 0 2.393-.447 3.261-1.308"/>
    </g>
</svg>
