<svg width="31" height="24" viewBox="0 0 31 24" fill="none" xmlns="http://www.w3.org/2000/svg">
<path fill-rule="evenodd" clip-rule="evenodd" d="M2.98341 10.4927V23.5836H7.45853V10.4927H10.4419V7.00182H7.16019V5.83818C7.16019 4.23818 8.05521 3.51091 9.54691 3.51091H11.1878V0.165459H9.39774C7.30936 0.165459 5.81765 0.456368 4.92263 1.18364C3.58009 2.20182 2.98341 3.51091 2.98341 6.12909V6.56546H0V10.4927H2.98341ZM27.3712 11.4709L29.9071 8.85273C27.9679 6.81636 25.7303 5.94363 22.8961 5.94363C20.396 5.93988 17.9911 6.87788 16.1834 8.56182C14.2442 10.3073 13.2 12.3436 13.2 14.9618C13.2116 17.4127 14.2973 19.7418 16.1834 21.3618C17.9735 22.9618 20.3602 23.8345 22.8961 23.8345C25.5811 23.8345 28.2662 22.9618 30.0563 20.9255L27.3712 18.4527C26.1976 19.6223 24.5731 20.2559 22.8961 20.1982C21.4044 20.1982 20.0618 19.7618 19.0176 18.7436C18.1226 17.7255 17.5259 16.4164 17.5259 14.9618C17.5259 13.3618 18.1226 12.0527 19.1668 11.0345C20.0618 10.0164 21.4044 9.58 22.8961 9.58C24.5959 9.55992 26.2238 10.2478 27.3712 11.4709Z" fill="white"/>
</svg>
