<svg width="300" height="202" viewBox="0 0 300 202" fill="none" xmlns="http://www.w3.org/2000/svg">
<path d="M0 20C0 15.5817 3.58172 12 8 12H292C296.418 12 300 15.5817 300 20V174C300 178.418 296.418 182 292 182H7.99999C3.58171 182 0 178.418 0 174V20Z" fill="#F8F3E5"/>
<path d="M174.744 73.1079L117.7 130.152L91.1044 103.556L21.2539 173.405H275.043L174.744 73.1079Z" fill="#272934"/>
<g clip-path="url(#clip0_880_3244)">
<path d="M1 53.0557V9C1 4.58172 4.58172 1 9 1H33C37.4183 1 41 4.58172 41 9V53.0557C41 59.0028 34.7415 62.8707 29.4223 60.2111L24.5777 57.7889C22.3255 56.6627 19.6745 56.6627 17.4223 57.7889L12.5777 60.2111C7.2585 62.8708 1 59.0028 1 53.0557Z" fill="#272934" stroke="#F8F3E5" stroke-width="2"/>
<path fill-rule="evenodd" clip-rule="evenodd" d="M21 21C19.3431 21 18 22.3431 18 24V28L14 28C12.3431 28 11 29.3431 11 31C11 32.6569 12.3431 34 14 34H18V38C18 39.6569 19.3431 41 21 41C22.6569 41 24 39.6569 24 38V34H28C29.6569 34 31 32.6569 31 31C31 29.3431 29.6569 28 28 28L24 28V24C24 22.3431 22.6569 21 21 21Z" fill="#F8F3E5"/>
</g>
<rect x="216" y="20" width="76" height="24" rx="4" fill="#E22269"/>
<path d="M233.66 37H231.266L227.262 30.938V37H224.868V27.172H227.262L231.266 33.262V27.172H233.66V37ZM240.043 37.098C239.119 37.098 238.27 36.8833 237.495 36.454C236.73 36.0247 236.119 35.4273 235.661 34.662C235.213 33.8873 234.989 33.0193 234.989 32.058C234.989 31.0967 235.213 30.2333 235.661 29.468C236.119 28.7027 236.73 28.1053 237.495 27.676C238.27 27.2467 239.119 27.032 240.043 27.032C240.967 27.032 241.812 27.2467 242.577 27.676C243.352 28.1053 243.959 28.7027 244.397 29.468C244.845 30.2333 245.069 31.0967 245.069 32.058C245.069 33.0193 244.845 33.8873 244.397 34.662C243.949 35.4273 243.343 36.0247 242.577 36.454C241.812 36.8833 240.967 37.098 240.043 37.098ZM240.043 34.914C240.827 34.914 241.453 34.6527 241.919 34.13C242.395 33.6073 242.633 32.9167 242.633 32.058C242.633 31.19 242.395 30.4993 241.919 29.986C241.453 29.4633 240.827 29.202 240.043 29.202C239.25 29.202 238.615 29.4587 238.139 29.972C237.673 30.4853 237.439 31.1807 237.439 32.058C237.439 32.926 237.673 33.6213 238.139 34.144C238.615 34.6573 239.25 34.914 240.043 34.914ZM253.471 27.172V29.09H250.867V37H248.473V29.09H245.869V27.172H253.471ZM257.067 27.172V37H254.673V27.172H257.067ZM258.396 32.072C258.396 31.1013 258.606 30.238 259.026 29.482C259.446 28.7167 260.029 28.124 260.776 27.704C261.532 27.2747 262.386 27.06 263.338 27.06C264.504 27.06 265.503 27.368 266.334 27.984C267.164 28.6 267.72 29.44 268 30.504H265.368C265.172 30.0933 264.892 29.7807 264.528 29.566C264.173 29.3513 263.767 29.244 263.31 29.244C262.572 29.244 261.975 29.5007 261.518 30.014C261.06 30.5273 260.832 31.2133 260.832 32.072C260.832 32.9307 261.06 33.6167 261.518 34.13C261.975 34.6433 262.572 34.9 263.31 34.9C263.767 34.9 264.173 34.7927 264.528 34.578C264.892 34.3633 265.172 34.0507 265.368 33.64H268C267.72 34.704 267.164 35.544 266.334 36.16C265.503 36.7667 264.504 37.07 263.338 37.07C262.386 37.07 261.532 36.86 260.776 36.44C260.029 36.0107 259.446 35.418 259.026 34.662C258.606 33.906 258.396 33.0427 258.396 32.072ZM271.86 27.172V37H269.466V27.172H271.86ZM279.713 35.264H276.045L275.457 37H272.951L276.507 27.172H279.279L282.835 37H280.301L279.713 35.264ZM279.097 33.416L277.879 29.818L276.675 33.416H279.097Z" fill="white"/>
<defs>
<clipPath id="clip0_880_3244">
<rect width="42" height="66" fill="white"/>
</clipPath>
</defs>
</svg>
