<svg width="780" height="77" viewBox="0 0 780 77" fill="none" xmlns="http://www.w3.org/2000/svg">
<path d="M753.03 22.9673C754.667 23.8927 756.473 25.033 758.409 26.3416C763.565 29.8963 775.395 39.6814 780 55.502L780 77.0019L-2.12753e-05 77.0019L-1.9909e-05 61.3742C0.402263 59.3552 1.34727 57.2148 2.24534 54.9528C2.5634 54.1583 2.80662 53.4292 2.9376 52.7936C3.51762 49.2791 5.11735 45.8862 7.718 42.6895C9.5048 40.5116 11.4786 38.4459 13.5835 36.5765C15.4077 34.9782 17.0635 33.4733 18.6913 31.9685C20.1225 30.6599 20.8708 29.7345 21.2357 29.1924L22.2742 27.6688L23.7429 26.5565C25.4455 25.276 27.3819 24.1917 29.5897 23.2944C30.3381 23.0047 31.2829 22.5747 32.3774 22.0419C33.9023 21.0324 35.8387 20.0417 38.3271 18.9668L38.982 18.677L39.6649 18.4901C44.8101 17.0132 49.9927 15.4523 55.1191 13.8446C60.7789 12.078 66.4012 10.6666 71.8551 9.64777L123.326 0.00164842L125.393 11.0311C125.477 11.4798 125.711 12.5267 126.356 14.555C127.114 16.9011 127.713 19.7986 128.19 23.3692C128.658 24.5937 129.144 26.0798 129.706 28.0147C129.808 28.3792 129.911 28.7624 130.014 29.1363C132.222 27.0519 134.374 24.9862 136.45 22.9299C139.407 19.0415 143.934 15.6953 150.277 12.7416C155.422 10.3395 159.669 8.44201 163.233 6.94649L163.542 6.81563L163.851 6.70347C165.329 6.18003 166.882 5.69399 168.491 5.25468C169.024 5.11447 169.277 4.96492 169.277 4.96492L169.744 4.7219C173.73 2.64686 178.482 1.63738 183.861 1.66542C187.098 1.68412 188.782 1.35697 189.483 1.15134L189.904 1.02983L190.325 0.945704C193.581 0.291412 197.164 -0.0263862 201.055 0.00165521C204.638 0.0390436 208.062 0.282067 211.215 0.740071C214.386 1.19808 217.305 1.80563 219.915 2.56274C222.01 3.17965 223.554 3.647 224.704 4.03957L225.006 4.12199C228.118 4.9734 230.726 5.6866 232.955 6.32959C236.566 7.36711 240.28 9.16174 244.303 11.8256C247.512 13.9474 250.683 16.1907 253.779 18.4994L256.838 16.4057C259.542 14.555 262.339 13.2651 265.155 12.5734C266.904 12.1434 268.962 11.7789 271.469 11.4611C272.545 11.3303 274.837 10.919 279.646 9.74126C281.891 9.06828 284.248 8.42333 286.662 7.83447C289.141 7.21757 291.751 6.6474 294.417 6.11462C296.765 5.64727 298.851 5.19861 300.629 4.7593C302.275 4.35738 303.65 3.9648 304.735 3.60027L315.381 0.00166521L325.101 39.39C325.662 37.7076 326.242 36.0438 326.888 34.4081C328.983 29.0709 330.966 24.8554 332.978 21.5372L333.371 20.8829L333.857 20.2847C335.148 18.6864 336.71 17.088 338.563 15.5084C339.217 14.9476 339.769 14.4054 340.181 13.91C342.333 11.0685 345.317 8.80656 349.106 7.18018C351.706 6.07723 354.41 5.17057 357.141 4.48824C359.499 3.90872 361.669 3.3479 363.802 2.76839C365.682 2.273 366.767 1.80565 367.347 1.48785L368.985 0.618573L370.799 0.319469C372.895 -0.0263708 375.121 -0.0917998 377.488 0.132529C378.293 0.225999 379.322 0.282082 380.538 0.31947C382.362 0.132529 384.532 0.151224 387.245 0.356858L387.947 0.403594L388.649 0.553146C393.887 1.62805 399.21 2.64688 404.496 3.60028C410.324 4.66584 415.965 6.02116 421.269 7.63819L448.529 15.9851C449.596 15.1719 450.671 14.3681 451.766 13.5922C454.61 11.2835 457.042 9.42348 459.194 7.89991C461.439 6.32961 462.468 5.50708 462.88 5.15189L468.979 0.00167863L471.224 1.32896L474.732 0.00167914L496.651 10.9564C497.998 11.5639 499.616 12.3211 501.506 13.2277C502.872 13.8727 504.378 14.6111 506.024 15.4056C510.047 17.3591 514.154 19.2846 518.214 21.1166C522.264 22.9486 526.1 24.6124 529.608 26.0518C531.469 26.8183 533.733 27.753 535.23 28.3979C538.317 29.1364 541.301 30.4636 544.117 32.3424C545.352 33.1649 546.568 33.866 547.719 34.4268C549.066 34.8567 550.394 35.3147 551.695 35.7821C551.442 34.1651 551.274 32.548 551.18 30.9497C551.087 29.2111 551.124 27.1735 551.302 24.5283L551.554 20.6119L554.211 17.705C555.558 16.2375 557.064 15.3028 558.664 14.6765C560.882 13.8158 563.27 13.5561 565.627 13.2998L565.774 13.2838C568.496 13.0034 571.405 12.7136 574.53 12.4052C577.58 12.1061 580.386 11.8257 582.949 11.5546C584.39 11.4051 585.354 11.3022 586.018 11.2368C587.159 10.8723 588.375 10.6573 589.666 10.5825C592.304 10.433 594.054 10.5545 595.709 10.9938L595.859 11.0405C598.45 11.7696 600.415 13.209 602.931 15.4523L606.598 18.7238L607.001 43.213C607.141 45.7554 607.272 49.2418 607.384 53.5695C607.45 56.1119 607.553 58.6636 607.665 61.2153C608.441 61.6079 609.218 62.0098 609.994 62.4211C610.621 60.9443 611.182 59.5703 611.65 58.3458C612.483 56.1773 613.437 53.8406 614.541 51.214L614.793 50.6065L615.13 50.0363C616.758 47.1668 618.591 43.9888 620.584 40.6145C622.811 36.8477 625.205 33.221 627.694 29.8187C630.304 26.2575 633.073 22.9767 635.973 20.0511C639.668 16.3216 643.251 13.854 646.927 12.508L647.105 12.4332C649.35 10.2086 651.885 8.59161 654.664 7.63821C656.235 7.10543 657.77 6.35767 659.229 5.40428C662.718 3.15164 666.582 1.85241 670.735 1.5533C674.225 0.450354 678.107 -0.0730793 682.317 0.0110443C686.611 0.0951679 690.961 0.637296 695.236 1.63743L695.47 1.69351L695.75 1.77763C695.778 1.78698 696.48 1.96457 698.847 2.33845C700.793 2.6656 703.056 2.99275 705.573 3.33859C708.239 3.69377 710.849 4.10504 713.356 4.57239C716.799 5.22669 719.119 5.83424 721.177 7.12413C721.308 7.17087 721.551 7.2363 721.897 7.30173C724.844 7.8719 727.753 8.89072 730.541 10.3115L730.756 10.4236L730.971 10.5451C733.665 12.0687 736.313 13.5549 738.904 15.0037C740.055 15.6486 741.112 16.3029 742.057 16.9385C742.889 17.5087 743.647 18.0788 744.349 18.6584L745.378 19.3594L746.201 19.7052C749.026 20.9016 751.243 21.9579 753.03 22.9673Z" fill="#272934"/>
</svg>
