<svg width="1440" height="745" viewBox="0 0 1440 745" fill="none" xmlns="http://www.w3.org/2000/svg">
<g clip-path="url(#clip0_440_5319)">
<path d="M1439.59 306.274C1442.18 293.461 1431.75 282.671 1427.33 271.565C1413.8 254.052 1392.23 243.022 1372.77 232.971C1391.84 221.539 1407.64 191.145 1406.03 168.751C1402.54 134.32 1381.12 106.535 1345.67 101.634C1360.12 80.9178 1354.9 50.4572 1344.27 29.2039C1337.22 17.2632 1324.11 11.6334 1311.4 7.70116C1284.04 0.316203 1245.47 13.494 1215.79 20.3515C1210.12 21.6654 1206.56 27.2186 1207.74 32.8676C1211.77 52.2315 1216.02 72.7559 1220.14 91.8513C1201.45 68.8429 1181.82 43.4175 1152.92 33.0498C1107.69 14.1079 1051.13 35.6489 1029.4 79.1626C1033.5 67.7016 1039.46 43.8587 1043.6 28.2064C1044.69 24.0823 1042.91 19.6897 1039.19 17.5702C1022.05 7.80666 999.995 6.89553 980.595 0.699837C975.327 -0.988154 969.711 2.03297 968.309 7.3463C960.605 36.5792 943.815 98.1333 940.122 115.263C923.689 89.4632 892.042 78.6831 862.588 85.0802C870.312 47.6854 837.601 -4.31618 795.436 2.6276C769.695 1.5726 745.364 21.349 724.253 34.3254C723.847 18.136 706.496 10.9621 695.235 1.75483C692.634 -0.364748 688.961 -0.585338 686.119 1.20815C679.662 5.27468 673.717 10.8086 669.889 17.081C646.942 45.681 622.863 81.0137 598.793 107.945C600.321 87.4108 602.38 65.6108 604.816 45.0575C604.574 35.3804 610.296 24.3125 603.337 16.4192C595.333 9.36997 583.337 12.1705 573.642 10.0989C563.724 7.49975 555.952 9.81115 549.205 17.4647C548.905 41.4034 548.403 68.8812 545.571 92.657C531.661 -5.3424 442.421 4.32518 371.702 37.9219C372.436 36.1956 372.639 33.3663 372.755 30.7C372.881 27.8803 371.392 25.2428 368.918 23.833C358.807 18.0497 345.129 7.68198 334.341 10.2236C321.92 16.8988 312.988 28.3407 301.524 36.4737C284.018 51.7424 263.584 67.4138 246.397 83.1332C250.824 68.6798 272.554 43.6477 252.206 32.8868C210.583 12.9761 167.007 2.07133 123.547 22.0491C83.4415 43.4942 66.6897 89.3577 58.7536 131.308C56.743 162.469 65.8294 192.172 81.5469 219.438C57.2263 229.749 60.9865 261.005 51.5715 281.731C47.1056 299.944 39.4016 317.409 33.9497 335.708C25.2017 361.968 15.226 387.633 7.74424 414.027C3.0174 428.174 -6.61029 448.89 6.97094 461.579C11.2821 468.34 18.3869 468.523 25.3177 470.508C14.182 484.041 25.018 506.339 24.7087 521.704C25.9653 535.668 27.9083 552.759 29.5805 567.011C28.7686 577.177 30.5182 593.702 31.4268 604.598C34.7327 633.274 32.4031 662.114 38.1933 690.369C36.405 699.547 40.5325 719.448 40.4842 728.857C41.2382 734.64 44.8824 740.251 50.3535 743.262C56.6947 747.156 65.6167 743.301 74.0361 743.224C103.354 740.912 125.316 736.693 148.283 717.674C156.664 708.745 152.885 716.494 160.492 723.256L190.419 726.507C207.035 720.513 213.241 697.687 224.213 685.113C225.614 682.936 230.022 678.217 231.24 676.021C233.135 675.819 232.091 675.81 236.701 675.858C255.377 679.819 277.059 680.107 294.216 681.516C300.432 681.833 308.658 682.734 314.632 684.461C318.421 691.999 324.781 700.794 327.082 709.301C330.571 718.451 336.207 725.174 339.165 733.566C340.305 736.798 343.321 739.004 346.763 739.32C357.009 740.26 367.748 741.833 378.14 743.186C383.224 743.847 387.584 739.56 386.955 734.506C386.153 728.09 384.829 721.395 382.721 716.101C400.073 722.575 419.55 721.338 437.887 722.93C440.594 723.16 442.981 721.232 443.271 718.547C444.944 702.894 447.196 683.108 449.477 668.904C465.572 689.908 483.735 712.073 500.777 731.897C506.944 744.231 504.334 741.181 516.262 736.53C526.102 732.559 533.391 725.989 539.355 718.211C541.917 714.873 542.226 710.337 540.167 706.673C536.987 701.015 534.425 695.327 530.936 689.18C520.757 668.933 506.286 649.445 491.797 632.056C497.306 632.555 499.22 629.831 505.204 630.224C509.902 631.088 510.859 630.771 514.329 627.577C546.943 614.198 563.937 581.685 566.653 548.165C570.539 589.818 577.692 630.963 583.086 672.434C584.797 690.023 591.031 715.823 591.631 728.55C591.708 732.262 593.332 735.839 595.922 738.4L596.667 739.925C598.107 742.859 601.258 744.586 604.526 744.212C607.532 743.867 610.77 743.569 612.365 743.444C621.103 742.111 630.209 740.893 639.305 739.819C642.137 739.483 644.573 737.652 645.627 735.014C652.925 716.744 644.496 696.123 645.25 676.855C674.268 691.088 709.27 708.265 739.246 719.995C753.426 723.956 756.819 731.629 769.791 731.111C774.499 730.919 778.414 727.552 779.4 722.987C781.033 715.458 788.989 709.454 790.989 701.254C790.912 699.47 794.315 694.704 792.439 693.275C824.387 693.409 864.318 697.255 890.137 675.637C888.204 684.547 889.422 694.828 891.665 704.103C912.283 708.208 937.386 708.898 957.85 712.495C983.63 717.06 1009.76 723.102 1036.45 725.164C1054.52 728.061 1069.45 734.065 1071.48 706.692C1086.34 729.835 1109.15 740.155 1136.18 743.444C1207.52 753.889 1249.36 673.278 1257.9 613.584C1266.06 649.531 1273.48 685.755 1280.8 721.942C1281.77 726.728 1286.41 729.845 1291.26 729.01C1304.05 726.814 1317.68 726.565 1330.06 726.104C1358.22 719.41 1388.26 712.936 1411.23 694.493C1423.16 678.016 1435.12 660.34 1434.27 638.904C1431.72 603.466 1410.63 574.281 1374.39 568.181C1392.11 542.248 1386.55 497.199 1360.58 478.44C1399.52 462.202 1422.26 408.158 1397.27 372.039C1419.57 359.369 1439.84 332.169 1439.57 306.274H1439.59ZM127.153 608.118C126.708 624.48 124.243 634.214 119.565 648.629C117.515 661.481 105.365 671.484 93.8425 675.618C89.4733 622.561 85.5391 571.538 80.4642 518.999C131.329 524.284 124.939 571.164 127.153 608.118ZM283.255 631.951C276.546 631.116 269.76 631.26 263.158 629.62C269.548 618.188 276.952 607.887 283.738 596.666C284.531 602.862 294.545 627.779 296.575 634.022C291.858 633.092 287.373 632.402 283.255 631.951ZM481.937 530.46C482.904 548.031 476.224 562.666 456.273 559.856C457.471 558.274 458.883 511.49 463.861 513.945C471.207 516.966 480.352 522.078 481.937 530.46ZM754.731 514.022C753.204 563.405 751.348 613.114 749.54 662.354C722.648 644.467 693.089 630.618 665.646 613.345C688.99 583.738 708.758 549.268 722.465 513.83C720.734 508.2 753.271 513.58 754.953 512.66C754.886 513.13 754.808 513.58 754.731 514.022ZM805.16 505.965C805.992 498.839 806.552 491.828 806.842 484.933C827.847 481.95 834.614 506.944 823.391 521.052C820.027 528.082 811.328 527.708 805.083 527.065C804.3 520.131 804.329 513.101 805.16 505.965ZM845.044 605.969C845.024 616.462 844.435 630.196 833.956 635.768C825.344 638.166 815.513 637.983 807.103 638.664C800.347 638.079 799.718 638.348 800.579 631.356C799.97 615.838 801.313 597.961 802.995 582.299C815.465 583.383 830.834 584.169 841.883 590.931C842.25 591.842 843.343 593.261 844.193 593.75C845.179 599.217 844.821 601.644 845.044 605.969ZM1066.07 533.913C1046.39 578.3 1035.66 629.601 1051.57 676.798C1038.55 675.158 1023.87 674.083 1011.74 668.77C998.149 667.619 979.406 662.267 966.501 659.927C976.671 606.573 980.576 558.111 992.784 505.562C1017.55 513.254 1045.76 518.481 1071.34 524.543C1069.59 527.526 1067.83 530.652 1066.07 533.913ZM1169.07 595.39C1165.03 607.801 1167.19 627.021 1152.62 631.538C1130.17 638.271 1137.68 599.15 1143.85 588.514C1150.01 575.518 1171.82 580.074 1169.07 595.39ZM1359.14 648.572C1358.63 660.599 1347.59 664.406 1337.73 666.909C1330.75 668.482 1319.73 675.733 1319.95 664.502C1315.55 649.598 1312.51 631.922 1310.3 616.327C1315.31 614.812 1323.51 614.208 1328.6 614.38C1337.46 612.318 1354.91 612.146 1355.44 624.182C1357.37 632.018 1360.64 640.372 1359.14 648.572Z" fill="#020202"/>
</g>
<defs>
<clipPath id="clip0_440_5319">
<rect width="1440" height="745" fill="white"/>
</clipPath>
</defs>
</svg>
