<svg width="1440" height="745" viewBox="0 0 1440 745" fill="none" xmlns="http://www.w3.org/2000/svg">
<path d="M1440 299.916C1440.08 265.122 1406.73 242.614 1378.68 228.344C1365.84 224.706 1384.6 220.3 1386.7 214.23C1419.97 177.345 1408.21 109.041 1357.67 95.3454C1335.37 94.5575 1362.02 73.722 1354.08 50.1046C1351.25 30.6309 1344.03 7.99592 1323.86 1.82893C1321.01 -2.62609 170.005 2.70437 165.546 0.807581C105.483 2.95727 68.6036 58.2073 60.6048 113.525C53.2638 144.195 62.7617 174.262 76.0897 202.237C87.6574 218.043 63.8062 211.701 60.1212 243.305C45.884 299.77 23.6771 354.213 7.09929 409.609C0.889861 426.894 -6.95413 449.471 11.4517 462.875C22.6519 466.396 25.9984 463.41 20.4176 474.752C20.7271 504.701 26.7818 534.476 29.1515 564.358C30.4185 610.202 34.5484 657.602 37.953 702.969C40.458 715.284 36.27 740.448 53.2928 745C86.5258 742.374 123.047 740.38 148.765 716.412C154.549 708.154 155.303 719.067 160.139 722.822C198.634 728.756 198.141 726.966 217.398 693.291C220.715 687.561 227.07 680.558 230.929 674.916C232.534 674.984 231.993 674.508 236.393 674.751C256.444 678.924 278.505 679.167 297.114 680.684C316.362 679.196 320.83 692.902 326.827 708.669C330.589 718.815 337.002 725.945 339.652 735.584C340.155 737.403 341.741 738.716 343.608 738.872C356.075 739.932 369.548 741.965 382.199 743.57C385.052 743.93 387.499 741.547 387.248 738.668C386.561 730.808 385.062 722.56 382.499 715.566C397.452 720.721 414.455 721.976 430.211 721.655C430.211 721.655 433.722 722.034 437.001 722.394C440.067 722.725 442.813 720.497 443.142 717.414C444.786 701.666 447.079 681.881 449.303 667.699C465.407 689.001 483.581 711.48 500.633 731.586C506.078 743.492 505.159 740.992 516.127 736.284C526.496 732.043 534.04 724.865 540.181 716.431C542.174 713.688 542.319 710.021 540.636 707.064C537.173 700.965 534.514 694.886 530.809 688.271C520.625 667.738 506.146 647.972 491.647 630.337C534.775 629.782 564.216 586.536 566.547 545.254C572.254 598.539 580.262 654.83 588.629 707.288C592.468 728.707 589.925 730.331 599.045 744.835C613.95 743.103 628.467 740.866 643.527 739.125C654.272 719.564 644.388 696.87 645.2 675.772C666.604 686.88 688.453 697.113 710.457 706.967C721.406 711.869 732.393 716.675 743.419 721.402C753.701 725.808 759.746 731.829 771.323 729.972C772.193 729.835 773.122 729.621 773.741 728.979C774.534 728.153 775.898 725.633 776.546 724.69C784.835 712.55 792.147 704.953 792.843 692.503C792.824 692.911 838.476 692.298 842.586 691.909C859.638 690.285 876.835 685.781 890.24 674.556C888.306 683.593 889.525 694.02 891.768 703.426C912.399 707.589 937.517 708.29 957.993 711.937C983.788 716.568 1009.92 722.696 1036.64 724.787C1053.85 728.104 1070.49 732.831 1071.69 706.053C1086.01 729.125 1109.95 740.263 1136.42 743.327C1207.81 753.92 1249.67 672.163 1258.22 611.622C1266.47 648.507 1273.98 685.655 1281.39 722.783C1282.24 727.034 1286.27 729.855 1290.53 729.164C1317.49 724.797 1345.39 726.197 1370.87 714.583C1397.97 707.054 1418.48 692.298 1428.91 665.325C1445.02 628.907 1424.17 578.618 1384.91 568.433C1365.3 567.062 1386.21 553.561 1384.49 540.371C1385.86 516.987 1381.44 488.331 1360.96 474.557C1399.92 458.089 1422.67 403.277 1397.67 366.644C1419.99 353.775 1440.27 326.218 1440 299.946V299.916ZM126.79 606.048C124.982 627.506 123.453 645.511 111.402 662.806C82.1444 693.631 95.0275 638.741 89.1566 620.804C85.3555 585.855 84.1174 550.545 80.0746 515.664C128.976 518.932 125.591 570.457 126.79 606.048ZM282.984 630.22C248.967 632.807 274.985 611.884 283.467 594.434C284.154 600.008 294.039 625.921 296.137 631.582C293.913 633.06 286.407 629.899 282.984 630.22ZM398.748 475.938C393.09 545.477 382.354 617.818 374.036 686.997C353.841 621.748 341.17 556.829 323.78 490.081C316.178 479.255 373.61 462.135 384.24 451.796L391.832 447.837C392.093 448.916 398.4 475.384 398.748 475.938ZM481.782 527.288C483.629 543.649 474.441 561.012 456.103 557.101C456.722 555.662 459.962 513.203 461.364 512.026C468.183 508.281 480.428 520.07 481.782 527.288ZM660.298 503.563C648.508 525.77 638.352 550.409 625.024 571.303C621.146 542.365 621.01 512.143 616.755 483.282C615.091 478.545 625.372 479.566 628.593 476.483C634.155 473.866 661.323 463.147 667.436 460.365C679.033 454.354 667.446 475.598 670.879 482.572L660.298 503.563ZM754.736 510.615C753.352 559.037 751.312 607.867 749.793 656.123C751.254 666.599 738.196 652.262 733.012 650.229C726.309 647.097 719.433 642.33 713.02 639.383C648.808 601.681 664.825 623.226 698.193 561.858C708.532 544.553 716.164 526.51 723.737 507.61C723.737 509.04 757.85 507.104 754.736 510.615ZM805.194 502.445C806.026 495.217 806.587 488.107 806.877 481.113C818.648 479.605 829.123 487.552 828.185 500.178C831.599 525.945 796.161 537.55 805.194 502.445ZM845.101 603.869C845.082 614.511 844.492 628.44 834.007 634.091C825.689 634.86 796.383 643.245 800.61 629.617C800 613.869 801.345 595.747 803.028 579.863C815.505 580.962 830.883 581.76 841.938 588.617C846.039 593.092 844.724 599.064 845.101 603.869ZM1066.25 530.789C1007.96 658.516 1093.56 693.018 1011.89 667.562C998.315 666.249 979.523 661.074 966.63 658.594C967.442 653.906 969.744 640.823 969.754 640.725C973.565 621.018 975.992 601.447 978.42 582.606C983.74 558.706 984.658 521.169 994.872 503.048C1012.32 507.639 1031.35 512.23 1049.26 516.014C1057.92 520.323 1078.94 516.928 1066.25 530.789ZM1169.32 593.14C1165.72 607.974 1165.22 634.811 1144.19 630.162C1131.45 618.372 1138.79 591.749 1148.93 580.116C1158.64 575.087 1171.43 581.215 1169.32 593.14ZM1299.15 559.514C1293.99 546.392 1293.64 531.237 1290.55 517.629C1318.93 505.285 1329.55 559.348 1299.15 559.514ZM1359.5 647.077C1358.99 659.275 1347.94 663.137 1338.07 665.675C1331.2 667.339 1319.97 674.459 1320.29 663.234C1315.89 648.118 1312.84 630.191 1310.62 614.375C1318.34 611.836 1327.44 613.168 1335.29 611.311C1340.28 611.252 1350.69 611.486 1353.74 616.232C1357.15 627.02 1360.77 636.008 1359.5 647.077Z" fill="black"/>
</svg>
