<svg width="1000" height="686" viewBox="0 0 1000 686" fill="none" xmlns="http://www.w3.org/2000/svg">
<path d="M211.847 208.808C211.187 193.134 211.417 176.672 211.311 160.942C211.004 115.729 210.613 67.8065 211.85 22.7379C211.959 18.7832 212.022 19.0243 213.079 17.5213L214.034 25.5351L214.305 13.2451L215.274 11.0829C216.037 10.2148 215.55 16.4281 215.681 17.5052L216.913 12.6905C217.466 12.2323 217.531 16.3075 217.559 17.1997C218.645 50.0668 217.395 86.76 217.304 119.949C217.217 152.623 217.189 185.417 217.304 218.092C217.356 232.584 218.175 248.62 217.605 263.104C217.222 272.854 214.587 255.058 214.296 252.647C213.87 249.086 213.73 245.429 213.486 241.763C213.867 245.34 214.357 249.247 214.789 252.824C215.027 254.809 215.167 254.351 215.137 252.607C214.491 241.691 213.801 230.711 213.489 219.651C212.649 189.943 212.578 158.442 212.381 128.863C212.345 123.638 212.427 118.381 212.394 113.157L213.21 115.56C212.783 111.75 213.158 108.888 213.21 105.504C213.246 103.181 213.057 99.492 213.215 97.6192C213.267 96.9922 213.757 97.1048 213.766 96.6145C213.782 95.6419 213.437 93.7449 213.464 91.864C213.544 86.3822 213.976 80.9485 213.757 75.3783L213.432 82.8455C212.162 85.9803 213.111 90.6423 213.062 95.0712C213.021 98.5596 212.427 102.161 212.663 105.906L212.104 98.2944L212.364 91.1246L211.847 85.0157C211.811 98.8088 211.88 112.634 211.855 126.443C211.803 153.989 211.551 180.964 211.844 208.8L211.847 208.808ZM213.757 70.5555C214.236 66.424 213.979 61.9951 214.031 57.7029C213.59 57.8315 213.519 61.1511 213.489 62.1318C213.437 63.9242 213.462 65.9498 213.489 67.7583C213.503 68.7309 213.281 70.7484 213.757 70.5555ZM213.489 171.431C213.166 166.697 213.727 159.23 213.489 154.15C212.728 154.962 212.903 158.289 212.931 160.211C213.018 166.649 213.818 171.978 214.05 177.026C214.258 181.511 213.73 185.996 213.755 189.887C213.831 202.715 214.994 215.552 214.589 228.501L215.131 235.341C215.071 230.132 215.219 224.844 215.148 219.635C214.608 179.783 214.4 139.867 214.576 99.8779L215.131 76.2062C214.723 76.5679 214.617 80.3537 214.589 81.4388C213.96 105.762 214.056 130.358 214.05 154.544C214.05 160.452 214.026 166.352 214.039 172.259C214.001 173.312 213.5 171.6 213.492 171.456L213.489 171.431ZM212.942 116.372V135.663L213.5 125.655C213.489 123.791 213.525 121.934 213.456 120.085C213.426 119.249 213.35 116.307 212.942 116.372Z" fill="black"/>
<path d="M800.153 480.192C800.813 495.866 800.583 512.328 800.689 528.058C800.996 573.271 801.387 621.193 800.15 666.262C800.041 670.217 799.978 669.976 798.921 671.479L797.966 663.465L797.695 675.755L796.726 677.917C795.963 678.785 796.45 672.572 796.319 671.495L795.087 676.31C794.534 676.768 794.469 672.692 794.441 671.8C793.355 638.933 794.605 602.24 794.696 569.051C794.783 536.377 794.811 503.583 794.696 470.908C794.644 456.416 793.825 440.38 794.395 425.896C794.778 416.146 797.413 433.942 797.704 436.353C798.13 439.914 798.27 443.571 798.514 447.237C798.133 443.66 797.643 439.753 797.211 436.176C796.973 434.191 796.833 434.649 796.863 436.393C797.509 447.309 798.199 458.289 798.511 469.349C799.351 499.057 799.422 530.558 799.619 560.137C799.655 565.362 799.573 570.619 799.606 575.843L798.79 573.44C799.217 577.25 798.842 580.112 798.79 583.496C798.754 585.819 798.943 589.508 798.785 591.381C798.733 592.008 798.243 591.895 798.234 592.386C798.218 593.358 798.563 595.255 798.536 597.136C798.456 602.618 798.024 608.051 798.243 613.622L798.568 606.155C799.838 603.02 798.889 598.358 798.938 593.929C798.979 590.44 799.573 586.839 799.337 583.094L799.896 590.706L799.636 597.875L800.153 603.984C800.189 590.191 800.12 576.366 800.145 562.557C800.197 535.011 800.449 508.036 800.156 480.2L800.153 480.192ZM798.243 618.445C797.764 622.576 798.021 627.005 797.969 631.297C798.41 631.169 798.481 627.849 798.511 626.868C798.563 625.076 798.538 623.05 798.511 621.242C798.497 620.269 798.719 618.252 798.243 618.445ZM798.511 517.569C798.834 522.303 798.273 529.77 798.511 534.85C799.272 534.038 799.097 530.711 799.069 528.789C798.982 522.351 798.182 517.022 797.95 511.974C797.742 507.489 798.27 503.004 798.245 499.113C798.169 486.285 797.006 473.448 797.411 460.499L796.869 453.659C796.929 458.868 796.781 464.156 796.852 469.365C797.392 509.217 797.6 549.133 797.424 589.122L796.869 612.794C797.277 612.432 797.383 608.646 797.411 607.561C798.04 583.238 797.944 558.642 797.95 534.456C797.95 528.548 797.974 522.648 797.961 516.741C797.999 515.688 798.5 517.4 798.508 517.544L798.511 517.569ZM799.058 572.628L799.058 553.337L798.5 563.345C798.511 565.209 798.475 567.066 798.544 568.915C798.574 569.751 798.65 572.693 799.058 572.628Z" fill="black"/>
<path d="M227.847 347.661C227.187 320.985 227.417 292.968 227.311 266.195C227.004 189.244 226.613 107.682 227.85 30.9774C227.959 24.2467 228.022 24.6571 229.079 22.0989L230.034 35.7381L230.305 14.821L231.274 11.1411C232.037 9.66359 231.55 20.2384 231.681 22.0716L232.913 13.8771C233.466 13.0973 233.531 20.0332 233.559 21.5517C234.645 77.4902 233.395 139.94 233.304 196.426C233.217 252.036 233.189 307.852 233.304 363.462C233.356 388.127 234.175 415.419 233.605 440.071C233.222 456.665 230.587 426.377 230.296 422.273C229.87 416.213 229.73 409.988 229.486 403.75C229.867 409.838 230.357 416.486 230.789 422.574C231.027 425.953 231.167 425.173 231.137 422.205C230.491 403.627 229.801 384.94 229.489 366.116C228.649 315.554 228.578 261.941 228.381 211.598C228.345 202.705 228.427 193.759 228.394 184.866L229.21 188.957C228.783 182.472 229.158 177.602 229.21 171.843C229.246 167.889 229.057 161.61 229.215 158.422C229.267 157.355 229.757 157.547 229.766 156.712C229.782 155.057 229.437 151.829 229.464 148.627C229.544 139.298 229.976 130.05 229.757 120.569L229.432 133.278C228.162 138.613 229.111 146.548 229.062 154.086C229.021 160.023 228.427 166.152 228.663 172.527L228.104 159.572L228.364 147.369L227.847 136.972C227.811 160.447 227.88 183.977 227.855 207.48C227.803 254.362 227.551 300.273 227.844 347.648L227.847 347.661ZM229.757 112.361C230.236 105.329 229.979 97.7917 230.031 90.4864C229.59 90.7053 229.519 96.3552 229.489 98.0242C229.437 101.075 229.462 104.522 229.489 107.6C229.503 109.256 229.281 112.689 229.757 112.361ZM229.489 284.048C229.166 275.99 229.727 263.281 229.489 254.636C228.728 256.017 228.903 261.681 228.931 264.95C229.018 275.908 229.818 284.978 230.05 293.57C230.258 301.203 229.73 308.837 229.755 315.458C229.831 337.292 230.994 359.139 230.589 381.178L231.131 392.82C231.071 383.955 231.219 374.953 231.148 366.088C230.608 298.262 230.4 230.326 230.576 162.267L231.131 121.978C230.723 122.594 230.617 129.037 230.589 130.884C229.96 172.281 230.056 214.142 230.05 255.306C230.05 265.361 230.026 275.402 230.039 285.457C230.001 287.249 229.5 284.335 229.492 284.089L229.489 284.048ZM228.942 190.338V223.171L229.5 206.139C229.489 202.965 229.525 199.805 229.456 196.659C229.426 195.236 229.35 190.229 228.942 190.338Z" fill="black"/>
<path d="M810.847 580.661C810.187 553.985 810.417 525.968 810.311 499.195C810.004 422.244 809.613 340.682 810.85 263.977C810.959 257.247 811.022 257.657 812.079 255.099L813.034 268.738L813.305 247.821L814.274 244.141C815.037 242.664 814.55 253.238 814.681 255.072L815.913 246.877C816.466 246.097 816.531 253.033 816.559 254.552C817.645 310.49 816.395 372.94 816.304 429.426C816.217 485.036 816.189 540.852 816.304 596.462C816.356 621.127 817.175 648.419 816.605 673.071C816.222 689.665 813.587 659.377 813.296 655.273C812.87 649.213 812.73 642.988 812.486 636.75C812.867 642.838 813.357 649.486 813.789 655.574C814.027 658.953 814.167 658.173 814.137 655.205C813.491 636.627 812.801 617.94 812.489 599.116C811.649 548.554 811.578 494.941 811.381 444.598C811.345 435.705 811.427 426.759 811.394 417.866L812.21 421.957C811.783 415.472 812.158 410.602 812.21 404.843C812.246 400.889 812.057 394.61 812.215 391.422C812.267 390.355 812.757 390.547 812.766 389.712C812.782 388.057 812.437 384.829 812.464 381.627C812.544 372.298 812.976 363.05 812.757 353.569L812.432 366.278C811.162 371.613 812.111 379.548 812.062 387.086C812.021 393.023 811.427 399.152 811.663 405.527L811.104 392.572L811.364 380.369L810.847 369.972C810.811 393.447 810.88 416.977 810.855 440.48C810.803 487.362 810.551 533.273 810.844 580.648L810.847 580.661ZM812.757 345.361C813.236 338.329 812.979 330.792 813.031 323.486C812.59 323.705 812.519 329.355 812.489 331.024C812.437 334.075 812.462 337.522 812.489 340.6C812.503 342.256 812.281 345.689 812.757 345.361ZM812.489 517.048C812.166 508.99 812.727 496.281 812.489 487.636C811.728 489.017 811.903 494.681 811.931 497.95C812.018 508.908 812.818 517.978 813.05 526.57C813.258 534.203 812.73 541.837 812.755 548.458C812.831 570.292 813.994 592.139 813.589 614.178L814.131 625.82C814.071 616.955 814.219 607.953 814.148 599.088C813.608 531.262 813.4 463.326 813.576 395.267L814.131 354.978C813.723 355.594 813.617 362.037 813.589 363.884C812.96 405.281 813.056 447.142 813.05 488.306C813.05 498.361 813.026 508.402 813.039 518.457C813.001 520.249 812.5 517.335 812.492 517.089L812.489 517.048ZM811.942 423.338V456.171L812.5 439.139C812.489 435.965 812.525 432.805 812.456 429.659C812.426 428.236 812.35 423.229 811.942 423.338Z" fill="black"/>
<path d="M346.097 46.8465C346.621 47.0154 346.429 46.9591 346.491 45.6321C346.655 42.0934 346.729 38.3778 346.699 34.7748H347.297L347.701 52.4682L348.102 46.0423C348.646 44.3936 348.478 56.7227 348.502 57.6878C349.356 90.9675 349.086 120.966 347.89 154.181L348.1 185.579L347.701 184.381C347.553 191.434 348.124 198.423 347.852 205.492C347.815 206.417 347.293 213.486 346.901 211.717L346.101 201.27C346.021 203.964 346.349 207.422 345.799 209.296L345.301 207.704L345.497 211.725C344.112 210.961 344.356 203.787 344 199.669C343.326 202.106 344.086 207.455 343.302 209.312L342.698 200.474C342.37 200.763 342.257 202.026 342.291 203.248C342.327 204.567 343.13 206.996 342.404 206.9L341.503 198.061C341.863 201.929 341.035 202.195 340.931 203.377C340.811 204.752 341.105 207.575 340.703 207.704C340.449 204.414 340.483 198.801 339.903 196.452C339.839 198.793 340.077 200.964 340.109 203.264C340.121 204.149 340.237 206.312 339.903 206.103C339.084 184.903 338.836 162.095 339.102 140.573C339.278 126.354 340.121 112.151 340.309 97.9725C340.467 86.1018 340.007 75.534 339.903 64.1539C339.865 60.004 339.651 49.5488 341.101 50.8919V46.8626H341.699V53.6987L342.097 60.5348C342.406 56.1677 341.855 50.7391 342.127 46.5731C342.4 42.4071 342.992 49.8142 342.702 51.6881C342.742 51.9133 342.966 51.2538 343.006 50.8919C343.192 49.1869 342.48 41.8682 343.298 37.5736C343.444 36.8095 343.786 36.6648 343.912 35.8525C344.278 33.5121 344.184 28.0513 345.02 26.0165C345.269 25.7753 346.101 28.2443 346.101 28.7671V46.8626L346.097 46.8465Z" fill="black"/>
<path d="M341.903 335.698C341.379 335.622 341.571 335.647 341.509 336.239C341.345 337.819 341.271 339.477 341.301 341.084L340.703 341.084L340.299 333.189L339.898 336.056C339.354 336.792 339.522 331.29 339.498 330.86C338.644 316.009 338.914 302.623 340.11 287.801L339.9 273.79L340.299 274.325C340.447 271.177 339.876 268.059 340.148 264.904C340.185 264.491 340.707 261.337 341.099 262.126L341.899 266.788C341.979 265.586 341.651 264.043 342.201 263.207L342.699 263.917L342.503 262.123C343.888 262.464 343.644 265.665 344 267.502C344.674 266.415 343.914 264.028 344.698 263.199L345.302 267.143C345.63 267.014 345.743 266.451 345.709 265.905C345.673 265.317 344.87 264.233 345.596 264.276L346.497 268.22C346.137 266.494 346.965 266.375 347.069 265.848C347.189 265.234 346.895 263.975 347.297 263.917C347.551 265.385 347.517 267.89 348.097 268.938C348.161 267.894 347.923 266.925 347.891 265.898C347.879 265.503 347.763 264.538 348.097 264.631C348.916 274.091 349.164 284.269 348.898 293.873C348.722 300.218 347.879 306.556 347.691 312.883C347.533 318.18 347.993 322.896 348.097 327.974C348.135 329.826 348.349 334.492 346.899 333.892L346.899 335.69L346.301 335.69L346.301 332.64L345.903 329.589C345.594 331.538 346.145 333.961 345.873 335.82C345.6 337.679 345.008 334.373 345.298 333.537C345.258 333.437 345.034 333.731 344.994 333.892C344.808 334.653 345.52 337.919 344.702 339.835C344.556 340.176 344.214 340.241 344.088 340.603C343.722 341.648 343.816 344.085 342.98 344.993C342.731 345.1 341.899 343.999 341.899 343.765L341.899 335.69L341.903 335.698Z" fill="black"/>
</svg>
