<svg width="1440" height="745" viewBox="0 0 1440 745" fill="none" xmlns="http://www.w3.org/2000/svg">
<g clip-path="url(#clip0_350_5567)">
<path d="M1440 305.548C1440.29 271.136 1406.58 249.017 1378.68 234.88C1366.85 231.768 1382.21 227.177 1385.62 222.692C1410.68 193.543 1413.89 148.643 1385.81 120.33C1377.23 108.948 1361.02 104.252 1347.86 101.121C1357.81 77.4561 1358.98 31.154 1329.69 13.4054C1295.03 -6.1201 1248.85 12.0031 1211.84 20.1379C1208.5 20.8679 1206.38 24.1429 1207.07 27.466C1211.68 50.0552 1217.17 74.0274 1221.36 96.6358C1165.43 10.7066 1038.89 25.4395 1025.53 132.421C1019.93 159.707 1042.29 167.534 1006.33 154.578C998.52 152.907 989.438 150.554 982.097 147.452C987.997 117.919 997.244 90.2682 1005.6 60.4758C1005.6 60.4758 1009.09 46.4344 1011.32 37.4736C1012.51 32.7003 1010.21 27.7541 1005.8 25.5259C991.363 18.2267 973.141 18.121 957.492 12.8675C957.492 12.8675 957.463 12.8675 957.414 12.8387C951.524 10.8698 945.189 14.3082 943.69 20.3012C937.674 44.3791 924.423 97.7307 924.065 101.716C913.32 150.141 918.862 110.514 878.578 105.424C858.722 106.403 883.724 76.3612 873.732 60.2837C867.591 6.99931 813.602 0.276333 771.132 15.7392L744.109 23.9604C738.634 14.337 728.16 8.70887 719.513 2.13956C715.741 -0.732112 710.46 -0.732112 706.785 2.25481C672.817 29.8863 651.567 76.5533 620.955 106.941C622.058 77.5618 628.683 47.6445 628.238 18.2651C620.288 8.22866 584.502 4.00279 575.12 12.9732L571.328 16.3347C570.739 64.4136 566.696 113.482 564.181 161.397C562.392 170.089 568.698 205.078 557.362 194.081C543.435 183.929 528.665 176.707 513.596 169.244C505.453 167.4 520.164 160.523 524.922 159.015C529.139 150.602 536.829 143.658 539.798 134.534C560.003 88.9236 531.877 18.073 477.733 15.0669C437.575 7.50834 398.761 25.5547 362.394 40.2108C358.487 62.2814 376.999 66.7666 345.904 53.8969C324.567 43.6396 313.551 71.5975 299.701 82.5848C270.762 113.376 242.327 145.07 210.225 172.433C224.733 129.617 244.928 88.7507 260.636 46.6073C264.408 28.4456 224.182 23.509 214.491 16.8917C180.319 4.57904 139.01 8.17103 110.12 29.8574C61.683 69.6671 43.7415 145.425 72.7478 201.658C89.7027 227.331 62.0409 219.474 59.5068 252.263C45.2697 306.931 23.4303 359.668 7.33618 413.442C0.662516 430.643 -6.82359 453.04 11.4758 466.438C22.2407 469.857 26.2159 466.784 20.4417 478.165C27.4732 552.607 32.3673 628.251 38.0544 702.482C39.7373 715.217 36.4972 740.092 53.3168 745C86.1821 742.407 122.249 740.544 147.947 717.513C154.283 708.773 155.076 718.473 160.163 723.102C161.111 722.382 191.732 727.972 191.491 725.234C210.854 717.551 216.067 687.922 231.9 675.676C259.378 679.893 288.123 679.24 314.383 684.253C323.455 701.512 334.027 720.548 340.362 738.7C351.02 739.939 362.839 740.15 373.527 742.705C388.77 744.145 388.489 747.526 386.352 730.229C376.158 704.23 396.72 725.33 424.576 722.017C428.435 722.228 434.344 722.286 438.987 722.757C441.163 722.977 443.117 721.489 443.455 719.347C446.251 701.454 443.823 652.453 458.186 680.584C472.481 699.409 490.142 716.35 502.512 735.982C504.311 738.844 507.967 739.938 511.082 738.584C513.645 737.47 516.14 736.395 516.14 736.395C526.876 732.082 534.546 724.639 540.794 715.957C542.371 713.757 542.545 710.847 541.162 708.523C539.256 705.325 537.602 701.992 535.997 698.9C526.218 679.701 514.564 658.955 500.085 642.638C497.26 638.594 494.485 635.31 491.651 631.785C498.083 631.9 503.199 628.587 510.173 630.498C531 627 561.959 621.246 564 584.5C572.579 645.727 579.927 680.613 595.818 738.277C595.818 738.277 596.224 739.103 596.746 740.159C598.12 742.954 601.128 744.597 604.233 744.222C616.013 742.781 627.59 741.091 639.487 739.679C642.176 739.362 644.468 737.614 645.484 735.117C652.931 716.763 644.468 696.028 645.193 676.646C673.677 690.457 708.168 707.899 737.677 719.059C749.061 722.929 759.739 731.717 772.293 730.959C775.978 730.738 778.821 727.837 779.218 724.188C780.108 716.005 788.909 709.772 791.037 701.07C790.931 699.284 794.384 694.51 792.488 693.079C807.228 693.742 822.674 694.309 837.318 692.426C852.851 690.755 870.164 689.785 883.463 680.786C895.34 667.455 886.325 695.173 891.761 703.923C921.241 709.935 954.261 708.36 982.919 717.705C1000.18 720.375 1018.84 723.189 1036.64 725.014C1053.05 728.529 1071.16 732.284 1071.68 706.525C1085.97 729.297 1109.99 740.303 1136.42 743.319C1207.77 753.788 1249.63 673.083 1258.23 613.326C1266.05 647.843 1273.2 682.601 1280.24 717.34C1281.71 724.591 1288.59 729.489 1295.97 728.5C1320.27 725.234 1345.16 725.839 1368.16 715.966C1421.78 704.883 1452.67 646.105 1422.2 598.477C1414.55 584.657 1400.1 575.081 1384.91 570.635C1363.18 571.768 1409.35 519.588 1362.06 477.416C1400.36 460.752 1422.4 407.151 1397.67 371.394C1420 358.659 1440.25 331.498 1440 305.538V305.548ZM126.795 607.813C124.986 629 123.448 646.777 111.407 663.854C82.1489 694.299 95.0223 640.093 89.1611 622.382C85.36 587.884 84.122 553.001 80.0791 518.57C128.981 521.797 125.595 572.671 126.795 607.813ZM129.319 321.539C122.394 346.721 115.517 371.692 98.2624 390.353C105.188 375.976 124.706 282.584 129.319 321.539ZM195.766 69.7631C177.418 113.357 160.714 155.952 142.841 200.218C108.766 170.137 136.651 119.609 150.723 84.2848C155.859 71.4439 191.394 55.3087 195.766 69.7631ZM282.988 631.679C258.74 631.852 263.286 626.81 274.737 609.82C279.689 605.287 283.732 589.411 285.212 603.606C285.231 614.104 309.682 641.13 282.988 631.679ZM450.825 120.339C450.758 118.754 436.791 82.3639 437.478 80.6544C460.962 66.4497 480.151 114.548 450.825 120.339ZM481.785 530.047C483.633 546.211 474.444 563.355 456.097 559.484C460.081 542.907 453.785 486.089 481.785 530.047ZM751.5 584.5C750.127 632.31 751.314 609.609 749.786 657.256C751.266 667.59 738.18 653.443 733.015 651.435C726.312 648.343 719.426 643.637 713.023 640.727C650.039 605.239 667.596 630.836 700.5 572.5C710.849 555.404 713.023 556.219 713.023 556.219C717.774 575.658 754.643 581.023 751.5 584.5ZM792.362 104.665C785.998 92.2371 784.228 77.3889 779.905 64.2887C782.468 63.0305 784.451 63.9814 786.433 62.3006C810.971 57.1335 818.67 103.359 792.362 104.665ZM827.781 512.836C824.048 523.507 815.971 529.087 805.11 526.657C805.255 514.565 802.905 491.87 809.288 484.561C824.618 482.429 831.814 500.274 827.791 512.836H827.781ZM845.104 605.661C845.084 616.168 844.494 629.922 834.01 635.502C825.053 636.097 797.469 644.904 800.612 631.094C800.003 615.554 801.357 597.642 803.021 581.968C815.498 583.043 830.886 583.831 841.931 590.602C846.042 595.02 844.726 600.917 845.104 605.661ZM911.221 538.451C902.952 573.545 917.092 580.306 886.983 556.219C866.353 550.36 900.63 530.671 896.703 511.636C901.472 486.818 885.89 477.473 919.075 487.222L911.221 538.451ZM1045.82 675.696C1020.14 672.507 990.58 664.814 966.729 659.148C976.846 605.873 973.813 621.958 986 569.5C1036 583.5 1056.5 551 1044.03 634.868C1046.1 647.267 1046.04 661.606 1050.8 673.909C1053.7 678.5 1047.96 675.513 1045.82 675.696ZM1128.29 169.1C1120.68 158.074 1129.63 139.519 1144.16 145.992C1154.08 156.922 1171.18 175.362 1161.39 189.855C1148.98 204.069 1134.31 178.579 1128.29 169.1ZM1169.31 595.068C1165.31 608.399 1167.08 629.23 1150.24 631.977C1130.04 632.841 1138.57 599.227 1144.08 588.182C1150.23 575.178 1172.08 579.73 1169.31 595.068ZM1280.58 95.0415C1262.91 101.822 1268.27 68.044 1262.64 56.9991C1285.51 45.8293 1300.08 84.0831 1280.58 95.0415ZM1284.98 149.411C1297.63 147.721 1316.1 141.324 1327.01 149.959C1331.68 163.261 1338.93 179.809 1328.28 191.468C1318.54 196.655 1307.87 200.736 1297.26 202.187C1292.63 185.408 1287.64 166.891 1284.98 149.411ZM1288.35 401.494C1294.22 388.298 1303.48 370.3 1313.86 389.518C1308.3 403.136 1302.72 409.696 1288.35 401.494ZM1299.15 561.866C1293.99 548.91 1293.63 533.946 1290.56 520.51C1293.23 519.502 1295.11 520.616 1297.25 519.137C1322.16 516.275 1325.47 563.019 1299.15 561.866ZM1359.5 648.324C1358.99 660.377 1347.93 664.18 1338.06 666.687C1331.2 668.339 1319.97 675.35 1320.29 664.276C1315.89 649.351 1312.84 631.651 1310.63 616.034C1318.33 613.527 1327.45 614.843 1335.29 613.009C1340.28 612.951 1350.68 613.172 1353.74 617.868C1357.15 628.52 1360.76 637.394 1359.5 648.324Z" fill="black"/>
</g>
<defs>
<clipPath id="clip0_350_5567">
<rect width="1440" height="745" fill="white"/>
</clipPath>
</defs>
</svg>
