<svg width="6" height="434" viewBox="0 0 6 434" fill="none" xmlns="http://www.w3.org/2000/svg">
<path d="M0.121004 197.808C0.02678 182.134 0.0596209 165.672 0.0443729 149.942C0.000583956 104.729 -0.0553251 56.8065 0.121395 11.7379C0.137034 7.78321 0.146027 8.02435 0.296942 6.52126L0.433391 14.5351L0.472097 2.24508L0.610502 0.0828772C0.719584 -0.785219 0.64999 5.4281 0.668757 6.50518L0.844695 1.69046C0.923671 1.2323 0.933055 5.30753 0.936965 6.19974C1.09218 39.0668 0.913507 75.76 0.900605 108.949C0.888093 141.623 0.884184 174.417 0.900605 207.092C0.908033 221.584 1.02493 237.62 0.943611 252.104C0.888874 261.854 0.512368 244.058 0.470925 241.647C0.409933 238.086 0.389993 234.429 0.355197 230.763C0.409542 234.34 0.479527 238.247 0.5413 241.824C0.575315 243.809 0.595254 243.351 0.590954 241.607C0.498684 230.691 0.400159 219.711 0.355588 208.651C0.23556 178.943 0.225394 147.442 0.197243 117.863C0.192161 112.638 0.203891 107.381 0.199199 102.157L0.315708 104.56C0.254716 100.75 0.30828 97.8884 0.315708 94.5044C0.320791 92.1814 0.293815 88.492 0.316491 86.6192C0.323919 85.9922 0.393903 86.1048 0.395076 85.6145C0.397422 84.6419 0.34816 82.7449 0.35207 80.864C0.363408 75.3822 0.425181 69.9485 0.393903 64.3783L0.347377 71.8455C0.165966 74.9803 0.301634 79.6423 0.294597 84.0712C0.288732 87.5596 0.20389 91.1606 0.237514 94.9063L0.157756 87.2944L0.194898 80.1246L0.121004 74.0157C0.115922 87.8088 0.125696 101.634 0.122177 115.443C0.114749 142.989 0.078779 169.964 0.120613 197.8L0.121004 197.808ZM0.393903 59.5555C0.462323 55.424 0.425572 50.9951 0.433 46.7029C0.370053 46.8315 0.359889 50.1511 0.355588 51.1318C0.34816 52.9242 0.351679 54.9498 0.355588 56.7583C0.357543 57.7309 0.325874 59.7484 0.393903 59.5555ZM0.355588 160.431C0.309453 155.697 0.389603 148.23 0.355588 143.15C0.246898 143.962 0.27192 147.289 0.275829 149.211C0.288341 155.649 0.402505 160.978 0.435737 166.026C0.465451 170.511 0.389994 174.996 0.393513 178.887C0.40446 191.715 0.570623 204.552 0.512759 217.501L0.590172 224.341C0.581571 219.132 0.602683 213.844 0.592518 208.635C0.515496 168.783 0.485782 128.867 0.510805 88.8779L0.590172 65.2062C0.531917 65.5679 0.516669 69.3537 0.512759 70.4388C0.422835 94.7616 0.436519 119.358 0.435737 143.544C0.435737 149.452 0.432218 155.352 0.434173 161.259C0.428699 162.312 0.357151 160.6 0.355978 160.456L0.355588 160.431ZM0.277394 105.372V124.663L0.357151 114.655C0.355587 112.791 0.360671 110.934 0.350897 109.085C0.346596 108.249 0.335649 105.307 0.277394 105.372Z" fill="black"/>
<path d="M4.121 336.661C4.02678 309.985 4.05962 281.968 4.04437 255.195C4.00058 178.244 3.94467 96.6825 4.12139 19.9774C4.13703 13.2467 4.14603 13.6571 4.29694 11.0989L4.43339 24.7381L4.4721 3.82104L4.6105 0.141054C4.71958 -1.33641 4.64999 9.23841 4.66876 11.0716L4.84469 2.8771C4.92367 2.09733 4.93306 9.03321 4.93696 10.5517C5.09218 66.4902 4.91351 128.94 4.9006 185.426C4.88809 241.036 4.88418 296.852 4.9006 352.462C4.90803 377.127 5.02493 404.419 4.94361 429.071C4.88887 445.665 4.51237 415.377 4.47092 411.273C4.40993 405.213 4.38999 398.988 4.3552 392.75C4.40954 398.838 4.47953 405.486 4.5413 411.574C4.57532 414.953 4.59525 414.173 4.59095 411.205C4.49868 392.627 4.40016 373.94 4.35559 355.116C4.23556 304.554 4.22539 250.941 4.19724 200.598C4.19216 191.705 4.20389 182.759 4.1992 173.866L4.31571 177.957C4.25472 171.472 4.30828 166.602 4.31571 160.843C4.32079 156.889 4.29381 150.61 4.31649 147.422C4.32392 146.355 4.3939 146.547 4.39508 145.712C4.39742 144.057 4.34816 140.829 4.35207 137.627C4.36341 128.298 4.42518 119.05 4.3939 109.569L4.34738 122.278C4.16597 127.613 4.30163 135.548 4.2946 143.086C4.28873 149.023 4.20389 155.152 4.23751 161.527L4.15776 148.572L4.1949 136.369L4.121 125.972C4.11592 149.447 4.1257 172.977 4.12218 196.48C4.11475 243.362 4.07878 289.273 4.12061 336.648L4.121 336.661ZM4.3939 101.361C4.46232 94.3295 4.42557 86.7917 4.433 79.4864C4.37005 79.7053 4.35989 85.3552 4.35559 87.0242C4.34816 90.0749 4.35168 93.5223 4.35559 96.6004C4.35754 98.2557 4.32587 101.689 4.3939 101.361ZM4.35559 273.048C4.30945 264.99 4.3896 252.281 4.35559 243.636C4.2469 245.017 4.27192 250.681 4.27583 253.95C4.28834 264.908 4.4025 273.978 4.43574 282.57C4.46545 290.203 4.38999 297.837 4.39351 304.458C4.40446 326.292 4.57062 348.139 4.51276 370.178L4.59017 381.82C4.58157 372.955 4.60268 363.953 4.59252 355.088C4.5155 287.262 4.48578 219.326 4.5108 151.267L4.59017 110.978C4.53192 111.594 4.51667 118.037 4.51276 119.884C4.42284 161.281 4.43652 203.142 4.43574 244.306C4.43574 254.361 4.43222 264.402 4.43417 274.457C4.4287 276.249 4.35715 273.335 4.35598 273.089L4.35559 273.048ZM4.27739 179.338V212.171L4.35715 195.139C4.35559 191.965 4.36067 188.805 4.3509 185.659C4.3466 184.236 4.33565 179.229 4.27739 179.338Z" fill="black"/>
</svg>
