<svg width="160" height="701" viewBox="0 0 160 701" fill="none" xmlns="http://www.w3.org/2000/svg">
<path d="M104.602 12.1527C106.842 7.08679 106.985 5.09481 110 0H136.5H160V700H44C44 701.5 34.17 690.2 34.17 667C34.17 643.8 47 627 60.6013 627L45.5 620L60.6013 600H47C25.2675 550 43 517.5 54 505H22.4508C22.4508 505 -3.50005 474.5 0.500033 422C1.48682 409.049 4.99993 392.5 24.3596 379.523L22.5356 351.798C22.1777 346.265 22.1518 340.463 22.4508 334.546C22.7346 329.183 22.9633 323.768 23.116 318.432L23.1313 317.714L23.2488 317.012C23.6685 314.333 24.15 312.207 24.7481 310.483C24.9927 309.282 25.174 308.267 25.2675 307.463C25.5918 305.108 26.1638 302.965 26.983 300.995L27.6902 299.297L28.9117 297.903C29.3518 297.421 30.0577 296.462 30.9688 294.755C32.0241 292.802 33.0654 290.828 34.17 288.666C35.4604 286.163 36.9649 283.731 38.6326 281.461C41.0843 278.146 43.9724 275.751 47.2294 274.317C47.8081 274.021 48.4601 273.617 49.1583 273.099C51.1184 271.668 53.0324 270.514 54.8862 269.614L55.5779 269.287L56.307 269.046C59.9958 267.858 64.5559 266.885 70.2313 266.069C71.9602 265.822 73.7078 265.619 75.4629 265.465L39.3773 246.989L45.323 237.443C45.9245 236.48 46.624 235.222 47.3927 233.711C48.2257 232.091 49.1407 230.163 50.1339 227.985C51.2659 225.503 52.4172 223.102 53.586 220.831C54.7125 218.617 55.8808 216.47 57.0527 214.43C59.3015 210.019 60.2251 207.892 60.6013 206.866C61.4855 204.498 62.31 202.588 63.1318 200.974C64.4506 198.392 66.3453 195.974 68.7665 193.767L71.508 191.26C69.9595 187.724 68.5143 184.116 67.1847 180.506C65.5119 175.989 64.6165 171.963 64.4367 168.201C64.3183 165.809 64.2173 163.017 64.0993 159.645C63.981 158.435 63.8779 156.834 63.7579 154.653C63.6193 151.939 63.6971 148.959 63.9784 145.767C64.2575 142.584 64.8039 139.205 65.5911 135.7C66.4539 131.914 67.5868 128.491 68.9679 125.481L69.1484 125.082L69.3611 124.709C69.7243 124.064 70.4287 122.5 71.1527 119.345C72.3495 114.101 74.4286 109.718 77.3621 106.314L77.5361 106.105L77.708 105.906C77.7305 105.892 77.9115 105.694 78.1702 105.207C78.9646 103.751 79.7937 102.351 80.6442 101.023L80.8242 100.748L81.0223 100.478C83.2952 97.3513 86.1137 93.6615 89.6337 89.195C93.9607 83.7076 98.258 80.0586 102.718 78.0818C105.187 76.5297 107.7 74.9111 110.226 73.2379C109.886 73.052 109.545 72.8661 109.216 72.6733C107.462 71.6833 106.127 70.8691 105.042 70.1331C101.674 68.8592 98.9907 67.6121 96.8808 66.3367C95.0545 65.2433 94.0892 64.7757 93.6718 64.5909L83.4101 60.0498L104.602 12.1527Z" fill="#272934"/>
</svg>
