<svg width="1440" height="77" viewBox="0 0 1440 77" fill="none" xmlns="http://www.w3.org/2000/svg">
<g clip-path="url(#clip0_565_1380)">
<rect width="1440" height="77" fill="#F8F3E5"/>
<path d="M0.0828428 62.8868C-0.111739 66.7564 0.0454233 71.4113 0.546845 77.1129H1439.45C1439.96 71.4113 1440.11 66.7564 1439.93 62.8868L1439.89 62.1203L1439.76 61.3726C1439.44 59.3536 1438.92 57.2131 1438.2 54.9512C1437.95 54.1567 1437.76 53.4276 1437.65 52.792C1437.19 49.2775 1435.91 45.8845 1433.83 42.6879C1432.4 40.51 1430.82 38.4443 1429.13 36.5749C1427.67 34.9766 1426.35 33.4717 1425.05 31.9668C1423.9 30.6582 1423.3 29.7329 1423.01 29.1908L1422.18 27.6672L1421.01 26.5549C1419.64 25.2744 1418.1 24.1901 1416.33 23.2928C1415.73 23.003 1414.97 22.5731 1414.1 22.0403C1412.88 21.0308 1411.33 20.04 1409.34 18.9651L1408.82 18.6754L1408.27 18.4884C1404.15 17.0116 1400.01 15.4506 1395.91 13.8429C1391.38 12.0764 1386.88 10.665 1382.52 9.64613L1341.34 -3.16091e-06L1339.69 11.0295C1339.62 11.4781 1339.43 12.525 1338.92 14.5533C1338.31 16.8994 1337.83 19.797 1337.45 23.3676C1337.07 24.592 1336.69 26.0782 1336.24 28.013C1336.15 28.3776 1336.07 28.7608 1335.99 29.1347C1334.22 27.0503 1332.5 24.9846 1330.84 22.9282C1328.48 19.0399 1324.85 15.6937 1319.78 12.74C1315.66 10.3378 1312.27 8.44036 1309.41 6.94484L1309.17 6.81398L1308.92 6.70181C1307.74 6.17838 1306.5 5.69233 1305.21 5.25302C1304.78 5.11282 1304.58 4.96327 1304.58 4.96327L1304.21 4.72024C1301.02 2.64521 1297.22 1.63573 1292.91 1.66377C1290.32 1.68246 1288.98 1.35532 1288.41 1.14968L1288.08 1.02817L1287.74 0.944046C1285.14 0.289755 1282.27 -0.0280442 1279.16 -3.16091e-06C1276.29 0.0373849 1273.55 0.280408 1271.03 0.738412C1268.49 1.19642 1266.16 1.80397 1264.07 2.56108C1262.39 3.17799 1261.16 3.64534 1260.24 4.03791L1260 4.1175C1257.51 4.97016 1255.42 5.68422 1253.64 6.32793C1250.75 7.36545 1247.78 9.16008 1244.56 11.824C1241.99 13.9458 1239.45 16.189 1236.98 18.4978L1234.53 16.404C1232.37 14.5533 1230.13 13.2634 1227.88 12.5717C1226.48 12.1418 1224.83 11.7772 1222.83 11.4594C1221.96 11.3286 1220.13 10.9173 1216.28 9.7396C1214.49 9.06661 1212.6 8.42167 1210.67 7.8328C1208.69 7.2159 1206.6 6.64573 1204.47 6.11295C1202.59 5.6456 1200.92 5.19694 1199.5 4.75763C1198.18 4.35571 1197.08 3.96314 1196.21 3.5986L1187.7 -3.16091e-06L1179.92 39.3884C1179.47 37.7059 1179.01 36.0421 1178.49 34.4064C1176.81 29.0692 1175.23 24.8537 1173.62 21.5355L1173.3 20.8813L1172.92 20.283C1171.88 18.6847 1170.63 17.0864 1169.15 15.5067C1168.63 14.9459 1168.19 14.4038 1167.86 13.9084C1166.13 11.0669 1163.75 8.80489 1160.72 7.17851C1158.64 6.07556 1156.47 5.1689 1154.29 4.48657C1152.4 3.90705 1150.67 3.34623 1148.96 2.76672C1147.45 2.27132 1146.59 1.80397 1146.12 1.48617L1144.81 0.6169L1143.36 0.317796C1141.68 -0.0280442 1139.9 -0.0934734 1138.01 0.130855C1137.37 0.224325 1136.54 0.280408 1135.57 0.317796C1134.11 0.130855 1132.37 0.149549 1130.2 0.355184L1129.64 0.401919L1129.08 0.551471C1124.89 1.62638 1120.63 2.6452 1116.4 3.5986C1111.74 4.66416 1107.23 6.01948 1102.99 7.63652L1081.18 15.9834C1080.32 15.1702 1079.46 14.3664 1078.59 13.5906C1076.31 11.2819 1074.37 9.4218 1072.65 7.89823C1070.85 6.32793 1070.03 5.50539 1069.7 5.15021L1064.82 -3.16091e-06L1063.02 1.32727L1060.21 -3.16091e-06L1042.68 10.9547C1041.6 11.5623 1040.31 12.3194 1038.8 13.226C1037.7 13.871 1036.5 14.6094 1035.18 15.4039C1031.96 17.3574 1028.68 19.2829 1025.43 21.1149C1022.19 22.9469 1019.12 24.6107 1016.31 26.0502C1014.83 26.8166 1013.01 27.7513 1011.82 28.3963C1009.35 29.1347 1006.96 30.4619 1004.71 32.3407C1003.72 33.1632 1002.75 33.8643 1001.83 34.4251C1000.75 34.855 999.685 35.3131 998.645 35.7804C998.847 34.1634 998.982 32.5463 999.056 30.948C999.131 29.2094 999.102 27.1718 998.959 24.5266L998.757 20.6102L996.632 17.7033C995.554 16.2358 994.349 15.3011 993.069 14.6748C991.295 13.8141 989.384 13.5544 987.499 13.2981L987.382 13.2821C985.204 13.0017 982.876 12.712 980.377 12.4035C977.937 12.1044 975.692 11.824 973.641 11.5529C972.489 11.4034 971.718 11.3005 971.186 11.2351C970.273 10.8706 969.301 10.6556 968.268 10.5808C966.157 10.4313 964.758 10.5528 963.433 10.9921L963.313 11.0388C961.24 11.7679 959.669 13.2073 957.656 15.4506L954.722 18.7221L954.4 43.2113C954.288 45.7537 954.183 49.2401 954.093 53.5678C954.041 56.1102 953.959 58.6619 953.869 61.2137C953.248 61.6062 952.626 62.0082 952.005 62.4194C951.504 60.9426 951.055 59.5686 950.681 58.3441C950.015 56.1756 949.251 53.8389 948.368 51.2123L948.166 50.6048L947.896 50.0346C946.594 47.1651 945.128 43.9871 943.533 40.6128C941.752 36.846 939.836 33.2193 937.846 29.817C935.758 26.2558 933.542 22.975 931.222 20.0494C928.266 16.3199 925.4 13.8523 922.459 12.5063L922.317 12.4315C920.521 10.2069 918.492 8.58991 916.27 7.63652C915.012 7.10374 913.785 6.35597 912.617 5.40258C909.826 3.14994 906.735 1.85071 903.412 1.5516C900.621 0.448654 897.515 -0.0747794 894.147 0.00934386C890.712 0.0934671 887.232 0.635594 883.812 1.63573L883.625 1.69181L883.4 1.77593C883.378 1.78528 882.816 1.96287 880.923 2.33675C879.366 2.6639 877.555 2.99104 875.542 3.33688C873.409 3.69207 871.321 4.10334 869.316 4.57069C866.561 5.22498 864.705 5.83254 863.059 7.12243C862.954 7.16916 862.76 7.23459 862.483 7.30002C860.125 7.87019 857.798 8.88902 855.568 10.3098L855.396 10.4219L855.223 10.5434C853.068 12.067 850.95 13.5532 848.877 15.002C847.957 15.6469 847.111 16.3012 846.355 16.9368C845.689 17.507 845.083 18.0771 844.521 18.6567L843.698 19.3577L843.04 19.7035C840.779 20.8999 839.006 21.9562 837.576 22.9656C836.267 23.891 834.822 25.0313 833.273 26.3399L821.725 36.1543C820.625 37.0983 819.585 38.0424 818.612 38.9958L818.792 35.3411L818.896 32.3781L819.645 25.8071L819.63 25.4613C820.161 23.3956 820.378 21.1523 820.266 18.7688L819.944 11.824L801.676 2.12177C800.591 1.54226 799.453 1.04686 798.248 0.6169C796.078 -0.149556 793.631 -0.205638 790.772 0.467348L788.766 0.934699L787.127 2.43022C785.922 3.51448 784.927 4.58939 784.111 5.6456L783.049 6.17838L781.552 8.65534C780.654 10.1415 779.838 11.394 779.15 12.3661C778.281 13.5906 777.301 14.9178 776.238 16.3199L776.126 16.4601L776.021 16.6097C775.146 17.8248 774.277 19.0679 773.417 20.283C772.735 21.2419 772.059 22.2008 771.379 23.1662L771.112 23.5452C769.226 25.7137 767.475 27.9009 765.918 30.0413C765.147 31.0975 764.309 32.1725 763.426 33.2567C763.673 31.5275 763.83 29.7609 763.867 27.9476L764.197 24.7322C764.459 22.2179 764.571 20.012 764.309 17.9276C764.099 15.7217 763.411 13.5906 762.273 11.7399C760.223 8.42167 757.738 6.51487 754.887 6.05687L723.948 1.05621C720.768 0.542124 717.759 0.196284 715.013 0.0373849H714.93C712.019 -0.10282 708.868 0.205631 705.553 0.96274C702.754 1.59834 700.494 2.16851 698.638 2.71063C692.755 4.2342 688.617 5.49605 685.99 6.56161C683.064 7.76737 680.16 9.44984 677.339 11.581C676.972 11.852 676.583 12.095 676.208 12.3568L664.144 -3.16091e-06L659.07 2.86953C657.327 3.84162 655.845 5.12217 654.617 6.67377L654.363 6.80463L650.052 10.6836L647.994 12.1698L639.253 18.7595L633.67 22.9843C633.131 22.5544 632.57 22.1431 631.986 21.7692C630.744 20.9747 629.614 20.0307 628.611 18.9371C626.83 17.0116 624.697 15.6282 622.257 14.8057L622.13 14.6842C619.727 12.1885 616.577 10.3285 612.513 9.00118C609.325 7.96366 605.942 7.20655 602.425 6.7392C599.072 6.29054 595.599 6.03818 592.097 6.00079C588.961 5.97275 586.02 5.97275 583.378 6.00079H582.854L582.33 6.08491C580.07 6.4401 578.065 6.79528 576.231 7.15982C574.622 7.48696 572.721 7.80476 570.558 8.09452L570.379 8.11321C568.328 8.44036 566.263 9.2442 564.062 10.5902C562.955 11.2725 562.199 11.6277 561.765 11.7959L561.593 11.8707C556.533 14.0018 551.534 17.6939 546.745 22.8161L542.292 27.1438L541.446 28.901C540.638 29.7703 539.837 30.7704 539.044 31.8733C537.36 33.8082 535.938 36.0702 534.815 38.5939C534.606 39.0706 534.366 39.4257 534.067 39.7622L531.253 42.8094L530.983 47.4361C530.849 49.7355 530.452 50.8291 530.235 51.2778C529.045 53.6613 528.267 56.2691 527.937 59.0358L525.79 55.9419C524.48 54.0538 522.998 52.0442 521.262 49.7916C518.785 45.9406 516.741 43.0898 515.013 41.0895C514.242 40.2015 512.835 38.3695 510.425 34.6027C508.831 31.9294 506.369 29.2094 502.679 26.0315C500.107 23.8127 499.277 22.7093 499.138 22.5248L499.132 22.517L498.413 21.2458L497.381 20.255C495.113 18.0491 494.02 17.0864 493.302 16.5162C493.258 16.4693 493.204 16.3896 493.135 16.2883L493.092 16.2264L492.621 15.5441L492.067 14.9646C489.725 12.4876 487.562 10.4032 485.646 8.74881C484.239 7.5337 482.877 6.20642 481.575 4.78567L477.174 -3.16091e-06L474.817 1.37401C473.926 0.813188 473.028 0.420613 472.04 0.205631L471.92 0.17759C470.566 -0.10282 469.166 -0.0467383 467.071 0.355184C466.053 0.551471 465.103 0.878617 464.219 1.35532C463.696 1.48617 462.932 1.67311 461.802 1.96287C459.782 2.48631 457.574 3.03778 455.164 3.63599C452.702 4.24355 450.404 4.81371 448.264 5.35584L448.257 5.3577C445.018 6.189 441.699 7.04117 439.395 10.8799L437.509 14.0205L437.607 17.9463C437.674 20.6008 437.801 22.6291 438.018 24.349C438.213 25.9754 438.49 27.6205 438.819 29.2468C438.842 29.3403 438.857 29.4431 438.879 29.5366C438.033 29.2094 437.188 28.9103 436.357 28.6299C434.823 28.1065 433.214 27.6205 431.59 27.1905C430.632 26.7418 429.614 26.1623 428.566 25.4613C426.179 23.863 423.702 22.8348 421.18 22.3955C419.937 21.9001 418.066 21.1897 416.525 20.6102C413.621 19.5166 410.433 18.2267 407.065 16.7966C403.69 15.3665 400.277 13.8523 396.917 12.3007C393.669 10.7865 391.034 9.59939 389.111 8.77685L370.805 -3.16091e-06L367.28 2.17785C364.856 3.67338 363.194 4.95392 361.885 7.08504L361.81 7.20655C360.987 8.57122 360.373 10.1509 359.692 12.6559C359.52 13.2821 359.385 13.9177 359.288 14.544C358.958 14.9365 358.622 15.3478 358.27 15.7684L337.016 7.63652C332.772 6.01948 328.259 4.66416 323.597 3.5986C319.369 2.6452 315.11 1.62638 310.927 0.551471L310.365 0.401919L309.797 0.355184C307.634 0.149549 305.89 0.130855 304.438 0.317796C303.458 0.280408 302.635 0.224325 301.991 0.130855C300.098 -0.0934734 298.324 -0.0280442 296.64 0.317796L295.188 0.6169L293.878 1.48617C293.422 1.80397 292.546 2.27132 291.049 2.76672C289.336 3.34623 287.607 3.90705 285.721 4.48657C283.536 5.1689 281.365 6.07556 279.292 7.17851C276.261 8.80489 273.866 11.0669 272.153 13.9084C271.816 14.4038 271.382 14.9459 270.85 15.5067C269.376 17.0864 268.126 18.6847 267.086 20.283L266.704 20.8813L266.383 21.5355C264.781 24.8537 263.187 29.0692 261.51 34.4064C261.002 36.0328 260.523 37.6872 260.081 39.3603L252.313 -3.16091e-06L243.789 3.5986C242.928 3.96314 241.82 4.35571 240.503 4.75763C239.089 5.19694 237.42 5.6456 235.541 6.11295C233.401 6.64573 231.32 7.2159 229.337 7.8328C227.406 8.42167 225.52 9.06661 223.717 9.7396C219.87 10.9173 218.044 11.3286 217.176 11.4594C215.17 11.7772 213.531 12.1418 212.124 12.5717C209.872 13.2634 207.641 14.5533 205.479 16.404L203.024 18.4978C200.554 16.1797 198.01 13.9458 195.443 11.824C192.232 9.16008 189.261 7.36545 186.365 6.32793C184.524 5.66429 182.368 4.92588 179.764 4.03791C178.843 3.64534 177.616 3.17799 175.94 2.56108C173.852 1.80397 171.517 1.19642 168.98 0.738412C166.45 0.280408 163.718 0.0373849 160.845 -3.16091e-06C157.739 -0.0280442 154.865 0.289755 152.268 0.944046L151.924 1.02817L151.594 1.14968C151.026 1.35532 149.679 1.68246 147.089 1.66377C142.786 1.62638 138.992 2.64521 135.803 4.72024L135.609 4.84176L135.422 4.96327C135.407 4.98196 135.22 5.11282 134.793 5.25302C133.513 5.69233 132.271 6.17838 131.081 6.70181L130.834 6.81398L130.587 6.94484C127.736 8.44036 124.346 10.3378 120.222 12.74C115.155 15.6937 111.526 19.0399 109.168 22.9282C107.507 24.9752 105.785 27.0503 104.019 29.1253C103.937 28.7514 103.855 28.3776 103.765 28.013C103.316 26.0782 102.927 24.592 102.552 23.3676C102.178 19.797 101.699 16.8994 101.093 14.5533C100.577 12.525 100.39 11.4781 100.322 11.0295L98.6683 -3.16091e-06L57.4844 9.64613C53.1287 10.665 48.6234 12.0764 44.1032 13.8429C40.002 15.4506 35.8484 17.0116 31.7397 18.4884L31.1859 18.6754L30.6695 18.9651C28.6713 20.04 27.1222 21.0308 25.9023 22.0403C25.0267 22.5731 24.2783 23.003 23.6721 23.2928C21.9134 24.1901 20.3642 25.2744 19.0021 26.5549L17.8272 27.6672L16.989 29.1908C16.6971 29.7329 16.0984 30.6582 14.9534 31.9668C13.6586 33.4717 12.3265 34.9766 10.8746 36.5749C9.19075 38.4443 7.61165 40.51 6.17474 42.6879C4.1017 45.8845 2.82195 49.2775 2.35795 52.792C2.24569 53.4276 2.05859 54.1567 1.79666 54.9512C1.0782 57.2131 0.561813 59.3536 0.240005 61.3726L0.120262 62.1203L0.0828428 62.8868Z" fill="#272934"/>
</g>
<defs>
<clipPath id="clip0_565_1380">
<rect width="1440" height="77" fill="white"/>
</clipPath>
</defs>
</svg>
