<svg width="1800" height="77" viewBox="0 0 1800 77" fill="none" xmlns="http://www.w3.org/2000/svg">
<g clip-path="url(#clip0_442_5339)">
<rect width="1800" height="77" fill="#272934"/>
<path d="M0.103065 62.8868C-0.140162 66.7564 0.0562908 71.4113 0.683068 77.1129H1799.32C1799.94 71.4113 1800.14 66.7564 1799.91 62.8868L1799.86 62.1203L1799.7 61.3726C1799.3 59.3536 1798.65 57.2131 1797.76 54.9512C1797.44 54.1567 1797.19 53.4276 1797.06 52.792C1796.48 49.2775 1794.88 45.8845 1792.28 42.6879C1790.5 40.51 1788.52 38.4443 1786.42 36.5749C1784.59 34.9766 1782.94 33.4717 1781.31 31.9668C1779.88 30.6582 1779.13 29.7329 1778.76 29.1908L1777.73 27.6672L1776.26 26.5549C1774.55 25.2744 1772.62 24.1901 1770.41 23.2928C1769.66 23.003 1768.72 22.5731 1767.62 22.0403C1766.1 21.0308 1764.16 20.04 1761.67 18.9651L1761.02 18.6754L1760.34 18.4884C1755.19 17.0116 1750.01 15.4506 1744.88 13.8429C1739.22 12.0764 1733.6 10.665 1728.15 9.64613L1676.67 -3.16091e-06L1674.61 11.0295C1674.52 11.4781 1674.29 12.525 1673.64 14.5533C1672.89 16.8994 1672.29 19.797 1671.81 23.3676C1671.34 24.592 1670.86 26.0782 1670.29 28.013C1670.23 28.256 1670.16 28.5074 1670.09 28.7587L1669.99 29.1347C1667.78 27.0503 1665.63 24.9846 1663.55 22.9282C1660.59 19.0399 1656.07 15.6937 1649.72 12.74C1644.58 10.3378 1640.33 8.44036 1636.77 6.94484L1636.46 6.81398L1636.15 6.70181C1634.67 6.17838 1633.12 5.69233 1631.51 5.25302C1630.98 5.11282 1630.72 4.96327 1630.72 4.96327L1630.26 4.72024C1626.27 2.64521 1621.52 1.63573 1616.14 1.66377C1612.9 1.68246 1611.22 1.35532 1610.52 1.14968L1610.1 1.02817L1609.68 0.944046C1606.42 0.289755 1602.84 -0.0280442 1598.95 -3.16091e-06C1595.36 0.0373849 1591.94 0.280408 1588.79 0.738412C1585.61 1.19642 1582.7 1.80397 1580.09 2.56108C1577.99 3.17799 1576.45 3.64534 1575.3 4.03791L1574.99 4.12246C1571.88 4.97293 1569.27 5.68547 1567.05 6.32793C1563.43 7.36545 1559.72 9.16008 1555.7 11.824C1552.49 13.9458 1549.32 16.189 1546.22 18.4978L1543.16 16.404C1540.46 14.5533 1537.66 13.2634 1534.85 12.5717C1533.1 12.1418 1531.04 11.7772 1528.53 11.4594C1527.46 11.3286 1525.16 10.9173 1520.35 9.7396C1518.11 9.06661 1515.75 8.42167 1513.34 7.8328C1510.86 7.2159 1508.25 6.64573 1505.58 6.11295C1503.24 5.6456 1501.15 5.19694 1499.37 4.75763C1497.73 4.35571 1496.35 3.96314 1495.27 3.5986L1484.62 -3.16091e-06L1474.9 39.3884C1474.34 37.7059 1473.76 36.0421 1473.11 34.4064C1471.02 29.0692 1469.03 24.8537 1467.02 21.5355L1466.63 20.8813L1466.14 20.283C1464.85 18.6847 1463.29 17.0864 1461.44 15.5067C1460.78 14.9459 1460.23 14.4038 1459.82 13.9084C1457.67 11.0669 1454.68 8.80489 1450.89 7.17851C1448.29 6.07556 1445.59 5.1689 1442.86 4.48657C1440.5 3.90705 1438.33 3.34623 1436.2 2.76672C1434.32 2.27132 1433.23 1.80397 1432.65 1.48617L1431.02 0.6169L1429.2 0.317796C1427.11 -0.0280442 1424.88 -0.0934734 1422.51 0.130855C1421.71 0.224325 1420.68 0.280408 1419.46 0.317796C1417.64 0.130855 1415.47 0.149549 1412.76 0.355184L1412.05 0.401919L1411.35 0.551471C1406.11 1.62638 1400.79 2.6452 1395.5 3.5986C1389.68 4.66416 1384.04 6.01948 1378.73 7.63652L1351.47 15.9834C1350.4 15.1702 1349.33 14.3664 1348.23 13.5906C1345.39 11.2819 1342.96 9.4218 1340.81 7.89823C1338.56 6.32793 1337.53 5.50539 1337.12 5.15021L1331.02 -3.16091e-06L1328.78 1.32727L1325.27 -3.16091e-06L1303.35 10.9547C1302 11.5623 1300.38 12.3194 1298.49 13.226C1297.13 13.871 1295.62 14.6094 1293.98 15.4039C1289.95 17.3574 1285.85 19.2829 1281.79 21.1149C1277.74 22.9469 1273.9 24.6107 1270.39 26.0502C1268.53 26.8166 1266.27 27.7513 1264.77 28.3963C1261.68 29.1347 1258.7 30.4619 1255.88 32.3407C1254.65 33.1632 1253.43 33.8643 1252.28 34.4251C1250.93 34.855 1249.61 35.3131 1248.31 35.7804C1248.56 34.1634 1248.73 32.5463 1248.82 30.948C1248.91 29.2094 1248.88 27.1718 1248.7 24.5266L1248.45 20.6102L1245.79 17.7033C1244.44 16.2358 1242.94 15.3011 1241.34 14.6748C1239.12 13.8141 1236.73 13.5544 1234.37 13.2981L1234.23 13.2821C1231.5 13.0017 1228.59 12.712 1225.47 12.4035C1222.42 12.1044 1219.61 11.824 1217.05 11.5529C1215.61 11.4034 1214.65 11.3005 1213.98 11.2351C1212.84 10.8706 1211.63 10.6556 1210.33 10.5808C1207.7 10.4313 1205.95 10.5528 1204.29 10.9921L1204.14 11.0388C1201.55 11.7679 1199.59 13.2073 1197.07 15.4506L1193.4 18.7221L1193 43.2113C1192.86 45.7537 1192.73 49.2401 1192.62 53.5678C1192.55 56.1102 1192.45 58.6619 1192.34 61.2137C1191.56 61.6062 1190.78 62.0082 1190.01 62.4194C1189.38 60.9426 1188.82 59.5686 1188.35 58.3441C1187.52 56.1756 1186.56 53.8389 1185.46 51.2123L1185.21 50.6048L1184.87 50.0346C1183.24 47.1651 1181.41 43.9871 1179.42 40.6128C1177.19 36.846 1174.8 33.2193 1172.31 29.817C1169.7 26.2558 1166.93 22.975 1164.03 20.0494C1160.33 16.3199 1156.75 13.8523 1153.07 12.5063L1152.9 12.4315C1150.65 10.2069 1148.11 8.58991 1145.34 7.63652C1143.76 7.10374 1142.23 6.35597 1140.77 5.40258C1137.28 3.14994 1133.42 1.85071 1129.26 1.5516C1125.78 0.448654 1121.89 -0.0747794 1117.68 0.00934386C1113.39 0.0934671 1109.04 0.635594 1104.76 1.63573L1104.53 1.69181L1104.25 1.77593C1104.22 1.78528 1103.52 1.96287 1101.15 2.33675C1099.21 2.6639 1096.94 2.99104 1094.43 3.33688C1091.76 3.69207 1089.15 4.10334 1086.64 4.57069C1083.2 5.22498 1080.88 5.83254 1078.82 7.12243C1078.69 7.16916 1078.45 7.23459 1078.1 7.30002C1075.16 7.87019 1072.25 8.88902 1069.46 10.3098L1069.24 10.4219L1069.03 10.5434C1066.33 12.067 1063.69 13.5532 1061.1 15.002C1059.95 15.6469 1058.89 16.3012 1057.94 16.9368C1057.11 17.507 1056.35 18.0771 1055.65 18.6567L1054.62 19.3577L1053.8 19.7035C1050.97 20.8999 1048.76 21.9562 1046.97 22.9656C1045.33 23.891 1043.53 25.0313 1041.59 26.3399L1027.16 36.1543C1025.78 37.0983 1024.48 38.0424 1023.26 38.9958L1023.49 35.3411L1023.62 32.3781L1024.56 25.8071L1024.54 25.4613C1025.2 23.3956 1025.47 21.1523 1025.33 18.7688L1024.93 11.824L1002.09 2.12177C1000.74 1.54226 999.316 1.04686 997.81 0.6169C995.097 -0.149556 992.038 -0.205638 988.465 0.467348L985.957 0.934699L983.909 2.43022C982.403 3.51448 981.158 4.58939 980.139 5.6456L978.81 6.17838L976.939 8.65534C975.817 10.1415 974.797 11.394 973.936 12.3661C972.851 13.5906 971.626 14.9178 970.297 16.3199L970.157 16.4601L970.026 16.6097C968.932 17.8248 967.846 19.0679 966.771 20.283C965.918 21.2428 965.072 22.2026 964.221 23.1689L963.889 23.5452C961.532 25.7137 959.343 27.9009 957.397 30.0413C956.433 31.0975 955.386 32.1725 954.282 33.2567C954.591 31.5275 954.787 29.7609 954.834 27.9476L955.245 24.7322C955.573 22.2179 955.713 20.012 955.386 17.9276C955.124 15.7217 954.263 13.5906 952.841 11.7399C950.278 8.42167 947.172 6.51487 943.608 6.05687L904.935 1.05621C900.959 0.542124 897.198 0.196284 893.765 0.0373849H893.662C890.023 -0.10282 886.085 0.205631 881.941 0.96274C878.442 1.59834 875.617 2.16851 873.297 2.71063C865.944 4.2342 860.771 5.49605 857.487 6.56161C853.829 7.76737 850.2 9.44984 846.673 11.581C846.214 11.852 845.728 12.095 845.26 12.3568L830.18 -3.16091e-06L823.837 2.86953C821.658 3.84162 819.805 5.12217 818.271 6.67377L817.953 6.80463L812.565 10.6836L809.992 12.1698L799.066 18.7595L792.087 22.9843C791.414 22.5544 790.712 22.1431 789.982 21.7692C788.429 20.9747 787.017 20.0307 785.763 18.9371C783.537 17.0116 780.871 15.6282 777.821 14.8057L777.662 14.6842C774.659 12.1885 770.72 10.3285 765.641 9.00118C761.656 7.96366 757.427 7.20655 753.03 6.7392C748.839 6.29054 744.499 6.03818 740.121 6.00079C736.201 5.97275 732.524 5.97275 729.222 6.00079H728.567L727.913 6.08491C725.087 6.4401 722.58 6.79528 720.288 7.15982C718.277 7.48696 715.901 7.80476 713.197 8.09452L712.973 8.11321C710.41 8.44036 707.828 9.2442 705.077 10.5902C703.693 11.2725 702.748 11.6277 702.205 11.7959L701.99 11.8707C695.666 14.0018 689.417 17.6939 683.43 22.8161L677.864 27.1438L676.807 28.901C675.797 29.7703 674.796 30.7704 673.804 31.8733C671.699 33.8082 669.922 36.0702 668.518 38.5939C668.256 39.0706 667.957 39.4257 667.583 39.7622L664.065 42.8094L663.729 47.4361C663.56 49.7355 663.065 50.8291 662.793 51.2778C661.306 53.6613 660.333 56.2691 659.921 59.0358L657.236 55.9419C655.599 54.0538 653.747 52.0442 651.577 49.7916C648.48 45.9406 645.926 43.0898 643.765 41.0895C642.802 40.2015 641.043 38.3695 638.031 34.6027C636.038 31.9294 632.961 29.2094 628.349 26.0315C625.132 23.8123 624.095 22.7089 623.922 22.5247L623.914 22.517L623.016 21.2458L621.725 20.255C618.891 18.0491 617.525 17.0864 616.627 16.5162C616.572 16.4692 616.504 16.3895 616.418 16.2881L616.365 16.2264L615.776 15.5441L615.083 14.9646C612.155 12.4876 609.452 10.4032 607.057 8.74881C605.298 7.5337 603.596 6.20642 601.968 4.78567L596.467 -3.16091e-06L593.52 1.37401C592.407 0.813188 591.285 0.420613 590.05 0.205631L589.9 0.17759C588.207 -0.10282 586.457 -0.0467383 583.838 0.355184C582.566 0.551471 581.378 0.878617 580.274 1.35532C579.619 1.48617 578.665 1.67311 577.252 1.96287C574.726 2.48631 571.967 3.03778 568.954 3.63599C565.877 4.24355 563.005 4.81371 560.329 5.35584L560.32 5.3577C556.272 6.189 552.123 7.04117 549.244 10.8799L546.886 14.0205L547.008 17.9463C547.092 20.6008 547.251 22.6291 547.522 24.349C547.766 25.9754 548.112 27.6205 548.523 29.2468C548.551 29.3403 548.57 29.4431 548.598 29.5366C547.541 29.2094 546.484 28.9103 545.446 28.6299C543.528 28.1065 541.517 27.6205 539.487 27.1905C538.289 26.7418 537.017 26.1623 535.707 25.4613C532.723 23.863 529.627 22.8348 526.474 22.3955C524.921 21.9001 522.582 21.1897 520.655 20.6102C517.026 19.5166 513.04 18.2267 508.831 16.7966C504.612 15.3665 500.346 13.8523 496.145 12.3007C492.085 10.7865 488.793 9.59939 486.388 8.77685L463.506 -3.16091e-06L459.1 2.17785C456.069 3.67338 453.992 4.95392 452.355 7.08504L452.262 7.20655C451.233 8.57122 450.466 10.1509 449.614 12.6559C449.399 13.2821 449.231 13.9177 449.109 14.544C448.697 14.9365 448.277 15.3478 447.837 15.7684L421.269 7.63652C415.965 6.01948 410.324 4.66416 404.496 3.5986C399.21 2.6452 393.887 1.62638 388.658 0.551471L387.956 0.401919L387.245 0.355184C384.542 0.149549 382.362 0.130855 380.547 0.317796C379.322 0.280408 378.293 0.224325 377.488 0.130855C375.121 -0.0934734 372.904 -0.0280442 370.799 0.317796L368.985 0.6169L367.347 1.48617C366.777 1.80397 365.682 2.27132 363.811 2.76672C361.669 3.34623 359.508 3.90705 357.151 4.48657C354.419 5.1689 351.706 6.07556 349.115 7.17851C345.326 8.80489 342.333 11.0669 340.19 13.9084C339.769 14.4038 339.227 14.9459 338.563 15.5067C336.72 17.0864 335.157 18.6847 333.857 20.283L333.38 20.8813L332.978 21.5355C330.976 24.8537 328.983 29.0692 326.888 34.4064C326.251 36.0328 325.653 37.6872 325.101 39.3603L315.391 -3.16091e-06L304.735 3.5986C303.659 3.96314 302.275 4.35571 300.628 4.75763C298.86 5.19694 296.774 5.6456 294.426 6.11295C291.751 6.64573 289.15 7.2159 286.671 7.8328C284.257 8.42167 281.9 9.06661 279.646 9.7396C274.837 10.9173 272.555 11.3286 271.469 11.4594C268.962 11.7772 266.914 12.1418 265.155 12.5717C262.339 13.2634 259.551 14.5533 256.848 16.404L253.779 18.4978C250.692 16.1797 247.512 13.9458 244.303 11.824C240.29 9.16008 236.576 7.36545 232.955 6.32793C230.654 5.66429 227.96 4.92588 224.704 4.03791C223.554 3.64534 222.019 3.17799 219.924 2.56108C217.314 1.80397 214.395 1.19642 211.224 0.738412C208.062 0.280408 204.647 0.0373849 201.055 -3.16091e-06C197.173 -0.0280442 193.581 0.289755 190.335 0.944046L189.904 1.02817L189.493 1.14968C188.782 1.35532 187.098 1.68246 183.861 1.66377C178.482 1.62638 173.739 2.64521 169.754 4.72024L169.511 4.84176L169.277 4.96327C169.258 4.98196 169.024 5.11282 168.491 5.25302C166.891 5.69233 165.338 6.17838 163.851 6.70181L163.542 6.81398L163.233 6.94484C159.669 8.44036 155.431 10.3378 150.277 12.74C143.944 15.6937 139.407 19.0399 136.46 22.9282C134.383 24.9752 132.231 27.0503 130.024 29.1253C129.921 28.7514 129.818 28.3776 129.706 28.013C129.144 26.0782 128.658 24.592 128.19 23.3676C127.722 19.797 127.124 16.8994 126.366 14.5533C125.72 12.525 125.486 11.4781 125.402 11.0295L123.335 -3.16091e-06L71.855 9.64613C66.4104 10.665 60.7788 12.0764 55.1285 13.8429C50.002 15.4506 44.81 17.0116 39.6742 18.4884L38.9819 18.6754L38.3364 18.9651C35.8387 20.04 33.9022 21.0308 32.3774 22.0403C31.2829 22.5731 30.3474 23.003 29.5896 23.2928C27.3912 24.1901 25.4548 25.2744 23.7522 26.5549L22.2835 27.6672L21.2357 29.1908C20.8709 29.7329 20.1225 30.6582 18.6912 31.9668C17.0728 33.4717 15.4076 34.9766 13.5928 36.5749C11.488 38.4443 9.51407 40.51 7.71794 42.6879C5.12663 45.8845 3.52695 49.2775 2.94695 52.792C2.80662 53.4276 2.57275 54.1567 2.24533 54.9512C1.34726 57.2131 0.701777 59.3536 0.299518 61.3726L0.14984 62.1203L0.103065 62.8868Z" fill="#EDE6C0"/>
</g>
<defs>
<clipPath id="clip0_442_5339">
<rect width="1800" height="77" fill="white"/>
</clipPath>
</defs>
</svg>
