<svg width="1244" height="243" viewBox="0 0 1244 243" fill="none" xmlns="http://www.w3.org/2000/svg">
<g clip-path="url(#clip0_442_5343)">
<rect width="1244" height="243" fill="#272934"/>
<path d="M1238.87 148C1238.63 147.176 1238.36 146.571 1238.07 145.791L1237.52 143.477C1237.16 141.961 1236.7 140.312 1236.14 138.557C1235.58 136.829 1234.96 135.118 1234.28 133.434C1233.44 131.386 1232.38 129.631 1231.09 128.186C1230.24 126.342 1229.47 124.729 1228.72 123.284C1227.19 120.314 1224.93 117.593 1222.05 115.19L1221.89 115.066C1221.48 114.729 1221.17 114.481 1220.95 114.277C1219.46 111.574 1216.99 109.641 1214.4 107.983C1213.12 106.973 1211.6 106.051 1209.67 105.129C1208.1 104.402 1206.48 103.675 1204.85 102.957C1203.02 102.168 1201.21 101.459 1199.43 100.839C1198.07 100.369 1197.01 99.9965 1196.26 99.7129L1195.49 99.4203L1194.69 99.2696C1191.64 98.6491 1189.15 98.0463 1187.27 97.4613C1186.71 97.284 1186.14 97.1421 1185.58 97.0092C1186.96 94.7132 1188.23 92.1868 1189.42 89.4743C1191.81 85.2814 1193.21 80.2197 1193.58 74.3868C1193.91 69.2454 1193.69 63.9001 1192.97 58.4927C1192.25 53.1562 1191.08 47.9173 1189.47 42.9177C1187.85 37.8649 1186.27 33.867 1184.62 30.6935L1184.3 30.0641L1183.88 29.4879C1182.79 27.9366 1181.44 26.3764 1179.83 24.8074C1179.25 24.2489 1178.78 23.7259 1178.43 23.2384C1176.63 20.4904 1174 18.2299 1170.61 16.5102C1168.28 15.34 1165.84 14.3384 1163.37 13.5494C1161.23 12.8757 1159.26 12.2375 1157.33 11.5815C1155.63 11.0053 1154.65 10.5089 1154.15 10.1897L1152.69 9.29442L1151.03 8.90438C1149.12 8.46116 1147.08 8.275 1144.88 8.34592C1144.14 8.38138 1143.19 8.37251 1142.06 8.32819C1140.4 8.05339 1138.39 7.94701 1135.88 7.97361H1135.23L1134.58 8.07112C1129.69 8.75369 1124.73 9.38307 1119.8 9.9504C1114.37 10.5798 1109.09 11.5017 1104.11 12.6807L1057.09 23.8589L1059.48 33.9379C1059.58 34.3456 1059.78 35.3207 1060 37.2798C1060.25 39.5403 1060.82 42.2085 1061.77 45.3997C1061.83 46.6142 1061.98 48.0502 1062.23 49.8852C1062.59 52.6066 1063.14 55.4787 1063.9 58.6611C1064.88 62.8009 1066.03 67.3838 1067.32 72.2593C1068.49 76.7271 1069.26 80.6629 1069.62 83.9694L1069.7 84.6077L1069.84 85.2282C1070.23 86.8681 1070.57 88.5435 1070.86 90.1923C1071.05 91.2827 1071.2 92.3287 1071.32 93.3215C1070.09 91.9741 1068.85 90.7419 1067.59 89.6427C1063.78 84.1378 1059.31 79.0496 1054.31 74.5109C1049.92 70.5307 1045.68 66.5417 1041.71 62.6236C1038.92 58.9359 1034.62 55.7624 1028.61 52.9612C1023.73 50.683 1019.71 48.8835 1016.34 47.4652L1016.04 47.3411L1015.75 47.2347C1014.34 46.7383 1012.87 46.2773 1011.35 45.8607C1010.85 45.7277 1010.63 45.6036 1010.61 45.5948L1010.39 45.4707L1010.16 45.3554C1006.38 43.3875 1001.89 42.4301 996.788 42.4567C993.721 42.4744 992.125 42.1642 991.451 41.9692L991.061 41.8539L990.653 41.7741C987.577 41.1536 984.173 40.8522 980.494 40.8877C977.09 40.9143 973.854 41.1448 970.857 41.5791C967.852 42.0135 965.086 42.5897 962.613 43.3077C960.627 43.8928 959.173 44.336 958.083 44.7083C954.998 45.5504 952.444 46.2507 950.263 46.8801C946.833 47.8641 943.313 49.5661 939.51 52.0925C936.106 54.3441 932.746 56.7286 929.492 59.2018C926.221 61.6839 923.251 64.1394 920.636 66.5062C917.888 69.0149 914.865 72.215 911.407 76.2927C907.604 80.7693 904.998 84.7938 903.438 88.5701L899.368 96.9648L899.262 97.2308C898.641 98.6846 897.905 100.325 897.046 102.115C895.76 104.828 894.847 107.487 894.324 110.04L894.271 110.288L891.833 126.351C890.831 133.372 891.071 140.614 892.551 147.865C892.578 147.98 892.595 148.087 892.622 148.202C893.535 152.687 894.696 157.527 896.079 162.633C896.602 164.548 897.152 166.507 897.737 168.493C897.923 169.167 898.198 169.982 898.73 171.276C898.198 171.179 897.64 171.09 897.072 171.002C896.913 170.975 895.406 170.736 890.822 169.495C888.562 168.768 886.212 168.067 883.81 167.411C881.257 166.711 878.579 166.046 875.822 165.435C873.739 164.965 871.913 164.522 870.388 164.105C868.81 163.671 867.879 163.36 867.374 163.183L865.876 162.633L845.246 155.09L845.149 155.072L845.388 154.123V153.042C845.406 152.882 845.477 152.359 845.743 151.269L846.496 148.202L848.544 139.931C849.156 137.449 849.493 135.366 849.581 133.487C849.608 132.973 849.679 132.751 849.679 132.751L850.211 131.962L850.592 131.076C851.479 129.01 852.126 126.493 852.649 123.106C852.968 120.97 853.349 119.029 853.766 117.327L858.872 96.6191C859.156 95.4756 859.546 94.2346 860.06 92.9137C860.778 91.0256 861.603 88.6854 862.516 85.9373C863.446 83.1361 864.537 79.6878 865.769 75.6633C867.046 71.4438 868.473 66.1605 870.007 59.9553L876.895 31.9965L871.292 28.1582C868.73 26.4119 866.079 25.1886 863.42 24.5326C861.753 24.1248 859.803 23.7791 857.436 23.4777C856.408 23.3447 854.236 22.9636 849.688 21.8466C847.551 21.2084 845.317 20.5967 843.03 20.0294C840.681 19.4532 838.207 18.9036 835.681 18.4072C833.455 17.964 831.479 17.5296 829.803 17.1218C828.243 16.7318 826.931 16.3595 825.911 16.0226L815.814 12.6098L797.294 87.7191C796.736 89.9973 796.239 92.5326 795.832 95.2274C795.61 96.6812 795.397 97.5499 795.273 98.0108C793.624 100.856 792.72 104.11 792.56 107.673C792.56 107.806 792.498 108.569 792.073 110.315L789.28 121.661C788.802 123.567 788.518 125.172 788.403 126.59C787.436 130.464 786.337 134.444 785.149 138.451C784.183 141.678 783.376 144.94 782.738 148.202C782.445 149.673 782.197 151.145 781.975 152.616L779.209 162.465C779.245 162.518 779.289 162.58 779.325 162.633H779.156L779.209 162.465C778.864 161.969 778.5 161.499 778.11 161.056C777.268 159.159 776.488 157.501 775.734 156.003C774.298 153.175 772.241 150.551 769.617 148.202C769.404 148.007 769.183 147.812 768.961 147.626L768.802 147.502C768.376 147.156 768.066 146.89 767.844 146.686C766.337 143.885 763.828 141.882 761.177 140.153C759.874 139.107 758.314 138.141 756.346 137.183C754.741 136.421 753.084 135.65 751.426 134.896C749.555 134.072 747.702 133.327 745.885 132.671C744.484 132.166 743.403 131.776 742.632 131.483L741.851 131.182L741.027 131.014C737.897 130.34 735.353 129.702 733.429 129.09C732.853 128.904 732.268 128.744 731.701 128.602C733.128 126.253 734.467 123.674 735.708 120.899C738.208 116.626 739.697 111.441 740.131 105.448C740.513 100.183 740.353 94.6866 739.662 89.1286C738.979 83.6503 737.827 78.2606 736.222 73.1015C734.617 67.9068 733.03 63.7848 731.364 60.5049L731.036 59.8578L730.619 59.2639C729.511 57.6594 728.137 56.0372 726.506 54.415C725.921 53.8388 725.442 53.2892 725.078 52.7928C723.252 49.9561 720.584 47.607 717.117 45.8075C714.742 44.5842 712.25 43.5293 709.715 42.6961C707.525 41.9869 705.513 41.3043 703.536 40.6129C701.798 40.0101 700.797 39.4871 700.274 39.1502L698.793 38.2195L697.1 37.8028C695.132 37.333 693.04 37.1203 690.788 37.1646C690.017 37.2 689.041 37.1823 687.889 37.1291C686.178 36.8277 684.121 36.6948 681.55 36.6948H680.876L680.212 36.7834C675.185 37.4394 670.079 38.0333 665.017 38.5652C659.44 39.168 654.015 40.0544 648.891 41.2245L617.34 48.4048C619.051 45.3643 620.008 42.8733 619.946 40.1519L619.91 38.1751L619.104 36.3579C617.18 31.9965 614.574 28.6457 611.347 26.3764C609.52 25.0999 607.623 23.8589 605.682 22.6888C603.031 20.8538 600.779 19.3911 598.794 18.1944C596.71 16.9623 595.753 16.3063 595.372 16.0315L589.671 11.9095L583.918 15.9428C582.872 16.6786 581.701 17.636 580.345 18.8859C578.696 20.4194 577.455 21.8555 576.56 23.265L572.632 29.4258L553.182 59.4057C551.32 62.074 549.503 64.9018 547.765 67.8182C546.232 70.38 544.627 72.8621 543.005 75.1935L542.828 75.4417L542.668 75.7076C541.267 78.0124 539.831 80.2197 538.404 82.2408C536.817 84.4924 535.416 86.8947 534.211 89.4211C532.109 91.6816 530.301 94.1105 528.829 96.6368C527.668 98.6225 526.453 100.608 525.23 102.532L525.044 102.815L524.884 103.108C523.289 106.042 521.977 107.611 521.152 108.427C520.177 109.384 519.193 110.501 518.182 111.795C518.28 109.225 518.351 106.202 518.395 102.674V102.346C518.262 96.0961 518.191 89.7846 518.182 83.5616C518.156 77.516 518.519 71.4261 519.246 65.4691L519.335 64.7688L519.184 57.5796C519.14 55.5319 519.157 53.9008 519.228 52.6864C519.308 51.3035 519.388 50.0802 519.477 48.9899C519.592 47.5184 519.636 46.038 519.601 44.5931C519.574 43.0595 519.406 41.2689 519.078 38.9641L518.581 35.5335L516.063 33.1667C512.978 30.268 509.255 30.1616 505.62 30.0552C503.209 29.9932 500.638 29.9311 497.872 29.869C495.177 29.8159 492.695 29.7538 490.434 29.6829C489.158 29.6474 488.306 29.6208 487.713 29.612C486.693 29.3638 485.603 29.2574 484.468 29.284C482.145 29.3283 480.62 29.5499 479.193 30.0463L479.069 30.0907C476.844 30.9062 475.213 32.3068 473.156 34.452L470.159 37.5635L471.445 59.0955C471.489 61.3382 471.613 64.4053 471.799 68.2171C471.995 72.1618 472.127 76.142 472.207 80.0601C472.287 83.9783 472.314 87.6571 472.269 90.9901C472.243 92.763 472.216 94.9171 472.216 96.3532C471.746 99.1101 471.791 101.982 472.34 104.907C472.58 106.202 472.73 107.416 472.784 108.542C472.606 110.368 472.482 112.176 472.411 113.923C472.323 115.9 472.305 117.947 472.34 120.022C472.42 123.904 472.624 127.743 472.934 131.395C473.218 134.746 473.395 138.043 473.457 141.181L473.599 148.202L473.643 150.454C473.502 154.381 473.466 158.263 473.546 162.013C473.546 162.217 473.555 162.43 473.564 162.633C473.661 166.41 473.971 170.195 474.512 173.9C474.743 176.391 474.84 178.794 474.796 181.027C474.725 183.837 474.725 186.772 474.796 189.998C474.84 191.975 474.885 193.925 474.947 195.831C473.12 194.315 470.993 192.684 468.599 190.982L467.899 190.486L467.136 190.105C466.995 190.034 466.879 189.972 466.808 189.936C466.073 189.245 464.867 188.208 462.172 186.133L460.957 185.185L459.583 184.653C459.521 184.626 459.326 184.52 458.98 184.29H458.972C458.333 183.864 457.154 183.013 455.31 181.409C451.312 177.925 448.076 175.735 445.16 174.539C440.984 172.668 438.892 171.48 437.855 170.807C435.505 169.3 432.278 167.615 428.014 165.683C425.975 164.53 424.131 163.52 422.403 162.633C421.933 162.394 421.481 162.164 421.037 161.942L417.553 160.205C420.009 159.167 422.172 157.669 424.016 155.737C424.22 155.533 424.61 155.205 425.31 154.824C425.807 154.558 426.463 154.265 427.314 153.973L431.481 152.581L433.449 148.636C433.528 148.486 433.617 148.335 433.715 148.202C433.874 147.954 434.069 147.723 434.309 147.502C436.303 145.613 437.961 143.451 439.246 141.066C440.018 139.887 440.7 138.735 441.268 137.609L442.633 136.226L445.301 130.101C448.59 123.39 450.514 116.795 450.984 110.483L451.002 110.271C451.037 109.73 451.135 108.772 451.436 107.345C452.021 104.509 452.154 101.947 451.853 99.509L451.826 99.3051C451.454 96.761 451.179 94.5005 451.002 92.5769C450.798 90.3873 450.541 88.0028 450.195 85.3257L450.124 84.7052L449.965 84.1024C449.22 81.0618 448.36 77.6933 447.402 74.0943C446.339 70.0875 445.089 66.1694 443.697 62.4197C442.225 58.4927 440.541 54.7873 438.644 51.3745C436.232 47.022 433.599 43.8484 430.594 41.6766L430.443 41.5703C428.972 38.9641 427.075 36.8366 424.778 35.2498C423.484 34.3634 422.278 33.2819 421.188 32.0409C418.582 29.089 415.399 26.9172 411.685 25.5697C408.786 23.6727 405.381 22.2012 401.507 21.1995C397.571 20.1712 393.466 19.5507 389.309 19.3646H388.803C388.803 19.3646 388.085 19.3468 385.842 19.0809C383.972 18.877 381.827 18.6022 379.442 18.2654C376.915 17.9019 374.433 17.6182 372.022 17.3966C368.724 17.113 366.445 17.0775 364.229 17.7246C364.105 17.7335 363.866 17.7246 363.529 17.698C360.692 17.4675 357.784 17.6448 354.876 18.2299L354.646 18.2742L354.424 18.3363C351.57 19.0366 348.777 19.7103 346.038 20.3751C344.823 20.6676 343.688 20.9868 342.66 21.3325C341.765 21.6339 340.922 21.9619 340.133 22.3165L339.016 22.6888L338.174 22.7863C335.293 23.1586 332.997 23.5575 331.109 24.0184C329.38 24.4439 327.438 25.0201 325.329 25.7204L309.646 30.986C306.951 31.8902 304.469 32.883 302.253 33.9379C302.253 33.9379 298.893 35.5512 297.492 36.2249C296.818 36.4554 296.18 36.6948 295.577 36.9252L295.79 33.5124L295.914 30.7023L296.8 24.4794L296.783 24.1514C297.412 22.1835 297.669 20.056 297.536 17.8044L297.155 11.218L275.515 2.00776C274.23 1.46703 272.882 0.98834 271.455 0.580571C268.884 -0.146323 265.985 -0.190645 262.598 0.447602L260.223 0.881965L258.281 2.30029C256.863 3.32858 255.675 4.34801 254.708 5.35856L253.449 5.86384L251.676 8.20408C250.613 9.61355 249.646 10.8014 248.831 11.7322C247.802 12.8934 246.641 14.1522 245.382 15.473L245.249 15.606L245.125 15.7478C244.088 16.9091 243.059 18.0792 242.04 19.2316C241.127 20.2599 240.223 21.2882 239.31 22.3253C237.075 24.3819 235.001 26.4651 233.157 28.4862C231.606 30.1882 229.85 31.9434 227.935 33.6985C225.037 36.349 223.201 38.3258 221.996 40.0899C221.42 40.9409 220.843 41.7387 220.338 42.4213C219.762 43.1747 219.07 44.0789 218.246 45.1072C217.803 45.6745 216.836 46.8092 214.735 49.0785L198.53 64.9904C196.349 67.0292 194.31 69.2986 192.475 71.7452C191.109 73.5447 189.735 75.229 188.388 76.7537C184.815 80.7959 183.14 82.2231 182.554 82.6663C180.578 84.1999 179.07 85.4941 177.945 86.9124C177.537 87.2847 176.73 87.985 175.223 89.2261C174.31 89.9707 173.379 90.7951 172.43 91.717C174.017 87.7989 175.507 84.2531 176.854 81.1327C178.556 77.2323 180.569 72.6937 182.847 67.6498L182.936 67.4459L183.024 67.2331C183.565 65.868 184.195 64.556 184.886 63.3327C186.118 61.1521 187.111 58.7586 187.829 56.2234L188.973 53.369C189.868 51.1351 190.515 49.1494 190.71 47.1461C190.994 45.0629 190.71 42.8999 189.842 40.87C188.273 37.2178 185.879 34.7268 182.714 33.4681L148.406 19.7191C144.886 18.3097 141.517 17.1041 138.397 16.1467L138.308 16.1201C135.002 15.1273 131.314 14.4891 127.333 14.1965C123.973 13.9572 121.243 13.8153 118.982 13.7533C111.881 13.4164 106.837 13.3544 103.565 13.5583C99.9219 13.7976 96.1896 14.4802 92.4485 15.606C90.2145 16.2442 87.8741 16.7672 85.5071 17.1484C82.3333 17.6537 79.0532 18.3629 75.7642 19.2493C72.1561 20.2155 68.4504 21.625 64.7359 23.4334C60.7643 25.3747 56.7306 28.1493 52.7413 31.6951C50.5693 33.6188 48.0782 35.569 45.3388 37.4837C40.9417 40.5597 37.7591 44.4246 35.8353 48.9987C33.2999 52.1811 31.4027 55.1685 30.0641 58.1026C29.6208 59.0777 29.1066 59.778 28.424 60.3276L27.2361 61.2939L26.3673 62.5526C22.7858 67.7473 19.7184 73.5004 17.2539 79.6524C14.9844 85.308 13.3975 90.8838 12.5198 96.2468C10.933 99.8901 9.85143 103.755 9.30179 107.762C8.91172 110.661 8.27339 113.471 7.42233 116.13L7.37802 116.272C6.35852 119.587 5.68476 122.255 5.32129 124.418C4.87803 126.998 4.74506 129.453 4.92236 131.705L4.94009 131.909C5.04648 133.212 5.16173 134.506 5.25925 135.809C5.3213 136.492 5.3745 137.706 5.33017 139.781C5.30357 140.463 5.32132 141.19 5.39224 142.006H5.33017V148H0V243.004H1244V148H1238.87ZM131.269 68.5185C129.603 72.3568 128.095 75.9381 126.801 79.1648C125.303 82.9145 123.45 87.1961 121.323 91.8943C118.956 97.1155 116.872 102.62 115.135 108.285C114.638 109.57 114.159 110.953 113.69 112.496C113.388 113.462 113.087 114.357 112.776 115.164C111.225 118.373 109.895 121.724 108.823 125.119C108.167 127.193 107.147 129.267 105.764 131.324L104.842 132.689L104.381 134.267C103.105 138.619 101.447 142.91 99.4432 147.014C99.2481 147.404 99.062 147.803 98.8758 148.202C98.7605 148.432 98.6542 148.654 98.5478 148.885C96.4999 153.281 94.6471 157.829 93.0514 162.447C93.0336 162.509 93.007 162.571 92.9893 162.633C91.1276 167.881 88.7429 174.148 85.906 181.231C84.8245 183.935 83.7784 186.497 82.7677 188.935C81.7394 188.163 80.8085 187.392 80.0018 186.63C77.0851 183.873 74.1862 180.097 71.3848 175.416L71.2075 175.132C69.532 172.509 69.1951 170.895 69.1508 170.168C68.9912 167.731 68.8848 165.195 68.8316 162.633C68.8316 162.172 68.8139 161.703 68.805 161.242V160.657L68.7253 160.072C68.5036 158.37 68.5036 156.357 68.7253 154.097C68.7873 153.441 68.8493 152.776 68.9025 152.12C69.0178 150.808 69.1065 149.496 69.1862 148.202C69.2572 147.023 69.3103 145.853 69.3458 144.7C69.4433 143.185 69.5852 141.093 69.7802 138.407C69.9487 136.075 70.3033 134.994 70.4451 134.63C70.9593 133.363 71.633 131.342 72.7944 125.899C73.2731 123.665 73.61 122.583 73.7607 122.167L74.0355 121.741L76.8812 114.632C78.6011 110.341 80.3121 105.555 81.961 100.404C83.344 96.0695 85.6844 90.7153 88.9024 84.5013L89.1329 84.0403L89.984 81.9217C91.9078 78.1365 94.1684 75.3797 96.7216 73.722C100.693 71.1513 105.445 68.3944 110.862 65.54L111.119 65.3982C112.457 64.6447 113.707 64.2369 114.94 64.1571C116.615 64.0508 120.276 64.0064 128.131 64.3787H128.388C128.858 64.4053 130.135 64.5029 132.635 65.1411C132.28 66.1162 131.837 67.2331 131.269 68.5185ZM234.372 147.537C230.471 145.463 226.721 143.663 223.228 142.174C222.288 141.775 221.357 141.385 220.444 141.039C216.561 139.515 212.643 137.91 208.813 136.279C208.264 136.049 207.696 135.73 207.058 135.313C206.783 135.127 206.491 134.958 206.198 134.79C209.824 131.501 213.45 128.177 216.996 124.897L217.173 124.746L217.333 124.578C218.804 123.098 220.311 121.777 221.818 120.669C223.902 119.126 226.118 117.353 228.423 115.403L228.671 115.199L228.893 114.978C230.294 113.648 231.685 112.345 233.068 111.086L233.148 112.629C232.847 114.658 232.687 116.414 232.669 117.956L232.652 118.382L234.407 146.846C234.389 147.076 234.38 147.307 234.372 147.537ZM318.387 159.531C315.71 160.231 313.414 160.993 311.348 161.898L308.237 162.633L298.502 164.938L294.735 168.236C294.132 170.78 291.304 172.012 288.857 173.191V172.872C288.875 170.957 288.964 168.892 289.141 166.764L289.185 166.126L289.052 162.633L288.627 151.579L288.946 148.202L290.098 136.137V135.73C290.116 135.082 290.178 134.48 290.311 133.85C290.763 131.661 290.825 129.462 290.506 127.299C290.612 124.339 290.728 121.475 290.852 118.727C290.932 116.768 291.233 112.868 292.199 105.475L292.226 105.306V105.138C292.651 100.945 293.042 96.6812 293.378 92.4351C293.6 89.6693 293.777 87.0454 293.919 84.5811L301.889 108.338L302.394 109.242C302.846 110.022 303.272 110.882 303.653 111.733C304.07 112.717 304.433 113.63 304.708 114.455L310.213 130.845C311.525 134.763 312.829 138.442 314.061 141.749C314.841 143.832 315.621 145.995 316.392 148.202C316.827 149.452 317.261 150.711 317.687 151.987C318.201 153.521 318.591 155.116 318.848 156.73C318.981 157.545 319.141 158.361 319.336 159.176C319.008 159.3 318.68 159.424 318.387 159.531ZM377.58 104.553C376.96 105.413 376.153 106.663 375.142 108.276C374.601 109.756 373.777 110.749 372.66 111.254C371.525 111.769 370.585 112.797 369.814 114.339L363.883 116.325L351.96 80.7604C351.88 80.53 351.871 80.1488 351.96 79.5992C352.11 78.5266 352.536 77.8617 353.236 77.6224C355.257 77.4717 357.323 77.4894 359.451 77.6667C361.587 77.8706 363.706 78.3847 365.798 79.2269C366.649 79.4662 367.438 79.7144 368.183 79.9804C368.919 80.2552 369.832 80.8579 370.922 81.7799C372.004 81.9394 372.784 82.7106 373.254 84.1024C374.256 86.3451 375.257 88.9247 376.233 91.8323C377.208 94.7398 377.926 97.6563 378.396 100.599C378.475 102.39 378.21 103.711 377.589 104.553H377.58ZM630.114 209.146C629.299 208.667 628.589 208.144 628.004 207.577L626.453 206.07L624.414 205.361C624.254 205.299 623.492 205.006 622.056 203.924C621.781 203.721 621.48 203.481 621.152 203.215C618.989 201.46 617.233 200.033 615.868 198.943C615.123 198.242 614.352 197.533 613.545 196.833C611.879 195.361 610.052 193.881 608.031 192.339C605.451 190.388 602.836 188.243 600.247 185.965L599.201 185.043L597.934 184.44C597.171 184.086 596.329 183.66 595.38 183.155C595.265 183.093 595.079 182.978 594.831 182.756C593.377 181.222 591.861 179.893 590.283 178.785C588.935 177.818 587.544 177.021 586.116 176.382C585.62 176.17 585.345 176.001 585.212 175.913L584.724 175.319L573.12 166.17C571.693 165.053 570.212 163.972 568.67 162.944C568.51 162.846 568.35 162.74 568.191 162.633C565.966 161.171 563.634 159.823 561.214 158.582C559.006 157.137 556.639 155.302 554.166 153.104C552.136 151.305 550.124 149.665 548.138 148.202C548.129 148.193 548.111 148.184 548.102 148.175C548.448 147.768 548.812 147.369 549.202 146.961C550.647 145.463 552.136 143.965 553.634 142.511C555.257 140.942 556.879 139.213 558.448 137.378C559.671 136.253 561.232 134.426 564.006 130.748C566.427 127.53 568.909 124.117 571.382 120.598C574.042 117.132 576.701 113.737 579.299 110.501C582.313 106.725 585.168 102.674 587.783 98.4452L587.827 98.3743C589.45 95.6883 591.037 92.9315 592.526 90.1569C593.634 88.1003 594.875 86.1589 596.223 84.3683C598.031 82.3383 599.574 79.7144 600.93 76.3725C601.728 74.3957 602.694 72.4189 603.785 70.5042L603.989 70.1496L604.006 70.1052C604.281 71.4261 604.645 72.8533 605.088 74.3957C605.141 75.6367 605.283 77.1171 605.522 79.0053C605.859 81.8065 606.4 84.7584 607.145 88.0294C608.111 92.2932 609.254 97.0092 610.522 102.026C611.675 106.627 612.437 110.669 612.774 114.073L612.836 114.729L612.987 115.368C613.368 117.052 613.705 118.772 613.98 120.474C614.237 122.087 614.432 123.603 614.556 124.986C614.724 128.576 615.442 131.9 616.684 134.879C616.958 135.987 617.348 137.369 617.818 138.983C618.412 141.093 619.059 143.388 619.742 145.826C619.964 146.624 620.176 147.413 620.38 148.202C620.77 149.709 621.143 151.198 621.471 152.652L622.295 156.26L622.756 158.29L623.652 162.633L626.453 176.196L627.969 182.862C628.527 185.291 629.228 187.809 630.07 190.335C630.283 191.106 630.496 191.869 630.708 192.631C631.79 196.505 632.871 200.299 633.926 203.969C634.751 206.868 635.23 209.873 635.345 212.957C633.909 211.619 632.198 210.378 630.114 209.146ZM662.277 124.516C659.901 118.515 658.226 112.23 657.233 105.67C656.249 99.1189 655.043 92.7276 653.634 86.5224V86.5047L655.779 86.0171C656.976 85.7423 657.721 85.7069 658.013 85.8841C658.306 86.0703 658.882 85.8132 659.733 85.1218C660.682 84.9002 661.293 84.8293 661.559 84.8825C661.825 84.9622 662.428 84.8736 663.394 84.6608C667.011 85.0952 670.017 86.682 672.393 89.4034C674.777 92.1337 676.32 95.0412 677.029 98.1527C678.873 100.741 679.529 103.613 678.988 106.76C678.439 109.898 677.791 112.566 677.029 114.747C676.506 116.883 675.469 118.683 673.926 120.163C672.375 121.653 671.125 122.504 670.167 122.716L662.277 124.516ZM719.201 203.171C718.456 206.619 717.658 209.509 716.834 211.734C716.816 211.787 716.417 212.798 714.174 214.527C713.314 215.041 712.348 215.546 711.311 216.051C709.99 216.689 708.651 217.372 707.242 218.126C704.298 219.039 701.834 219.845 699.91 220.519L698.882 220.891C697.251 221.467 695.619 222.035 693.97 222.62C692.428 223.178 691.55 223.435 691.116 223.559C689.148 223.825 687.171 224.091 685.194 224.357C685.087 224.375 684.99 224.384 684.884 224.402L683.572 218.613L679.015 201.965C678.518 200.228 678.066 198.366 677.65 196.39C677.1 193.81 676.621 191.027 676.213 188.075C675.557 183.43 674.751 178.794 673.82 174.281L683.687 172.03C685.894 172.473 688.217 172.509 690.557 172.145C692.339 171.861 694.245 171.507 696.364 171.028C698.864 170.922 702.082 171.064 705.921 171.471C708.775 171.79 710.087 172.429 710.327 172.624L711.701 173.98L713.057 174.592C713.137 174.707 713.243 174.893 713.359 175.177C714.6 177.934 715.123 179.698 715.353 180.699L715.513 181.417L715.788 182.109C716.231 183.288 716.559 184.352 716.772 185.282L717.933 190.406L718.084 190.858C718.704 192.746 719.148 194.936 719.414 197.382C719.635 199.43 719.564 201.372 719.201 203.171ZM1019.33 173.2C1019.46 174.725 1018.88 176.081 1017.59 177.224C1016.7 178.111 1016.29 178.82 1016.35 179.361C1016.42 179.91 1016.04 180.451 1015.23 180.992L1014.45 181.506L1012.16 183.022C1008.97 183.084 1006.15 182.596 1003.7 181.568C1001.26 180.549 998.747 178.536 996.167 175.531L995.813 174.991L987.621 162.633L986.008 160.205C984.927 158.573 984.253 156.668 983.987 154.496C983.738 152.537 983.535 150.436 983.348 148.202C983.331 147.954 983.304 147.706 983.286 147.448L984.111 146.021C984.395 145.551 984.66 145.073 984.935 144.594C985.21 144.124 985.547 143.752 985.955 143.477C986.912 141.376 987.896 139.976 988.916 139.302C989.944 138.619 991.726 138.194 994.235 137.999C996.62 137.6 998.721 137.884 1000.56 138.876C1002.38 139.869 1003.85 141.181 1004.94 142.812C1006.17 144.674 1007.35 146.473 1008.46 148.202C1010.06 150.657 1011.53 152.98 1012.91 155.178C1014.3 157.43 1015.67 159.912 1017.01 162.633C1017.91 164.442 1018.79 166.348 1019.65 168.36C1019.3 170.062 1019.2 171.666 1019.33 173.2ZM1125.61 91.85L1117.94 93.6761C1115.56 87.8609 1113.88 81.7533 1112.85 75.3708C1111.82 69.006 1110.59 62.792 1109.16 56.7552C1109.16 56.7552 1109.16 56.7493 1109.15 56.7375L1111.25 56.2411C1112.41 55.9663 1113.14 55.922 1113.42 56.0904C1113.7 56.2765 1114.26 56.0195 1115.09 55.328C1116.01 55.1153 1116.6 55.0355 1116.87 55.0887C1117.12 55.1596 1117.71 55.071 1118.65 54.8494C1122.18 55.2483 1125.12 56.7552 1127.45 59.388C1129.8 62.0208 1131.34 64.8397 1132.05 67.8714C1133.87 70.3712 1134.54 73.1635 1134.04 76.2218C1133.53 79.2889 1132.93 81.8951 1132.21 84.0226C1131.73 86.1146 1130.73 87.8787 1129.23 89.3325C1127.74 90.7951 1126.53 91.6284 1125.61 91.85ZM1174.11 169.752C1173.41 173.12 1172.66 175.93 1171.88 178.111C1171.87 178.164 1171.49 179.148 1169.32 180.85C1168.48 181.364 1167.55 181.87 1166.54 182.366C1165.26 182.995 1163.97 183.678 1162.6 184.431C1159.74 185.344 1157.35 186.151 1155.48 186.825L1154.48 187.197C1152.9 187.773 1151.32 188.341 1149.72 188.926C1148.21 189.484 1147.36 189.741 1146.95 189.874C1144.93 190.167 1142.91 190.45 1140.88 190.743L1139.55 185.123L1134.96 168.945C1134.38 167.004 1133.86 164.894 1133.38 162.633C1132.92 160.453 1132.51 158.13 1132.13 155.684C1132.12 155.604 1132.11 155.524 1132.1 155.444C1131.73 153.024 1131.33 150.604 1130.87 148.202C1130.49 146.128 1130.08 144.062 1129.63 142.032L1139.23 139.754C1141.39 140.171 1143.64 140.18 1145.92 139.798C1147.66 139.515 1149.51 139.142 1151.57 138.664C1154 138.54 1157.13 138.646 1160.87 139.001C1163.67 139.284 1164.94 139.896 1165.17 140.082L1166.52 141.385L1167.85 141.97C1167.93 142.085 1168.04 142.263 1168.15 142.537C1169.38 145.215 1169.92 146.925 1170.15 147.901L1170.22 148.202L1170.32 148.601L1170.58 149.275C1171.03 150.418 1171.36 151.446 1171.57 152.351L1172.75 157.324L1172.9 157.776C1173.13 158.449 1173.34 159.159 1173.52 159.912C1173.73 160.772 1173.91 161.676 1174.06 162.633C1174.14 163.112 1174.2 163.609 1174.26 164.114C1174.49 166.099 1174.45 167.988 1174.11 169.752Z" fill="#EDE6C0"/>
</g>
<defs>
<clipPath id="clip0_442_5343">
<rect width="1244" height="243" fill="white"/>
</clipPath>
</defs>
</svg>
