<svg width="1800" height="77" viewBox="0 0 1800 77" fill="none" xmlns="http://www.w3.org/2000/svg">
<g clip-path="url(#clip0_421_5045)">
<rect width="1800" height="77" fill="#F8F3E5"/>
<path d="M1799.9 14.2246C1800.14 10.3549 1799.95 5.70007 1799.32 -0.00161749L0.686652 -0.00177473C0.0598207 5.69991 -0.136591 10.3547 0.0972955 14.2244L0.144048 14.9909L0.303106 15.7386C0.705327 17.7576 1.35084 19.898 2.24891 22.16C2.56702 22.9545 2.81019 23.6836 2.94117 24.3192C3.52112 27.8337 5.12085 31.2266 7.72156 34.4233C9.5083 36.6012 11.4822 38.6669 13.587 40.5363C15.4113 42.1346 17.067 43.6395 18.6948 45.1444C20.1261 46.4529 20.8744 47.3783 21.2393 47.9204L22.2777 49.444L23.7465 50.5563C25.4491 51.8368 27.3855 52.9211 29.5933 53.8184C30.3417 54.1082 31.2865 54.5381 32.381 55.0709C33.9059 56.0804 35.8423 57.0712 38.3307 58.1461L38.9856 58.4358L39.6685 58.6228C44.8136 60.0996 49.9962 61.6605 55.1227 63.2682C60.7823 65.0348 66.4048 66.4462 71.8586 67.4651L123.329 77.1112L125.397 66.0817C125.481 65.633 125.714 64.5862 126.36 62.5579C127.118 60.2118 127.717 57.3142 128.194 53.7436C128.661 52.5192 129.148 51.033 129.709 49.0982C129.778 48.8551 129.846 48.6038 129.915 48.3525L130.018 47.9765C132.226 50.0609 134.377 52.1266 136.454 54.1829C139.41 58.0713 143.938 61.4175 150.281 64.3712C155.426 66.7734 159.673 68.6708 163.237 70.1663L163.546 70.2972L163.854 70.4094C165.333 70.9328 166.885 71.4189 168.494 71.8582C169.028 71.9984 169.28 72.1479 169.28 72.1479L169.748 72.3909C173.733 74.466 178.485 75.4755 183.865 75.4474C187.101 75.4287 188.785 75.7559 189.487 75.9615L189.908 76.083L190.329 76.1671C193.584 76.8214 197.167 77.1392 201.059 77.1112C204.642 77.0738 208.066 76.8308 211.218 76.3728C214.389 75.9148 217.308 75.3072 219.918 74.5501C222.014 73.9332 223.557 73.4659 224.708 73.0733L225.017 72.9887C228.126 72.1383 230.731 71.4257 232.959 70.7833C236.57 69.7457 240.284 67.9511 244.306 65.2872C247.515 63.1654 250.686 60.9221 253.783 58.6134L256.842 60.7072C259.546 62.5579 262.343 63.8478 265.158 64.5394C266.908 64.9694 268.966 65.3339 271.473 65.6517C272.549 65.7826 274.841 66.1939 279.649 67.3716C281.894 68.0446 284.252 68.6895 286.665 69.2784C289.144 69.8953 291.754 70.4655 294.42 70.9982C296.768 71.4656 298.855 71.9143 300.632 72.3536C302.279 72.7555 303.654 73.1481 304.739 73.5126L315.385 77.1112L325.104 37.7228C325.666 39.4053 326.246 41.0691 326.891 42.7048C328.987 48.042 330.97 52.2575 332.981 55.5757L333.374 56.2299L333.861 56.8282C335.152 58.4265 336.714 60.0248 338.566 61.6045C339.221 62.1653 339.773 62.7074 340.185 63.2028C342.336 66.0443 345.32 68.3063 349.109 69.9327C351.71 71.0356 354.413 71.9423 357.145 72.6246C359.502 73.2041 361.673 73.765 363.806 74.3445C365.686 74.8399 366.771 75.3072 367.351 75.625L368.988 76.4943L370.803 76.7934C372.898 77.1392 375.125 77.2047 377.492 76.9803C378.296 76.8869 379.325 76.8308 380.542 76.7934C382.366 76.9803 384.536 76.9617 387.249 76.756L387.95 76.7093L388.652 76.5597C393.891 75.4848 399.214 74.466 404.499 73.5126C410.327 72.447 415.968 71.0917 421.273 69.4747L448.533 61.1278C449.599 61.941 450.675 62.7448 451.77 63.5206C454.613 65.8294 457.046 67.6894 459.197 69.213C461.442 70.7833 462.472 71.6058 462.883 71.961L468.982 77.1112L471.228 75.7839L474.736 77.1112L496.654 66.1565C498.001 65.5489 499.62 64.7918 501.509 63.8852C502.875 63.2402 504.381 62.5018 506.028 61.7073C510.05 59.7538 514.157 57.8283 518.217 55.9963C522.268 54.1643 526.103 52.5005 529.611 51.0611C531.473 50.2946 533.737 49.3599 535.234 48.715C538.321 47.9765 541.305 46.6493 544.121 44.7705C545.356 43.948 546.572 43.247 547.722 42.6861C549.069 42.2562 550.398 41.7982 551.698 41.3308C551.446 42.9479 551.277 44.5649 551.184 46.1632C551.09 47.9018 551.128 49.9394 551.305 52.5846L551.558 56.501L554.215 59.408C555.562 60.8754 557.068 61.8101 558.668 62.4364C560.885 63.2971 563.274 63.5568 565.631 63.8131L565.777 63.8291C568.5 64.1095 571.409 64.3993 574.534 64.7077C577.583 65.0068 580.39 65.2872 582.953 65.5583C584.394 65.7079 585.357 65.8107 586.021 65.8761C587.163 66.2406 588.379 66.4556 589.67 66.5304C592.308 66.6799 594.057 66.5584 595.713 66.1191L595.863 66.0724C598.454 65.3433 600.418 63.9039 602.935 61.6606L606.602 58.3891L607.004 33.8999C607.145 31.3575 607.276 27.8711 607.388 23.5434C607.453 21.001 607.556 18.4493 607.668 15.8976C608.445 15.505 609.221 15.1031 609.998 14.6918C610.625 16.1686 611.186 17.5426 611.654 18.7671C612.486 20.9356 613.441 23.2724 614.544 25.8989L614.797 26.5064L615.134 27.0766C616.762 29.9461 618.595 33.1241 620.588 36.4984C622.814 40.2653 625.209 43.8919 627.697 47.2942C630.307 50.8554 633.076 54.1362 635.976 57.0619C639.672 60.7913 643.255 63.2589 646.931 64.6049L647.109 64.6797C649.354 66.9043 651.889 68.5213 654.667 69.4747C656.239 70.0075 657.773 70.7553 659.233 71.7087C662.722 73.9613 666.586 75.2605 670.739 75.5596C674.229 76.6626 678.111 77.186 682.32 77.1019C686.614 77.0178 690.964 76.4756 695.24 75.4755L695.473 75.4194L695.754 75.3353C695.782 75.326 696.484 75.1484 698.851 74.7745C700.796 74.4473 703.06 74.1202 705.577 73.7743C708.243 73.4192 710.853 73.0079 713.36 72.5405C716.803 71.8863 719.123 71.2787 721.181 69.9888C721.312 69.9421 721.555 69.8766 721.901 69.8112C724.848 69.241 727.757 68.2222 730.545 66.8015L730.76 66.6893L730.975 66.5678C733.669 65.0442 736.317 63.5581 738.908 62.1093C740.059 61.4643 741.116 60.81 742.061 60.1744C742.893 59.6043 743.651 59.0341 744.353 58.4546L745.382 57.7536L746.205 57.4077C749.03 56.2113 751.247 55.1551 753.034 54.1456C754.671 53.2202 756.477 52.0799 758.413 50.7713L772.848 40.957C774.223 40.0129 775.523 39.0688 776.739 38.1155L776.515 41.7701L776.384 44.7332L775.448 51.3041L775.467 51.6499C774.803 53.7156 774.531 55.9589 774.672 58.3424L775.074 65.2873L797.909 74.9895C799.266 75.569 800.688 76.0644 802.194 76.4943C804.907 77.2608 807.966 77.3169 811.539 76.6439L814.047 76.1765L816.095 74.681C817.601 73.5968 818.846 72.5219 819.865 71.4656L821.194 70.9329L823.065 68.4559C824.187 66.9697 825.207 65.7172 826.068 64.7451C827.153 63.5207 828.378 62.1934 829.707 60.7913L829.847 60.6511L829.978 60.5016C831.072 59.2865 832.158 58.0433 833.233 56.8282C834.086 55.8684 834.932 54.9086 835.783 53.9424L836.115 53.5661C838.472 51.3976 840.661 49.2104 842.607 47.0699C843.57 46.0137 844.618 44.9388 845.722 43.8545C845.413 45.5837 845.217 47.3503 845.17 49.1636L844.758 52.379C844.431 54.8934 844.291 57.0993 844.618 59.1837C844.88 61.3896 845.741 63.5207 847.163 65.3714C849.726 68.6896 852.832 70.5964 856.396 71.0544L895.069 76.055C899.045 76.5691 902.805 76.915 906.239 77.0739L906.342 77.0739C909.981 77.2141 913.919 76.9056 918.063 76.1485C921.562 75.5129 924.387 74.9427 926.707 74.4006C934.06 72.8771 939.233 71.6152 942.517 70.5496C946.175 69.3439 949.804 67.6614 953.331 65.5303C953.79 65.2592 954.276 65.0162 954.744 64.7545L969.824 77.1113L976.166 74.2417C978.346 73.2696 980.198 71.9891 981.733 70.4375L982.051 70.3066L987.439 66.4276L990.012 64.9414L1000.94 58.3518L1007.92 54.1269C1008.59 54.5569 1009.29 54.9682 1010.02 55.342C1011.57 56.1365 1012.99 57.0806 1014.24 58.1742C1016.47 60.0997 1019.13 61.483 1022.18 62.3056L1022.34 62.4271C1025.35 64.9227 1029.28 66.7828 1034.36 68.1101C1038.35 69.1476 1042.58 69.9047 1046.97 70.3721C1051.16 70.8207 1055.51 71.0731 1059.88 71.1105C1063.8 71.1385 1067.48 71.1385 1070.78 71.1105L1071.44 71.1105L1072.09 71.0264C1074.92 70.6712 1077.42 70.316 1079.72 69.9514C1081.73 69.6243 1084.1 69.3065 1086.81 69.0167L1087.03 68.9981C1089.59 68.6709 1092.18 67.8671 1094.93 66.5211C1096.31 65.8388 1097.26 65.4836 1097.8 65.3153L1098.01 65.2405C1104.34 63.1094 1110.59 59.4174 1116.57 54.2952L1122.14 49.9675L1123.2 48.2103C1124.21 47.341 1125.21 46.3409 1126.2 45.2379C1128.3 43.3031 1130.08 41.0411 1131.49 38.5174C1131.75 38.0407 1132.05 37.6855 1132.42 37.349L1135.94 34.3019L1136.28 29.6751C1136.44 27.3758 1136.94 26.2822 1137.21 25.8335C1138.7 23.45 1139.67 20.8422 1140.08 18.0755L1142.77 21.1693C1144.4 23.0574 1146.26 25.067 1148.43 27.3197C1151.52 31.1707 1154.08 34.0215 1156.24 36.0218C1157.2 36.9097 1158.96 38.7417 1161.97 42.5086C1163.97 45.1818 1167.04 47.9018 1171.66 51.0798C1174.87 53.299 1175.91 54.4024 1176.08 54.5866L1176.09 54.5943L1176.99 55.8655L1178.28 56.8563C1181.11 59.0622 1182.48 60.0249 1183.38 60.5951C1183.43 60.642 1183.5 60.7217 1183.59 60.8232L1183.64 60.8848L1184.23 61.5672L1184.92 62.1467C1187.85 64.6237 1190.55 66.708 1192.95 68.3625C1194.71 69.5776 1196.41 70.9049 1198.04 72.3256L1203.54 77.1113L1206.48 75.7373C1207.6 76.2981 1208.72 76.6907 1209.95 76.9056L1210.1 76.9337C1211.8 77.2141 1213.55 77.158 1216.17 76.7561C1217.44 76.5598 1218.63 76.2327 1219.73 75.756C1220.38 75.6251 1221.34 75.4382 1222.75 75.1484C1225.28 74.625 1228.04 74.0735 1231.05 73.4753C1234.13 72.8677 1237 72.2976 1239.67 71.7554L1239.68 71.7536C1243.73 70.9223 1247.88 70.0701 1250.76 66.2313L1253.12 63.0907L1253 59.165C1252.91 56.5104 1252.75 54.4821 1252.48 52.7623C1252.24 51.1359 1251.89 49.4908 1251.48 47.8644C1251.45 47.771 1251.43 47.6682 1251.41 47.5747C1252.46 47.9018 1253.52 48.2009 1254.56 48.4813C1256.48 49.0048 1258.49 49.4908 1260.52 49.9208C1261.71 50.3694 1262.99 50.949 1264.3 51.65C1267.28 53.2483 1270.38 54.2765 1273.53 54.7158C1275.08 55.2112 1277.42 55.9216 1279.35 56.5011C1282.98 57.5947 1286.96 58.8846 1291.17 60.3147C1295.39 61.7448 1299.66 63.259 1303.86 64.8106C1307.92 66.3248 1311.21 67.5119 1313.62 68.3344L1336.5 77.1113L1340.9 74.9334C1343.93 73.4379 1346.01 72.1574 1347.65 70.0262L1347.74 69.9047C1348.77 68.5401 1349.54 66.9604 1350.39 64.4554C1350.6 63.8292 1350.77 63.1936 1350.89 62.5673C1351.31 62.1747 1351.73 61.7635 1352.17 61.3429L1378.73 69.4748C1384.04 71.0918 1389.68 72.4471 1395.51 73.5127C1400.79 74.4661 1406.12 75.4849 1411.35 76.5598L1412.05 76.7094L1412.76 76.7561C1415.46 76.9617 1417.64 76.9804 1419.46 76.7935C1420.68 76.8309 1421.71 76.887 1422.52 76.9804C1424.88 77.2048 1427.1 77.1393 1429.2 76.7935L1431.02 76.4944L1432.66 75.6251C1433.23 75.3073 1434.32 74.84 1436.19 74.3446C1438.33 73.7651 1440.5 73.2042 1442.85 72.6247C1445.58 71.9424 1448.3 71.0357 1450.89 69.9328C1454.68 68.3064 1457.67 66.0444 1459.81 63.2029C1460.23 62.7075 1460.78 62.1654 1461.44 61.6046C1463.28 60.0249 1464.85 58.4266 1466.15 56.8283L1466.62 56.23L1467.03 55.5758C1469.03 52.2576 1471.02 48.0421 1473.12 42.7049C1473.75 41.0785 1474.35 39.4241 1474.9 37.751L1484.61 77.1113L1495.27 73.5127C1496.34 73.1482 1497.73 72.7556 1499.38 72.3537C1501.14 71.9144 1503.23 71.4657 1505.58 70.9984C1508.25 70.4656 1510.85 69.8954 1513.33 69.2785C1515.75 68.6896 1518.1 68.0447 1520.36 67.3717C1525.17 66.194 1527.45 65.7827 1528.53 65.6519C1531.04 65.3341 1533.09 64.9695 1534.85 64.5396C1537.66 63.8479 1540.45 62.558 1543.16 60.7073L1546.22 58.6135C1549.31 60.9316 1552.49 63.1655 1555.7 65.2873C1559.71 67.9512 1563.43 69.7459 1567.05 70.7834C1569.35 71.447 1572.04 72.1854 1575.3 73.0734C1576.45 73.466 1577.98 73.9333 1580.08 74.5502C1582.69 75.3073 1585.61 75.9149 1588.78 76.3729C1591.94 76.8309 1595.36 77.0739 1598.95 77.1113C1602.83 77.1394 1606.42 76.8216 1609.67 76.1673L1610.1 76.0831L1610.51 75.9616C1611.22 75.756 1612.91 75.4289 1616.14 75.4475C1621.52 75.4849 1626.26 74.4661 1630.25 72.3911L1630.49 72.2696L1630.73 72.148C1630.75 72.1294 1630.98 71.9985 1631.51 71.8583C1633.11 71.419 1634.67 70.9329 1636.15 70.4095L1636.46 70.2973L1636.77 70.1665C1640.33 68.671 1644.57 66.7735 1649.73 64.3713C1656.06 61.4177 1660.6 58.0714 1663.54 54.1831C1665.62 52.1361 1667.77 50.061 1669.98 47.986C1670.08 48.3599 1670.19 48.7338 1670.3 49.0983C1670.86 51.0331 1671.35 52.5193 1671.81 53.7438C1672.28 57.3143 1672.88 60.2119 1673.64 62.558C1674.28 64.5863 1674.52 65.6332 1674.6 66.0818L1676.67 77.1113L1728.15 67.4652C1733.59 66.4464 1739.23 65.035 1744.88 63.2684C1750 61.6607 1755.19 60.0997 1760.33 58.6229L1761.02 58.436L1761.67 58.1462C1764.17 57.0713 1766.1 56.0805 1767.63 55.071C1768.72 54.5383 1769.66 54.1083 1770.41 53.8185C1772.61 52.9212 1774.55 51.837 1776.25 50.5564L1777.72 49.4441L1778.77 47.9206C1779.13 47.3784 1779.88 46.4531 1781.31 45.1445C1782.93 43.6396 1784.6 42.1348 1786.41 40.5364C1788.52 38.667 1790.49 36.6013 1792.29 34.4235C1794.88 31.2268 1796.48 27.8338 1797.06 24.3193C1797.2 23.6837 1797.43 22.9547 1797.76 22.1602C1798.66 19.8982 1799.3 17.7577 1799.7 15.7388L1799.85 14.991L1799.9 14.2246Z" fill="#EDE6C0"/>
</g>
<defs>
<clipPath id="clip0_421_5045">
<rect width="1800" height="77" fill="white"/>
</clipPath>
</defs>
</svg>
