<svg width="1245" height="243" viewBox="0 0 1245 243" fill="none" xmlns="http://www.w3.org/2000/svg">
<g clip-path="url(#clip0_517_853)">
<path d="M1240.7 144.494C1240.51 143.239 1240.25 141.995 1239.92 140.781C1239.83 140.18 1239.74 139.568 1239.65 138.936C1239.55 138.272 1239.45 137.598 1239.36 136.924C1239.19 135.244 1238.87 133.575 1238.42 131.978C1238.14 130.993 1237.89 129.946 1237.69 128.867C1237.28 126.171 1237 123.693 1236.86 121.505C1236.69 118.913 1236.36 115.989 1235.88 112.816L1235.79 112.194L1235.59 111.582C1235.3 110.732 1235.08 109.85 1234.94 108.948C1234.76 107.88 1234.62 106.74 1234.51 105.558L1234.47 105.132L1232.76 97.003L1232.06 88.1893L1232.02 87.9197C1231.98 87.619 1231.96 87.3286 1231.97 87.0279C1232 85.6592 1231.82 84.3319 1231.41 83.0669C1231.22 81.6152 1231.01 80.0806 1230.79 78.2971C1230.65 77.198 1230.44 74.9998 1230.25 70.7795V70.5618C1230.06 68.1561 1229.85 65.709 1229.63 63.2723C1229.39 60.763 1229.13 58.4507 1228.86 56.4287L1228.84 56.3146C1228.6 54.7178 1228.51 53.7638 1228.47 53.2246C1228.36 51.69 1228.11 50.4561 1227.69 49.3777L1227.19 47.4801L1226 36.717L1225.23 29.8423L1225.03 28.2766L1224.91 24.6266L1224.89 24.5229C1225.03 23.289 1224.95 22.0136 1224.64 20.7071L1223.66 16.4454L1210.48 13.3036C1209.69 13.1169 1208.87 12.9718 1208.02 12.8888C1206.41 12.7229 1204.7 13.0029 1202.78 13.7598L1201.33 14.3197L1200.27 15.4707C1199.62 16.1758 1199.08 16.8394 1198.64 17.5031L1197.95 17.9489L1197.1 19.6909C1196.67 20.5619 1196.28 21.3189 1195.94 21.8892C1195.5 22.6461 1194.99 23.4549 1194.45 24.3156L1194.38 24.4192L1194.32 24.5229C1193.86 25.2903 1193.42 26.0576 1192.98 26.7938C1192.59 27.4574 1192.2 28.121 1191.82 28.7743C1190.8 30.1741 1189.87 31.5532 1189.06 32.8908C1188.4 33.9796 1187.64 35.1202 1186.78 36.2815C1185.42 38.1272 1184.58 39.4856 1184.08 40.6573C1183.85 41.1861 1183.62 41.6734 1183.41 42.1193C1183.17 42.5963 1182.89 43.1562 1182.55 43.8095C1182.37 44.1517 1181.97 44.8568 1181.08 46.3084L1173.85 56.8642C1172.83 58.2744 1171.92 59.809 1171.13 61.4058C1170.59 62.5361 1170.02 63.6041 1169.45 64.5788C1167.9 67.2022 1167.16 68.1147 1166.96 68.3428C1166.03 69.4108 1165.3 70.3337 1164.78 71.298C1164.6 71.5468 1164.24 72.0031 1163.59 72.7911C1162.34 74.2946 1161.11 76.1715 1159.82 78.5045C1158.81 79.7592 1157.63 81.1901 1156.32 82.7662C1154.58 84.8297 1153.05 87.0072 1151.75 89.2158C1150.26 91.6629 1148.74 94.0789 1147.23 96.4016C1145.61 98.8902 1144.04 101.399 1142.54 103.867L1134.08 116.538C1133.44 117.347 1132.83 118.187 1132.24 119.037C1132.2 118.591 1132.17 118.156 1132.17 117.72C1132.44 116.798 1132.57 115.916 1132.57 115.066V111.074C1132.57 109.757 1132.54 108.419 1132.46 107.061C1132.41 106.117 1132.44 105.143 1132.54 104.189C1132.71 102.955 1132.75 101.742 1132.66 100.56C1132.62 100.083 1132.64 99.5745 1132.72 99.025L1132.78 98.6724V71.7957C1132.78 70.427 1132.18 67.0985 1126.65 65.6572C1125.1 65.2632 1123.36 65.0661 1121.32 65.0661C1119.6 65.0661 1117.99 65.0972 1116.52 65.1595C1116.36 65.1698 1116.21 65.1698 1116.06 65.1698C1115.53 65.1698 1115.31 65.118 1115.31 65.118L1114.78 64.9936L1114.24 64.9417C1113.42 64.8588 1112.67 64.8173 1111.94 64.8173C1111.05 64.8173 1110.25 64.8795 1109.44 65.0039C1107.36 65.3668 1105.39 65.6987 1103.74 67.0881L1102.61 68.0317L1102.11 69.2967C1101.75 70.2196 1101.56 71.2254 1101.56 72.3038V72.8119C1101.56 74.1806 1101.6 75.5493 1101.67 76.8869C1101.73 78.1831 1101.83 79.4688 1101.97 80.7235V85.4829C1102.1 87.9093 1102.16 90.1179 1102.16 92.0258V97.8947C1102.16 99.8649 1102.19 101.845 1102.26 103.753C1102.33 105.64 1102.36 107.766 1102.36 110.047C1102.36 110.472 1102.33 110.659 1102.33 110.669C1102.22 111.333 1102.16 112.08 1102.16 112.94V113.272C1102.3 115.139 1102.4 117.057 1102.47 118.965C1102.53 120.925 1102.56 122.905 1102.56 124.844V130.236C1102.28 132.082 1102.22 133.927 1102.38 135.711C1102.5 137.121 1102.56 138.562 1102.56 139.973V144.877C1102.7 146.858 1102.8 148.869 1102.87 150.839C1102.94 152.861 1102.97 154.925 1102.97 156.978V157.175L1103.3 161.084L1094.6 159.114L1094.26 159.072C1092.71 158.886 1091.01 158.585 1089.21 158.17C1088.29 157.963 1087.33 157.724 1086.35 157.455C1083.56 156.698 1080.94 155.734 1078.58 154.572L1077.89 154.24L1066.25 151.596C1065.11 150.922 1063.92 150.435 1062.7 150.165C1062.11 150.031 1061.51 149.937 1060.91 149.906C1060.86 149.875 1060.8 149.834 1060.72 149.782L1059.64 149.014L1056.21 148.237C1056.42 147.314 1056.76 145.893 1057.08 144.494C1057.61 142.233 1058.13 140.014 1058.13 140.014C1058.85 136.955 1059.53 133.99 1060.21 131.128C1060.92 128.09 1061.39 126.026 1061.69 124.626L1061.87 123.766L1061.84 123.04C1061.86 122.926 1061.9 122.635 1062.01 122.117L1063.5 115.024C1063.84 113.417 1064.02 112.049 1064.05 110.856V110.69L1064.3 110.296L1064.55 109.653C1065.07 108.274 1065.44 106.615 1065.71 104.427C1065.87 103.121 1066.06 101.939 1066.28 100.912L1069 87.9611C1069.14 87.2871 1069.35 86.5509 1069.62 85.7629C1070.02 84.5808 1070.48 83.098 1071 81.3456C1071.51 79.5725 1072.11 77.4054 1072.79 74.8857C1073.49 72.2312 1074.27 68.9131 1075.09 65.0143L1078.91 46.8891L1074.95 44.2346C1073.3 43.1251 1071.59 42.3578 1069.87 41.9741C1068.84 41.7357 1067.64 41.549 1066.17 41.3935C1065.69 41.352 1064.47 41.1654 1061.64 40.5328C1060.35 40.1699 1059 39.8277 1057.62 39.5063C1056.19 39.1849 1054.68 38.8842 1053.15 38.6146C1051.82 38.3761 1050.65 38.1479 1049.66 37.9198C1048.74 37.7124 1047.98 37.5051 1047.39 37.3184L1040.32 35.0476L1030.21 83.0254C1029.9 84.4771 1029.64 86.0843 1029.43 87.7952C1029.34 88.5625 1029.25 89.0395 1029.19 89.3091C1028.22 91.2067 1027.71 93.3427 1027.67 95.6861C1027.66 95.738 1027.64 96.1527 1027.43 97.1378L1025.94 104.23C1025.68 105.443 1025.53 106.47 1025.48 107.382C1024.97 109.757 1024.39 112.214 1023.75 114.682C1023.16 116.932 1022.69 119.203 1022.35 121.464C1022.29 120.821 1022.22 120.251 1022.13 119.753C1021.91 118.498 1021.76 117.233 1021.7 116.01C1021.6 114.236 1021.35 112.204 1020.96 109.985C1020.62 108.067 1020.38 106.014 1020.25 103.878C1020.09 101.244 1019.79 98.6724 1019.35 96.2357L1014.61 69.5456C1014.57 68.3946 1014.47 67.0052 1013.93 65.6987C1013.92 65.6779 1012.77 59.1869 1012.77 59.1869L1007.67 61.1985C1006.58 61.634 1005.88 61.8102 1005.5 61.8828C1005.24 61.9347 1005.1 61.945 1005.06 61.945C1003.82 61.9658 1002.93 62.0384 1002.24 62.1732L997.757 63.0338C995.949 63.376 994.241 63.8322 992.682 64.3922C992.413 64.4855 992.143 64.5581 991.893 64.6099C991.404 64.7032 990.945 64.7136 990.485 64.641L989.826 64.5477L984.262 65.6157L984.702 70.6136C984.912 72.9881 985.321 75.5908 985.91 78.3386C986.41 80.6613 986.829 82.984 987.139 85.2237L987.159 85.3481L988.398 92.3473C988.787 94.5144 989.137 96.7438 989.446 98.9939V99.0664C990.415 105.526 991.224 110.566 991.834 114.05L992.902 120.012C992.962 121.308 993.042 122.625 993.142 123.932C993.202 124.782 993.182 125.798 993.092 126.959C992.892 127.83 992.712 128.961 992.523 130.474C992.353 131.843 992.233 132.922 992.153 133.689C991.863 135.058 991.524 136.167 991.144 136.986C990.875 137.557 990.285 138.542 989.037 139.952L988.827 140.18C988.827 140.18 988.787 140.221 988.757 140.242C988.118 140.698 987.499 141.175 986.909 141.663C986.37 142.109 985.91 142.472 985.501 142.783C985.371 142.876 985.291 142.949 985.221 142.99L982.944 144.089L982.884 144.12C982.684 144.224 982.444 144.307 982.155 144.359C982.065 144.379 981.975 144.39 981.865 144.4C981.605 144.442 981.346 144.473 981.096 144.494C980.637 144.545 980.197 144.576 979.788 144.587H979.678L975.792 144.97L974.274 145.261H974.264C973.035 145.136 971.957 144.919 971.038 144.618C970.928 144.587 970.818 144.545 970.708 144.494C970.009 144.245 969.31 143.871 968.611 143.394L968.521 143.343C966.913 142.306 965.354 141.383 963.866 140.584C963.327 140.294 962.887 139.89 962.508 139.33C962.168 138.635 961.779 137.93 961.349 137.235C960.88 136.457 960.37 135.773 959.821 135.172C959.761 135.016 959.671 134.819 959.571 134.55C959.112 133.326 958.612 132.071 958.113 130.817C957.643 129.655 957.234 128.556 956.884 127.54C956.615 126.762 956.495 126.389 956.455 126.244L956.375 125.788L956.155 125.207C955.406 123.247 954.867 121.443 954.547 119.846C954.167 117.98 953.768 115.896 953.338 113.469L951.85 105.112C951.481 103.007 951.141 100.829 950.841 98.6309C950.512 96.2875 950.212 94.2863 949.902 92.5339C949.653 90.149 949.413 87.9715 949.163 86.0532C948.894 84.0001 948.574 81.9367 948.214 79.9043C948.115 79.334 947.965 78.6393 947.755 77.7579C947.425 76.4203 946.836 75.2279 946.047 74.2428L946.406 73.631L943.73 69.8359C942.221 67.6895 940.344 65.8438 938.146 64.3299C936.498 63.2101 935.06 62.2561 933.741 61.4266L930.195 59.1972C928.507 58.1292 926.729 56.9368 924.902 55.6303C923.004 54.2823 921.176 52.955 919.438 51.7004C917.77 50.4975 916.701 49.7406 915.992 49.274C914.404 47.9986 912.596 46.7336 910.628 45.4996C910.129 45.1782 909.609 44.8568 909.06 44.5353C906.733 43.1459 904.785 41.9534 903.267 40.9994L903.117 40.9061L902.967 40.8232C902.388 40.5017 901.818 40.1596 901.269 39.8174C899.921 38.9671 898.662 38.0443 897.493 37.0696C896.375 36.126 895.166 35.255 893.908 34.4565C892.419 33.5233 890.831 32.6834 889.163 31.9576C888.993 31.885 888.634 31.6984 888.005 31.3043C887.705 31.1177 887.385 30.8999 887.026 30.6511C886.516 30.3089 886.017 29.9771 885.547 29.6764C884.519 29.0231 883.53 28.4839 882.611 28.0484L882.431 27.9655L882.241 27.8929C881.502 27.6026 880.763 27.2189 880.034 26.7627C879.844 26.6382 879.644 26.5138 879.445 26.3686C878.186 25.4976 876.987 24.637 875.899 23.7971L875.649 23.6001L870.575 20.4064L868.208 20.7278C864.881 21.1737 862.974 22.8535 861.975 24.16C861.465 24.8236 860.986 25.5391 860.557 26.2857L859.847 27.4885L859.648 28.878C859.568 29.4275 859.298 29.9771 858.829 30.5785C856.551 33.4922 855.413 36.4889 855.463 39.5167L855.512 43.4154L858.729 45.4374C860.267 46.4121 861.915 47.3557 863.613 48.2474C864.242 48.5793 864.852 48.9318 865.421 49.2947C865.98 49.6473 866.52 50.0206 867.029 50.3939L867.099 50.4561L867.179 50.5079C869.256 51.9907 871.054 53.2039 872.493 54.1164L876.218 56.4598C877.497 57.2582 878.855 58.0774 880.244 58.8654C881.602 59.6431 883.35 60.6178 885.587 61.8621L885.667 61.9036L885.747 61.945C886.556 62.3598 887.425 62.8575 888.314 63.4278C888.754 63.6974 889.213 63.9981 889.653 64.2988C888.983 65.3668 888.404 66.4349 887.945 67.4925C887.445 68.602 886.926 69.7634 886.386 70.9351L886.336 71.0388C885.517 72.9156 884.409 74.979 883.07 77.1669C881.602 79.531 880.373 81.5738 879.405 83.2225C877.776 85.7318 876.328 88.2929 875.09 90.8437C874.111 92.8761 872.932 94.9603 871.584 97.0341L871.484 97.1793L869.456 100.653C868.717 101.908 868.168 102.716 867.808 103.204C866.53 104.718 865.391 106.429 864.412 108.274C863.793 109.436 863.203 110.597 862.664 111.717C860.906 113.49 859.318 115.45 857.95 117.523C856.891 119.12 855.522 120.81 853.874 122.573C852.596 123.672 851.407 125.031 850.239 126.69C850.049 126.949 849.899 127.125 849.789 127.229C848.78 127.592 847.821 128.069 846.932 128.65C846.413 128.992 845.724 129.417 844.875 129.894C844.385 130.184 843.466 130.661 841.858 131.325C840.6 131.854 838.802 132.413 836.535 132.984L836.055 133.108L835.606 133.295C833.958 133.99 832.349 134.031 830.561 133.43C828.873 132.87 827.275 132.123 825.817 131.2C825.088 130.744 824.379 130.236 823.729 129.707L821.312 127.716C820.224 126.721 819.245 125.808 818.326 124.917C817.527 124.17 816.798 123.382 816.148 122.584L816.038 122.459C814.95 121.184 814.021 120.012 813.252 118.954C812.323 117.679 812.023 117.119 811.973 117.015L810.375 113.853C810.944 113.594 811.544 113.324 812.163 113.044C814.59 111.966 816.877 110.69 818.975 109.28C821.342 107.745 823.719 106.242 826.047 104.832C828.534 103.318 831.001 101.762 833.378 100.207L846.283 92.5858C847.442 92.0154 848.6 91.4037 849.729 90.7504C850.488 90.3149 851.297 89.9416 852.126 89.6306L853.964 88.9566L854.853 87.7952C854.933 87.7434 855.033 87.6915 855.153 87.6086C855.862 87.1938 856.481 86.779 857.031 86.3539C858.169 85.9392 859.408 85.2444 860.427 83.9172C862.305 81.4701 862.005 78.7119 861.865 77.3846L861.545 74.4813L849.05 64.1329L848.011 64.2677C846.013 63.4278 843.766 63.4693 841.659 64.4336L831.56 68.8612L827.835 71.1113C827.655 71.215 827.135 71.495 825.997 71.972C824.918 72.4282 823.829 72.8533 822.761 73.2474L819.155 74.5746C818.605 74.7716 818.096 74.979 817.607 75.1968L817.557 75.176C817.457 75.1138 816.977 74.8442 815.739 73.9939C815.589 73.8799 815.459 73.7969 815.359 73.714C814.61 72.5008 813.781 71.5365 812.852 70.7588C812.143 70.1677 811.374 69.7011 810.555 69.3693C810.485 69.3175 810.325 69.2034 810.075 68.996L808.967 68.0836C805.451 65.1698 802.744 62.9716 800.686 61.3644C798.529 59.6742 796.901 58.4195 795.702 57.5174C794.404 56.5324 793.415 55.8169 792.716 55.3399C792.256 55.0288 791.847 54.7178 791.477 54.4171L787.681 51.2752C787.272 50.9331 786.912 50.5909 786.613 50.2591C786.203 49.751 785.744 49.2429 785.254 48.7348C785.284 47.9779 785.294 47.1276 785.264 46.1633C785.654 44.6494 785.784 42.8659 785.704 40.6676C785.654 39.5581 785.694 38.9878 785.704 38.7597L785.774 38.5834L785.904 37.9302C786.023 37.3703 786.133 36.8103 786.253 36.2504C786.333 35.8356 786.463 35.3483 786.613 34.7987L786.763 34.301L786.832 33.7826C787.262 30.6926 787.452 27.8722 787.412 25.425C787.382 24.0356 787.522 22.7913 787.821 21.7129L789.06 17.192L785.514 14.2575C784.875 13.7287 784.106 13.1377 783.157 12.4637C782.538 12.0178 781.798 11.4475 780.959 10.7528L778.262 8.52341C778.262 8.52341 778.143 8.41971 777.913 8.13975C777.184 7.23764 776.375 6.41848 775.506 5.70301L769.013 0.331811L765.228 8.00495C764.628 9.20777 764.179 10.5454 763.869 12.0904C763.749 12.6814 763.59 13.2413 763.41 13.7494L763.29 14.102L763.2 14.4753C762.85 15.9373 762.481 17.2646 762.091 18.4674C761.602 20.002 761.212 21.5988 760.933 23.2061C760.763 23.7867 760.593 24.3674 760.413 24.9792C760.233 25.6324 760.044 26.2857 759.854 26.9389C759.305 28.5358 758.895 30.1741 758.635 31.8228C758.476 32.839 758.266 33.8862 757.996 34.9439C757.237 37.5673 756.458 39.9211 755.679 41.9534C754.75 44.3798 753.831 47.1587 752.932 50.2279L752.762 50.8397L752.692 51.4722C752.592 52.3744 752.423 53.2661 752.173 54.1475C751.883 55.1844 751.544 56.2731 751.144 57.393L751.004 57.7974L749.166 65.8957L746.11 74.1495L746.04 74.4087C745.96 74.699 745.85 74.9686 745.72 75.2382C745.121 76.4514 744.732 77.7372 744.562 79.0644C744.132 80.4643 743.683 81.9367 743.143 83.6372C742.814 84.6949 742.095 86.7687 740.506 90.6571L740.457 90.7608L740.427 90.8645C739.588 93.1146 738.749 95.4165 737.939 97.7081C737.1 100.083 736.371 102.281 735.782 104.23L735.752 104.334C735.303 105.889 734.983 106.781 734.793 107.289C734.254 108.72 733.964 109.954 733.894 111.105L733.555 113.044L732.596 115.916C732.586 115.232 732.566 114.454 732.526 113.562C732.526 113.158 732.486 112.64 732.406 111.769C732.336 111.063 732.266 110.358 732.196 109.622C732.156 109.145 732.126 108.658 732.126 108.191C732.396 107.227 732.526 106.294 732.526 105.412V101.213C732.526 99.8441 732.496 98.4339 732.426 97.0134C732.366 96.0179 732.396 95.0018 732.496 93.9856C732.666 92.6998 732.706 91.4348 732.616 90.1905C732.576 89.6928 732.596 89.1536 732.676 88.5833L732.735 88.21V59.9957C732.735 58.5647 732.136 55.0703 726.603 53.5564C725.065 53.1417 723.316 52.9447 721.279 52.9447C719.561 52.9447 717.943 52.9758 716.474 53.038C716.315 53.0484 716.165 53.0483 716.015 53.0483C715.486 53.0483 715.266 52.9965 715.266 52.9965L714.747 52.8617L714.197 52.8099C713.378 52.7165 712.629 52.6751 711.91 52.6751C711.021 52.6751 710.212 52.7373 709.393 52.8824C707.315 53.2557 705.347 53.5979 703.699 55.06L702.581 56.0554L702.071 57.3826C701.702 58.347 701.512 59.4046 701.512 60.5348V61.0637C701.512 62.505 701.552 63.9359 701.622 65.3357C701.692 66.7045 701.792 68.0524 701.921 69.3693V74.3569C702.051 76.918 702.121 79.22 702.121 81.2316V87.3908C702.121 89.4646 702.161 91.5385 702.221 93.5397C702.291 95.5202 702.321 97.7392 702.321 100.145C702.321 100.58 702.291 100.788 702.291 100.788C702.181 101.493 702.121 102.27 702.121 103.173V103.525C702.261 105.485 702.361 107.497 702.431 109.498C702.491 111.561 702.531 113.635 702.531 115.667V121.329C702.251 123.206 702.181 125.093 702.331 126.918C702.121 126.524 701.882 126.151 701.612 125.788L701.562 125.715C701.392 125.508 701.232 125.29 701.072 125.062L700.383 124.139L699.944 123.818L697.846 120.966L687.069 123.786L686.789 123.89C685.501 124.398 684.062 124.865 682.504 125.269C681.705 125.477 680.866 125.674 679.987 125.86C677.52 126.389 675.093 126.638 672.785 126.617H672.116L661.998 129.261C660.839 129.147 659.721 129.23 658.662 129.51C658.152 129.645 657.643 129.821 657.164 130.049C657.114 130.039 657.054 130.039 656.974 130.018L655.815 129.8L652.829 130.578C652.299 128.173 651.001 122.335 651.001 122.335C650.312 119.265 649.652 116.3 649.023 113.428C648.344 110.379 647.864 108.316 647.535 106.926L647.325 106.076L647.015 105.433C646.975 105.319 646.896 105.049 646.766 104.521L645.058 97.4903C644.668 95.8831 644.249 94.5766 643.789 93.4982L643.769 93.4568C643.749 93.4049 643.739 93.3738 643.729 93.3427L643.759 92.8761L643.689 92.1917C643.54 90.7297 643.16 89.0706 642.481 86.9761C642.071 85.7421 641.742 84.5912 641.492 83.5646L638.366 70.7173C638.206 70.0433 638.066 69.2967 637.956 68.4568C637.796 67.2229 637.546 65.6883 637.237 63.8841C636.927 62.0695 636.518 59.8609 636.018 57.2997C635.489 54.5933 634.74 51.2649 633.801 47.4076L629.436 29.4068L625.281 28.7224C623.543 28.4321 621.915 28.4943 620.426 28.878C619.528 29.1165 618.509 29.469 617.31 29.9667C616.921 30.1223 615.892 30.4955 613.445 31.1384C612.286 31.3769 611.097 31.6465 609.899 31.968C608.66 32.2894 607.372 32.6627 606.063 33.0774C604.944 33.4404 603.936 33.7411 603.067 33.9692C602.278 34.1766 601.598 34.3217 601.059 34.4047L594.656 35.4209L597.933 48.9007C596.924 48.8385 595.995 48.7555 595.166 48.6518L591.75 48.2371C590.601 48.1023 589.453 47.9882 588.334 47.9156C587.225 47.8327 585.987 47.7186 584.658 47.5527C584.418 47.5216 584.309 47.4801 584.299 47.4801C583.919 47.335 583.489 47.2313 582.99 47.1691H582.89L582.8 47.1587C581.702 47.138 580.573 47.0861 579.454 47.0135C578.306 46.9306 577.157 46.8165 576.028 46.6817L572.892 46.2981C571.833 45.9144 570.764 45.7381 569.706 45.7485C568.877 45.7485 568.037 45.707 567.218 45.6033L564.452 45.2715H564.362C563.193 45.2404 562.015 45.1782 560.866 45.0952C559.687 45.0123 558.479 44.8982 557.29 44.7531L557.17 44.7323L550.068 44.7634L545.773 44.2346L544.385 62.1628L544.425 62.8783C544.505 64.0707 544.705 65.2113 545.024 66.2793L545.044 66.3208C545.674 68.3739 546.772 69.6389 548.041 69.7945C549 69.9085 549.859 69.9811 550.598 70.0018C551.177 70.0226 552.356 70.1366 554.094 70.3544L558.159 70.8417C559.418 70.9973 560.626 71.1735 561.775 71.3706C563.043 71.5883 564.352 71.7231 565.67 71.7646C566.679 71.8786 567.708 71.8994 568.737 71.8372C569.476 71.7853 570.205 71.8475 570.924 72.0342H570.944C570.944 72.0342 570.974 72.0549 570.994 72.0653C571.633 72.5112 572.462 72.76 575.169 72.9156C575.389 72.9363 575.689 72.9467 576.178 72.9259C576.568 72.9156 576.967 72.9052 577.377 72.8948C577.646 72.8948 577.916 72.9052 578.176 72.9259H578.186C578.695 73.2266 579.204 73.4133 579.694 73.4755L582.021 73.7554C582.78 73.8488 583.569 73.911 584.368 73.9421C584.918 73.9628 585.477 74.0562 586.036 74.2117C586.736 74.4502 587.445 74.5746 588.134 74.5746C588.414 74.5746 588.713 74.6265 589.023 74.7405L589.223 74.8131L604.685 76.7003L606.223 83.0358C606.573 84.4771 607.022 86.0429 607.561 87.6708C607.791 88.407 607.921 88.8736 607.981 89.1432C607.991 91.2689 608.46 93.4153 609.379 95.541C609.399 95.5928 609.549 95.9868 609.789 96.9615L611.497 103.992C611.787 105.195 612.086 106.19 612.416 107.04C612.985 109.394 613.524 111.862 614.024 114.361C614.623 117.358 615.392 120.313 616.321 123.144L618.978 135.535L619.008 135.649C619.378 137.194 619.877 138.645 620.476 139.983L620.267 140.823L621.156 144.494H576.048C576.178 144.193 576.318 143.892 576.458 143.581C577.287 141.715 578.296 139.796 579.444 137.878C580.863 135.514 582.121 133.108 583.17 130.744L594.706 104.728C595.346 103.722 596.085 102.457 596.365 100.985C596.374 100.964 599.171 94.6388 599.171 94.6388L593.288 93.0109C592.029 92.6687 591.28 92.368 590.881 92.171C590.621 92.0466 590.481 91.9636 590.441 91.9325C589.293 91.1445 588.434 90.6156 587.725 90.2734L583.09 88.0648C581.212 87.1627 579.374 86.4369 577.606 85.8873C577.307 85.794 577.017 85.6799 576.757 85.5555C576.258 85.317 575.818 85.0267 575.439 84.6534L574.89 84.1453L569.136 81.3975L566.569 85.9703C565.351 88.1478 564.172 90.6467 563.083 93.3945C562.154 95.7172 561.156 97.9673 560.107 100.103L560.047 100.217L557.03 107.04C556.091 109.145 555.083 111.292 554.034 113.428L554.004 113.49C551.037 119.67 548.77 124.512 547.272 127.903L544.695 133.71C543.986 134.871 543.276 136.043 542.577 137.235C542.138 138.002 541.518 138.863 540.739 139.796C540.03 140.418 539.191 141.258 538.112 142.44C537.373 143.26 536.754 143.944 536.265 144.494C536.125 144.659 535.985 144.805 535.865 144.95C534.776 145.935 533.807 146.661 532.978 147.107C532.379 147.428 531.25 147.884 529.263 148.268L528.943 148.33H528.843C527.984 148.299 527.125 148.299 526.296 148.33C525.537 148.361 524.898 148.372 524.328 148.372C524.159 148.372 524.039 148.361 523.959 148.361L521.202 147.801H521.132C520.892 147.749 520.613 147.656 520.323 147.521C520.233 147.469 520.133 147.428 520.033 147.366C519.274 146.951 518.595 146.547 518.006 146.153L517.906 146.08L515.199 144.494L514.1 143.851L512.532 143.104C511.473 142.181 510.604 141.279 509.945 140.418C509.366 139.672 508.856 138.78 508.437 137.774L508.397 137.671C507.528 135.732 506.639 133.907 505.75 132.248C505.43 131.646 505.261 131.014 505.251 130.277C505.351 129.458 505.41 128.598 505.44 127.716C505.46 126.742 505.4 125.819 505.251 124.948C505.291 124.771 505.331 124.543 505.4 124.243C505.7 122.895 506 121.495 506.279 120.085C506.539 118.778 506.819 117.575 507.099 116.476C507.308 115.626 507.428 115.222 507.478 115.076L507.678 114.63L507.818 113.988C508.297 111.82 508.866 109.913 509.526 108.326C510.295 106.48 511.174 104.438 512.223 102.073L515.828 93.9337C516.737 91.8807 517.716 89.7861 518.755 87.7019C519.854 85.4829 520.753 83.575 521.522 81.8641C522.72 79.6555 523.789 77.6231 524.698 75.8189C525.677 73.8903 526.616 71.9098 527.495 69.9189C527.734 69.3693 528.014 68.6746 528.344 67.7829C529.143 65.5535 529.103 63.1997 528.224 61.157L527.055 58.4403L524.298 58.1396C523.689 58.067 523.16 57.9218 522.69 57.7041C522.58 57.6522 522.471 57.59 522.351 57.5174C521.332 56.916 520.253 56.2213 519.125 55.4436L518.815 55.2362L518.475 55.0703C518.246 54.9563 517.726 54.6659 516.857 53.9608C515.609 52.9447 514.14 52.0322 512.502 51.2545C512.003 51.016 511.404 50.7671 510.654 50.4872C509.945 50.2279 509.216 49.9998 508.457 49.7925C507.948 49.6577 507.518 49.5332 507.158 49.4088H507.128C506.469 49.1807 504.721 48.6104 502.764 49.471L500.696 50.3835L489.04 76.6899C487.981 78.0068 487.092 79.7177 486.333 81.8745C485.703 83.6683 485.244 85.0059 484.884 86.0532L482.457 91.5281C482.148 92.2332 481.848 92.8761 481.548 93.4671C481.079 90.2838 480.17 87.1835 478.861 84.2594L478.792 84.1142L478.722 83.9794C477.733 81.9989 476.834 79.9458 476.065 77.8616C475.126 75.3108 474.017 72.76 472.779 70.2818L472.689 70.1055L472.589 69.9396C471.92 68.7679 471.29 67.337 470.721 65.6779C470.052 63.7389 469.293 61.945 468.464 60.3275C468.204 58.7928 467.734 57.3412 467.075 55.9932C466.506 54.8422 465.847 53.6083 465.097 52.3018C464.628 51.4826 464.458 51.0471 464.398 50.8812C464.019 49.8339 463.509 48.7452 462.85 47.5527C461.851 45.2715 460.822 43.0733 459.804 41.0098C458.835 39.0604 457.786 37.0799 456.667 35.0994C456.278 34.0003 455.728 33.0256 455.249 32.1961L451.653 25.9124C451.823 25.7569 452.003 25.6117 452.173 25.4665C454.4 23.5897 455.049 23.1646 455.109 23.1231L459.914 20.1679L458.046 14.693C457.586 13.3554 456.957 12.1215 456.178 11.0431L456.158 11.012C455.958 10.7424 455.778 10.4624 455.629 10.2032L449.795 0L445.301 0.663623C442.774 1.04728 440.316 1.89755 437.999 3.20405C436.271 4.17875 434.783 5.04975 433.464 5.86891L429.888 8.06717C428.19 9.11445 426.343 10.1825 424.375 11.2401C422.337 12.3392 420.35 13.3969 418.462 14.4027C416.654 15.3566 415.515 15.9788 414.776 16.4143C412.948 17.2749 411.03 18.3326 409.053 19.5458C408.543 19.8672 408.024 20.1887 407.495 20.5308C405.217 22.0136 403.29 23.2475 401.761 24.1808L401.621 24.2741L401.472 24.3778C400.922 24.7511 400.363 25.114 399.814 25.4562C398.465 26.2857 397.087 27.0115 395.708 27.6233C394.38 28.204 393.061 28.8987 391.803 29.6868C390.305 30.5992 388.846 31.6673 387.448 32.8493C387.298 32.9738 386.979 33.2226 386.349 33.6063C386.05 33.7929 385.71 33.9899 385.33 34.1973C384.801 34.498 384.282 34.7987 383.802 35.0891C382.773 35.7319 381.845 36.3748 381.045 37.0177L380.886 37.1421L380.736 37.2769C380.137 37.8161 379.467 38.3242 378.738 38.7701C378.538 38.8945 378.339 39.0086 378.129 39.1226C376.79 39.8796 375.492 40.5639 374.273 41.1654L373.984 41.3002L368.88 44.4524L368.041 46.7647C366.862 50.0309 367.391 52.5714 368.031 54.0956C368.36 54.8733 368.74 55.6406 369.169 56.3976L369.858 57.6004L370.947 58.4507C371.377 58.7721 371.716 59.2802 372.006 59.9957C373.404 63.4486 375.432 65.906 378.019 67.2851L381.365 69.0686L384.591 67.0778C386.14 66.1238 387.718 65.0558 389.276 63.9255C389.855 63.5004 390.444 63.1064 391.014 62.7538C391.583 62.4117 392.152 62.0902 392.712 61.7999L392.792 61.7584L392.872 61.7169C395.119 60.5037 396.987 59.4357 398.445 58.544L402.191 56.2317C403.469 55.4436 404.798 54.583 406.126 53.6705C407.425 52.7995 409.083 51.6589 411.19 50.1865L411.26 50.1346L411.33 50.0828C412.069 49.5332 412.898 48.9837 413.797 48.4237C414.237 48.1541 414.706 47.8742 415.176 47.6149C415.755 48.7244 416.394 49.7613 417.073 50.6738C417.793 51.6589 418.532 52.6854 419.281 53.7223L419.341 53.8157C420.549 55.454 421.788 57.4345 423.007 59.6949C424.335 62.1524 425.494 64.2366 426.433 65.8957C427.801 68.5709 429.299 71.1113 430.887 73.434C432.156 75.2901 433.364 77.3535 434.493 79.5622L434.573 79.7177L436.571 83.2121C437.3 84.4771 437.729 85.3689 437.969 85.9184C438.658 87.8056 439.567 89.6513 440.676 91.4141C441.385 92.5339 442.084 93.6123 442.783 94.6388C443.473 97.0859 444.382 99.4605 445.51 101.69C446.359 103.411 447.158 105.464 447.878 107.797C448.217 109.477 448.806 111.209 449.675 113.065C449.805 113.355 449.885 113.583 449.925 113.728C449.755 114.827 449.705 115.927 449.785 117.015C449.835 117.648 449.865 118.488 449.875 119.483C449.885 120.064 449.855 121.132 449.675 122.926C449.526 124.326 449.156 126.223 448.577 128.587L448.457 129.075L448.407 129.572C448.217 131.408 447.498 132.901 446.15 134.27C444.881 135.545 443.493 136.654 442.024 137.567C441.295 138.013 440.526 138.428 439.767 138.77L436.95 140.045C435.582 140.574 434.343 141.041 433.165 141.466C432.146 141.839 431.137 142.14 430.148 142.368L429.988 142.399C428.4 142.803 426.962 143.104 425.703 143.311C424.185 143.56 423.566 143.571 423.456 143.571H420.659L418.362 139.921C417.653 138.79 416.754 137.733 415.615 136.675C415.176 136.271 414.786 135.856 414.447 135.452L414.217 135.161L413.947 134.892C412.898 133.855 411.959 132.859 411.15 131.926C410.102 130.723 408.963 129.583 407.754 128.535C407.355 128.1 406.945 127.654 406.516 127.187C406.066 126.7 405.617 126.213 405.167 125.715C404.099 124.429 402.93 123.247 401.681 122.2C400.902 121.557 400.133 120.842 399.374 120.085C397.556 118.104 395.968 116.238 394.65 114.527C393.081 112.494 391.204 110.286 389.076 107.963L388.657 107.507L388.157 107.123C387.448 106.594 386.789 105.993 386.179 105.34C385.45 104.572 384.701 103.712 383.962 102.81L383.692 102.488L377.829 96.8163L372.415 89.9831L372.236 89.7965C372.036 89.5683 371.856 89.3402 371.696 89.0914C370.977 87.9508 370.098 86.9657 369.069 86.1569C368.111 85.0785 367.102 83.9483 365.933 82.621C365.214 81.8019 363.836 80.1221 361.358 76.7625L361.298 76.6692L361.229 76.5862C359.76 74.7198 358.242 72.8326 356.724 70.9662C355.156 69.0375 353.677 67.2955 352.329 65.792L352.259 65.709C351.18 64.5477 350.581 63.8115 350.251 63.3863C349.322 62.1939 348.443 61.3333 347.505 60.7008L346.046 59.4357L339.164 51.2856L334.759 46.0907L333.741 44.9293L331.633 42.0053L331.553 41.9327C330.994 40.8335 330.225 39.8277 329.256 38.936L326.109 36.0223L313.554 41.2379C313.065 41.4453 312.575 41.6734 312.076 41.9327L313.874 29.7179C314.054 28.4736 313.914 25.3732 308.64 23.1957C307.162 22.5943 305.464 22.1484 303.446 21.827C301.748 21.5574 300.15 21.3293 298.691 21.153C298.532 21.1322 298.382 21.1115 298.242 21.0908C297.713 21.0078 297.503 20.9249 297.503 20.9249L297.003 20.7278L296.474 20.593C295.675 20.396 294.936 20.2405 294.217 20.1264C293.338 19.9813 292.529 19.9087 291.71 19.9087C289.612 19.8983 287.624 19.8879 285.806 20.8937L284.568 21.5677L283.899 22.6358C283.409 23.4134 283.09 24.2948 282.95 25.2695L282.88 25.7361C282.7 26.97 282.55 28.2143 282.44 29.4379C282.33 30.62 282.261 31.8021 282.221 32.953L281.601 37.1421V37.2666C281.402 39.4856 281.172 41.4868 280.912 43.2184L280.133 48.5274C279.863 50.3213 279.634 52.1151 279.454 53.8571C279.264 55.5784 279.014 57.4967 278.705 59.5705C278.655 59.9542 278.595 60.1201 278.595 60.1201C278.395 60.7111 278.235 61.3747 278.125 62.1524L278.095 62.308V62.4531C277.966 64.164 277.806 65.9164 277.616 67.6584C277.426 69.4419 277.187 71.2358 276.937 72.9985L276.208 77.8824C275.688 79.4999 275.379 81.159 275.299 82.8077C275.229 84.1038 275.099 85.4103 274.909 86.6961L274.28 90.9889V91.1341C274.13 92.9487 273.96 94.784 273.76 96.5779C273.561 98.4236 273.311 100.29 273.041 102.146L273.011 102.333L272.402 113.417L271.413 120.095L291.789 123.33L292.618 123.309C293.987 123.258 295.305 123.009 296.554 122.573L296.604 122.552C299.001 121.681 300.549 120.043 300.839 118.073C301.059 116.569 301.218 115.242 301.318 114.091C301.388 113.179 301.628 111.354 302.028 108.647L302.956 102.333C303.246 100.383 303.556 98.4961 303.885 96.723C304.245 94.7529 304.515 92.7206 304.674 90.6571C304.904 89.0914 305.024 87.4842 305.034 85.8769C305.044 84.726 305.184 83.5854 305.464 82.4759V82.4448C305.464 82.4448 305.493 82.3929 305.503 82.3722C305.993 81.5323 306.323 80.4746 306.682 77.5298C306.722 78.2142 306.782 78.8052 306.882 79.3444C306.982 79.9043 307.072 80.4435 307.132 80.9309C307.202 81.4701 307.281 82.1026 307.361 82.8284C307.401 83.2224 307.471 84.0416 307.521 85.7525L307.381 98.7139C307.321 100.466 307.411 102.27 307.651 104.044C307.811 105.309 307.931 106.511 308.001 107.652C308.17 110.721 308.061 111.914 308.021 112.214C307.841 113.645 307.761 114.827 307.861 115.937C307.851 116.248 307.801 116.829 307.701 117.855C307.511 119.836 307.521 122.107 307.741 124.792C307.601 126.42 307.421 128.297 307.212 130.36C306.912 133.087 306.842 135.783 306.992 138.376C307.082 140.429 307.142 142.482 307.182 144.494C307.202 145.323 307.221 146.142 307.231 146.951C307.231 147.117 307.231 147.283 307.241 147.449C306.832 146.505 306.273 145.644 305.563 144.877L305.503 144.805C305.404 144.701 305.304 144.597 305.214 144.494C305.114 144.4 305.024 144.296 304.934 144.203L304.135 143.332L303.616 143.063L301.169 140.408L289.083 144.411L288.893 144.494L288.773 144.545C287.335 145.199 285.717 145.81 283.969 146.391C283.07 146.692 282.121 146.982 281.142 147.262C278.365 148.05 275.628 148.569 273.031 148.797L272.262 148.869L260.915 152.623C259.607 152.623 258.348 152.83 257.16 153.224C256.58 153.411 256.011 153.649 255.482 153.929C255.422 153.929 255.352 153.929 255.262 153.919L253.954 153.815L250.597 154.925C249.928 152.561 248.3 146.806 248.3 146.806C248.08 146.028 247.861 145.25 247.651 144.494C247.022 142.285 246.412 140.149 245.823 138.044C244.974 135.037 244.385 133.005 243.965 131.636L243.716 130.806L243.346 130.184C243.296 130.08 243.196 129.811 243.036 129.292L240.919 122.387C240.429 120.81 239.93 119.535 239.371 118.488L239.351 118.457C239.351 118.457 239.311 118.374 239.301 118.343L239.321 117.876L239.231 117.192C239.021 115.719 238.542 114.102 237.712 112.059C237.223 110.856 236.814 109.726 236.514 108.72L232.638 96.1009C232.429 95.4373 232.259 94.6907 232.109 93.8611C231.889 92.6376 231.57 91.1133 231.17 89.3299C230.771 87.5256 230.241 85.3378 229.612 82.8077C228.943 80.1428 228.014 76.8662 226.845 73.0711L221.412 55.3814L216.707 55.1429C214.739 55.0392 212.901 55.2673 211.223 55.8169C210.215 56.1591 209.086 56.6153 207.737 57.2478C207.298 57.4552 206.159 57.9322 203.402 58.855C202.104 59.2076 200.776 59.612 199.427 60.0579C198.029 60.5245 196.58 61.0326 195.122 61.5925C193.864 62.0798 192.735 62.4946 191.766 62.8161C190.877 63.1064 190.118 63.3241 189.509 63.4693L182.297 65.1802L189.429 88.4174C188.71 88.3759 188.23 88.3137 187.921 88.2515C187.641 88.1893 187.501 88.1374 187.451 88.127C186.183 87.6397 185.254 87.339 184.505 87.1938L179.59 86.2088C177.603 85.8147 175.685 85.5762 173.887 85.4933C173.577 85.4829 173.278 85.4518 172.998 85.3896C172.469 85.2859 171.999 85.1096 171.55 84.8504L170.91 84.4771L164.827 83.2639L163.359 88.5522C162.66 91.0511 162.081 93.8819 161.631 96.9304C161.242 99.5019 160.772 102.042 160.233 104.469L160.203 104.593L158.785 112.256C158.345 114.62 157.846 117.046 157.296 119.473V119.545C155.778 126.534 154.659 132.009 153.96 135.815L152.752 142.337C152.522 143.052 152.302 143.768 152.082 144.494C151.873 145.136 151.683 145.79 151.493 146.443C151.223 147.324 150.824 148.361 150.284 149.512C149.735 150.321 149.116 151.389 148.347 152.861C147.647 154.189 147.108 155.236 146.739 155.982C145.909 157.268 145.14 158.264 144.441 158.927C143.942 159.404 142.963 160.172 141.145 161.094L140.845 161.24C140.845 161.24 140.785 161.26 140.756 161.26C139.926 161.468 139.107 161.696 138.318 161.955C137.599 162.183 136.99 162.37 136.451 162.515C136.291 162.556 136.171 162.588 136.091 162.608L133.344 162.785H133.274C133.035 162.816 132.745 162.785 132.435 162.733C132.335 162.722 132.245 162.691 132.126 162.66C131.317 162.453 130.577 162.225 129.938 161.986L129.818 161.945L125.703 160.721L124.045 160.389C122.836 159.757 121.818 159.083 120.989 158.398C120.279 157.797 119.6 157.04 118.981 156.148L118.921 156.055C117.672 154.334 116.434 152.737 115.225 151.316C114.786 150.798 114.496 150.207 114.326 149.471C114.236 148.62 114.107 147.749 113.947 146.858C113.797 146.018 113.587 145.219 113.308 144.494C113.278 144.369 113.228 144.245 113.178 144.12C113.178 143.934 113.178 143.695 113.178 143.374C113.168 141.943 113.148 140.45 113.118 138.967C113.088 137.588 113.088 136.302 113.118 135.12C113.138 134.218 113.168 133.782 113.178 133.616L113.278 133.119V132.434C113.258 130.122 113.397 128.058 113.687 126.296C114.017 124.243 114.416 121.941 114.906 119.286L116.604 110.151C117.033 107.849 117.513 105.485 118.052 103.11C118.621 100.591 119.081 98.4236 119.44 96.5156C120.11 93.9752 120.689 91.6422 121.178 89.5891C121.688 87.3908 122.157 85.1407 122.567 82.9217C122.687 82.2996 122.796 81.5323 122.916 80.5472C123.206 78.0897 122.657 75.736 121.378 73.9214L119.68 71.5157L116.973 71.9409C116.384 72.0445 115.845 72.0342 115.345 71.9409C115.225 71.9201 115.115 71.889 114.986 71.8475C113.887 71.5157 112.698 71.1113 111.46 70.6344L111.11 70.4996L110.75 70.427C110.511 70.3751 109.951 70.23 108.963 69.7426C107.554 69.0583 105.956 68.5398 104.228 68.1976C103.699 68.0939 103.069 68.0006 102.29 67.928C101.561 67.8554 100.812 67.8243 100.033 67.814C99.5236 67.8243 99.0841 67.8036 98.7245 67.7829H98.6945C98.0153 67.7414 96.2174 67.6377 94.5394 69.0271L92.7515 70.4996L91.6228 76.5862C91.7426 74.9272 91.7626 73.3407 91.6927 71.8372C92.0822 70.3336 92.2521 68.8198 92.2021 67.2955C92.1522 66.0097 92.0623 64.5995 91.9124 63.0856C91.8225 62.1421 91.8425 61.6754 91.8625 61.4888C91.9424 60.3793 91.9324 59.1661 91.8225 57.7974C91.8425 55.2984 91.8126 52.8513 91.7327 50.5287C91.6527 48.3408 91.5129 46.0803 91.3032 43.7991C91.403 42.6274 91.2932 41.5075 91.2033 40.5432L90.5141 33.2641C90.7338 33.2019 90.9536 33.15 91.1733 33.0878C93.9501 32.3723 94.7192 32.279 94.7891 32.2687L100.353 31.6984L100.892 25.9331C101.022 24.5022 100.952 23.1127 100.692 21.7959V21.7648C100.612 21.4226 100.562 21.1011 100.532 20.7901L99.4137 8.99002L95.0788 7.61092C92.6316 6.83324 90.0646 6.53254 87.4277 6.69844C85.46 6.82287 83.7619 6.95767 82.2337 7.11321L78.0985 7.53834C76.1308 7.73535 74.0133 7.88052 71.8059 7.97384C69.5085 8.07753 67.2712 8.16049 65.1636 8.23307C63.136 8.30565 61.8475 8.36787 60.9985 8.44045C58.9908 8.41972 56.8233 8.52341 54.526 8.75153C53.9367 8.81374 53.3374 8.88632 52.7181 8.95891C50.0512 9.30109 47.8039 9.57069 46.0459 9.74696L45.8661 9.7677L45.6963 9.78844C45.0471 9.89213 44.3878 9.97508 43.7586 10.0477C42.1904 10.2032 40.6522 10.255 39.1539 10.1928C37.7056 10.141 36.2373 10.1928 34.769 10.338C33.0411 10.5143 31.2831 10.8357 29.5351 11.292C29.3554 11.3438 28.9558 11.4268 28.2267 11.4993C27.8871 11.5304 27.4975 11.5616 27.068 11.5823C26.4587 11.6238 25.8694 11.6652 25.3201 11.7275C24.1215 11.8415 23.0127 12.0178 22.0339 12.2459L21.8341 12.2978L21.6443 12.3496C20.8852 12.5777 20.0762 12.7333 19.2272 12.8266C18.9974 12.8473 18.7677 12.8681 18.528 12.8784C17.0097 12.9718 15.5614 13.0132 14.203 13.0236H13.8934L7.98027 13.6354L6.27226 15.3566C3.87505 17.7934 3.31571 20.3234 3.27575 21.9929C3.25578 22.8328 3.28574 23.7038 3.36565 24.5748L3.4955 25.9746L4.13475 27.2189C4.38446 27.7063 4.49433 28.318 4.46437 29.0853C4.32453 32.8286 5.15356 35.9393 6.93149 38.3346L9.22881 41.4142L12.9744 41.0409C14.7624 40.8543 16.6302 40.5847 18.508 40.2425C19.1972 40.1181 19.8864 40.0144 20.5556 39.9522C21.2049 39.8796 21.8541 39.8485 22.4734 39.8381H22.5633L22.6532 39.8277C25.1802 39.7137 27.3177 39.5789 29.0058 39.4026L33.3407 38.9567C34.819 38.8116 36.3772 38.6146 37.9453 38.3761C39.4836 38.1479 41.4513 37.8472 43.9583 37.4428H44.0482L44.1281 37.4117C45.0171 37.2458 45.996 37.1007 47.0348 36.997C47.5442 36.9451 48.0835 36.9036 48.6129 36.8622C48.6928 38.1376 48.8526 39.3508 49.0924 40.481C49.3421 41.6838 49.5918 42.9385 49.8415 44.2139L49.8615 44.3279C50.281 46.3395 50.5906 48.6726 50.7804 51.2649C50.9802 54.0749 51.1699 56.4702 51.3497 58.3884C51.4896 61.4059 51.8192 64.3714 52.3086 67.1711C52.6981 69.4108 52.9479 71.8061 53.0677 74.305V74.4813L53.4573 78.5252C53.5971 79.9977 53.6271 80.9827 53.6171 81.5945C53.4772 83.6061 53.5472 85.6799 53.8268 87.7641C54.0066 89.081 54.2064 90.3771 54.4161 91.6111C54.0366 94.1307 53.8968 96.6815 54.0066 99.2012C54.0765 101.13 53.9667 103.339 53.657 105.775C53.2775 107.445 53.1077 109.27 53.1276 111.333C53.1376 111.655 53.1077 111.893 53.0877 112.049C52.4884 112.961 51.999 113.936 51.6194 114.952C51.3997 115.553 51.09 116.321 50.7005 117.233C50.4707 117.772 50.0013 118.726 49.1023 120.261C48.4032 121.464 47.2944 123.029 45.8062 124.906L45.4965 125.29L45.2468 125.725C44.3179 127.312 43.0594 128.338 41.2815 128.981C39.6134 129.583 37.8954 129.977 36.1974 130.153C35.3484 130.236 34.4894 130.267 33.6703 130.257L30.5839 130.163C29.1356 130.049 27.8271 129.925 26.5786 129.79C25.5098 129.676 24.4611 129.51 23.4822 129.272L23.3224 129.241C21.7243 128.898 20.2959 128.546 19.0673 128.173C17.5891 127.737 17.0297 127.467 16.9298 127.416L9.72823 123.88L7.49084 131.822C7.32104 132.445 7.04136 133.367 6.64183 134.622C6.21233 135.939 5.78283 137.245 5.34334 138.521C4.91384 139.744 4.49433 140.895 4.08481 141.932C3.94497 142.275 3.84509 142.513 3.77517 142.658L2.32686 144.494L0.369141 148V243H1244.37V148L1240.7 144.494ZM347.614 119.151C347.085 119.38 346.566 119.597 346.066 119.825C343.969 120.769 341.821 121.702 339.694 122.584C339.614 122.615 339.534 122.646 339.444 122.677C339.554 120.292 339.664 117.917 339.754 115.605V115.45L339.764 115.304C339.764 114.153 339.833 113.065 339.983 112.059C340.203 110.566 340.383 108.927 340.523 107.196L340.543 106.978C340.543 106.978 340.563 106.221 340.563 105.941C340.912 106.377 341.242 106.76 341.561 107.113L341.751 107.31L352.589 117.306C350.811 117.897 349.143 118.519 347.614 119.151ZM783.726 90.9682L783.596 91.0408L783.466 91.1237C782.508 91.6836 781.559 92.1606 780.64 92.5235C779.281 93.0627 777.823 93.7056 776.295 94.4418L776.115 94.5248C776.115 94.5248 775.466 94.8877 775.236 95.0121C775.426 94.4937 775.586 94.0063 775.715 93.5397L775.795 93.2701L778.802 78.5564C780.18 79.8629 781.519 81.0553 782.817 82.1337C783.257 82.4966 783.696 82.8492 784.136 83.1913C785.963 84.6223 787.801 86.0947 789.599 87.5775C789.659 87.6293 789.729 87.6915 789.799 87.7641C787.741 88.8321 785.714 89.9105 783.726 90.9682ZM1191.16 89.9001L1191.24 89.7757L1191.33 89.6513C1191.96 88.7077 1192.62 87.8574 1193.3 87.1212C1194.3 86.0221 1195.34 84.7882 1196.41 83.4402L1196.54 83.2847C1196.54 83.2847 1196.97 82.6625 1197.13 82.4448C1197.17 82.9943 1197.23 83.5128 1197.3 83.9898L1197.35 84.2697L1200.77 98.8902C1198.98 98.3302 1197.27 97.8533 1195.66 97.4696C1195.11 97.3348 1194.56 97.2104 1194.02 97.0963C1191.78 96.6401 1189.51 96.132 1187.28 95.5928C1187.2 95.5721 1187.11 95.5513 1187.02 95.5202C1188.42 93.633 1189.81 91.7459 1191.16 89.9001Z" fill="#EDE6C0"/>
</g>
<defs>
<clipPath id="clip0_517_853">
<rect width="1244" height="243" fill="white" transform="translate(0.369141)"/>
</clipPath>
</defs>
</svg>
