<svg width="25" height="24" viewBox="0 0 25 24" fill="none" xmlns="http://www.w3.org/2000/svg">
<g clip-path="url(#clip0_320_3732)">
<path d="M16.4926 2.24997H8.84063C6.80535 2.24997 4.85344 3.05848 3.41429 4.49763C1.97513 5.93679 1.16663 7.8887 1.16663 9.92397C1.16663 11.9592 1.97513 13.9112 3.41429 15.3503C4.85344 16.7895 6.80535 17.598 8.84063 17.598H9.66663V21.25C9.6666 21.35 9.69659 21.4478 9.75272 21.5306C9.80885 21.6135 9.88854 21.6775 9.98149 21.7146C10.0744 21.7516 10.1764 21.7599 10.2741 21.7384C10.3718 21.7169 10.4608 21.6666 10.5296 21.594L14.3146 17.594H16.4926C18.5279 17.594 20.4798 16.7855 21.919 15.3463C23.3581 13.9072 24.1666 11.9552 24.1666 9.91997C24.1666 7.8847 23.3581 5.93279 21.919 4.49363C20.4798 3.05448 18.5279 2.24597 16.4926 2.24597V2.24997Z" fill="#272934"/>
</g>
<defs>
<clipPath id="clip0_320_3732">
<rect width="24" height="24" fill="white" transform="translate(0.666626)"/>
</clipPath>
</defs>
</svg>
