<svg width="32" height="32" viewBox="0 0 32 32" fill="none" xmlns="http://www.w3.org/2000/svg">
<rect width="32" height="32" fill="black"/>
<path d="M26.24 2.56006H5.76C3.99552 2.56006 2.56 3.99558 2.56 5.76006V26.2401C2.56 28.0045 3.99552 29.4401 5.76 29.4401H26.24C28.0045 29.4401 29.44 28.0045 29.44 26.2401V5.76006C29.44 3.99558 28.0045 2.56006 26.24 2.56006ZM23.6838 14.2868C23.5386 14.3002 23.3914 14.3092 23.2422 14.3092C21.5635 14.3092 20.0883 13.4458 19.2301 12.1409C19.2301 15.5642 19.2301 19.4593 19.2301 19.5245C19.2301 22.5383 16.7866 24.9818 13.7728 24.9818C10.759 24.9818 8.31552 22.5383 8.31552 19.5245C8.31552 16.5108 10.759 14.0673 13.7728 14.0673C13.8867 14.0673 13.9981 14.0775 14.1101 14.0845V16.7738C13.9981 16.7604 13.888 16.7399 13.7728 16.7399C12.2342 16.7399 10.9875 17.9866 10.9875 19.5252C10.9875 21.0637 12.2342 22.3105 13.7728 22.3105C15.3114 22.3105 16.6701 21.0983 16.6701 19.5597C16.6701 19.4989 16.697 7.01958 16.697 7.01958H19.2672C19.5091 9.31782 21.3645 11.1316 23.6838 11.298V14.2868Z" fill="white"/>
</svg>
