<svg width="32" height="32" viewBox="0 0 32 32" fill="none" xmlns="http://www.w3.org/2000/svg">
<rect width="32" height="32" fill="black"/>
<path d="M28.735 9.28001C28.48 7.87251 27.265 6.84751 25.855 6.52751C23.745 6.08001 19.84 5.76001 15.615 5.76001C11.3925 5.76001 7.42501 6.08001 5.31251 6.52751C3.90501 6.84751 2.68751 7.80751 2.43251 9.28001C2.17501 10.88 1.92001 13.12 1.92001 16C1.92001 18.88 2.17501 21.12 2.49501 22.72C2.75251 24.1275 3.96751 25.1525 5.37501 25.4725C7.61501 25.92 11.455 26.24 15.68 26.24C19.905 26.24 23.745 25.92 25.985 25.4725C27.3925 25.1525 28.6075 24.1925 28.865 22.72C29.12 21.12 29.44 18.815 29.505 16C29.375 13.12 29.055 10.88 28.735 9.28001ZM12.16 20.48V11.52L19.9675 16L12.16 20.48Z" fill="white"/>
</svg>
